<?xml version="1.0" encoding="UTF-8"?>
<svg width="168px" height="85px" viewBox="0 0 168 85" version="1.1" xmlns="http://www.w3.org/2000/svg" xmlns:xlink="http://www.w3.org/1999/xlink">
    <!-- Generator: Sketch 63.1 (92452) - https://sketch.com -->
    <title>bmbf_bw</title>
    <desc>Created with Sketch.</desc>
    <g id="Page-1" stroke="none" stroke-width="1" fill="none" fill-rule="evenodd">
        <g id="bmbf_bw" transform="translate(-1.000000, 0.000000)" fill-rule="nonzero">
            <path d="M140.45599,9.85412117 C140.45599,10.4221652 140.322657,10.8245105 140.054964,11.0651252 C139.786151,11.3060705 139.474364,11.4261572 139.111897,11.4261572 C138.730711,11.4261572 138.401297,11.3060772 138.130271,11.0651252 C137.857044,10.8245105 137.720431,10.4221652 137.720431,9.85412117 C137.720431,9.28596785 137.857044,8.88152786 138.130271,8.6426772 C138.401297,8.40073988 138.720791,8.28241588 139.078844,8.28241588 C139.461137,8.28241588 139.786151,8.40073588 140.054964,8.6426772 C140.322684,8.88152786 140.45599,9.28596785 140.45599,9.85412117 L140.45599,9.85412117 Z M138.703164,4.6833373 C138.471804,4.6833373 138.272391,4.69843064 138.097217,4.73071064 C137.998017,4.67816397 137.901111,4.61239064 137.810777,4.53482664 C137.717177,4.45737331 137.634497,4.36483198 137.557377,4.25642265 C137.480311,4.14878265 137.417457,4.01757199 137.367884,3.87214532 C137.318284,3.72363466 137.295217,3.55154666 137.295217,3.356984 C137.295217,2.51439336 137.757937,2.0947507 138.686684,2.0947507 C139.484324,2.0947507 140.070431,2.2518547 140.45603,2.56297869 C140.836124,2.87366135 141.027817,3.23083734 141.027817,3.634616 C141.027817,4.01547865 140.90995,4.28528798 140.66535,4.44580798 C140.425177,4.60368397 140.105684,4.6833373 139.700257,4.6833373 L138.703164,4.6833373 Z M142.352044,11.2626625 L141.370417,11.2626625 C141.621604,10.8473172 141.747204,10.3790879 141.747204,9.85412117 C141.747204,9.43833452 141.680004,9.06562519 141.543377,8.73213587 C141.40567,8.39864654 141.21507,8.11759988 140.97159,7.88954522 C140.72371,7.65840523 140.435057,7.4849959 140.102337,7.36579057 C139.771831,7.24525724 139.413764,7.18367724 139.030377,7.18367724 C138.954377,7.18367724 138.882737,7.18367724 138.816644,7.18367724 C138.750511,7.18367724 138.681124,7.19154391 138.606217,7.20306391 C138.471804,7.14499724 138.337391,7.06017191 138.195271,6.93843325 C138.054257,6.82011325 137.983751,6.66212259 137.983751,6.46634793 C137.983751,6.30153193 138.044284,6.17020793 138.171031,6.06267994 C138.295564,5.96275994 138.500444,5.90899194 138.784684,5.90899194 L139.781737,5.90899194 C140.153017,5.90899194 140.498964,5.87109861 140.814044,5.79276528 C141.130244,5.71961861 141.40567,5.59787328 141.642537,5.42699728 C141.876097,5.25788396 142.05899,5.04271863 142.18899,4.78150263 C142.320057,4.51764264 142.38839,4.20133998 142.38839,3.83127466 C142.38839,3.40645333 142.296924,3.01787868 142.11847,2.66841469 C141.936697,2.3185107 141.682204,2.02071737 141.35499,1.76677204 C141.027777,1.51811605 140.630057,1.32013739 140.159631,1.17812673 C139.689204,1.03732806 139.166991,0.9663774 138.589684,0.9663774 C137.747977,0.9663774 137.110084,1.15014273 136.672711,1.51591205 C136.236431,1.87870671 136.018284,2.40587736 136.018284,3.09312534 C136.018284,3.38706267 136.068951,3.643212 136.172524,3.85496132 C136.275057,4.06792265 136.399484,4.25301065 136.541604,4.41220798 C136.682617,4.57140531 136.829151,4.69534797 136.975671,4.7887733 C137.122204,4.87911996 137.240084,4.95667463 137.326017,5.00823596 L137.326017,5.04271596 C136.987791,5.29357595 136.820337,5.65813328 136.820337,6.13925193 C136.820337,6.34582393 136.859937,6.52529326 136.943671,6.67931192 C137.025271,6.83079858 137.117737,6.95474125 137.221311,7.05455591 C137.323711,7.15271591 137.428431,7.23237324 137.531991,7.2926359 C137.636657,7.35158257 137.714871,7.39376924 137.767751,7.41394257 L137.767751,7.44754257 C137.365631,7.63263056 137.041724,7.92524656 136.794937,8.32197321 C136.550364,8.7201332 136.428071,9.23132786 136.428071,9.85412651 C136.428071,10.2912865 136.498604,10.6761158 136.640697,11.0074012 C136.781724,11.3409998 136.972324,11.6176398 137.212497,11.8350092 C137.454871,12.0528171 137.734697,12.2163118 138.056404,12.3260425 C138.378111,12.4341225 138.725151,12.4904185 139.093111,12.4904185 C139.468804,12.4904185 139.816937,12.4242051 140.141951,12.2942025 L142.533764,12.2942025 L142.352044,11.2626625 Z M133.416044,4.43721464 L133.416044,9.49474252 C133.416044,10.1596265 133.302577,10.6373305 133.080017,10.9274118 C132.856364,11.2161705 132.515937,11.3603852 132.057631,11.3603852 C131.663217,11.3603852 131.336004,11.2626652 131.073791,11.0651252 C130.811591,10.8692412 130.605564,10.6782038 130.451324,10.4927852 L130.451324,4.43721464 L129.124857,4.43721464 L129.124857,12.2941971 L130.336751,12.2941971 L130.336751,11.4089705 L130.370884,11.4089705 C130.401684,11.4756238 130.473417,11.5703718 130.584617,11.6951958 C130.691551,11.8221158 130.834711,11.9421998 131.009884,12.0562278 C131.185057,12.1706945 131.389977,12.2718331 131.631244,12.3587585 C131.871417,12.4470118 132.144644,12.4904118 132.449817,12.4904118 C132.800164,12.4904118 133.116364,12.4375318 133.399497,12.3359518 C133.682644,12.2309651 133.922817,12.0634971 134.121124,11.8350025 C134.315017,11.6056252 134.468164,11.3082718 134.578337,10.9420625 C134.686337,10.5779465 134.740284,10.1264638 134.740284,9.59069985 L134.740284,4.43721464 L133.416044,4.43721464 Z M127.097764,4.43721464 L125.886924,4.43721464 L125.886924,5.32023862 L125.851724,5.32023862 C125.819724,5.25567862 125.748124,5.15883729 125.640191,5.03533463 C125.531124,4.90709463 125.392311,4.78877063 125.221538,4.67474397 C125.051884,4.55983731 124.849164,4.45737598 124.606791,4.37133198 C124.367711,4.28307865 124.100004,4.23923865 123.805844,4.23923865 C123.455498,4.23923865 123.144818,4.29090531 122.863871,4.39634398 C122.587351,4.50045064 122.346071,4.6661533 122.152164,4.89553063 C121.957164,5.12578796 121.806231,5.42137862 121.701564,5.78505328 C121.597964,6.1508226 121.547324,6.60054259 121.547324,7.13553457 L121.547324,12.2941998 L122.871591,12.2941998 L122.871591,7.23446924 C122.871591,6.57817726 122.979591,6.1142466 123.191084,5.83672394 C123.404818,5.55909195 123.736431,5.41928528 124.181524,5.41928528 C124.564924,5.41928528 124.887724,5.51392528 125.147724,5.70539994 C125.411044,5.89610661 125.618164,6.0811946 125.770191,6.26837593 L125.770191,12.2941998 L127.097764,12.2941998 L127.097764,4.43721464 Z M118.288404,4.43721464 L118.288404,9.49474252 C118.288404,10.1596265 118.177071,10.6373305 117.954591,10.9274118 C117.728738,11.2161705 117.387204,11.3603852 116.929991,11.3603852 C116.536684,11.3603852 116.211671,11.2626652 115.947258,11.0651252 C115.687258,10.8692412 115.480138,10.6782038 115.325898,10.4927852 L115.325898,4.43721464 L114.000538,4.43721464 L114.000538,16.0095077 L115.325898,16.156697 L115.325898,11.4911585 L115.358964,11.4911585 C115.404164,11.5561585 115.471364,11.6448478 115.564978,11.7536972 C115.656444,11.8621105 115.784218,11.9713958 115.947271,12.0799145 C116.111431,12.1887678 116.311938,12.2847225 116.545511,12.3682331 C116.782378,12.4504198 117.056698,12.4904065 117.373991,12.4904065 C118.061458,12.4904065 118.605711,12.2662078 119.008938,11.8186905 C119.413271,11.3694118 119.615978,10.6282892 119.615978,9.59069451 L119.615978,4.43721464 L118.288404,4.43721464 Z M112.052703,10.7703065 C112.020757,10.8025865 111.967877,10.8538132 111.897362,10.9196998 C111.826855,10.9833798 111.736511,11.0495932 111.626339,11.1145918 C111.516166,11.1791518 111.387267,11.2376585 111.231926,11.2867905 C111.082093,11.3353772 110.906921,11.3603905 110.710815,11.3603905 C110.425471,11.3603905 110.161061,11.3082838 109.917582,11.2053785 C109.670798,11.1017118 109.457065,10.9342465 109.277486,10.7057518 C109.096805,10.4750532 108.955785,10.1799038 108.851122,9.81325317 C108.748669,9.44693318 108.697985,9.00327319 108.697985,8.47907721 C108.697985,7.90023722 108.743158,7.41394123 108.836801,7.02360391 C108.928241,6.62985059 109.057143,6.3156426 109.220197,6.07899327 C109.38325,5.84664261 109.582661,5.67874128 109.817326,5.57418795 C110.053093,5.47217462 110.309791,5.41928795 110.594034,5.41928795 C110.999465,5.41928795 111.306843,5.48814128 111.519474,5.63015595 C111.733206,5.77216661 111.884141,5.88839727 111.970075,5.9757626 L112.509911,5.05693329 C112.456978,4.9923733 112.375511,4.91271996 112.273045,4.82017597 C112.170591,4.7285093 112.037279,4.63817197 111.870921,4.55212797 C111.708969,4.46388798 111.508457,4.39072798 111.274893,4.33046398 C111.040229,4.27019731 110.769206,4.23923731 110.465134,4.23923731 C110.026651,4.23923731 109.619017,4.31018398 109.237825,4.45307998 C108.854427,4.59420931 108.52171,4.8275533 108.237467,5.15586396 C107.954327,5.48384395 107.731781,5.90899594 107.568727,6.43054659 C107.404571,6.95474258 107.320842,7.60541456 107.320842,8.37793588 C107.320842,9.13448386 107.418895,9.77149451 107.614999,10.2955798 C107.813307,10.8193345 108.068906,11.2432745 108.385098,11.5660758 C108.702391,11.8862345 109.054939,12.1212291 109.439438,12.2684185 C109.830546,12.4156078 110.220553,12.4904145 110.610559,12.4904145 C110.906921,12.4904145 111.165823,12.4620945 111.389471,12.4077878 C111.613119,12.3535878 111.802614,12.2847211 111.962363,12.2034198 C112.123213,12.1212331 112.251018,12.0338665 112.354578,11.9422038 C112.459245,11.8496572 112.542965,11.7691252 112.609071,11.7037932 L112.052703,10.7703065 Z M105.342163,10.7057465 C105.25403,10.8025865 105.097583,10.9377678 104.866223,11.1073212 C104.638169,11.2773158 104.336298,11.3603852 103.967225,11.3603852 C103.615778,11.3603852 103.349163,11.2789718 103.161871,11.1145918 C102.978987,10.9518692 102.884239,10.7552132 102.884239,10.5258359 C102.884239,10.2311278 102.970173,9.9875385 103.139837,9.79727318 C103.309501,9.60447318 103.566201,9.40219852 103.916546,9.18405852 L104.406809,8.8870372 C104.941139,8.57161587 105.361994,8.22953455 105.670474,7.86585856 C105.973446,7.49997857 106.127686,7.02877591 106.127686,6.44993593 C106.127686,5.82933994 105.910647,5.30437329 105.478775,4.87701863 C105.049107,4.45307864 104.428842,4.23923598 103.621286,4.23923598 C103.307298,4.23923598 103.026361,4.27239598 102.78839,4.33816931 C102.547115,4.40492931 102.338891,4.47896797 102.15821,4.56710531 C101.977529,4.6544653 101.826594,4.75131197 101.706507,4.85465197 C101.587521,4.96009196 101.488367,5.05130796 101.41235,5.14076796 L102.051343,6.18739593 C102.11525,6.1220626 102.195669,6.04538527 102.288213,5.9606626 C102.379653,5.87108927 102.493131,5.78504928 102.624235,5.70539594 C102.754235,5.62364928 102.902969,5.55611328 103.064921,5.50014662 C103.227974,5.44417328 103.421875,5.41927995 103.63671,5.41927995 C104.031123,5.41927995 104.331891,5.50443995 104.539014,5.68093594 C104.748339,5.85390527 104.848595,6.06477327 104.848595,6.3187186 C104.848595,6.50292526 104.824355,6.66432659 104.775875,6.80204125 C104.726302,6.93622925 104.653582,7.06017191 104.555533,7.16869057 C104.459679,7.2775439 104.336291,7.38297457 104.195273,7.47981457 C104.054253,7.5787479 103.890098,7.68638656 103.702806,7.80691456 L103.212543,8.11759722 C102.722281,8.43610254 102.338885,8.76738787 102.059049,9.11729186 C101.779214,9.46763718 101.642601,9.91350117 101.642601,10.4600612 C101.642601,10.7552105 101.698787,11.0246905 101.814469,11.2716945 C101.927949,11.5144012 102.088795,11.7282438 102.295918,11.9090358 C102.504142,12.0898265 102.745417,12.2309571 103.02415,12.3359505 C103.302885,12.4375238 103.600347,12.4904105 103.916539,12.4904105 C104.221714,12.4904105 104.483922,12.4598905 104.702061,12.3996238 C104.921302,12.3411171 105.108594,12.2632318 105.267241,12.1706878 C105.424785,12.0772611 105.555889,11.9847185 105.661654,11.8914025 C105.764107,11.8010558 105.847843,11.7187638 105.913946,11.6546452 L105.342163,10.7057465 Z M100.709457,11.1313385 C100.675297,11.1533785 100.605897,11.1791518 100.495723,11.2139652 C100.38555,11.2454718 100.237922,11.2626585 100.052834,11.2626585 C99.6396915,11.2626585 99.3135849,11.1494052 99.0800209,10.9274078 C98.8442542,10.7032078 98.6789969,10.4600599 98.5809449,10.1988438 L98.5809449,4.43721464 L97.2544809,4.43721464 L97.2544809,12.2941971 L98.4652649,12.2941971 L98.4652649,11.2286198 L98.4983182,11.2286198 C98.5533982,11.3818678 98.6217049,11.5320318 98.7109489,11.6796612 C98.7979889,11.8264092 98.9081555,11.9585052 99.0370555,12.0713211 C99.1703622,12.1866678 99.3246035,12.2770105 99.5041822,12.3432238 C99.6848635,12.4077838 99.8996982,12.4418238 100.153091,12.4418238 C100.335977,12.4418238 100.488013,12.4241971 100.603693,12.3910371 C100.717173,12.3587571 100.805306,12.3320905 100.87141,12.3109438 L100.709457,11.1313385 Z M94.2082423,8.36416388 C94.2082423,9.41211318 94.0573077,10.1729572 93.7510317,10.6476865 C93.4458557,11.1231852 93.019493,11.3603852 92.4752464,11.3603852 C91.9298984,11.3603852 91.5057384,11.1231852 91.2049704,10.6476865 C90.9053037,10.1729572 90.7554704,9.41211318 90.7554704,8.36416388 C90.7554704,7.31621324 90.9075077,6.56319192 91.2137837,6.10697193 C91.5189584,5.64865861 91.9464237,5.41928262 92.4917717,5.41928262 C93.037121,5.41928262 93.459077,5.64865861 93.7587437,6.10697193 C94.0595103,6.56319192 94.2082423,7.31621324 94.2082423,8.36416388 L94.2082423,8.36416388 Z M89.3805318,8.36416388 C89.3805318,9.08501453 89.4653584,9.70693184 89.6350278,10.2311278 C89.8024878,10.7552132 90.0327464,11.1834492 90.3213957,11.5144038 C90.6111464,11.8496558 90.9427624,12.0941265 91.3217517,12.2515611 C91.6963344,12.4099878 92.0973584,12.4904131 92.5237224,12.4904131 C92.960001,12.4904131 93.364329,12.4099865 93.7356077,12.2515611 C94.1057823,12.0941265 94.4274836,11.8496558 94.700709,11.5144038 C94.973933,11.1834492 95.189869,10.7552132 95.3474143,10.2311278 C95.506061,9.70693184 95.5842836,9.08501453 95.5842836,8.36416388 C95.5842836,7.63262523 95.503857,7.00420791 95.3397023,6.48133459 C95.1755476,5.96066394 94.9496956,5.53242795 94.659945,5.19761729 C94.3712956,4.86412797 94.0341717,4.62219197 93.6529783,4.46817197 C93.271785,4.31756798 92.8663543,4.23923598 92.4421944,4.23923598 C92.0048144,4.23923598 91.6015877,4.31756931 91.2303091,4.46817197 C90.8590317,4.62219197 90.5384331,4.86412797 90.2641064,5.19761729 C89.9930851,5.53242795 89.7760478,5.95636794 89.6173998,6.47362259 C89.4598558,6.99010525 89.3805318,7.62182923 89.3805318,8.36416388 L89.3805318,8.36416388 Z M82.8328253,4.43721464 L82.8328253,15.7318757 L88.3812771,15.7318757 L88.2843305,14.6026184 L84.2560239,14.6026184 L84.2560239,10.4264625 L87.9725451,10.4264625 L87.9725451,9.29676385 L84.2560199,9.29676385 L84.2560199,4.43721464 L82.8328253,4.43721464 Z M74.2544401,5.41928262 C74.4610108,5.41928262 74.6478615,5.44417595 74.8113561,5.50014928 C74.9752908,5.55612261 75.1173028,5.62365595 75.2365081,5.70539861 C75.3565881,5.78505194 75.4577321,5.87109594 75.5408014,5.96066527 C75.6213348,6.04538527 75.6854561,6.1220666 75.7279828,6.1873986 L75.7279828,11.0332878 C75.6080094,11.1089678 75.4694108,11.1735358 75.3105428,11.2286212 C75.1522268,11.2845945 74.9524855,11.3103678 74.7128628,11.3103678 C74.4076881,11.3103678 74.1214628,11.2604612 73.8534162,11.1554678 C73.5865815,11.0518012 73.3545602,10.8795985 73.1570228,10.6407465 C72.9612482,10.4002425 72.8067882,10.0890078 72.6914389,9.70693318 C72.5774122,9.32607185 72.5196815,8.85475853 72.5196815,8.29839188 C72.5196815,7.75304389 72.5657349,7.2978159 72.6591589,6.92984391 C72.7521455,6.56528659 72.8795015,6.27134926 73.0434362,6.04891327 C73.2073708,5.82592661 73.3924588,5.66584661 73.5999122,5.56691328 C73.8069242,5.46875328 74.0250628,5.41928262 74.2544401,5.41928262 L74.2544401,5.41928262 Z M71.1443016,8.24881455 C71.1443016,9.04502253 71.2479682,9.71211051 71.4563069,10.2469932 C71.6633189,10.7827558 71.9305949,11.2139665 72.2580242,11.5394132 C72.5846829,11.8664025 72.9565108,12.1000758 73.3705348,12.2352558 C73.7854402,12.3734105 74.2002361,12.4418278 74.6155815,12.4418278 C74.8655601,12.4418278 75.0846921,12.4211211 75.2696695,12.3833211 C75.4556388,12.3458678 75.6080054,12.2984945 75.7279828,12.2429625 L75.7279828,16.0095077 L77.0543361,16.156697 L77.0543361,4.43721464 L75.8421201,4.43721464 L75.8421201,5.27077062 L75.8094001,5.27077062 C75.7775601,5.20533062 75.7181734,5.11587063 75.6299308,4.99963996 C75.5430108,4.8856133 75.4229188,4.77158397 75.2696708,4.65667597 C75.1173041,4.54264931 74.9258255,4.44580798 74.6964495,4.36185731 C74.4670721,4.28011065 74.2002375,4.23923065 73.8947322,4.23923065 C73.5241148,4.23923065 73.1721175,4.31327065 72.8381882,4.46166664 C72.5059109,4.61017864 72.2141775,4.84385197 71.9628762,5.16445062 C71.7119055,5.48593062 71.5127162,5.90127727 71.3664082,6.40817459 C71.2183376,6.91606525 71.1443016,7.5292799 71.1443016,8.24880921 L71.1443016,8.24881455 Z M68.198979,4.43721464 L68.198979,9.49474252 C68.198979,10.1596265 68.0861656,10.6373305 67.862847,10.9274118 C67.638207,11.2161705 67.2977777,11.3603852 66.838583,11.3603852 C66.446483,11.3603852 66.119495,11.2626652 65.8573964,11.0651252 C65.5961804,10.8692412 65.388287,10.6782038 65.2359204,10.4927852 L65.2359204,4.43721464 L63.9100071,4.43721464 L63.9100071,12.2941971 L65.1201297,12.2941971 L65.1201297,11.4089705 L65.1528497,11.4089705 C65.1851297,11.4756238 65.2561964,11.5703718 65.3654804,11.6951958 C65.4738937,11.8221158 65.6172217,11.9421998 65.7910724,12.0562278 C65.9658044,12.1706945 66.1728164,12.2718331 66.4142017,12.3587585 C66.6530537,12.4470118 66.925507,12.4904118 67.2314523,12.4904118 C67.5813576,12.4904118 67.8981003,12.4375318 68.1816816,12.3359518 C68.465703,12.2309651 68.704555,12.0634971 68.9013203,11.8350025 C69.0984176,11.6056252 69.2503443,11.3082718 69.3596336,10.9420625 C69.4693669,10.5779465 69.5244496,10.1264638 69.5244496,9.59069985 L69.5244496,4.43721464 L68.198979,4.43721464 Z M61.8782258,4.43721464 L60.6667818,4.43721464 L60.6667818,5.32023862 L60.6353818,5.32023862 C60.6018885,5.25567862 60.5308352,5.15883729 60.4228605,5.03533463 C60.3126872,4.90709463 60.1736525,4.78877063 60.0049805,4.67474397 C59.8353165,4.55983731 59.6305085,4.45737598 59.3907752,4.37133198 C59.1507112,4.28307865 58.8838765,4.23923865 58.5890579,4.23923865 C58.2395939,4.23923865 57.9254952,4.29090531 57.6469819,4.39634398 C57.3694606,4.50045064 57.1310499,4.6661533 56.9364872,4.89553063 C56.7389499,5.12578796 56.5887859,5.42137862 56.4854459,5.78505328 C56.3804593,6.1508226 56.3301033,6.60054259 56.3301033,7.13553457 L56.3301033,12.2941998 L57.6555752,12.2941998 L57.6555752,7.23446924 C57.6555752,6.57817726 57.7614552,6.1142466 57.9740806,5.83672394 C58.1874832,5.55909195 58.5167859,5.41928528 58.9656232,5.41928528 C59.3464859,5.41928528 59.6697285,5.51392528 59.9305045,5.70539994 C60.1942552,5.89610661 60.3999445,6.0811946 60.5527525,6.26837593 L60.5527525,12.2941998 L61.8782258,12.2941998 L61.8782258,4.43721464 Z M118.158404,26.3620928 C118.158404,26.9293661 118.022884,27.3339154 117.756271,27.5732074 C117.490764,27.8128301 117.175671,27.9324768 116.815418,27.9324768 C116.433111,27.9324768 116.105911,27.8128234 115.833791,27.5732074 C115.562764,27.3339154 115.423951,26.9293661 115.423951,26.3620928 C115.423951,25.7944901 115.562764,25.3903808 115.833791,25.1506488 C116.105911,24.9101448 116.423204,24.7909382 116.783458,24.7909382 C117.164658,24.7909382 117.490764,24.9101382 117.756271,25.1506488 C118.022884,25.3903808 118.158404,25.7944901 118.158404,26.3620928 L118.158404,26.3620928 Z M116.406671,21.1896569 C116.178618,21.1896569 115.975911,21.2056303 115.800738,21.2387903 C115.703804,21.1828169 115.606831,21.1195903 115.515391,21.0424649 C115.421791,20.9641316 115.336911,20.8716996 115.259791,20.7636209 C115.183791,20.6552076 115.123178,20.5269729 115.072498,20.3793436 C115.022898,20.2321543 114.999831,20.0591849 114.999831,19.863741 C114.999831,19.0228023 115.463644,18.602829 116.390191,18.602829 C117.188938,18.602829 117.778351,18.7581703 118.158444,19.067973 C118.540738,19.3796476 118.730231,19.737705 118.730231,20.1413729 C118.730231,20.5247689 118.612364,20.7929263 118.371071,20.9512423 C118.130898,21.1096689 117.810298,21.1896543 117.404871,21.1896543 L116.406671,21.1896569 Z M120.056658,27.7698634 L119.075031,27.7698634 C119.326218,27.3545168 119.451818,26.8858474 119.451818,26.3620928 C119.451818,25.9468568 119.384618,25.5728248 119.247991,25.2410995 C119.112484,24.9074995 118.920791,24.6273342 118.675111,24.3975168 C118.428324,24.1678088 118.138564,23.9930782 117.806951,23.8729902 C117.474231,23.7533502 117.115084,23.6935222 116.736084,23.6935222 C116.659018,23.6935222 116.586258,23.6935222 116.520151,23.6935222 C116.456284,23.6935222 116.384644,23.6999222 116.309724,23.7111489 C116.178658,23.6547355 116.042004,23.5686969 115.897684,23.4481702 C115.757764,23.3277569 115.687258,23.1693262 115.687258,22.9731102 C115.687258,22.8095062 115.750058,22.6765289 115.874551,22.5710956 C116.001218,22.4699622 116.207271,22.4161942 116.489311,22.4161942 L117.487458,22.4161942 C117.857631,22.4161942 118.200271,22.3778609 118.519764,22.3030476 C118.834858,22.2247142 119.112484,22.1033062 119.343844,21.9350742 C119.579618,21.7655209 119.763604,21.5499156 119.894698,21.2882583 C120.024698,21.0243983 120.090804,20.7098583 120.090804,20.3375889 C120.090804,19.9124383 119.999338,19.5241943 119.819791,19.1747303 C119.639111,18.8261476 119.386818,18.525821 119.058498,18.2757317 C118.730191,18.0239903 118.333578,17.826453 117.864244,17.6853237 C117.392711,17.5445237 116.870498,17.4718117 116.292098,17.4718117 C115.451484,17.4718117 114.812498,17.6546957 114.377324,18.0213463 C113.939938,18.3876663 113.722898,18.9139543 113.722898,19.601645 C113.722898,19.894701 113.774631,20.1499676 113.877138,20.3629289 C113.981804,20.5755596 114.104098,20.7610876 114.247311,20.9189636 C114.388338,21.0778316 114.532658,21.2025449 114.679191,21.2955303 C114.826818,21.3885169 114.945804,21.4625489 115.032844,21.5149916 L115.032844,21.5499116 C114.692404,21.7998902 114.524951,22.1665409 114.524951,22.6464476 C114.524951,22.8543409 114.564551,23.0333689 114.647218,23.1865075 C114.728684,23.3401969 114.820178,23.4632582 114.923738,23.5630729 C115.028404,23.6612329 115.133071,23.7408902 115.236631,23.7998315 C115.340231,23.8596582 115.419511,23.9014049 115.474604,23.9233382 L115.474604,23.9556182 C115.070271,24.1410368 114.744164,24.4337622 114.500684,24.8318115 C114.255004,25.2298608 114.129404,25.7402848 114.129404,26.3620915 C114.129404,26.7989208 114.203271,27.1833088 114.344244,27.5159168 C114.486364,27.8486341 114.676964,28.1245034 114.916031,28.3435247 C115.158404,28.5612234 115.437138,28.7248274 115.761044,28.8345581 C116.081644,28.9425314 116.428684,28.9976114 116.801058,28.9976114 C117.171244,28.9976114 117.520484,28.9318381 117.846591,28.8005154 L120.239511,28.8005154 L120.056658,27.7698634 Z M111.119551,20.9435329 L111.119551,26.0019421 C111.119551,26.6672674 111.008271,27.1454114 110.781325,27.4341714 C110.560982,27.7238114 110.220553,27.8679154 109.762239,27.8679154 C109.367826,27.8679154 109.039515,27.7698621 108.780613,27.5732074 C108.517303,27.3773221 108.307978,27.1862848 108.157042,26.9995448 L108.157042,20.9435329 L106.830579,20.9435329 L106.830579,28.8005167 L108.041362,28.8005167 L108.041362,27.9161714 L108.075522,27.9161714 C108.106375,27.9828248 108.177989,28.0784527 108.287051,28.2040487 C108.395025,28.3301954 108.538242,28.4485194 108.714517,28.5638687 C108.886383,28.6778954 109.094607,28.7803554 109.335883,28.8668394 C109.574955,28.9546394 109.849282,28.9976127 110.153355,28.9976127 C110.503701,28.9976127 110.81879,28.9456127 111.104134,28.8418314 C111.387274,28.7377247 111.626346,28.5724621 111.822451,28.3435261 C112.020761,28.1141487 112.173898,27.8159154 112.281858,27.4513581 C112.389858,27.0851474 112.444911,26.6341061 112.444911,26.1004355 L112.444911,20.9435329 L111.119551,20.9435329 Z M104.801222,20.9435329 L103.589337,20.9435329 L103.589337,21.8266676 L103.556283,21.8266676 C103.522123,21.7624409 103.451617,21.6664782 103.343653,21.5404422 C103.234586,21.4164956 103.094666,21.2955316 102.926103,21.1801809 C102.757541,21.0670343 102.551521,20.9641356 102.311347,20.8780916 C102.072275,20.7898516 101.805661,20.7477583 101.509299,20.7477583 C101.161158,20.7477583 100.849373,20.7984383 100.570639,20.9035409 C100.290803,21.0058876 100.052833,21.1720289 99.8578302,21.4022876 C99.6595222,21.6316636 99.5118915,21.9281356 99.4072289,22.2944556 C99.3036689,22.6602236 99.2518875,23.1090622 99.2518875,23.6440542 L99.2518875,28.8005167 L100.578351,28.8005167 L100.578351,23.7429889 C100.578351,23.0875795 100.683018,22.6210036 100.896746,22.3430409 C101.109377,22.0654089 101.437687,21.9256009 101.887187,21.9256009 C102.270583,21.9256009 102.588979,22.0215609 102.85339,22.2118262 C103.113395,22.4015422 103.323822,22.5904862 103.473655,22.7772262 L103.473655,28.8005167 L104.801222,28.8005167 L104.801222,20.9435329 Z M94.4715516,21.9256009 C94.6797756,21.9256009 94.8648636,21.9544676 95.027917,22.0073476 C95.192073,22.0611076 95.3341943,22.1312942 95.454281,22.2118249 C95.5743609,22.2944516 95.6746236,22.3778529 95.7572516,22.4674222 C95.8398783,22.5539022 95.9015769,22.6292649 95.9456449,22.6954782 L95.9456449,27.5413661 C95.8266583,27.6161794 95.6856409,27.6833768 95.5280956,27.7375821 C95.3705503,27.7922221 95.1700383,27.8184488 94.9309663,27.8184488 C94.623589,27.8184488 94.3371423,27.7676621 94.0716303,27.6635474 C93.8028117,27.5585474 93.5714517,27.3872381 93.3753463,27.1475048 C93.179241,26.9083234 93.0227983,26.5966475 92.909321,26.2153448 C92.7925344,25.8323888 92.736353,25.3637195 92.736353,24.8072448 C92.736353,24.2620062 92.7826197,23.8050155 92.875169,23.4395769 C92.9677157,23.0746889 93.096613,22.7798702 93.2607677,22.5561116 C93.4249237,22.3322436 93.6100117,22.1712836 93.8160317,22.0732302 C94.0242557,21.9750702 94.2423956,21.9256009 94.4715516,21.9256009 Z M91.3614131,24.7582182 C91.3614131,25.5535448 91.4649731,26.2205235 91.672097,26.7555154 C91.8792197,27.2895154 92.1469357,27.7216088 92.4752464,28.0478261 C92.8002517,28.3758061 93.1726317,28.6081567 93.5868757,28.7442194 C94.0033237,28.8797301 94.4175676,28.9485874 94.831813,28.9485874 C95.084105,28.9485874 95.3011423,28.9296407 95.4862303,28.8914141 C95.6713183,28.8530807 95.8266596,28.8065874 95.9456449,28.7519381 L95.9456449,32.5167073 L97.2710076,32.664778 L97.2710076,20.9435329 L96.0591223,20.9435329 L96.0591223,21.7792942 L96.0271756,21.7792942 C95.9952289,21.7117609 95.9357356,21.6235116 95.8475969,21.5072809 C95.7583569,21.3936942 95.6393729,21.2792263 95.4862343,21.1634356 C95.3341983,21.0507289 95.1424996,20.9512449 94.9133436,20.8690569 C94.685289,20.7873103 94.4175716,20.7477636 94.1112957,20.7477636 C93.7400183,20.7477636 93.3885717,20.8191503 93.055853,20.9672249 C92.7231357,21.1160676 92.4300797,21.3492996 92.1799904,21.6716609 C91.9299024,21.9935822 91.7293904,22.4076062 91.5828624,22.9158275 C91.4352317,23.4241582 91.3614131,24.0373715 91.3614131,24.7582235 L91.3614131,24.7582182 Z M89.3001064,22.7772262 C89.3001064,22.4502369 89.3452798,22.2195382 89.4378211,22.0886542 C89.5292611,21.9596409 89.6912158,21.8942022 89.9214731,21.8942022 C90.0404598,21.8942022 90.1418158,21.9040689 90.2244451,21.9256022 C90.3048717,21.9488422 90.3687691,21.9698956 90.4106344,21.9914822 L90.5274211,21.0085329 C90.4613144,20.9766929 90.3412317,20.9327329 90.1671611,20.8780929 C89.9930904,20.8230129 89.7562211,20.7959063 89.4620638,20.7959063 C89.0147678,20.7959063 88.6545078,20.9327396 88.3812825,21.2056343 C88.1091598,21.4776476 87.9725465,21.9643836 87.9725465,22.6627609 L87.9725465,32.5167073 L89.3001118,32.664778 L89.3001064,22.7772262 Z M85.3042999,30.7005327 C85.0323972,30.7005327 84.8137066,30.7866927 84.6497719,30.961418 C84.4858372,31.1369207 84.4039799,31.365858 84.4039799,31.6507607 C84.4039799,31.9218927 84.4858332,32.1460913 84.6497719,32.3212633 C84.8137066,32.495114 85.0323972,32.5829206 85.3042999,32.5829206 C85.5663985,32.5829206 85.7790292,32.4951206 85.9425239,32.3212633 C86.1065679,32.1460913 86.1883158,31.9218927 86.1883158,31.6507607 C86.1883158,31.365858 86.1065692,31.1369207 85.9425239,30.961418 C85.7790292,30.786686 85.5663985,30.7005327 85.3042999,30.7005327 Z M85.9597105,20.9435329 L84.6330266,20.9435329 L84.6330266,28.8005167 L85.9597105,28.8005167 L85.9597105,20.9435329 Z M81.3592826,24.1023675 C81.3592826,24.7147008 81.1599826,25.1962595 80.7614933,25.5513421 C80.363884,25.9064248 79.7931973,26.0832488 79.0508614,26.0832488 L78.0851001,26.0832488 L78.0851001,22.1231382 L78.9694454,22.1231382 C79.8090613,22.1231382 80.417648,22.2888369 80.7937733,22.6210036 C81.1716613,22.9537209 81.3592826,23.4481702 81.3592826,24.1023675 Z M81.146212,29.3084061 C81.146212,29.832162 80.961124,30.2633727 80.590176,30.601158 C80.2187893,30.9411473 79.6347707,31.109378 78.8382307,31.109378 L78.0851001,31.109378 L78.0851001,27.2125061 L78.8231374,27.2125061 C79.5848627,27.2125061 80.1632627,27.3993568 80.557456,27.7698634 C80.9508773,28.1412514 81.146212,28.6537687 81.146212,29.3084061 L81.146212,29.3084061 Z M82.5865919,29.3578727 C82.5865919,28.9645607 82.5380053,28.6210461 82.4402853,28.3267781 C82.3422319,28.0319594 82.2074933,27.7775741 82.03882,27.5649434 C81.8695973,27.3515408 81.6725,27.1797834 81.449624,27.0503328 C81.2254253,26.9176794 80.993404,26.8205154 80.754112,26.7555141 L80.754112,26.7214741 C81.0477186,26.6672741 81.3239186,26.5643688 81.5796253,26.4112315 C81.8374266,26.2575421 82.060744,26.0673861 82.2513413,25.8384501 C82.4433693,25.6094035 82.5965079,25.3383821 82.7096533,25.0262662 C82.8245599,24.7160235 82.8814106,24.3755942 82.8814106,24.0033248 C82.8814106,23.5566902 82.8052773,23.1478435 82.6533559,22.7772275 C82.4987853,22.4046276 82.2616973,22.0839182 81.9406573,21.8115756 C81.6187373,21.5382396 81.2125346,21.3252783 80.72106,21.1720303 C80.2300267,21.0196636 79.646448,20.9435343 78.9694454,20.9435343 L76.6619054,20.9435343 L76.6619054,32.2386366 L78.8382307,32.2386366 C79.5039974,32.2386366 80.074244,32.1715433 80.5488627,32.0355913 C81.024032,31.8969953 81.4148093,31.703314 81.7194333,31.453666 C82.024168,31.2028047 82.2461626,30.8985113 82.3831053,30.5447514 C82.5181759,30.1897794 82.5865919,29.7942634 82.5865919,29.3578754 L82.5865919,29.3578727 Z M71.9796215,27.6385381 C71.9464615,27.6610181 71.8750749,27.6885514 71.7669909,27.7216048 C71.6576975,27.7530048 71.5096296,27.7698581 71.3250922,27.7698581 C70.9093056,27.7698581 70.5852922,27.6588048 70.3507376,27.4341661 C70.1148603,27.2099674 69.9491629,26.9676994 69.8515509,26.7060434 L69.8515509,20.9435276 L68.5247563,20.9435276 L68.5247563,28.8005114 L69.7369723,28.8005114 L69.7369723,27.7375781 L69.7701323,27.7375781 C69.8235589,27.8899448 69.8949589,28.0401087 69.9827629,28.1868567 C70.0705629,28.3349274 70.1785376,28.4661407 70.3094216,28.5801687 C70.4410749,28.6950754 70.5959776,28.7855274 70.7754469,28.8504194 C70.9557976,28.9158594 71.1714029,28.9485794 71.4227029,28.9485794 C71.6082322,28.9485794 71.7588362,28.9318327 71.8728642,28.8995527 C71.9873309,28.8668327 72.0773415,28.8401661 72.1431135,28.8178061 L71.9796215,27.6385381 Z M65.7592337,31.05991 C65.7592337,30.8081687 65.6817804,30.6072154 65.530739,30.4544087 C65.3770497,30.3020407 65.1907497,30.22459 64.9733817,30.22459 C64.7543604,30.22459 64.5697137,30.3020434 64.4165751,30.4544087 C64.2637671,30.6072154 64.1863164,30.8081687 64.1863164,31.05991 C64.1863164,31.3116513 64.2637697,31.513926 64.4165751,31.6658527 C64.5697137,31.8186607 64.7543604,31.8947887 64.9733817,31.8947887 C65.1907497,31.8947887 65.3770497,31.8186553 65.530739,31.6658527 C65.681783,31.513926 65.7592337,31.3116513 65.7592337,31.05991 Z M63.2381818,31.05991 C63.2381818,30.8081687 63.1616084,30.6072154 63.0088044,30.4544087 C62.8559978,30.3020407 62.6710191,30.22459 62.4518884,30.22459 C62.2333084,30.22459 62.0478898,30.3020434 61.8959645,30.4544087 C61.7435965,30.6072154 61.6657058,30.8081687 61.6657058,31.05991 C61.6657058,31.3116513 61.7435991,31.513926 61.8959645,31.6658527 C62.0478898,31.8186607 62.2333084,31.8947887 62.4518884,31.8947887 C62.6710191,31.8947887 62.8559978,31.8186553 63.0088044,31.6658527 C63.1616124,31.513926 63.2381818,31.3116513 63.2381818,31.05991 Z M66.495179,20.9435316 L65.284175,20.9435316 L65.284175,21.8266662 L65.251895,21.8266662 C65.217415,21.7624396 65.1476684,21.6664769 65.038383,21.5404409 C64.9290897,21.4164942 64.7909377,21.2955303 64.6205031,21.1801796 C64.4527111,21.0670329 64.2469111,20.9641343 64.0072884,20.8780903 C63.7671151,20.7898503 63.4993978,20.7477569 63.2046898,20.7477569 C62.8559978,20.7477569 62.5414578,20.7984369 62.2642671,20.9035396 C61.9863045,21.0058863 61.7487751,21.1720276 61.5521191,21.4022862 C61.3549125,21.6316622 61.2043085,21.9281342 61.1010778,22.2944542 C60.9990645,22.6602222 60.9465071,23.1090609 60.9465071,23.6440529 L60.9465071,28.8005154 L62.2728604,28.8005154 L62.2728604,23.7429875 C62.2728604,23.0875782 62.3784071,22.6210022 62.5913658,22.3430396 C62.8044378,22.0654076 63.1340698,21.9255996 63.5811457,21.9255996 C63.9628897,21.9255996 64.2856911,22.0215596 64.5464671,22.2118249 C64.8094457,22.4015409 65.016899,22.5904849 65.1695964,22.7772249 L65.1695964,28.8005154 L66.495179,28.8005154 L66.495179,20.9435316 Z M59.6851538,27.7216074 L58.0812792,27.7216074 L58.0812792,20.9435329 L56.7549259,20.9435329 L56.7549259,27.7216088 L55.8050286,27.7216088 L55.8050286,28.6056234 L56.7549259,28.7855327 L56.7549259,30.3562474 C56.7549259,30.7815087 56.8147526,31.147278 56.9364886,31.4536647 C57.0552486,31.758398 57.2136792,32.0101393 57.4098952,32.2055833 C57.6065512,32.4026806 57.8359272,32.5446913 58.0980259,32.632058 C58.3596819,32.719858 58.6385259,32.7619513 58.9324632,32.7619513 C59.2160445,32.7619513 59.4562179,32.724498 59.6524338,32.6474846 C59.8490898,32.5722313 59.9795325,32.5110913 60.0458552,32.4684553 L59.7673418,31.371038 C59.7015685,31.414118 59.6090258,31.4614913 59.4889392,31.5113967 C59.3697392,31.5586633 59.2216632,31.5841033 59.0473725,31.5841033 C58.7310699,31.5841033 58.4904552,31.4855033 58.3265205,31.290166 C58.1625859,31.0930687 58.0812792,30.7328087 58.0812792,30.2087234 L58.0812792,28.8005127 L59.8490898,28.8005127 L59.6851538,27.7216074 Z M162.79875,37.4516072 L162.79875,42.5099124 C162.79875,43.1533137 162.706217,43.617135 162.520017,43.9013777 C162.33603,44.1845177 162.034163,44.326639 161.621017,44.326639 C161.401777,44.326639 161.208977,44.2990923 161.03711,44.2451057 C160.869643,44.1900257 160.722017,44.121719 160.589817,44.040187 C160.456483,43.958667 160.344137,43.868319 160.246083,43.770267 C160.148083,43.671107 160.066497,43.585179 160.00039,43.508059 L160.00039,37.4516072 L158.67283,37.4516072 L158.67283,45.3093617 L159.88471,45.3093617 L159.88471,44.4246937 L159.918843,44.4246937 C159.972843,44.5117337 160.055457,44.6174937 160.162323,44.7430883 C160.272457,44.8697817 160.40911,44.988771 160.573257,45.104451 C160.73631,45.2190243 160.92911,45.3148777 161.145043,45.3908963 C161.364297,45.4669096 161.607763,45.5043776 161.883203,45.5043776 C162.77779,45.5043776 163.410177,45.156235 163.781457,44.4577483 C163.85639,44.5657217 163.96103,44.6824977 164.094337,44.8102977 C164.222203,44.934791 164.376377,45.0493697 164.54935,45.1540323 C164.725617,45.2564857 164.92283,45.341323 165.13987,45.4063243 C165.358003,45.4735243 165.599283,45.5043776 165.861483,45.5043776 C167.454563,45.5043776 168.25111,44.5778363 168.25111,42.722551 L168.25111,37.4516072 L166.924643,37.4516072 L166.924643,42.5099191 C166.924643,43.1533204 166.81011,43.6171417 166.582003,43.9013844 C166.352857,44.1845243 166.01463,44.3266457 165.565123,44.3266457 C165.19495,44.3266457 164.887577,44.236299 164.641897,44.0567257 C164.394003,43.8760444 164.201203,43.7041777 164.061283,43.5411244 C164.08115,43.418831 164.09875,43.2932377 164.109817,43.1555244 C164.11915,43.018911 164.125283,42.874587 164.125283,42.722551 L164.125283,37.4516072 L162.79875,37.4516072 Z M156.64459,37.4516138 L155.43379,37.4516138 L155.43379,38.3355192 L155.399657,38.3355192 C155.367657,38.2705192 155.296057,38.1746685 155.18923,38.0490738 C155.079097,37.9223805 154.939137,37.8033912 154.76947,37.6877112 C154.60091,37.5742312 154.397097,37.4739792 154.155817,37.3857312 C153.915643,37.2988112 153.647923,37.2545179 153.355977,37.2545179 C153.004524,37.2545179 152.690537,37.3069579 152.410697,37.4107405 C152.13307,37.5136338 151.897297,37.6799992 151.69899,37.9091552 C151.505097,38.1394138 151.353057,38.4357752 151.24839,38.8015445 C151.148124,39.1673125 151.093057,39.6168125 151.093057,40.1511431 L151.093057,45.3093683 L152.41951,45.3093683 L152.41951,40.2502978 C152.41951,39.5958791 152.52751,39.1287525 152.739017,38.8511205 C152.95275,38.5723872 153.282164,38.4324698 153.73055,38.4324698 C154.112843,38.4324698 154.433443,38.5283232 154.695657,38.7200165 C154.958963,38.9106138 155.16499,39.0990071 155.318123,39.2862978 L155.318123,45.3093683 L156.64459,45.3093683 L156.64459,37.4516138 Z M148.461044,47.2076216 C148.185617,47.2076216 147.968577,47.2946616 147.803324,47.4698296 C147.639164,47.6439003 147.557644,47.8730563 147.557644,48.1561976 C147.557644,48.4294216 147.63911,48.6530696 147.803324,48.8271402 C147.968577,49.0023136 148.185617,49.0893482 148.461044,49.0893482 C148.721044,49.0893482 148.933684,49.0023082 149.098937,48.8271402 C149.263097,48.6530696 149.34351,48.4294216 149.34351,48.1561976 C149.34351,47.8730563 149.26311,47.6439003 149.098937,47.4698296 C148.933684,47.2946563 148.721044,47.2076216 148.461044,47.2076216 Z M149.114364,37.4516138 L147.78679,37.4516138 L147.78679,45.3093683 L149.114364,45.3093683 L149.114364,37.4516138 Z M146.479057,44.1470603 C146.44599,44.1679937 146.37439,44.1955403 146.267537,44.227487 C146.156204,44.2616337 146.00863,44.2770603 145.824644,44.2770603 C145.410404,44.2770603 145.084297,44.164687 144.84963,43.9421404 C144.614964,43.7184924 144.448604,43.4750137 144.35055,43.213907 L144.35055,37.4516125 L143.02519,37.4516125 L143.02519,45.309367 L144.235977,45.309367 L144.235977,44.245111 L144.266777,44.245111 C144.32411,44.3971483 144.393444,44.548083 144.481617,44.694611 C144.567484,44.8433417 144.678817,44.972243 144.808817,45.087923 C144.94215,45.201403 145.096364,45.291739 145.274844,45.3578416 C145.455524,45.4228416 145.67147,45.4570016 145.922657,45.4570016 C146.108844,45.4570016 146.257577,45.4404816 146.37215,45.4063216 C146.485617,45.374375 146.575977,45.3468283 146.640977,45.325895 L146.479057,44.1470603 Z M138.769271,44.4246923 C138.299937,44.4246923 137.923151,44.2274857 137.640004,43.835275 C137.354671,43.4430644 137.190511,42.8745804 137.146444,42.1342284 L140.012004,42.1342284 C140.022671,42.1882151 140.032937,42.2664284 140.038404,42.3699951 C140.042404,42.4746617 140.047737,42.5848297 140.047737,42.7071204 C140.047737,43.2524684 139.936404,43.6744244 139.717217,43.9751924 C139.499084,44.274859 139.182884,44.4246923 138.769751,44.4246923 L138.769271,44.4246923 Z M141.256937,42.6564404 C141.256937,42.3171137 141.24627,42.0262604 141.222804,41.7805791 C141.202937,41.5359977 141.17867,41.3200618 141.15787,41.1349738 L137.146537,41.1349738 C137.190671,40.2073311 137.390017,39.5242685 137.745871,39.0879898 C138.100617,38.6517112 138.610711,38.4324698 139.276151,38.4324698 C139.504204,38.4324698 139.712431,38.4611098 139.898617,38.5150965 C140.083711,38.5690832 140.241244,38.6351898 140.38007,38.7112018 C140.515577,38.7872151 140.633457,38.8643405 140.723804,38.9414605 C140.817404,39.0163805 140.88575,39.0780725 140.929817,39.1210391 L141.420084,38.1878885 C141.365017,38.1328085 141.282364,38.0545818 141.174404,37.9499178 C141.066404,37.8474645 140.918804,37.7438978 140.73151,37.6392338 C140.547524,37.5356738 140.318364,37.4459938 140.047351,37.3689845 C139.774124,37.2931845 139.451324,37.2545179 139.078937,37.2545179 C138.589777,37.2545179 138.145791,37.3358245 137.745871,37.5004192 C137.348151,37.6634738 137.009924,37.9179698 136.730084,38.2606018 C136.452457,38.6043365 136.236524,39.0417178 136.083377,39.5716418 C135.930244,40.1004644 135.855324,40.7361538 135.855324,41.4776071 C135.855324,42.1760937 135.932391,42.7798324 136.091097,43.287723 C136.249737,43.7934097 136.466777,44.2120617 136.738897,44.5381683 C137.012124,44.8675803 137.326111,45.1088563 137.687471,45.267503 C138.046631,45.4261496 138.436644,45.504371 138.851991,45.504371 C139.602257,45.504371 140.19387,45.267503 140.620244,44.7926643 C141.044404,44.318927 141.25703,43.6072204 141.25703,42.6564404 L141.256937,42.6564404 Z M134.822924,44.2274857 L133.104257,44.2274857 L133.104257,39.8735111 C133.104257,39.3171458 133.174791,38.9392578 133.316884,38.7365431 C133.457897,38.5349285 133.699177,38.4324698 134.037404,38.4324698 C134.234617,38.4324698 134.404271,38.4611098 134.545297,38.5150965 C134.686311,38.5690832 134.789871,38.6197632 134.855977,38.6627272 L135.035564,37.5984712 C134.982631,37.5555112 134.850471,37.4860978 134.642244,37.3938832 C134.435124,37.3022165 134.156391,37.2545165 133.809351,37.2545165 C133.132897,37.2545165 132.623911,37.4434592 132.285684,37.8199152 C131.946351,38.1967018 131.777791,38.8213738 131.777791,39.6928298 L131.777791,44.2274843 L130.829217,44.2274843 L130.829217,45.1121603 L131.777791,45.309367 L131.926524,47.5017776 L133.104257,47.5017776 L133.104257,45.309367 L134.988191,45.309367 L134.822924,44.2274857 Z M129.124857,43.7206964 C129.038991,43.8187497 128.882484,43.9531577 128.653324,44.1217203 C128.421964,44.2913843 128.121204,44.3762163 127.752124,44.3762163 C127.401777,44.3762163 127.135164,44.2935897 126.948977,44.1294323 C126.762791,43.966379 126.671351,43.7702737 126.671351,43.5411177 C126.671351,43.2447564 126.755084,43.004583 126.924737,42.811783 C127.094404,42.6211857 127.351097,42.4173697 127.702551,42.1992297 L128.195017,41.9039697 C128.728244,41.5877791 129.148004,41.2462471 129.453177,40.8804778 C129.758351,40.5147084 129.911484,40.0431751 129.911484,39.4647751 C129.911484,38.8423071 129.695551,38.3189938 129.264777,37.8926298 C128.834004,37.4673685 128.214844,37.2545179 127.407284,37.2545179 C127.091097,37.2545179 126.813471,37.2872379 126.573298,37.3534512 C126.332018,37.4180112 126.122698,37.4949112 125.943111,37.5819472 C125.762431,37.6700805 125.611498,37.7648312 125.492511,37.8672898 C125.372378,37.9719565 125.274378,38.0678018 125.197258,38.1559392 L125.836244,39.2025671 C125.902378,39.1375671 125.981671,39.0604471 126.073111,38.9734111 C126.166711,38.8852778 126.278031,38.8015445 126.410244,38.7200165 C126.540244,38.6373898 126.688978,38.5690818 126.850924,38.5150978 C127.013977,38.4611112 127.205671,38.4324712 127.423817,38.4324712 C127.814924,38.4324712 128.116791,38.5206045 128.323911,38.6957805 C128.532137,38.8698511 128.634604,39.0835845 128.634604,39.3336725 C128.634604,39.5198631 128.611404,39.6796111 128.559671,39.8173258 C128.511137,39.9528365 128.440737,40.0762284 128.341524,40.1852978 C128.242324,40.2943644 128.121191,40.3979284 127.979071,40.4959818 C127.840244,40.5940351 127.674991,40.7042058 127.489911,40.8220884 L126.998537,41.1349751 C126.508284,41.4511671 126.122684,41.7838844 125.842844,42.1342297 C125.565218,42.4823711 125.426391,42.929667 125.426391,43.4750164 C125.426391,43.770275 125.484791,44.040195 125.597164,44.2858777 C125.713964,44.5304577 125.872591,44.7430883 126.080818,44.924871 C126.287938,45.104451 126.532511,45.2465723 126.810151,45.349031 C127.088884,45.4536976 127.386351,45.5043723 127.702537,45.5043723 C128.009911,45.5043723 128.268817,45.4757323 128.488057,45.416239 C128.706204,45.355639 128.895697,45.2785243 129.054337,45.1859803 C129.211884,45.0934337 129.341884,45.0008923 129.445444,44.9061443 C129.546777,44.8157977 129.636044,44.7364803 129.698844,44.6703777 L129.124857,43.7206964 Z M123.052218,47.2076216 C122.780098,47.2076216 122.564151,47.2946616 122.397791,47.4698296 C122.233644,47.6439003 122.152111,47.8730563 122.152111,48.1561976 C122.152111,48.4294216 122.233711,48.6530696 122.397791,48.8271402 C122.564151,49.0023136 122.780098,49.0893482 123.052218,49.0893482 C123.313324,49.0893482 123.528151,49.0023082 123.694511,48.8271402 C123.856471,48.6530696 123.936898,48.4294216 123.936898,48.1561976 C123.936898,47.8730563 123.856498,47.6439003 123.694511,47.4698296 C123.528151,47.2946563 123.313324,47.2076216 123.052218,47.2076216 Z M123.709938,37.4516138 L122.382378,37.4516138 L122.382378,45.3093683 L123.709938,45.3093683 L123.709938,37.4516138 Z M119.075031,37.4516138 L119.075031,42.5099124 C119.075031,43.1753484 118.964898,43.652391 118.741204,43.9421417 C118.517564,44.2318923 118.174924,44.3762163 117.715511,44.3762163 C117.323298,44.3762163 116.996098,44.2770563 116.736084,44.079855 C116.471671,43.8848524 116.266764,43.694255 116.111418,43.5080657 L116.111418,37.4516138 L114.787151,37.4516138 L114.787151,45.3093683 L115.999044,45.3093683 L115.999044,44.4246937 L116.031044,44.4246937 C116.063044,44.4918937 116.135711,44.585543 116.241471,44.711139 C116.351604,44.8378323 116.494871,44.9568217 116.668938,45.071399 C116.844111,45.1859723 117.050124,45.2862337 117.290311,45.374371 C117.531578,45.461411 117.804804,45.504371 118.109978,45.504371 C118.459218,45.504371 118.774311,45.453691 119.058551,45.3490296 C119.341698,45.2465763 119.581871,45.0802123 119.779071,44.851055 C119.975178,44.6207963 120.130524,44.3244363 120.239591,43.958667 C120.346524,43.5928977 120.400444,43.143399 120.400444,42.6079657 L120.400444,37.4516138 L119.075031,37.4516138 Z M112.100077,47.2076216 C111.829055,47.2076216 111.610915,47.2946616 111.447862,47.4698296 C111.282605,47.6439003 111.201078,47.8730563 111.201078,48.1561976 C111.201078,48.4294216 111.282598,48.6530696 111.447862,48.8271402 C111.610915,49.0023136 111.829055,49.0893482 112.100077,49.0893482 C112.362285,49.0893482 112.578218,49.0023082 112.742378,48.8271402 C112.903231,48.6530696 112.984751,48.4294216 112.984751,48.1561976 C112.984751,47.8730563 112.903285,47.6439003 112.742378,47.4698296 C112.578218,47.2946563 112.362285,47.2076216 112.100077,47.2076216 Z M112.756698,37.4516138 L111.432438,37.4516138 L111.432438,45.3093683 L112.756698,45.3093683 L112.756698,37.4516138 Z M103.999174,37.4516072 L103.999174,42.5099124 C103.999174,43.1533137 103.905534,43.617135 103.719339,43.9013777 C103.534251,44.1845177 103.234585,44.326639 102.819238,44.326639 C102.601099,44.326639 102.408299,44.2990923 102.238635,44.2451057 C102.070073,44.1900257 101.919138,44.121719 101.786933,44.040187 C101.658026,43.958667 101.542351,43.868319 101.444299,43.770267 C101.346246,43.671107 101.263618,43.585179 101.199719,43.508059 L101.199719,37.4516072 L99.8743568,37.4516072 L99.8743568,45.3093617 L101.082937,45.3093617 L101.082937,44.4246937 L101.11819,44.4246937 C101.172177,44.5117337 101.252598,44.6174937 101.36277,44.7430883 C101.472943,44.8697817 101.608453,44.988771 101.772607,45.104451 C101.935661,45.2190243 102.126258,45.3148777 102.346601,45.3908963 C102.563638,45.4669096 102.809321,45.5043776 103.081443,45.5043776 C103.976035,45.5043776 104.609521,45.156235 104.980798,44.4577483 C105.056811,44.5657217 105.162582,44.6824977 105.290381,44.8102977 C105.422581,44.934791 105.573521,45.0493697 105.750897,45.1540323 C105.923866,45.2564857 106.119971,45.341323 106.339211,45.4063243 C106.555147,45.4735243 106.798626,45.5043776 107.058631,45.5043776 C108.653913,45.5043776 109.447147,44.5778363 109.447147,42.722551 L109.447147,37.4516072 L108.122887,37.4516072 L108.122887,42.5099191 C108.122887,43.1533204 108.009407,43.6171417 107.779153,43.9013844 C107.551097,44.1845243 107.212871,44.3266457 106.765575,44.3266457 C106.395399,44.3266457 106.086919,44.236299 105.840135,44.0567257 C105.594453,43.8760444 105.39945,43.7041777 105.259533,43.5411244 C105.280466,43.418831 105.296986,43.2932377 105.308013,43.1555244 C105.319079,43.018911 105.324533,42.874587 105.324533,42.722551 L105.324533,37.4516072 L103.999174,37.4516072 Z M97.5332156,43.7206964 C97.4461756,43.8187497 97.2853289,43.9531577 97.0583769,44.1217203 C96.8281183,44.2913843 96.5295543,44.3762163 96.1571743,44.3762163 C95.8101343,44.3762163 95.5413156,44.2935897 95.3551263,44.1294323 C95.1700383,43.966379 95.078597,43.7702737 95.078597,43.5411177 C95.078597,43.2447564 95.1612236,43.004583 95.3319903,42.811783 C95.500553,42.6211857 95.7583543,42.4173697 96.1086983,42.1992297 L96.6000636,41.9039697 C97.1354969,41.5877791 97.5541476,41.2462471 97.8604236,40.8804778 C98.1667009,40.5147084 98.3187369,40.0431751 98.3187369,39.4647751 C98.3187369,38.8423071 98.1028009,38.3189938 97.6731329,37.8926298 C97.2412609,37.4673685 96.6209956,37.2545179 95.8156436,37.2545179 C95.4972476,37.2545179 95.220717,37.2872379 94.9794423,37.3534512 C94.739269,37.4180112 94.528841,37.4949112 94.3481596,37.5819472 C94.168581,37.6700805 94.0176463,37.7648312 93.898661,37.8672898 C93.7796743,37.9719565 93.680521,38.0678018 93.603401,38.1559392 L94.2423956,39.2025671 C94.3085023,39.1375671 94.3867196,39.0604471 94.4803663,38.9734111 C94.5740063,38.8852778 94.685285,38.8015445 94.816389,38.7200165 C94.9474956,38.6373898 95.094021,38.5690818 95.2570743,38.5150978 C95.4223316,38.4611112 95.6118263,38.4324712 95.8310676,38.4324712 C96.2221756,38.4324712 96.5240449,38.5206045 96.7278623,38.6957805 C96.9371876,38.8698511 97.0429529,39.0835845 97.0429529,39.3336725 C97.0429529,39.5198631 97.0154062,39.6796111 96.9680329,39.8173258 C96.9184596,39.9528365 96.8446463,40.0762284 96.7465889,40.1852978 C96.6474289,40.2943644 96.5295516,40.3979284 96.3874303,40.4959818 C96.2453089,40.5940351 96.0822556,40.7042058 95.8960649,40.8220884 L95.4058023,41.1349751 C94.913337,41.4511671 94.5288383,41.7838844 94.2512063,42.1342297 C93.972473,42.4823711 93.8325557,42.929667 93.8325557,43.4750164 C93.8325557,43.770275 93.889849,44.040195 94.0055237,44.2858777 C94.1190037,44.5304577 94.280953,44.7430883 94.489177,44.924871 C94.695197,45.104451 94.9386756,45.2465723 95.2163076,45.349031 C95.495041,45.4536976 95.7936063,45.5043723 96.1086956,45.5043723 C96.4138716,45.5043723 96.6760783,45.4757323 96.8942182,45.416239 C97.1123582,45.355639 97.2996489,45.2785243 97.4571942,45.1859803 C97.6169422,45.0934337 97.7480462,45.0008923 97.8527089,44.9061443 C97.9562689,44.8157977 98.0400009,44.7364803 98.1061036,44.6703777 L97.5332156,43.7206964 Z M89.8873198,44.4246923 C89.4190918,44.4246923 89.0423051,44.2274857 88.7591651,43.835275 C88.4738211,43.4430644 88.3118691,42.8745804 88.2678011,42.1342284 L91.1333584,42.1342284 C91.1444251,42.1882151 91.1509851,42.2664284 91.1564917,42.3699951 C91.1619584,42.4746617 91.1652917,42.5848297 91.1652917,42.7071204 C91.1652917,43.2524684 91.0562251,43.6744244 90.8369797,43.9751924 C90.6188411,44.274859 90.3026491,44.4246923 89.8873024,44.4246923 L89.8873198,44.4246923 Z M92.3771944,42.6564404 C92.3771944,42.3171137 92.365061,42.0262604 92.3430344,41.7805791 C92.3209944,41.5359977 92.3000744,41.3200618 92.279141,41.1349738 L88.2678011,41.1349738 C88.3118678,40.2073311 88.5112798,39.5242685 88.8649291,39.0879898 C89.2196811,38.6517112 89.7308771,38.4324698 90.3952104,38.4324698 C90.6243664,38.4324698 90.8325904,38.4611098 91.0165771,38.5150965 C91.2027664,38.5690832 91.3636171,38.6351898 91.5002291,38.7112018 C91.6368424,38.7872151 91.7525224,38.8643405 91.8461677,38.9414605 C91.9376077,39.0163805 92.0048144,39.0780725 92.0488824,39.1210391 L92.5391464,38.1878885 C92.4851597,38.1328085 92.4036344,38.0545818 92.294565,37.9499178 C92.1865917,37.8474645 92.0389677,37.7438978 91.8538797,37.6392338 C91.6676904,37.5356738 91.4374317,37.4459938 91.1653091,37.3689845 C90.8920837,37.2931845 90.5703824,37.2545179 90.1991051,37.2545179 C89.7077411,37.2545179 89.2626478,37.3358245 88.8649291,37.5004192 C88.4661091,37.6634738 88.1289851,37.9179698 87.8502505,38.2606018 C87.5726198,38.6043365 87.3566838,39.0417178 87.2035452,39.5716418 C87.0507372,40.1004644 86.9741678,40.7361538 86.9741678,41.4776071 C86.9741678,42.1760937 87.0528345,42.7798324 87.2121385,43.287723 C87.3699038,43.7934097 87.5847385,44.2120617 87.8579625,44.5381683 C88.1300865,44.8675803 88.4484825,45.1088563 88.8076411,45.267503 C89.1667998,45.4261496 89.5557038,45.504371 89.9699491,45.504371 C90.7235211,45.504371 91.3129384,45.267503 91.7381997,44.7926643 C92.163461,44.318927 92.3771944,43.6072204 92.3771944,42.6564404 L92.3771944,42.6564404 Z M82.5057266,38.4324698 C82.7122986,38.4324698 82.8978266,38.4611098 83.0613213,38.5150965 C83.2265786,38.5690832 83.3677079,38.6373898 83.4877946,38.7200151 C83.6074346,38.8015485 83.7090186,38.8852725 83.7912066,38.9734098 C83.8725132,39.0604498 83.9349799,39.1375658 83.9779466,39.2025658 L83.9779466,44.047907 C83.8587466,44.125027 83.7197052,44.1900283 83.5605079,44.2451137 C83.4026319,44.2991003 83.2033319,44.326647 82.9635986,44.326647 C82.6589746,44.326647 82.3714279,44.2748603 82.104152,44.1713057 C81.8374266,44.0677457 81.604524,43.8958777 81.4087506,43.6568057 C81.2125346,43.4144284 81.056312,43.102643 80.9405213,42.7225524 C80.827708,42.3413591 80.7700867,41.8709271 80.7700867,41.3145618 C80.7700867,40.7692124 80.81658,40.3131031 80.909564,39.9473338 C81.002004,39.5826671 81.1299066,39.2874071 81.29296,39.0637605 C81.4568946,38.8390098 81.6433053,38.6792618 81.8507573,38.5801072 C82.0577693,38.4831605 82.2759093,38.4324698 82.5057266,38.4324698 L82.5057266,38.4324698 Z M79.3954774,41.2638751 C79.3954774,42.0615151 79.498384,42.7280524 79.706712,43.262383 C79.9140547,43.796715 80.1804493,44.2274857 80.507548,44.5557963 C80.8359693,44.8830043 81.206916,45.1143643 81.6213813,45.252079 C82.035736,45.388691 82.4506413,45.4569976 82.8655466,45.4569976 C83.1159666,45.4569976 83.3345466,45.4360643 83.5200746,45.398611 C83.7059332,45.3611576 83.8587412,45.3148777 83.9779466,45.2586937 L83.9779466,49.0243522 L85.3042999,49.1719816 L85.3042999,37.4516178 L84.0937372,37.4516178 L84.0937372,38.2859458 L84.0610172,38.2859458 C84.0282972,38.2198392 83.9672572,38.1317058 83.8811079,38.0160258 C83.7932946,37.9014525 83.6728839,37.7868698 83.5200759,37.6722912 C83.3677093,37.5588112 83.1762306,37.4584485 82.9477359,37.3771418 C82.7179186,37.2958352 82.4506426,37.2545152 82.1450266,37.2545152 C81.7749613,37.2545152 81.4225226,37.3281152 81.0885933,37.4761792 C80.7567573,37.6227072 80.4645827,37.8573725 80.2127307,38.1790725 C79.9623107,38.5018752 79.763452,38.9161191 79.615492,39.4240098 C79.4690734,39.9307978 79.3954774,40.5444524 79.3954774,41.2638724 L79.3954774,41.2638751 Z M76.4476214,37.4516138 L76.4476214,42.5099124 C76.4476214,43.1753484 76.3365681,43.652391 76.1131414,43.9421417 C75.8885028,44.2318923 75.5481828,44.3762163 75.0894295,44.3762163 C74.6964481,44.3762163 74.3693481,44.2770563 74.1069202,44.079855 C73.8455935,43.8848524 73.6386922,43.694255 73.4858842,43.5080657 L73.4858842,37.4516138 L72.1590909,37.4516138 L72.1590909,45.3093683 L73.3705348,45.3093683 L73.3705348,44.4246937 L73.4036948,44.4246937 C73.4364148,44.4918937 73.5060415,44.585543 73.6170975,44.711139 C73.7251775,44.8378323 73.8671868,44.9568217 74.0419175,45.071399 C74.2162095,45.1859723 74.4239921,45.2862337 74.6637255,45.374371 C74.9047801,45.461411 75.1766828,45.504371 75.4827401,45.504371 C75.8317628,45.504371 76.1480641,45.453691 76.4325268,45.3490296 C76.7156681,45.2465763 76.9567227,45.0802123 77.1524974,44.851055 C77.3487121,44.6207963 77.5015201,44.3244363 77.6095987,43.958667 C77.7197721,43.5928977 77.7744147,43.143399 77.7744147,42.6079657 L77.7744147,37.4516138 L76.4476214,37.4516138 Z M70.1299536,37.4516138 L68.9176269,37.4516138 L68.9176269,38.3355192 L68.8857869,38.3355192 C68.8530669,38.2705192 68.7821203,38.1746685 68.672275,38.0490738 C68.5634216,37.9223805 68.425711,37.8033912 68.2552763,37.6877112 C68.086163,37.5742312 67.8813536,37.4739792 67.640299,37.3857312 C67.401447,37.2988112 67.1338417,37.2545179 66.8385817,37.2545179 C66.4891177,37.2545179 66.176231,37.3069579 65.8987097,37.4107405 C65.619315,37.5136338 65.382667,37.6799992 65.1851297,37.9091552 C64.9884737,38.1394138 64.8387511,38.4357752 64.7362911,38.8015445 C64.6313044,39.1673125 64.5800684,39.6168125 64.5800684,40.1511431 L64.5800684,45.3093683 L65.9059804,45.3093683 L65.9059804,40.2502978 C65.9059804,39.5958791 66.0127404,39.1287525 66.224487,38.8511205 C66.4378883,38.5723872 66.768403,38.4324698 67.2155883,38.4324698 C67.5973323,38.4324698 67.9200243,38.5283232 68.1816816,38.7200165 C68.443339,38.9106138 68.6499096,39.0990071 68.804039,39.2862978 L68.804039,45.3093683 L70.1299536,45.3093683 L70.1299536,37.4516138 Z M61.3549125,40.6105578 C61.3549125,41.2220098 61.1557218,41.7045604 60.7576725,42.0593124 C60.3586325,42.4140644 59.7884952,42.5914404 59.0473725,42.5914404 L58.0812792,42.5914404 L58.0812792,38.6296765 L58.9656245,38.6296765 C59.8056818,38.6296765 60.4141592,38.7971365 60.7902832,39.1287525 C61.1668498,39.4625725 61.3549125,39.9572418 61.3549125,40.6105578 L61.3549125,40.6105578 Z M61.1428325,45.817259 C61.1428325,46.3405723 60.9568631,46.7713429 60.5845938,47.1095683 C60.2145285,47.4477949 59.6305098,47.6174589 58.8339699,47.6174589 L58.0812792,47.6174589 L58.0812792,43.7206964 L58.8175552,43.7206964 C59.5814832,43.7206964 60.1603232,43.9057844 60.5527538,44.2770617 C60.9465071,44.6483403 61.1428325,45.161739 61.1428325,45.817259 L61.1428325,45.817259 Z M62.5827724,45.865739 C62.5827724,45.4735283 62.5337458,45.1286923 62.4351431,44.832331 C62.3374231,44.5381737 62.2040031,44.2858817 62.0348898,44.0721483 C61.8648951,43.860619 61.6691205,43.687651 61.4449218,43.556547 C61.2219351,43.426547 60.9900245,43.3284924 60.7498512,43.2623884 L60.7498512,43.2304417 C61.0442285,43.1753617 61.3200978,43.0728964 61.5761365,42.9186564 C61.8330565,42.765519 62.0576951,42.5749217 62.2470804,42.3457657 C62.4385578,42.1166097 62.5913658,41.8477911 62.7058338,41.5360057 C62.8198604,41.2242204 62.8775911,40.8826898 62.8775911,40.5114124 C62.8775911,40.0652178 62.8009111,39.6564818 62.6490951,39.2863058 C62.4967284,38.9139271 62.2583178,38.5911245 61.9355151,38.3190018 C61.6149165,38.0468778 61.2086045,37.8331458 60.7171298,37.6800072 C60.2256552,37.5279712 59.6413058,37.4516218 58.9656245,37.4516218 L56.6576446,37.4516218 L56.6576446,48.7456216 L58.8339699,48.7456216 C59.4997365,48.7456216 60.0703138,48.6784216 60.5454832,48.5418056 C61.0193298,48.4051922 61.4096671,48.2123922 61.7151725,47.9601003 C62.0203471,47.7100109 62.2414618,47.4070389 62.3784044,47.0522883 C62.5139151,46.6964336 62.5827724,46.300919 62.5827724,45.8657416" id="path4824" fill="#000000" transform="translate(112.028069, 25.069179) scale(-1, 1) rotate(-180.000000) translate(-112.028069, -25.069179) "></path>
            <polyline id="path4826" fill="#D0D0D0" transform="translate(44.014596, 70.462001) scale(-1, 1) rotate(-180.000000) translate(-44.014596, -70.462001) " points="44.3593222 84.2186076 46.4216208 84.2186076 46.4216208 56.705395 41.6075716 56.705395 41.6075716 84.2186076 44.3593222 84.2186076"></polyline>
            <polyline id="path4828" fill="#9D9D9D" transform="translate(44.014596, 42.881915) scale(-1, 1) rotate(-180.000000) translate(-44.014596, -42.881915) " points="44.3593222 56.7053949 46.4216208 56.7053949 46.4216208 29.0584356 41.6075716 29.0584356 41.6075716 56.7053949 44.3593222 56.7053949"></polyline>
            <path d="M20.5239615,18.9230012 C20.5605348,19.2303799 20.5821348,19.5487759 20.5821348,19.8737812 C20.5821348,20.0511572 20.5833455,20.2571772 20.5614282,20.4896385 C23.3028241,20.5293052 25.7085267,22.5035718 25.7085267,24.7764078 C25.7085267,25.9332077 24.9545134,26.803561 24.5289214,27.3257744 C24.6240014,27.3445077 24.7203987,27.367641 24.8176801,27.391881 C25.2191454,27.0437397 26.3583173,25.8021077 26.3583173,24.2332664 C26.3583173,21.5087278 23.6342187,18.9791932 20.5239615,18.9230012 L20.5239615,18.9230012 Z M17.7610829,28.4142677 C17.7098562,28.7172383 17.5945042,28.9926677 17.4190002,29.2284343 C17.4271336,29.5060663 17.5416269,29.7715796 17.9891376,29.5534396 C17.7464296,29.3055543 17.9336176,28.868173 17.9336176,28.868173 C17.9336176,28.868173 18.4290589,29.0973303 18.3257175,29.423437 C19.0612215,29.2471637 18.5336109,28.2622303 17.7610896,28.4142677 L17.7610829,28.4142677 Z M17.1241816,27.0150904 C17.0251416,27.422725 16.8177949,27.839173 16.5517309,28.1542623 C16.3090243,28.4396063 15.9084403,28.780037 15.370915,28.780037 C15.1239096,28.780037 14.7110976,28.664357 14.4498816,28.554185 C14.3496283,28.731561 14.1594697,29.163433 14.1594697,29.3573343 C14.1594697,29.556745 14.4959336,29.7594596 15.1410963,29.7594596 C16.5599949,29.7594596 17.4099669,29.1182623 17.4099669,28.0418877 C17.4099669,27.6639997 17.2596922,27.3191637 17.1241816,27.0150904 L17.1241816,27.0150904 Z M20.7693122,8.71804546 C20.9336881,8.71804546 21.0149948,8.69137879 21.1100735,8.65645879 C21.5189188,7.54394815 23.0935988,5.44683487 23.1590401,5.35737621 L23.1745734,5.33886954 L23.1987068,5.34446954 C23.5838654,5.40550954 24.5697894,5.55489754 25.3960747,5.55489754 L25.4154614,5.55489754 C25.5044747,5.55489754 25.605176,5.55489754 25.6710587,5.49165754 C25.7234987,5.43733754 25.750272,5.34446821 25.750272,5.21061088 C25.750272,5.00492022 25.663352,4.65413489 25.5600054,4.50485223 C25.2708054,4.82027356 24.8004841,4.96140289 24.0507681,4.96140289 C23.8239254,4.96140289 23.5579707,4.89342955 23.4138668,4.85641622 L23.3540401,4.84308289 L23.2868401,4.82545622 L23.7211361,4.39160157 C24.3889947,3.72418292 24.9665134,3.14655493 24.9665134,2.76315894 C24.9665134,2.53201895 24.7414334,2.23169095 24.5345321,2.09651096 C24.4896921,2.80149761 23.7783147,3.74004825 23.0876508,4.2672189 L23.0287041,4.3116189 L23.0165708,4.06538558 C23.0071041,3.89715358 22.9921174,3.64364959 22.9921174,3.37593359 C22.9921174,2.03580829 22.8564961,1.83353363 22.3925641,1.83353363 C22.3211774,1.83353363 22.2114428,1.8542403 22.1442388,1.88002696 C22.4067774,2.20194829 22.5087961,2.62886161 22.5087961,3.37681626 L22.5053294,3.72242292 L22.5009294,4.00005491 C22.5009294,4.3068829 22.5340894,4.53405623 22.5577828,4.71694023 L22.5711161,4.82028689 L22.4979694,4.82975356 C22.2810414,4.86027356 21.8782548,4.91491355 21.5696655,4.91491355 C20.9078655,4.91491355 20.4611202,4.85464689 20.1344628,4.5482629 C19.9201788,4.72123223 19.7002775,5.02034688 19.7002775,5.20929088 C19.7002775,5.48901621 19.8745682,5.51050021 20.1013015,5.51050021 C20.2170882,5.51050021 20.3247282,5.49375354 20.4735695,5.47612687 C20.7584735,5.43348687 21.1867095,5.37024688 22.0671988,5.37024688 L22.1222788,5.37024688 L22.1063055,5.42488687 C21.8821055,6.06399219 21.2688921,6.99273617 20.2837388,8.18820681 C20.3741922,8.50880546 20.4611148,8.71804546 20.7692642,8.71804546 L20.7693122,8.71804546 Z M12.2762004,5.42491221 L12.2590137,5.37027221 L12.3136537,5.37027221 C13.1945843,5.37027221 13.623151,5.43351221 13.907283,5.47615221 C14.0565657,5.49377887 14.164203,5.51052554 14.2791123,5.51052554 C14.5062856,5.51052554 14.6814576,5.48904554 14.6814576,5.20931621 C14.6814576,5.02037222 14.4602336,4.72125756 14.2468323,4.54828823 C13.9213857,4.85467489 13.472547,4.91493889 12.811959,4.91493889 C12.5029284,4.91493889 12.0989297,4.86029889 11.8828844,4.82977889 L11.8479644,4.82551222 L11.8097377,4.82031222 L11.8221377,4.71696556 C11.8479244,4.53408156 11.8793244,4.30690824 11.8793244,4.00008024 L11.8750577,3.72244825 L11.8721244,3.37684159 C11.8721244,2.62888694 11.975351,2.20197362 12.2366817,1.8800523 C12.1694817,1.85427896 12.059747,1.83355896 11.9887964,1.83355896 C11.523983,1.83355896 11.3883617,2.03583363 11.3883617,3.37595893 C11.3883617,3.64367492 11.3745884,3.89717891 11.3646817,4.06541091 L11.3517484,4.3124149 L11.2928017,4.26724157 C10.6029084,3.74007092 9.89076042,2.80152027 9.84900576,2.09653362 C9.64067243,2.23171362 9.4151511,2.53204161 9.4151511,2.76318161 C9.4151511,3.1465776 9.99310975,3.72420558 10.6610791,4.39162423 L11.0457977,4.77513089 L11.0931711,4.82547756 L10.9679044,4.85643756 C10.8245711,4.89345089 10.5577364,4.96142422 10.3310031,4.96142422 C9.57996443,4.96142422 9.11173644,4.82029489 8.82165512,4.50487356 C8.71798845,4.65415623 8.63105912,5.00494155 8.63105912,5.21063221 C8.63105912,5.34448954 8.65772579,5.43736421 8.70895245,5.49167887 C8.77560579,5.55491887 8.87718445,5.55491887 8.96631245,5.55491887 L8.98481911,5.55491887 C9.81198576,5.55491887 10.7979097,5.40552687 11.1835097,5.34449088 L11.2072031,5.33889088 L11.2218564,5.35739754 C11.2871897,5.44685087 12.8627497,7.54396949 13.2720363,8.65648013 C13.365463,8.69140013 13.4472097,8.71806679 13.6111443,8.71806679 C13.921387,8.71806679 14.0071003,8.50885213 14.0974403,8.18825347 C13.1119577,6.99278284 12.499955,6.06403886 12.2761977,5.42493354 L12.2762004,5.42491221 Z M8.02335647,24.2332624 C8.02335647,25.8021037 9.16253644,27.0437357 9.5645511,27.391877 C9.6600711,27.367637 9.75735109,27.3445037 9.85331109,27.3257704 C9.42683777,26.803557 8.67370579,25.9332037 8.67370579,24.7764038 C8.67370579,22.4815332 11.1257897,20.4896345 13.900787,20.4896345 C13.8831603,20.2924279 13.8736803,20.0864079 13.8736803,19.8737772 C13.8736803,19.5355506 13.891747,19.2204599 13.9265603,18.9229972 C10.7871164,18.9417306 8.02335647,21.4888892 8.02335647,24.2332584 L8.02335647,24.2332624 Z M29.0790999,19.4000439 C30.4867599,17.1737 31.5889145,17.2114893 33.2530532,17.2114893 C31.8754705,18.2663799 30.9649039,19.6181839 30.5310492,20.3100599 L27.959208,24.4260624 C27.7065853,25.6963397 27.049964,26.885089 26.065252,27.7686624 C26.3962067,27.8942624 26.6707533,28.0264637 26.8377733,28.1509583 C25.15766,28.1509583 23.4925294,29.003685 22.5767841,29.003685 C21.9880281,29.003685 21.6089295,28.6533397 21.6089295,28.1873143 C21.6475961,27.669509 22.1808281,27.1406864 23.1671934,27.1406864 C23.3901801,27.1406864 23.6762947,27.170433 23.9891814,27.2222064 C24.5241747,26.4785491 24.954504,25.8065037 24.954504,24.8458091 C24.954504,23.0445065 22.7996614,21.6398212 20.6237762,21.6398212 C20.5020428,21.6398212 20.3845948,21.6442212 20.2618628,21.6541412 C20.0638855,22.1003358 19.4097975,22.8506025 19.4097975,23.7044305 C19.4097975,25.1344558 20.3428388,26.3044757 20.3428388,27.7234837 C20.3428388,28.6048543 19.9132815,29.1502023 19.7475828,29.3771556 C20.0157402,29.6239396 20.3070335,29.930217 20.3763308,30.1373383 C20.2205495,30.0712316 20.0367828,30.0624183 19.7669735,30.0624183 C18.7242015,30.0624183 17.8751096,30.3334396 17.0467309,30.3334396 C16.5742069,30.3334396 16.4467376,30.188013 16.4467376,30.049197 C16.4467376,29.9974236 16.4546043,29.945637 16.4687776,29.9203036 C16.2918429,29.989717 16.1257043,30.034877 15.9286069,30.0712383 C15.6854589,30.117505 15.4221496,30.1406516 15.1411016,30.1406516 C14.134907,30.1406516 13.7768497,29.719797 13.7768497,29.357333 C13.7768497,29.051057 14.018235,28.4924877 14.2906896,28.0672263 C14.6840016,28.264433 15.1548736,28.3988423 15.3709203,28.3988423 C15.9041496,28.3988423 16.3805309,27.8898504 16.6322723,27.2861104 C16.2720109,27.2431504 16.2031549,27.226617 15.8395883,27.226617 C14.8591736,27.226617 14.192527,27.5780637 14.0556937,27.5780637 C14.0419203,27.5780637 14.016587,27.571397 14.016587,27.5494237 C14.016587,27.411709 14.293227,27.0481437 14.8415496,26.8476317 C15.5628429,26.5843224 16.6451656,26.4752517 16.8255163,26.4455064 C16.8255163,26.4135597 16.6421909,26.0709237 16.4381536,26.0070237 C16.3947403,25.9915971 16.3607003,25.9905037 16.3094736,26.0015571 C15.5559016,26.1513891 15.3454736,26.2130851 14.389627,26.5766517 C14.359987,26.5877184 14.3428003,26.5699851 14.3428003,26.5391984 C14.3428003,26.1613104 15.321783,25.3251091 16.1992989,25.0067144 C15.466879,24.0702571 14.550583,23.1139691 14.1189323,21.6541985 C13.997639,21.6443318 13.8793097,21.6398785 13.7565777,21.6398785 C11.581575,21.6398785 9.4268431,23.0445638 9.4268431,24.8458664 C9.4268431,25.8065611 9.85761242,26.4786064 10.3920537,27.2222637 C10.7058217,27.170477 10.9902844,27.1407437 11.2136017,27.1407437 C12.199967,27.1407437 12.7336364,27.6695664 12.773299,28.1873717 C12.773299,28.653397 12.3936484,29.0037423 11.8036804,29.0037423 C10.8882657,29.0037423 9.22456844,28.1510157 7.54313248,28.1510157 C7.71015248,28.0265223 7.98425781,27.8943157 8.31521246,27.7687197 C7.33138315,26.8851464 6.67376984,25.6963971 6.42202851,24.4261198 L3.85062724,20.3101172 C3.41776459,19.6182412 2.50455394,18.2664373 1.12652998,17.2115466 C2.7911086,17.2115466 3.89458591,17.17376 5.30268587,19.4001012 L6.62176851,21.5120865 C6.71894184,21.2377599 6.8399085,20.9711452 6.98103783,20.7100385 L4.35763656,16.5127293 C3.92168857,15.8172173 3.01751126,14.4757707 1.6351913,13.4146 C3.29767792,13.4146 4.40280723,13.3758134 5.81002586,15.6011707 L8.06820847,19.2172172 C8.23776313,19.0376372 8.41458713,18.8602612 8.60309112,18.6939026 L5.41627387,13.5918654 C4.97823121,12.8951414 4.07879257,11.5588721 2.69217527,10.4967108 C4.35675523,10.4967108 5.4614432,10.4567241 6.8683325,12.6842734 L9.97461509,17.6574106 C10.1790924,17.5279573 10.3895204,17.4018119 10.6060071,17.2848106 L6.81500983,11.2175614 C6.37597651,10.5195161 5.47653653,9.18589078 4.0912419,8.12075347 C5.75626186,8.12075347 6.85973917,8.08330014 8.26739913,10.3086481 L12.1712124,16.5592213 C12.403123,16.469208 12.6367964,16.3861426 12.874767,16.308692 L8.46328313,9.24780678 C8.03196314,8.55967613 7.11236183,7.20368683 5.74116853,6.15232152 C7.40629915,6.15232152 8.50922446,6.11486819 9.91655376,8.33889347 L14.6194403,15.865032 C14.6668136,15.8568987 14.714187,15.8494987 14.7611216,15.8400187 C14.8893616,15.4320547 14.977939,15.053836 14.977939,14.6750667 C14.977939,12.3102374 13.4260643,10.2212774 11.5648284,8.60958013 C11.6827084,8.55670013 11.8906057,8.5402868 12.0829644,8.5402868 C12.4668017,8.5402868 12.7160097,8.55967346 12.8903003,8.59063346 C12.457327,7.61120949 11.5303444,6.34335752 11.0625577,5.6883882 C10.4536404,5.79812153 9.56620977,5.8846042 8.98483511,5.8846042 C8.37801113,5.8846042 8.30871246,5.52742821 8.30871246,5.21068555 C8.30871246,4.65850556 8.56651379,4.2195829 8.86816312,3.97467224 C8.98009645,4.25660157 9.20694044,4.63360689 10.3310191,4.63360689 C10.3507391,4.63360689 10.3912857,4.63094023 10.4432857,4.62760689 C10.1140924,4.26216824 9.08729511,3.43202692 9.08729511,2.76328694 C9.08729511,2.32006695 9.5731511,1.65639497 10.2134671,1.65639497 C10.1748004,1.79840563 10.1799737,1.9300603 10.1799737,2.02866296 C10.1799737,2.57136828 10.6602111,3.20573493 11.0652017,3.64719092 C11.0540017,3.51465759 11.0600017,3.52843092 11.0600017,3.37606026 C11.0600017,2.09410562 11.1762284,1.50578964 11.988747,1.50578964 C12.3876777,1.50578964 12.663547,1.72392963 12.757743,1.7902523 C12.229251,2.27654962 12.2025897,2.65917494 12.2025897,3.37694159 C12.203471,3.56379225 12.203911,3.74623492 12.2064564,3.99929891 C12.2081897,4.16323491 12.206015,4.3806029 12.1797897,4.53803756 C12.4707524,4.57814423 12.588635,4.57814423 12.8119524,4.57814423 C12.8119524,4.57814423 13.9671003,4.66893089 14.245503,4.06981357 C14.559271,4.35736023 15.014059,4.76224022 15.014059,5.20942555 C15.014059,5.50556687 14.874251,5.8399362 14.2791056,5.8399362 C14.0535843,5.8399362 13.3447417,5.70134153 12.752571,5.70134153 C12.9114377,6.05675353 13.621051,7.0940175 14.235147,7.84538681 C14.3285736,7.55354282 14.4731176,7.2381215 14.7950376,6.9803215 C14.8394376,7.46408282 15.123899,8.99480545 15.8800056,9.88961743 C15.9690189,9.28532678 16.0878989,8.66396013 16.0878989,7.35644549 C16.0878989,4.17359491 15.321767,1.82297763 13.6971803,1.37413898 C13.9080483,1.00616698 14.355675,0.676093659 14.820047,0.676093659 C15.4134296,0.676093659 15.7384349,1.34736698 16.0676283,1.98041229 C16.2397149,1.51350564 16.7140029,0.367063 17.1908256,0.367063 C17.6659949,0.367063 18.1410536,1.51350564 18.3128109,1.98041229 C18.6428842,1.34736698 18.9668975,0.676093659 19.5617135,0.676093659 C20.0238828,0.676093659 20.4727202,1.00616698 20.6840295,1.37413898 C19.0594415,1.82297763 18.2929802,4.17359491 18.2929802,7.35644549 C18.2929802,8.66396013 18.4117402,9.28532678 18.4995509,9.88961743 C19.2583015,8.99480545 19.5418828,7.46408282 19.5858415,6.9803215 C19.9073215,7.2381215 20.0527468,7.55354282 20.1473842,7.84538681 C20.7602682,7.0940175 21.4690001,6.05675353 21.6290801,5.70134153 C21.0365775,5.70134153 20.3268535,5.8399362 20.1013335,5.8399362 C19.5070682,5.8399362 19.3680322,5.50556687 19.3680322,5.20942555 C19.3680322,4.76224022 19.8224895,4.35736023 20.1353762,4.06981357 C20.4133388,4.66892556 21.5696975,4.57814423 21.5696975,4.57814423 C21.7935655,4.57814423 21.9105681,4.57814423 22.2024121,4.53803756 C22.1756388,4.3806029 22.1739855,4.16323491 22.1748655,3.99929891 C22.1773988,3.74623492 22.1783321,3.56379225 22.1787321,3.37694159 C22.1787321,2.65917494 22.1516255,2.27654962 21.6235788,1.7902523 C21.7186588,1.7239323 21.9940855,1.50578964 22.3925748,1.50578964 C23.2055308,1.50578964 23.3217614,2.09410562 23.3217614,3.37606026 C23.3217614,3.52842692 23.3272281,3.51465492 23.3165614,3.64719092 C23.7215521,3.20573493 24.2013481,2.57136828 24.2013481,2.02866296 C24.2013481,1.93006296 24.2073481,1.79840563 24.1673081,1.65639497 C24.8090561,1.65639497 25.295352,2.32006695 25.295352,2.76328694 C25.295352,3.43202692 24.2676734,4.26216824 23.9376001,4.62760689 C23.9913601,4.63107356 24.0292667,4.63360689 24.0507467,4.63360689 C25.173944,4.63360689 25.4003454,4.25660157 25.513932,3.97467224 C25.8134894,4.2195829 26.0717307,4.65850556 26.0717307,5.21068555 C26.0717307,5.52742821 26.0045307,5.8846042 25.3960494,5.8846042 C24.8150054,5.8846042 23.9288974,5.7981242 23.3178868,5.6883882 C22.8499881,6.34335752 21.9238881,7.61120949 21.4910241,8.59063346 C21.6653148,8.55967346 21.9144135,8.5402868 22.2988014,8.5402868 C22.4911601,8.5402868 22.6977321,8.55670013 22.8173774,8.60958013 C20.9551508,10.2212774 19.4028362,12.3102374 19.4028362,14.6750667 C19.4028362,15.053836 19.4928495,15.4320547 19.6193228,15.8400187 C19.6662562,15.8494853 19.7157228,15.856872 19.7622148,15.865032 L24.4647707,8.33889347 C25.8719894,6.11486286 26.9759067,6.15232152 28.6391653,6.15232152 C27.2685227,7.20368683 26.3479307,8.55967613 25.9189227,9.24780678 L21.5055668,16.308692 C21.7448588,16.3861453 21.9789735,16.469212 22.2096721,16.5592213 L26.1134854,10.3086481 C27.5220266,8.08329614 28.6241813,8.12075347 30.2905239,8.12075347 C28.9051186,9.18589078 28.0056786,10.5195161 27.5676373,11.2175614 L23.7761987,17.2848106 C23.9913641,17.4018106 24.2017907,17.5279586 24.4058294,17.6574106 L27.5134333,12.6842734 C28.9206519,10.4567175 30.0241293,10.4967108 31.6873865,10.4967108 C30.3025319,11.5588721 29.4030933,12.8951414 28.9645013,13.5918654 L25.778564,18.6939026 C25.966296,18.8602612 26.144884,19.0376372 26.3126747,19.2172172 L28.570748,15.6011707 C29.9792893,13.3758187 31.0814439,13.4146 32.7465745,13.4146 C31.3629319,14.4757707 30.4608492,15.8172173 30.0241293,16.5127293 L27.4010587,20.7100385 C27.5413066,20.9711452 27.6622746,21.2377599 27.759116,21.5120865 L29.0790786,19.4001012" id="path4830" fill="#231F20" transform="translate(17.189792, 15.350251) scale(-1, 1) rotate(-180.000000) translate(-17.189792, -15.350251) "></path>
            <polyline id="path4832" fill="#000000" transform="translate(44.014596, 15.439212) scale(-1, 1) rotate(-180.000000) translate(-44.014596, -15.439212) " points="46.4216208 29.1948269 46.4216208 1.6835969 41.6075716 1.6835969 41.6075716 29.1948269 46.4216208 29.1948269"></polyline>
            <g id="use4878" transform="translate(17.184794, 15.333119) scale(-1, 1) rotate(-180.000000) translate(-17.184794, -15.333119) translate(0.184794, 0.333119)" fill="#000000">
                <path d="M20.3391675,18.5556182 C20.3757408,18.8629968 20.3973408,19.1813928 20.3973408,19.5063982 C20.3973408,19.6837741 20.3985515,19.8897941 20.3766342,20.1222555 C23.1180301,20.1619221 25.5237327,22.1361888 25.5237327,24.4090247 C25.5237327,25.5658247 24.7697194,26.436178 24.3441274,26.9583913 C24.4392074,26.9771246 24.5356047,27.000258 24.6328861,27.024498 C25.0343514,26.6763566 26.1735233,25.4347247 26.1735233,23.8658834 C26.1735233,21.1413448 23.4494247,18.6118102 20.3391675,18.5556182 L20.3391675,18.5556182 Z M17.5762889,28.0468846 C17.5250622,28.3498553 17.4097102,28.6252846 17.2342062,28.8610513 C17.2423396,29.1386832 17.3568329,29.4041966 17.8043436,29.1860566 C17.5616356,28.9381713 17.7488236,28.5007899 17.7488236,28.5007899 C17.7488236,28.5007899 18.2442649,28.7299473 18.1409235,29.0560539 C18.8764275,28.8797806 18.3488169,27.8948473 17.5762956,28.0468846 L17.5762889,28.0468846 Z M16.9393876,26.6477073 C16.8403476,27.055342 16.6330009,27.47179 16.3669369,27.7868793 C16.1242303,28.0722233 15.7236463,28.4126539 15.186121,28.4126539 C14.9391156,28.4126539 14.5263036,28.2969739 14.2650876,28.1868019 C14.1648343,28.3641779 13.9746757,28.7960499 13.9746757,28.9899513 C13.9746757,29.1893619 14.3111396,29.3920766 14.9563023,29.3920766 C16.3752009,29.3920766 17.2251729,28.7508793 17.2251729,27.6745046 C17.2251729,27.2966166 17.0748982,26.9517806 16.9393876,26.6477073 L16.9393876,26.6477073 Z M20.5845182,8.35066243 C20.7488941,8.35066243 20.8302008,8.32399577 20.9252795,8.28907577 C21.3341248,7.17656513 22.9088048,5.07945185 22.9742461,4.98999318 L22.9897794,4.97148652 L23.0139128,4.97708652 C23.3990714,5.03812652 24.3849954,5.18751451 25.2112807,5.18751451 L25.2306674,5.18751451 C25.3196807,5.18751451 25.420382,5.18751451 25.4862647,5.12427451 C25.5387047,5.06995451 25.565478,4.97708518 25.565478,4.84322785 C25.565478,4.63753719 25.478558,4.28675187 25.3752114,4.1374692 C25.0860114,4.45289053 24.6156901,4.59401986 23.8659741,4.59401986 C23.6391314,4.59401986 23.3731767,4.52604653 23.2290728,4.4890332 L23.1692461,4.47569986 L23.1020461,4.4580732 L23.5363421,4.02421854 C24.2042007,3.35679989 24.7817194,2.77917191 24.7817194,2.39577592 C24.7817194,2.16463592 24.5566394,1.86430793 24.3497381,1.72912793 C24.3048981,2.43411458 23.5935207,3.37266522 22.9028568,3.89983588 L22.8439101,3.94423588 L22.8317768,3.69800255 C22.8223101,3.52977055 22.8073234,3.27626656 22.8073234,3.00855057 C22.8073234,1.66842527 22.6717021,1.46615061 22.2077701,1.46615061 C22.1363834,1.46615061 22.0266488,1.48685727 21.9594448,1.51264394 C22.2219834,1.83456526 22.3240021,2.26147859 22.3240021,3.00943323 L22.3205354,3.35503989 L22.3161354,3.63267188 C22.3161354,3.93949988 22.3492954,4.1666732 22.3729888,4.3495572 L22.3863221,4.45290386 L22.3131754,4.46237053 C22.0962474,4.49289053 21.6934608,4.54753053 21.3848715,4.54753053 C20.7230715,4.54753053 20.2763262,4.48726386 19.9496688,4.18087987 C19.7353848,4.3538492 19.5154835,4.65296386 19.5154835,4.84190785 C19.5154835,5.12163318 19.6897742,5.14311718 19.9165075,5.14311718 C20.0322942,5.14311718 20.1399342,5.12637051 20.2887755,5.10874385 C20.5736795,5.06610385 21.0019155,5.00286385 21.8824048,5.00286385 L21.9374848,5.00286385 L21.9215115,5.05750385 C21.6973115,5.69660917 21.0840981,6.62535314 20.0989448,7.82082378 C20.1893982,8.14142244 20.2763208,8.35066243 20.5844702,8.35066243 L20.5845182,8.35066243 Z M12.0914064,5.05752918 L12.0742197,5.00288918 L12.1288597,5.00288918 C13.0097903,5.00288918 13.438357,5.06612918 13.722489,5.10876918 C13.8717717,5.12639585 13.979409,5.14314251 14.0943183,5.14314251 C14.3214916,5.14314251 14.4966636,5.12166251 14.4966636,4.84193319 C14.4966636,4.65298919 14.2754396,4.35387453 14.0620383,4.1809052 C13.7365917,4.48729186 13.287753,4.54755586 12.627165,4.54755586 C12.3181344,4.54755586 11.9141357,4.49291586 11.6980904,4.46239586 L11.6631704,4.4581292 L11.6249437,4.4529292 L11.6373437,4.34958253 C11.6631304,4.16669854 11.6945304,3.93952521 11.6945304,3.63269722 L11.6902637,3.35506522 L11.6873304,3.00945857 C11.6873304,2.26150392 11.790557,1.8345906 12.0518877,1.51266927 C11.9846877,1.48689594 11.874953,1.46617594 11.8040024,1.46617594 C11.339189,1.46617594 11.2035677,1.6684506 11.2035677,3.0085759 C11.2035677,3.27629189 11.1897944,3.52979589 11.1798877,3.69802788 L11.1669544,3.94503188 L11.1080077,3.89985854 C10.4181144,3.37268789 9.70596642,2.43413725 9.66421176,1.7291506 C9.45587843,1.8643306 9.2303571,2.16465859 9.2303571,2.39579858 C9.2303571,2.77919457 9.80831575,3.35682256 10.4762851,4.02424121 L10.8610037,4.40774786 L10.9083771,4.45809453 L10.7831104,4.48905453 C10.6397771,4.52606786 10.3729424,4.59404119 10.1462091,4.59404119 C9.39517043,4.59404119 8.92694244,4.45291186 8.63686112,4.13749054 C8.53319445,4.2867732 8.44626512,4.63755853 8.44626512,4.84324919 C8.44626512,4.97710652 8.47293179,5.06998118 8.52415845,5.12429585 C8.59081179,5.18753585 8.69239045,5.18753585 8.78151845,5.18753585 L8.80002511,5.18753585 C9.62719176,5.18753585 10.6131157,5.03814385 10.9987157,4.97710785 L11.0224091,4.97150785 L11.0370624,4.99001452 C11.1023957,5.07946785 12.6779557,7.17658646 13.0872423,8.2890971 C13.180669,8.3240171 13.2624157,8.35068377 13.4263503,8.35068377 C13.736593,8.35068377 13.8223063,8.1414691 13.9126463,7.82087045 C12.9271637,6.62539981 12.315161,5.69665583 12.0914037,5.05755052 L12.0914064,5.05752918 Z M7.83856247,23.8658794 C7.83856247,25.4347207 8.97774244,26.6763526 9.3797571,27.024494 C9.4752771,27.000254 9.57255709,26.9771206 9.66851709,26.9583873 C9.24204377,26.436174 8.48891179,25.5658207 8.48891179,24.4090207 C8.48891179,22.1141501 10.9409957,20.1222515 13.715993,20.1222515 C13.6983663,19.9250448 13.6888863,19.7190248 13.6888863,19.5063942 C13.6888863,19.1681675 13.706953,18.8530768 13.7417663,18.5556142 C10.6023224,18.5743475 7.83856247,21.1215061 7.83856247,23.8658754 L7.83856247,23.8658794 Z M28.8943059,19.0326608 C30.3019659,16.8063169 31.4041205,16.8441062 33.0682592,16.8441062 C31.6906765,17.8989969 30.7801099,19.2508008 30.3462552,19.9426768 L27.774414,24.0586794 C27.5217913,25.3289567 26.86517,26.517706 25.880458,27.4012793 C26.2114127,27.5268793 26.4859593,27.6590806 26.6529793,27.7835753 C24.972866,27.7835753 23.3077354,28.6363019 22.3919901,28.6363019 C21.8032341,28.6363019 21.4241355,28.2859566 21.4241355,27.8199313 C21.4628021,27.302126 21.9960341,26.7733033 22.9823994,26.7733033 C23.2053861,26.7733033 23.4915007,26.80305 23.8043874,26.8548233 C24.3393807,26.111166 24.76971,25.4391207 24.76971,24.478426 C24.76971,22.6771234 22.6148674,21.2724381 20.4389822,21.2724381 C20.3172488,21.2724381 20.1998008,21.2768381 20.0770688,21.2867581 C19.8790915,21.7329528 19.2250035,22.4832194 19.2250035,23.3370474 C19.2250035,24.7670727 20.1580448,25.9370927 20.1580448,27.3561006 C20.1580448,28.2374713 19.7284875,28.7828193 19.5627888,29.0097726 C19.8309462,29.2565566 20.1222395,29.5628339 20.1915368,29.7699552 C20.0357555,29.7038486 19.8519888,29.6950352 19.5821795,29.6950352 C18.5394075,29.6950352 17.6903156,29.9660566 16.8619369,29.9660566 C16.3894129,29.9660566 16.2619436,29.8206299 16.2619436,29.6818139 C16.2619436,29.6300406 16.2698103,29.5782539 16.2839836,29.5529206 C16.1070489,29.6223339 15.9409103,29.6674939 15.7438129,29.7038552 C15.5006649,29.7501219 15.2373556,29.7732686 14.9563076,29.7732686 C13.950113,29.7732686 13.5920557,29.3524139 13.5920557,28.9899499 C13.5920557,28.6836739 13.833441,28.1251046 14.1058956,27.6998433 C14.4992076,27.8970499 14.9700796,28.0314593 15.1861263,28.0314593 C15.7193556,28.0314593 16.1957369,27.5224673 16.4474783,26.9187273 C16.0872169,26.8757673 16.0183609,26.859234 15.6547943,26.859234 C14.6743796,26.859234 14.007733,27.2106806 13.8708997,27.2106806 C13.8571263,27.2106806 13.831793,27.204014 13.831793,27.1820406 C13.831793,27.044326 14.108433,26.6807606 14.6567556,26.4802486 C15.3780489,26.2169393 16.4603716,26.1078687 16.6407223,26.0781233 C16.6407223,26.0461767 16.4573969,25.7035407 16.2533596,25.6396407 C16.2099463,25.624214 16.1759063,25.6231207 16.1246796,25.634174 C15.3711076,25.784006 15.1606796,25.845702 14.204833,26.2092687 C14.175193,26.2203353 14.1580063,26.202602 14.1580063,26.1718153 C14.1580063,25.7939273 15.136989,24.957726 16.0145049,24.6393314 C15.282085,23.702874 14.365789,22.7465861 13.9341383,21.2868154 C13.812845,21.2769488 13.6945157,21.2724954 13.5717837,21.2724954 C11.396781,21.2724954 9.2420491,22.6771807 9.2420491,24.4784834 C9.2420491,25.439178 9.67281842,26.1112233 10.2072597,26.8548806 C10.5210277,26.803094 10.8054904,26.7733606 11.0288077,26.7733606 C12.015173,26.7733606 12.5488424,27.3021833 12.588505,27.8199886 C12.588505,28.2860139 12.2088544,28.6363593 11.6188864,28.6363593 C10.7034717,28.6363593 9.03977444,27.7836326 7.35833848,27.7836326 C7.52535848,27.6591393 7.79946381,27.5269326 8.13041846,27.4013366 C7.14658915,26.5177633 6.48897584,25.329014 6.23723451,24.0587367 L3.66583324,19.9427341 C3.23297059,19.2508582 2.31975994,17.8990542 0.941735976,16.8441636 C2.6063146,16.8441636 3.70979191,16.8063769 5.11789187,19.0327182 L6.43697451,21.1447034 C6.53414784,20.8703768 6.6551145,20.6037621 6.79624383,20.3426555 L4.17284256,16.1453462 C3.73689457,15.4498343 2.83271726,14.1083876 1.4503973,13.047217 C3.11288392,13.047217 4.21801323,13.0084303 5.62523186,15.2337876 L7.88341447,18.8498342 C8.05296913,18.6702542 8.22979313,18.4928782 8.41829712,18.3265195 L5.23147987,13.2244823 C4.79343721,12.5277583 3.89399857,11.191489 2.50738127,10.1293277 C4.17196123,10.1293277 5.2766492,10.0893411 6.6835385,12.3168903 L9.78982109,17.2900275 C9.99429842,17.1605742 10.2047264,17.0344289 10.4212131,16.9174276 L6.63021583,10.8501784 C6.19118251,10.1521331 5.29174253,8.81850775 3.9064479,7.75337045 C5.57146786,7.75337045 6.67494517,7.71591712 8.08260513,9.94126506 L11.9864184,16.1918382 C12.218329,16.1018249 12.4520024,16.0187596 12.689973,15.9413089 L8.27848913,8.88042375 C7.84716914,8.1922931 6.92756783,6.8363038 5.55637453,5.7849385 C7.22150515,5.7849385 8.32443046,5.74748516 9.73175976,7.97151044 L14.4346463,15.4976489 C14.4820196,15.4895156 14.529393,15.4821156 14.5763276,15.4726356 C14.7045676,15.0646716 14.793145,14.6864529 14.793145,14.3076836 C14.793145,11.9428543 13.2412703,9.8538944 11.3800344,8.2421971 C11.4979144,8.1893171 11.7058117,8.17290377 11.8981704,8.17290377 C12.2820077,8.17290377 12.5312157,8.19229044 12.7055063,8.22325044 C12.272533,7.24382646 11.3455504,5.97597449 10.8777637,5.32100518 C10.2688464,5.43073851 9.38141577,5.51722117 8.80004111,5.51722117 C8.19321713,5.51722117 8.12391846,5.16004518 8.12391846,4.84330252 C8.12391846,4.29112253 8.38171979,3.85219988 8.68336912,3.60728922 C8.79530245,3.88921854 9.02214644,4.26622387 10.1462251,4.26622387 C10.1659451,4.26622387 10.2064917,4.2635572 10.2584917,4.26022387 C9.92929842,3.89478521 8.90250111,3.0646439 8.90250111,2.39590392 C8.90250111,1.95268393 9.3883571,1.28901194 10.0286731,1.28901194 C9.99000642,1.43102261 9.99517975,1.56267727 9.99517975,1.66127993 C9.99517975,2.20398525 10.4754171,2.8383519 10.8804077,3.27980789 C10.8692077,3.14727456 10.8752077,3.1610479 10.8752077,3.00867723 C10.8752077,1.7267226 10.9914344,1.13840661 11.803953,1.13840661 C12.2028837,1.13840661 12.478753,1.35654661 12.572949,1.42286927 C12.044457,1.90916659 12.0177957,2.29179192 12.0177957,3.00955857 C12.018677,3.19640923 12.019117,3.37885189 12.0216624,3.63191588 C12.0233957,3.79585188 12.021221,4.01321987 11.9949957,4.17065454 C12.2859584,4.2107612 12.403841,4.2107612 12.6271584,4.2107612 C12.6271584,4.2107612 13.7823063,4.30154787 14.060709,3.70243055 C14.374477,3.98997721 14.829265,4.3948572 14.829265,4.84204252 C14.829265,5.13818385 14.689457,5.47255317 14.0943116,5.47255317 C13.8687903,5.47255317 13.1599477,5.33395851 12.567777,5.33395851 C12.7266437,5.6893705 13.436257,6.72663447 14.050353,7.47800379 C14.1437796,7.1861598 14.2883236,6.87073847 14.6102436,6.61293848 C14.6546436,7.0966998 14.939105,8.62742243 15.6952116,9.5222344 C15.7842249,8.91794375 15.9031049,8.2965771 15.9031049,6.98906247 C15.9031049,3.80621188 15.136973,1.45559461 13.5123863,1.00675595 C13.7232543,0.638783959 14.170881,0.308710634 14.635253,0.308710634 C15.2286356,0.308710634 15.5536409,0.979983951 15.8828343,1.61302927 C16.0549209,1.14612261 16.5292089,-0.000320024992 17.0060316,-0.000320024992 C17.4812009,-0.000320024992 17.9562596,1.14612261 18.1280169,1.61302927 C18.4580902,0.979983951 18.7821035,0.308710634 19.3769195,0.308710634 C19.8390888,0.308710634 20.2879262,0.638783959 20.4992355,1.00675595 C18.8746475,1.45559461 18.1081862,3.80621188 18.1081862,6.98906247 C18.1081862,8.2965771 18.2269462,8.91794375 18.3147569,9.5222344 C19.0735075,8.62742243 19.3570888,7.0966998 19.4010475,6.61293848 C19.7225275,6.87073847 19.8679528,7.1861598 19.9625902,7.47800379 C20.5754742,6.72663447 21.2842061,5.6893705 21.4442861,5.33395851 C20.8517835,5.33395851 20.1420595,5.47255317 19.9165395,5.47255317 C19.3222742,5.47255317 19.1832382,5.13818385 19.1832382,4.84204252 C19.1832382,4.3948572 19.6376955,3.98997721 19.9505822,3.70243055 C20.2285448,4.30154253 21.3849035,4.2107612 21.3849035,4.2107612 C21.6087715,4.2107612 21.7257741,4.2107612 22.0176181,4.17065454 C21.9908448,4.01321987 21.9891915,3.79585188 21.9900715,3.63191588 C21.9926048,3.37885189 21.9935381,3.19640923 21.9939381,3.00955857 C21.9939381,2.29179192 21.9668315,1.90916659 21.4387848,1.42286927 C21.5338648,1.35654927 21.8092915,1.13840661 22.2077808,1.13840661 C23.0207368,1.13840661 23.1369674,1.7267226 23.1369674,3.00867723 C23.1369674,3.1610439 23.1424341,3.1472719 23.1317674,3.27980789 C23.5367581,2.8383519 24.0165541,2.20398525 24.0165541,1.66127993 C24.0165541,1.56267994 24.0225541,1.43102261 23.9825141,1.28901194 C24.6242621,1.28901194 25.110558,1.95268393 25.110558,2.39590392 C25.110558,3.0646439 24.0828794,3.89478521 23.7528061,4.26022387 C23.8065661,4.26369054 23.8444727,4.26622387 23.8659527,4.26622387 C24.98915,4.26622387 25.2155514,3.88921854 25.329138,3.60728922 C25.6286954,3.85219988 25.8869367,4.29112253 25.8869367,4.84330252 C25.8869367,5.16004518 25.8197367,5.51722117 25.2112554,5.51722117 C24.6302114,5.51722117 23.7441034,5.43074117 23.1330928,5.32100518 C22.6651941,5.97597449 21.7390941,7.24382646 21.3062301,8.22325044 C21.4805208,8.19229044 21.7296195,8.17290377 22.1140074,8.17290377 C22.3063661,8.17290377 22.5129381,8.1893171 22.6325834,8.2421971 C20.7703568,9.8538944 19.2180422,11.9428543 19.2180422,14.3076836 C19.2180422,14.6864529 19.3080555,15.0646716 19.4345288,15.4726356 C19.4814622,15.4821023 19.5309288,15.4894889 19.5774208,15.4976489 L24.2799767,7.97151044 C25.6871954,5.74747983 26.7911127,5.7849385 28.4543713,5.7849385 C27.0837287,6.8363038 26.1631367,8.1922931 25.7341287,8.88042375 L21.3207728,15.9413089 C21.5600648,16.0187622 21.7941795,16.1018289 22.0248781,16.1918382 L25.9286914,9.94126506 C27.3372326,7.71591312 28.4393873,7.75337045 30.1057299,7.75337045 C28.7203246,8.81850775 27.8208846,10.1521331 27.3828433,10.8501784 L23.5914047,16.9174276 C23.8065701,17.0344275 24.0169967,17.1605755 24.2210354,17.2900275 L27.3286393,12.3168903 C28.7358579,10.0893344 29.8393353,10.1293277 31.5025925,10.1293277 C30.1177379,11.191489 29.2182993,12.5277583 28.7797073,13.2244823 L25.59377,18.3265195 C25.781502,18.4928782 25.96009,18.6702542 26.1278807,18.8498342 L28.385954,15.2337876 C29.7944953,13.0084356 30.8966499,13.047217 32.5617805,13.047217 C31.1781379,14.1083876 30.2760552,15.4498343 29.8393353,16.1453462 L27.2162647,20.3426555 C27.3565126,20.6037621 27.4774806,20.8703768 27.574322,21.1447034 L28.8942846,19.0327182" id="path4830"></path>
            </g>
        </g>
    </g>
</svg>