<?xml version="1.0" encoding="UTF-8"?>
<svg width="168px" height="85px" viewBox="0 0 168 85" version="1.1" xmlns="http://www.w3.org/2000/svg" xmlns:xlink="http://www.w3.org/1999/xlink">
    <!-- Generator: Sketch 63.1 (92452) - https://sketch.com -->
    <title>Group</title>
    <desc>Created with Sketch.</desc>
    <g id="Page-1" stroke="none" stroke-width="1" fill="none" fill-rule="evenodd">
        <g id="Group" transform="translate(-0.815206, 0.333119)" fill-rule="nonzero">
            <path d="M140.271196,9.5210032 C140.271196,10.0890472 140.137863,10.4913925 139.87017,10.7320072 C139.601357,10.9729525 139.28957,11.0930392 138.927103,11.0930392 C138.545917,11.0930392 138.216503,10.9729592 137.945477,10.7320072 C137.67225,10.4913925 137.535637,10.0890472 137.535637,9.5210032 C137.535637,8.95284988 137.67225,8.54840989 137.945477,8.30955923 C138.216503,8.06762191 138.535997,7.94929791 138.89405,7.94929791 C139.276343,7.94929791 139.601357,8.06761791 139.87017,8.30955923 C140.13789,8.54840989 140.271196,8.95284988 140.271196,9.5210032 L140.271196,9.5210032 Z M138.51837,4.35021933 C138.28701,4.35021933 138.087597,4.36531267 137.912423,4.39759267 C137.813223,4.345046 137.716317,4.27927267 137.625983,4.20170867 C137.532383,4.12425534 137.449703,4.03171401 137.372583,3.92330468 C137.295517,3.81566468 137.232663,3.68445402 137.18309,3.53902735 C137.13349,3.39051669 137.110423,3.21842869 137.110423,3.02386603 C137.110423,2.18127539 137.573143,1.76163273 138.50189,1.76163273 C139.29953,1.76163273 139.885637,1.91873673 140.271236,2.22986072 C140.65133,2.54054338 140.843023,2.89771937 140.843023,3.30149803 C140.843023,3.68236068 140.725156,3.95217001 140.480556,4.11269001 C140.240383,4.270566 139.92089,4.35021933 139.515463,4.35021933 L138.51837,4.35021933 Z M142.16725,10.9295445 L141.185623,10.9295445 C141.43681,10.5141992 141.56241,10.0459699 141.56241,9.5210032 C141.56241,9.10521655 141.49521,8.73250722 141.358583,8.3990179 C141.220876,8.06552857 141.030276,7.78448191 140.786796,7.55642725 C140.538916,7.32528726 140.250263,7.15187793 139.917543,7.0326726 C139.587037,6.91213927 139.22897,6.85055927 138.845583,6.85055927 C138.769583,6.85055927 138.697943,6.85055927 138.63185,6.85055927 C138.565717,6.85055927 138.49633,6.85842594 138.421423,6.86994594 C138.28701,6.81187927 138.152597,6.72705394 138.010477,6.60531528 C137.869463,6.48699528 137.798957,6.32900462 137.798957,6.13322996 C137.798957,5.96841396 137.85949,5.83708996 137.986237,5.72956197 C138.11077,5.62964197 138.31565,5.57587397 138.59989,5.57587397 L139.596943,5.57587397 C139.968223,5.57587397 140.31417,5.53798064 140.62925,5.45964731 C140.94545,5.38650064 141.220876,5.26475531 141.457743,5.09387931 C141.691303,4.92476599 141.874196,4.70960066 142.004196,4.44838466 C142.135263,4.18452467 142.203596,3.86822201 142.203596,3.49815669 C142.203596,3.07333536 142.11213,2.68476071 141.933676,2.33529672 C141.751903,1.98539273 141.49741,1.6875994 141.170196,1.43365407 C140.842983,1.18499808 140.445263,0.987019417 139.974837,0.845008754 C139.50441,0.704210091 138.982197,0.633259426 138.40489,0.633259426 C137.563183,0.633259426 136.92529,0.817024755 136.487917,1.18279408 C136.051637,1.54558874 135.83349,2.07275939 135.83349,2.76000737 C135.83349,3.0539447 135.884157,3.31009403 135.98773,3.52184335 C136.090263,3.73480468 136.21469,3.91989268 136.35681,4.07909001 C136.497823,4.23828734 136.644357,4.36223 136.790877,4.45565533 C136.93741,4.54600199 137.05529,4.62355666 137.141223,4.67511799 L137.141223,4.70959799 C136.802997,4.96045798 136.635543,5.32501531 136.635543,5.80613396 C136.635543,6.01270596 136.675143,6.19217529 136.758877,6.34619395 C136.840477,6.49768061 136.932943,6.62162328 137.036517,6.72143794 C137.138917,6.81959794 137.243637,6.89925527 137.347197,6.95951793 C137.451863,7.0184646 137.530077,7.06065127 137.582957,7.0808246 L137.582957,7.1144246 C137.180837,7.29951259 136.85693,7.59212859 136.610143,7.98885524 C136.36557,8.38701523 136.243277,8.89820989 136.243277,9.52100854 C136.243277,9.95816853 136.31381,10.3429978 136.455903,10.6742832 C136.59693,11.0078818 136.78753,11.2845218 137.027703,11.5018912 C137.270077,11.7196991 137.549903,11.8831938 137.87161,11.9929245 C138.193317,12.1010045 138.540357,12.1573005 138.908317,12.1573005 C139.28401,12.1573005 139.632143,12.0910871 139.957157,11.9610845 L142.34897,11.9610845 L142.16725,10.9295445 Z M133.23125,4.10409667 L133.23125,9.16162455 C133.23125,9.82650853 133.117783,10.3042125 132.895223,10.5942938 C132.67157,10.8830525 132.331143,11.0272672 131.872837,11.0272672 C131.478423,11.0272672 131.15121,10.9295472 130.888997,10.7320072 C130.626797,10.5361232 130.42077,10.3450858 130.26653,10.1596672 L130.26653,4.10409667 L128.940063,4.10409667 L128.940063,11.9610791 L130.151957,11.9610791 L130.151957,11.0758525 L130.18609,11.0758525 C130.21689,11.1425058 130.288623,11.2372538 130.399823,11.3620778 C130.506757,11.4889978 130.649917,11.6090818 130.82509,11.7231098 C131.000263,11.8375765 131.205183,11.9387151 131.44645,12.0256405 C131.686623,12.1138938 131.95985,12.1572938 132.265023,12.1572938 C132.61537,12.1572938 132.93157,12.1044138 133.214703,12.0028338 C133.49785,11.8978471 133.738023,11.7303791 133.93633,11.5018845 C134.130223,11.2725072 134.28337,10.9751538 134.393543,10.6089445 C134.501543,10.2448285 134.55549,9.79334586 134.55549,9.25758188 L134.55549,4.10409667 L133.23125,4.10409667 Z M126.91297,4.10409667 L125.70213,4.10409667 L125.70213,4.98712065 L125.66693,4.98712065 C125.63493,4.92256065 125.56333,4.82571932 125.455397,4.70221666 C125.34633,4.57397666 125.207517,4.45565266 125.036744,4.341626 C124.86709,4.22671934 124.66437,4.12425801 124.421997,4.03821401 C124.182917,3.94996068 123.91521,3.90612068 123.62105,3.90612068 C123.270704,3.90612068 122.960024,3.95778734 122.679077,4.06322601 C122.402557,4.16733267 122.161277,4.33303533 121.96737,4.56241266 C121.77237,4.79266999 121.621437,5.08826065 121.51677,5.45193531 C121.41317,5.81770463 121.36253,6.26742462 121.36253,6.8024166 L121.36253,11.9610818 L122.686797,11.9610818 L122.686797,6.90135127 C122.686797,6.24505929 122.794797,5.78112863 123.00629,5.50360597 C123.220024,5.22597398 123.551637,5.08616731 123.99673,5.08616731 C124.38013,5.08616731 124.70293,5.18080731 124.96293,5.37228197 C125.22625,5.56298864 125.43337,5.74807663 125.585397,5.93525796 L125.585397,11.9610818 L126.91297,11.9610818 L126.91297,4.10409667 Z M118.10361,4.10409667 L118.10361,9.16162455 C118.10361,9.82650853 117.992277,10.3042125 117.769797,10.5942938 C117.543944,10.8830525 117.20241,11.0272672 116.745197,11.0272672 C116.35189,11.0272672 116.026877,10.9295472 115.762464,10.7320072 C115.502464,10.5361232 115.295344,10.3450858 115.141104,10.1596672 L115.141104,4.10409667 L113.815744,4.10409667 L113.815744,15.6763897 L115.141104,15.823579 L115.141104,11.1580405 L115.17417,11.1580405 C115.21937,11.2230405 115.28657,11.3117298 115.380184,11.4205792 C115.47165,11.5289925 115.599424,11.6382778 115.762477,11.7467965 C115.926637,11.8556498 116.127144,11.9516045 116.360717,12.0351151 C116.597584,12.1173018 116.871904,12.1572885 117.189197,12.1572885 C117.876664,12.1572885 118.420917,11.9330898 118.824144,11.4855725 C119.228477,11.0362938 119.431184,10.2951712 119.431184,9.25757654 L119.431184,4.10409667 L118.10361,4.10409667 Z M111.867909,10.4371885 C111.835963,10.4694685 111.783083,10.5206952 111.712568,10.5865818 C111.642061,10.6502618 111.551717,10.7164752 111.441545,10.7814738 C111.331372,10.8460338 111.202473,10.9045405 111.047132,10.9536725 C110.897299,11.0022592 110.722127,11.0272725 110.526021,11.0272725 C110.240677,11.0272725 109.976267,10.9751658 109.732788,10.8722605 C109.486004,10.7685938 109.272271,10.6011285 109.092692,10.3726338 C108.912011,10.1419352 108.770991,9.84678586 108.666328,9.4801352 C108.563875,9.11381521 108.513191,8.67015522 108.513191,8.14595924 C108.513191,7.56711925 108.558364,7.08082326 108.652007,6.69048594 C108.743447,6.29673262 108.872349,5.98252463 109.035403,5.7458753 C109.198456,5.51352464 109.397867,5.34562331 109.632532,5.24106998 C109.868299,5.13905665 110.124997,5.08616998 110.40924,5.08616998 C110.814671,5.08616998 111.122049,5.15502331 111.33468,5.29703798 C111.548412,5.43904864 111.699347,5.5552793 111.785281,5.64264463 L112.325117,4.72381532 C112.272184,4.65925533 112.190717,4.57960199 112.088251,4.487058 C111.985797,4.39539133 111.852485,4.305054 111.686127,4.21901 C111.524175,4.13077001 111.323663,4.05761001 111.090099,3.99734601 C110.855435,3.93707934 110.584412,3.90611934 110.28034,3.90611934 C109.841857,3.90611934 109.434223,3.97706601 109.053031,4.11996201 C108.669633,4.26109134 108.336916,4.49443533 108.052673,4.82274599 C107.769533,5.15072598 107.546987,5.57587797 107.383933,6.09742862 C107.219777,6.62162461 107.136048,7.27229659 107.136048,8.04481791 C107.136048,8.80136589 107.234101,9.43837654 107.430205,9.96246186 C107.628513,10.4862165 107.884112,10.9101565 108.200304,11.2329578 C108.517597,11.5531165 108.870145,11.7881111 109.254644,11.9353005 C109.645752,12.0824898 110.035759,12.1572965 110.425765,12.1572965 C110.722127,12.1572965 110.981029,12.1289765 111.204677,12.0746698 C111.428325,12.0204698 111.61782,11.9516031 111.777569,11.8703018 C111.938419,11.7881151 112.066224,11.7007485 112.169784,11.6090858 C112.274451,11.5165392 112.358171,11.4360072 112.424277,11.3706752 L111.867909,10.4371885 Z M105.157369,10.3726285 C105.069236,10.4694685 104.912789,10.6046498 104.681429,10.7742032 C104.453375,10.9441978 104.151504,11.0272672 103.782431,11.0272672 C103.430984,11.0272672 103.164369,10.9458538 102.977077,10.7814738 C102.794193,10.6187512 102.699445,10.4220952 102.699445,10.1927179 C102.699445,9.89800986 102.785379,9.65442053 102.955043,9.46415521 C103.124707,9.27135521 103.381407,9.06908055 103.731752,8.85094055 L104.222015,8.55391923 C104.756345,8.2384979 105.1772,7.89641658 105.48568,7.53274059 C105.788652,7.1668606 105.942892,6.69565794 105.942892,6.11681796 C105.942892,5.49622197 105.725853,4.97125532 105.293981,4.54390066 C104.864313,4.11996067 104.244048,3.90611801 103.436492,3.90611801 C103.122504,3.90611801 102.841567,3.93927801 102.603596,4.00505134 C102.362321,4.07181134 102.154097,4.14585 101.973416,4.23398734 C101.792735,4.32134733 101.6418,4.418194 101.521713,4.521534 C101.402727,4.62697399 101.303573,4.71818999 101.227556,4.80764999 L101.866549,5.85427796 C101.930456,5.78894463 102.010875,5.7122673 102.103419,5.62754463 C102.194859,5.5379713 102.308337,5.45193131 102.439441,5.37227797 C102.569441,5.29053131 102.718175,5.22299531 102.880127,5.16702865 C103.04318,5.11105531 103.237081,5.08616198 103.451916,5.08616198 C103.846329,5.08616198 104.147097,5.17132198 104.35422,5.34781797 C104.563545,5.5207873 104.663801,5.7316553 104.663801,5.98560063 C104.663801,6.16980729 104.639561,6.33120862 104.591081,6.46892328 C104.541508,6.60311128 104.468788,6.72705394 104.370739,6.8355726 C104.274885,6.94442593 104.151497,7.0498566 104.010479,7.1466966 C103.869459,7.24562993 103.705304,7.35326859 103.518012,7.47379659 L103.027749,7.78447925 C102.537487,8.10298457 102.154091,8.4342699 101.874255,8.78417389 C101.59442,9.13451921 101.457807,9.5803832 101.457807,10.1269432 C101.457807,10.4220925 101.513993,10.6915725 101.629675,10.9385765 C101.743155,11.1812832 101.904001,11.3951258 102.111124,11.5759178 C102.319348,11.7567085 102.560623,11.8978391 102.839356,12.0028325 C103.118091,12.1044058 103.415553,12.1572925 103.731745,12.1572925 C104.03692,12.1572925 104.299128,12.1267725 104.517267,12.0665058 C104.736508,12.0079991 104.9238,11.9301138 105.082447,11.8375698 C105.239991,11.7441431 105.371095,11.6516005 105.47686,11.5582845 C105.579313,11.4679378 105.663049,11.3856458 105.729152,11.3215272 L105.157369,10.3726285 Z M100.524663,10.7982205 C100.490503,10.8202605 100.421103,10.8460338 100.310929,10.8808472 C100.200756,10.9123538 100.053128,10.9295405 99.8680402,10.9295405 C99.4548975,10.9295405 99.1287909,10.8162872 98.8952269,10.5942898 C98.6594602,10.3700898 98.4942029,10.1269419 98.3961509,9.86572586 L98.3961509,4.10409667 L97.0696869,4.10409667 L97.0696869,11.9610791 L98.2804709,11.9610791 L98.2804709,10.8955018 L98.3135242,10.8955018 C98.3686042,11.0487498 98.4369109,11.1989138 98.5261549,11.3465432 C98.6131949,11.4932912 98.7233615,11.6253872 98.8522615,11.7382031 C98.9855682,11.8535498 99.1398095,11.9438925 99.3193882,12.0101058 C99.5000695,12.0746658 99.7149042,12.1087058 99.9682975,12.1087058 C100.151183,12.1087058 100.303219,12.0910791 100.418899,12.0579191 C100.532379,12.0256391 100.620512,11.9989725 100.686616,11.9778258 L100.524663,10.7982205 Z M94.0234483,8.03104591 C94.0234483,9.07899521 93.8725137,9.8398392 93.5662377,10.3145685 C93.2610617,10.7900672 92.834699,11.0272672 92.2904524,11.0272672 C91.7451044,11.0272672 91.3209444,10.7900672 91.0201764,10.3145685 C90.7205097,9.8398392 90.5706764,9.07899521 90.5706764,8.03104591 C90.5706764,6.98309527 90.7227137,6.23007395 91.0289897,5.77385396 C91.3341644,5.31554064 91.7616297,5.08616465 92.3069777,5.08616465 C92.852327,5.08616465 93.274283,5.31554064 93.5739497,5.77385396 C93.8747163,6.23007395 94.0234483,6.98309527 94.0234483,8.03104591 L94.0234483,8.03104591 Z M89.1957378,8.03104591 C89.1957378,8.75189656 89.2805644,9.37381387 89.4502338,9.89800986 C89.6176938,10.4220952 89.8479524,10.8503312 90.1366017,11.1812858 C90.4263524,11.5165378 90.7579684,11.7610085 91.1369577,11.9184431 C91.5115404,12.0768698 91.9125644,12.1572951 92.3389284,12.1572951 C92.775207,12.1572951 93.179535,12.0768685 93.5508137,11.9184431 C93.9209883,11.7610085 94.2426896,11.5165378 94.515915,11.1812858 C94.789139,10.8503312 95.005075,10.4220952 95.1626203,9.89800986 C95.321267,9.37381387 95.3994896,8.75189656 95.3994896,8.03104591 C95.3994896,7.29950726 95.319063,6.67108994 95.1549083,6.14821662 C94.9907536,5.62754597 94.7649016,5.19930998 94.475151,4.86449932 C94.1865016,4.53101 93.8493777,4.289074 93.4681843,4.135054 C93.086991,3.98445001 92.6815603,3.90611801 92.2574004,3.90611801 C91.8200204,3.90611801 91.4167937,3.98445134 91.0455151,4.135054 C90.6742377,4.289074 90.3536391,4.53101 90.0793124,4.86449932 C89.8082911,5.19930998 89.5912538,5.62324997 89.4326058,6.14050462 C89.2750618,6.65698728 89.1957378,7.28871126 89.1957378,8.03104591 L89.1957378,8.03104591 Z M82.6480313,4.10409667 L82.6480313,15.3987577 L88.1964831,15.3987577 L88.0995365,14.2695004 L84.0712299,14.2695004 L84.0712299,10.0933445 L87.7877511,10.0933445 L87.7877511,8.96364588 L84.0712259,8.96364588 L84.0712259,4.10409667 L82.6480313,4.10409667 Z M74.0696461,5.08616465 C74.2762168,5.08616465 74.4630675,5.11105798 74.6265621,5.16703131 C74.7904968,5.22300464 74.9325088,5.29053798 75.0517141,5.37228064 C75.1717941,5.45193397 75.2729381,5.53797797 75.3560074,5.6275473 C75.4365408,5.7122673 75.5006621,5.78894863 75.5431888,5.85428063 L75.5431888,10.7001698 C75.4232154,10.7758498 75.2846168,10.8404178 75.1257488,10.8955032 C74.9674328,10.9514765 74.7676915,10.9772498 74.5280688,10.9772498 C74.2228941,10.9772498 73.9366688,10.9273432 73.6686222,10.8223498 C73.4017875,10.7186832 73.1697662,10.5464805 72.9722288,10.3076285 C72.7764542,10.0671245 72.6219942,9.75588986 72.5066449,9.37381521 C72.3926182,8.99295388 72.3348875,8.52164056 72.3348875,7.96527391 C72.3348875,7.41992592 72.3809409,6.96469793 72.4743649,6.59672594 C72.5673515,6.23216862 72.6947075,5.93823129 72.8586422,5.7157953 C73.0225768,5.49280864 73.2076648,5.33272864 73.4151182,5.23379531 C73.6221302,5.13563531 73.8402688,5.08616465 74.0696461,5.08616465 L74.0696461,5.08616465 Z M70.9595076,7.91569658 C70.9595076,8.71190456 71.0631742,9.37899254 71.2715129,9.91387519 C71.4785249,10.4496378 71.7458009,10.8808485 72.0732302,11.2062952 C72.3998889,11.5332845 72.7717168,11.7669578 73.1857408,11.9021378 C73.6006462,12.0402925 74.0154421,12.1087098 74.4307875,12.1087098 C74.6807661,12.1087098 74.8998981,12.0880031 75.0848755,12.0502031 C75.2708448,12.0127498 75.4232114,11.9653765 75.5431888,11.9098445 L75.5431888,15.6763897 L76.8695421,15.823579 L76.8695421,4.10409667 L75.6573261,4.10409667 L75.6573261,4.93765265 L75.6246061,4.93765265 C75.5927661,4.87221265 75.5333794,4.78275266 75.4451368,4.66652199 C75.3582168,4.55249533 75.2381248,4.438466 75.0848768,4.323558 C74.9325101,4.20953134 74.7410315,4.11269001 74.5116555,4.02873934 C74.2822781,3.94699268 74.0154435,3.90611268 73.7099382,3.90611268 C73.3393208,3.90611268 72.9873235,3.98015268 72.6533942,4.12854867 C72.3211169,4.27706067 72.0293835,4.510734 71.7780822,4.83133265 C71.5271115,5.15281265 71.3279222,5.5681593 71.1816142,6.07505662 C71.0335436,6.58294728 70.9595076,7.19616193 70.9595076,7.91569124 L70.9595076,7.91569658 Z M68.014185,4.10409667 L68.014185,9.16162455 C68.014185,9.82650853 67.9013716,10.3042125 67.678053,10.5942938 C67.453413,10.8830525 67.1129837,11.0272672 66.653789,11.0272672 C66.261689,11.0272672 65.934701,10.9295472 65.6726024,10.7320072 C65.4113864,10.5361232 65.203493,10.3450858 65.0511264,10.1596672 L65.0511264,4.10409667 L63.7252131,4.10409667 L63.7252131,11.9610791 L64.9353357,11.9610791 L64.9353357,11.0758525 L64.9680557,11.0758525 C65.0003357,11.1425058 65.0714024,11.2372538 65.1806864,11.3620778 C65.2890997,11.4889978 65.4324277,11.6090818 65.6062784,11.7231098 C65.7810104,11.8375765 65.9880224,11.9387151 66.2294077,12.0256405 C66.4682597,12.1138938 66.740713,12.1572938 67.0466583,12.1572938 C67.3965636,12.1572938 67.7133063,12.1044138 67.9968876,12.0028338 C68.280909,11.8978471 68.519761,11.7303791 68.7165263,11.5018845 C68.9136236,11.2725072 69.0655503,10.9751538 69.1748396,10.6089445 C69.2845729,10.2448285 69.3396556,9.79334586 69.3396556,9.25758188 L69.3396556,4.10409667 L68.014185,4.10409667 Z M61.6934318,4.10409667 L60.4819878,4.10409667 L60.4819878,4.98712065 L60.4505878,4.98712065 C60.4170945,4.92256065 60.3460412,4.82571932 60.2380665,4.70221666 C60.1278932,4.57397666 59.9888585,4.45565266 59.8201865,4.341626 C59.6505225,4.22671934 59.4457145,4.12425801 59.2059812,4.03821401 C58.9659172,3.94996068 58.6990825,3.90612068 58.4042639,3.90612068 C58.0547999,3.90612068 57.7407012,3.95778734 57.4621879,4.06322601 C57.1846666,4.16733267 56.9462559,4.33303533 56.7516932,4.56241266 C56.5541559,4.79266999 56.4039919,5.08826065 56.3006519,5.45193531 C56.1956653,5.81770463 56.1453093,6.26742462 56.1453093,6.8024166 L56.1453093,11.9610818 L57.4707812,11.9610818 L57.4707812,6.90135127 C57.4707812,6.24505929 57.5766612,5.78112863 57.7892866,5.50360597 C58.0026892,5.22597398 58.3319919,5.08616731 58.7808292,5.08616731 C59.1616919,5.08616731 59.4849345,5.18080731 59.7457105,5.37228197 C60.0094612,5.56298864 60.2151505,5.74807663 60.3679585,5.93525796 L60.3679585,11.9610818 L61.6934318,11.9610818 L61.6934318,4.10409667 Z M117.97361,26.0289748 C117.97361,26.5962481 117.83809,27.0007974 117.571477,27.2400894 C117.30597,27.4797121 116.990877,27.5993588 116.630624,27.5993588 C116.248317,27.5993588 115.921117,27.4797054 115.648997,27.2400894 C115.37797,27.0007974 115.239157,26.5962481 115.239157,26.0289748 C115.239157,25.4613721 115.37797,25.0572628 115.648997,24.8175308 C115.921117,24.5770268 116.23841,24.4578202 116.598664,24.4578202 C116.979864,24.4578202 117.30597,24.5770202 117.571477,24.8175308 C117.83809,25.0572628 117.97361,25.4613721 117.97361,26.0289748 L117.97361,26.0289748 Z M116.221877,20.8565389 C115.993824,20.8565389 115.791117,20.8725123 115.615944,20.9056723 C115.51901,20.8496989 115.422037,20.7864723 115.330597,20.7093469 C115.236997,20.6310136 115.152117,20.5385816 115.074997,20.4305029 C114.998997,20.3220896 114.938384,20.1938549 114.887704,20.0462256 C114.838104,19.8990363 114.815037,19.7260669 114.815037,19.530623 C114.815037,18.6896843 115.27885,18.269711 116.205397,18.269711 C117.004144,18.269711 117.593557,18.4250523 117.97365,18.734855 C118.355944,19.0465296 118.545437,19.404587 118.545437,19.8082549 C118.545437,20.1916509 118.42757,20.4598083 118.186277,20.6181243 C117.946104,20.7765509 117.625504,20.8565363 117.220077,20.8565363 L116.221877,20.8565389 Z M119.871864,27.4367454 L118.890237,27.4367454 C119.141424,27.0213988 119.267024,26.5527294 119.267024,26.0289748 C119.267024,25.6137388 119.199824,25.2397068 119.063197,24.9079815 C118.92769,24.5743815 118.735997,24.2942162 118.490317,24.0643988 C118.24353,23.8346908 117.95377,23.6599602 117.622157,23.5398722 C117.289437,23.4202322 116.93029,23.3604042 116.55129,23.3604042 C116.474224,23.3604042 116.401464,23.3604042 116.335357,23.3604042 C116.27149,23.3604042 116.19985,23.3668042 116.12493,23.3780309 C115.993864,23.3216175 115.85721,23.2355789 115.71289,23.1150522 C115.57297,22.9946389 115.502464,22.8362082 115.502464,22.6399922 C115.502464,22.4763882 115.565264,22.3434109 115.689757,22.2379776 C115.816424,22.1368442 116.022477,22.0830762 116.304517,22.0830762 L117.302664,22.0830762 C117.672837,22.0830762 118.015477,22.0447429 118.33497,21.9699296 C118.650064,21.8915962 118.92769,21.7701882 119.15905,21.6019562 C119.394824,21.4324029 119.57881,21.2167976 119.709904,20.9551403 C119.839904,20.6912803 119.90601,20.3767403 119.90601,20.0044709 C119.90601,19.5793203 119.814544,19.1910763 119.634997,18.8416123 C119.454317,18.4930296 119.202024,18.192703 118.873704,17.9426137 C118.545397,17.6908723 118.148784,17.493335 117.67945,17.3522057 C117.207917,17.2114057 116.685704,17.1386937 116.107304,17.1386937 C115.26669,17.1386937 114.627704,17.3215777 114.19253,17.6882283 C113.755144,18.0545483 113.538104,18.5808363 113.538104,19.268527 C113.538104,19.561583 113.589837,19.8168496 113.692344,20.0298109 C113.79701,20.2424416 113.919304,20.4279696 114.062517,20.5858456 C114.203544,20.7447136 114.347864,20.8694269 114.494397,20.9624123 C114.642024,21.0553989 114.76101,21.1294309 114.84805,21.1818736 L114.84805,21.2167936 C114.50761,21.4667722 114.340157,21.8334229 114.340157,22.3133296 C114.340157,22.5212229 114.379757,22.7002509 114.462424,22.8533895 C114.54389,23.0070789 114.635384,23.1301402 114.738944,23.2299549 C114.84361,23.3281149 114.948277,23.4077722 115.051837,23.4667135 C115.155437,23.5265402 115.234717,23.5682869 115.28981,23.5902202 L115.28981,23.6225002 C114.885477,23.8079188 114.55937,24.1006442 114.31589,24.4986935 C114.07021,24.8967428 113.94461,25.4071668 113.94461,26.0289735 C113.94461,26.4658028 114.018477,26.8501908 114.15945,27.1827988 C114.30157,27.5155161 114.49217,27.7913854 114.731237,28.0104067 C114.97361,28.2281054 115.252344,28.3917094 115.57625,28.5014401 C115.89685,28.6094134 116.24389,28.6644934 116.616264,28.6644934 C116.98645,28.6644934 117.33569,28.5987201 117.661797,28.4673974 L120.054717,28.4673974 L119.871864,27.4367454 Z M110.934757,20.6104149 L110.934757,25.6688241 C110.934757,26.3341494 110.823477,26.8122934 110.596531,27.1010534 C110.376188,27.3906934 110.035759,27.5347974 109.577445,27.5347974 C109.183032,27.5347974 108.854721,27.4367441 108.595819,27.2400894 C108.332509,27.0442041 108.123184,26.8531668 107.972248,26.6664268 L107.972248,20.6104149 L106.645785,20.6104149 L106.645785,28.4673987 L107.856568,28.4673987 L107.856568,27.5830534 L107.890728,27.5830534 C107.921581,27.6497068 107.993195,27.7453347 108.102257,27.8709307 C108.210231,27.9970774 108.353448,28.1154014 108.529723,28.2307507 C108.701589,28.3447774 108.909813,28.4472374 109.151089,28.5337214 C109.390161,28.6215214 109.664488,28.6644947 109.968561,28.6644947 C110.318907,28.6644947 110.633996,28.6124947 110.91934,28.5087134 C111.20248,28.4046067 111.441552,28.2393441 111.637657,28.0104081 C111.835967,27.7810307 111.989104,27.4827974 112.097064,27.1182401 C112.205064,26.7520294 112.260117,26.3009881 112.260117,25.7673175 L112.260117,20.6104149 L110.934757,20.6104149 Z M104.616428,20.6104149 L103.404543,20.6104149 L103.404543,21.4935496 L103.371489,21.4935496 C103.337329,21.4293229 103.266823,21.3333602 103.158859,21.2073242 C103.049792,21.0833776 102.909872,20.9624136 102.741309,20.8470629 C102.572747,20.7339163 102.366727,20.6310176 102.126553,20.5449736 C101.887481,20.4567336 101.620867,20.4146403 101.324505,20.4146403 C100.976364,20.4146403 100.664579,20.4653203 100.385845,20.5704229 C100.106009,20.6727696 99.8680388,20.8389109 99.6730362,21.0691696 C99.4747282,21.2985456 99.3270975,21.5950176 99.2224349,21.9613376 C99.1188749,22.3271056 99.0670935,22.7759442 99.0670935,23.3109362 L99.0670935,28.4673987 L100.393557,28.4673987 L100.393557,23.4098709 C100.393557,22.7544615 100.498224,22.2878856 100.711952,22.0099229 C100.924583,21.7322909 101.252893,21.5924829 101.702393,21.5924829 C102.085789,21.5924829 102.404185,21.6884429 102.668596,21.8787082 C102.928601,22.0684242 103.139028,22.2573682 103.288861,22.4441082 L103.288861,28.4673987 L104.616428,28.4673987 L104.616428,20.6104149 Z M94.2867576,21.5924829 C94.4949816,21.5924829 94.6800696,21.6213496 94.843123,21.6742296 C95.007279,21.7279896 95.1494003,21.7981762 95.269487,21.8787069 C95.3895669,21.9613336 95.4898296,22.0447349 95.5724576,22.1343042 C95.6550843,22.2207842 95.7167829,22.2961469 95.7608509,22.3623602 L95.7608509,27.2082481 C95.6418643,27.2830614 95.5008469,27.3502588 95.3433016,27.4044641 C95.1857563,27.4591041 94.9852443,27.4853308 94.7461723,27.4853308 C94.438795,27.4853308 94.1523483,27.4345441 93.8868363,27.3304294 C93.6180177,27.2254294 93.3866577,27.0541201 93.1905523,26.8143868 C92.994447,26.5752054 92.8380043,26.2635295 92.724527,25.8822268 C92.6077404,25.4992708 92.551559,25.0306015 92.551559,24.4741268 C92.551559,23.9288882 92.5978257,23.4718975 92.690375,23.1064589 C92.7829217,22.7415709 92.911819,22.4467522 93.0759737,22.2229936 C93.2401297,21.9991256 93.4252177,21.8381656 93.6312377,21.7401122 C93.8394617,21.6419522 94.0576016,21.5924829 94.2867576,21.5924829 Z M91.1766191,24.4251002 C91.1766191,25.2204268 91.2801791,25.8874055 91.487303,26.4223974 C91.6944257,26.9563974 91.9621417,27.3884908 92.2904524,27.7147081 C92.6154577,28.0426881 92.9878377,28.2750387 93.4020817,28.4111014 C93.8185297,28.5466121 94.2327736,28.6154694 94.647019,28.6154694 C94.899311,28.6154694 95.1163483,28.5965227 95.3014363,28.5582961 C95.4865243,28.5199627 95.6418656,28.4734694 95.7608509,28.4188201 L95.7608509,32.1835893 L97.0862136,32.33166 L97.0862136,20.6104149 L95.8743283,20.6104149 L95.8743283,21.4461762 L95.8423816,21.4461762 C95.8104349,21.3786429 95.7509416,21.2903936 95.6628029,21.1741629 C95.5735629,21.0605762 95.4545789,20.9461083 95.3014403,20.8303176 C95.1494043,20.7176109 94.9577056,20.6181269 94.7285496,20.5359389 C94.500495,20.4541923 94.2327776,20.4146456 93.9265017,20.4146456 C93.5552243,20.4146456 93.2037777,20.4860323 92.871059,20.6341069 C92.5383417,20.7829496 92.2452857,21.0161816 91.9951964,21.3385429 C91.7451084,21.6604642 91.5445964,22.0744882 91.3980684,22.5827095 C91.2504377,23.0910402 91.1766191,23.7042535 91.1766191,24.4251055 L91.1766191,24.4251002 Z M89.1153124,22.4441082 C89.1153124,22.1171189 89.1604858,21.8864202 89.2530271,21.7555362 C89.3444671,21.6265229 89.5064218,21.5610842 89.7366791,21.5610842 C89.8556658,21.5610842 89.9570218,21.5709509 90.0396511,21.5924842 C90.1200777,21.6157242 90.1839751,21.6367776 90.2258404,21.6583642 L90.3426271,20.6754149 C90.2765204,20.6435749 90.1564377,20.5996149 89.9823671,20.5449749 C89.8082964,20.4898949 89.5714271,20.4627883 89.2772698,20.4627883 C88.8299738,20.4627883 88.4697138,20.5996216 88.1964885,20.8725163 C87.9243658,21.1445296 87.7877525,21.6312656 87.7877525,22.3296429 L87.7877525,32.1835893 L89.1153178,32.33166 L89.1153124,22.4441082 Z M85.1195059,30.3674147 C84.8476032,30.3674147 84.6289126,30.4535747 84.4649779,30.6283 C84.3010432,30.8038027 84.2191859,31.03274 84.2191859,31.3176427 C84.2191859,31.5887747 84.3010392,31.8129733 84.4649779,31.9881453 C84.6289126,32.161996 84.8476032,32.2498026 85.1195059,32.2498026 C85.3816045,32.2498026 85.5942352,32.1620026 85.7577299,31.9881453 C85.9217739,31.8129733 86.0035218,31.5887747 86.0035218,31.3176427 C86.0035218,31.03274 85.9217752,30.8038027 85.7577299,30.6283 C85.5942352,30.453568 85.3816045,30.3674147 85.1195059,30.3674147 Z M85.7749165,20.6104149 L84.4482326,20.6104149 L84.4482326,28.4673987 L85.7749165,28.4673987 L85.7749165,20.6104149 Z M81.1744886,23.7692495 C81.1744886,24.3815828 80.9751886,24.8631415 80.5766993,25.2182241 C80.17909,25.5733068 79.6084033,25.7501308 78.8660674,25.7501308 L77.9003061,25.7501308 L77.9003061,21.7900202 L78.7846514,21.7900202 C79.6242673,21.7900202 80.232854,21.9557189 80.6089793,22.2878856 C80.9868673,22.6206029 81.1744886,23.1150522 81.1744886,23.7692495 Z M80.961418,28.9752881 C80.961418,29.499044 80.77633,29.9302547 80.405382,30.26804 C80.0339953,30.6080293 79.4499767,30.77626 78.6534367,30.77626 L77.9003061,30.77626 L77.9003061,26.8793881 L78.6383434,26.8793881 C79.4000687,26.8793881 79.9784687,27.0662388 80.372662,27.4367454 C80.7660833,27.8081334 80.961418,28.3206507 80.961418,28.9752881 L80.961418,28.9752881 Z M82.4017979,29.0247547 C82.4017979,28.6314427 82.3532113,28.2879281 82.2554913,27.9936601 C82.1574379,27.6988414 82.0226993,27.4444561 81.854026,27.2318254 C81.6848033,27.0184228 81.487706,26.8466654 81.26483,26.7172148 C81.0406313,26.5845614 80.80861,26.4873974 80.569318,26.4223961 L80.569318,26.3883561 C80.8629246,26.3341561 81.1391246,26.2312508 81.3948313,26.0781135 C81.6526326,25.9244241 81.87595,25.7342681 82.0665473,25.5053321 C82.2585753,25.2762855 82.4117139,25.0052641 82.5248593,24.6931482 C82.6397659,24.3829055 82.6966166,24.0424762 82.6966166,23.6702068 C82.6966166,23.2235722 82.6204833,22.8147255 82.4685619,22.4441095 C82.3139913,22.0715096 82.0769033,21.7508002 81.7558633,21.4784576 C81.4339433,21.2051216 81.0277406,20.9921603 80.536266,20.8389123 C80.0452327,20.6865456 79.461654,20.6104163 78.7846514,20.6104163 L76.4771114,20.6104163 L76.4771114,31.9055186 L78.6534367,31.9055186 C79.3192034,31.9055186 79.88945,31.8384253 80.3640687,31.7024733 C80.839238,31.5638773 81.2300153,31.370196 81.5346393,31.120548 C81.839374,30.8696867 82.0613686,30.5653933 82.1983113,30.2116334 C82.3333819,29.8566614 82.4017979,29.4611454 82.4017979,29.0247574 L82.4017979,29.0247547 Z M71.7948275,27.3054201 C71.7616675,27.3279001 71.6902809,27.3554334 71.5821969,27.3884868 C71.4729035,27.4198868 71.3248356,27.4367401 71.1402982,27.4367401 C70.7245116,27.4367401 70.4004982,27.3256868 70.1659436,27.1010481 C69.9300663,26.8768494 69.7643689,26.6345814 69.6667569,26.3729254 L69.6667569,20.6104096 L68.3399623,20.6104096 L68.3399623,28.4673934 L69.5521783,28.4673934 L69.5521783,27.4044601 L69.5853383,27.4044601 C69.6387649,27.5568268 69.7101649,27.7069907 69.7979689,27.8537387 C69.8857689,28.0018094 69.9937436,28.1330227 70.1246276,28.2470507 C70.2562809,28.3619574 70.4111836,28.4524094 70.5906529,28.5173014 C70.7710036,28.5827414 70.9866089,28.6154614 71.2379089,28.6154614 C71.4234382,28.6154614 71.5740422,28.5987147 71.6880702,28.5664347 C71.8025369,28.5337147 71.8925475,28.5070481 71.9583195,28.4846881 L71.7948275,27.3054201 Z M65.5744397,30.726792 C65.5744397,30.4750507 65.4969864,30.2740974 65.345945,30.1212907 C65.1922557,29.9689227 65.0059557,29.891472 64.7885877,29.891472 C64.5695664,29.891472 64.3849197,29.9689254 64.2317811,30.1212907 C64.0789731,30.2740974 64.0015224,30.4750507 64.0015224,30.726792 C64.0015224,30.9785333 64.0789757,31.180808 64.2317811,31.3327347 C64.3849197,31.4855427 64.5695664,31.5616707 64.7885877,31.5616707 C65.0059557,31.5616707 65.1922557,31.4855373 65.345945,31.3327347 C65.496989,31.180808 65.5744397,30.9785333 65.5744397,30.726792 Z M63.0533878,30.726792 C63.0533878,30.4750507 62.9768144,30.2740974 62.8240104,30.1212907 C62.6712038,29.9689227 62.4862251,29.891472 62.2670944,29.891472 C62.0485144,29.891472 61.8630958,29.9689254 61.7111705,30.1212907 C61.5588025,30.2740974 61.4809118,30.4750507 61.4809118,30.726792 C61.4809118,30.9785333 61.5588051,31.180808 61.7111705,31.3327347 C61.8630958,31.4855427 62.0485144,31.5616707 62.2670944,31.5616707 C62.4862251,31.5616707 62.6712038,31.4855373 62.8240104,31.3327347 C62.9768184,31.180808 63.0533878,30.9785333 63.0533878,30.726792 Z M66.310385,20.6104136 L65.099381,20.6104136 L65.099381,21.4935482 L65.067101,21.4935482 C65.032621,21.4293216 64.9628744,21.3333589 64.853589,21.2073229 C64.7442957,21.0833762 64.6061437,20.9624123 64.4357091,20.8470616 C64.2679171,20.7339149 64.0621171,20.6310163 63.8224944,20.5449723 C63.5823211,20.4567323 63.3146038,20.4146389 63.0198958,20.4146389 C62.6712038,20.4146389 62.3566638,20.4653189 62.0794731,20.5704216 C61.8015105,20.6727683 61.5639811,20.8389096 61.3673251,21.0691682 C61.1701185,21.2985442 61.0195145,21.5950162 60.9162838,21.9613362 C60.8142705,22.3271042 60.7617131,22.7759429 60.7617131,23.3109349 L60.7617131,28.4673974 L62.0880664,28.4673974 L62.0880664,23.4098695 C62.0880664,22.7544602 62.1936131,22.2878842 62.4065718,22.0099216 C62.6196438,21.7322896 62.9492758,21.5924816 63.3963517,21.5924816 C63.7780957,21.5924816 64.1008971,21.6884416 64.3616731,21.8787069 C64.6246517,22.0684229 64.832105,22.2573669 64.9848024,22.4441069 L64.9848024,28.4673974 L66.310385,28.4673974 L66.310385,20.6104136 Z M59.5003598,27.3884894 L57.8964852,27.3884894 L57.8964852,20.6104149 L56.5701319,20.6104149 L56.5701319,27.3884908 L55.6202346,27.3884908 L55.6202346,28.2725054 L56.5701319,28.4524147 L56.5701319,30.0231294 C56.5701319,30.4483907 56.6299586,30.81416 56.7516946,31.1205467 C56.8704546,31.42528 57.0288852,31.6770213 57.2251012,31.8724653 C57.4217572,32.0695626 57.6511332,32.2115733 57.9132319,32.29894 C58.1748879,32.38674 58.4537319,32.4288333 58.7476692,32.4288333 C59.0312505,32.4288333 59.2714239,32.39138 59.4676398,32.3143666 C59.6642958,32.2391133 59.7947385,32.1779733 59.8610612,32.1353373 L59.5825478,31.03792 C59.5167745,31.081 59.4242318,31.1283733 59.3041452,31.1782787 C59.1849452,31.2255453 59.0368692,31.2509853 58.8625785,31.2509853 C58.5462759,31.2509853 58.3056612,31.1523853 58.1417265,30.957048 C57.9777919,30.7599507 57.8964852,30.3996907 57.8964852,29.8756054 L57.8964852,28.4673947 L59.6642958,28.4673947 L59.5003598,27.3884894 Z M162.613956,37.1184892 L162.613956,42.1767944 C162.613956,42.8201957 162.521423,43.284017 162.335223,43.5682597 C162.151236,43.8513997 161.849369,43.993521 161.436223,43.993521 C161.216983,43.993521 161.024183,43.9659743 160.852316,43.9119877 C160.684849,43.8569077 160.537223,43.788601 160.405023,43.707069 C160.271689,43.625549 160.159343,43.535201 160.061289,43.437149 C159.963289,43.337989 159.881703,43.252061 159.815596,43.174941 L159.815596,37.1184892 L158.488036,37.1184892 L158.488036,44.9762437 L159.699916,44.9762437 L159.699916,44.0915757 L159.734049,44.0915757 C159.788049,44.1786157 159.870663,44.2843757 159.977529,44.4099703 C160.087663,44.5366637 160.224316,44.655653 160.388463,44.771333 C160.551516,44.8859063 160.744316,44.9817597 160.960249,45.0577783 C161.179503,45.1337916 161.422969,45.1712596 161.698409,45.1712596 C162.592996,45.1712596 163.225383,44.823117 163.596663,44.1246303 C163.671596,44.2326037 163.776236,44.3493797 163.909543,44.4771797 C164.037409,44.601673 164.191583,44.7162517 164.364556,44.8209143 C164.540823,44.9233677 164.738036,45.008205 164.955076,45.0732063 C165.173209,45.1404063 165.414489,45.1712596 165.676689,45.1712596 C167.269769,45.1712596 168.066316,44.2447183 168.066316,42.389433 L168.066316,37.1184892 L166.739849,37.1184892 L166.739849,42.1768011 C166.739849,42.8202024 166.625316,43.2840237 166.397209,43.5682664 C166.168063,43.8514063 165.829836,43.9935277 165.380329,43.9935277 C165.010156,43.9935277 164.702783,43.903181 164.457103,43.7236077 C164.209209,43.5429264 164.016409,43.3710597 163.876489,43.2080064 C163.896356,43.085713 163.913956,42.9601197 163.925023,42.8224064 C163.934356,42.685793 163.940489,42.541469 163.940489,42.389433 L163.940489,37.1184892 L162.613956,37.1184892 Z M156.459796,37.1184958 L155.248996,37.1184958 L155.248996,38.0024012 L155.214863,38.0024012 C155.182863,37.9374012 155.111263,37.8415505 155.004436,37.7159558 C154.894303,37.5892625 154.754343,37.4702732 154.584676,37.3545932 C154.416116,37.2411132 154.212303,37.1408612 153.971023,37.0526132 C153.730849,36.9656932 153.463129,36.9213999 153.171183,36.9213999 C152.81973,36.9213999 152.505743,36.9738399 152.225903,37.0776225 C151.948276,37.1805158 151.712503,37.3468812 151.514196,37.5760372 C151.320303,37.8062958 151.168263,38.1026572 151.063596,38.4684265 C150.96333,38.8341945 150.908263,39.2836945 150.908263,39.8180251 L150.908263,44.9762503 L152.234716,44.9762503 L152.234716,39.9171798 C152.234716,39.2627611 152.342716,38.7956345 152.554223,38.5180025 C152.767956,38.2392692 153.09737,38.0993518 153.545756,38.0993518 C153.928049,38.0993518 154.248649,38.1952052 154.510863,38.3868985 C154.774169,38.5774958 154.980196,38.7658891 155.133329,38.9531798 L155.133329,44.9762503 L156.459796,44.9762503 L156.459796,37.1184958 Z M148.27625,46.8745036 C148.000823,46.8745036 147.783783,46.9615436 147.61853,47.1367116 C147.45437,47.3107823 147.37285,47.5399383 147.37285,47.8230796 C147.37285,48.0963036 147.454316,48.3199516 147.61853,48.4940222 C147.783783,48.6691956 148.000823,48.7562302 148.27625,48.7562302 C148.53625,48.7562302 148.74889,48.6691902 148.914143,48.4940222 C149.078303,48.3199516 149.158716,48.0963036 149.158716,47.8230796 C149.158716,47.5399383 149.078316,47.3107823 148.914143,47.1367116 C148.74889,46.9615383 148.53625,46.8745036 148.27625,46.8745036 Z M148.92957,37.1184958 L147.601996,37.1184958 L147.601996,44.9762503 L148.92957,44.9762503 L148.92957,37.1184958 Z M146.294263,43.8139423 C146.261196,43.8348757 146.189596,43.8624223 146.082743,43.894369 C145.97141,43.9285157 145.823836,43.9439423 145.63985,43.9439423 C145.22561,43.9439423 144.899503,43.831569 144.664836,43.6090224 C144.43017,43.3853744 144.26381,43.1418957 144.165756,42.880789 L144.165756,37.1184945 L142.840396,37.1184945 L142.840396,44.976249 L144.051183,44.976249 L144.051183,43.911993 L144.081983,43.911993 C144.139316,44.0640303 144.20865,44.214965 144.296823,44.361493 C144.38269,44.5102237 144.494023,44.639125 144.624023,44.754805 C144.757356,44.868285 144.91157,44.958621 145.09005,45.0247236 C145.27073,45.0897236 145.486676,45.1238836 145.737863,45.1238836 C145.92405,45.1238836 146.072783,45.1073636 146.187356,45.0732036 C146.300823,45.041257 146.391183,45.0137103 146.456183,44.992777 L146.294263,43.8139423 Z M138.584477,44.0915743 C138.115143,44.0915743 137.738357,43.8943677 137.45521,43.502157 C137.169877,43.1099464 137.005717,42.5414624 136.96165,41.8011104 L139.82721,41.8011104 C139.837877,41.8550971 139.848143,41.9333104 139.85361,42.0368771 C139.85761,42.1415437 139.862943,42.2517117 139.862943,42.3740024 C139.862943,42.9193504 139.75161,43.3413064 139.532423,43.6420744 C139.31429,43.941741 138.99809,44.0915743 138.584957,44.0915743 L138.584477,44.0915743 Z M141.072143,42.3233224 C141.072143,41.9839957 141.061476,41.6931424 141.03801,41.4474611 C141.018143,41.2028797 140.993876,40.9869438 140.973076,40.8018558 L136.961743,40.8018558 C137.005877,39.8742131 137.205223,39.1911505 137.561077,38.7548718 C137.915823,38.3185932 138.425917,38.0993518 139.091357,38.0993518 C139.31941,38.0993518 139.527637,38.1279918 139.713823,38.1819785 C139.898917,38.2359652 140.05645,38.3020718 140.195276,38.3780838 C140.330783,38.4540971 140.448663,38.5312225 140.53901,38.6083425 C140.63261,38.6832625 140.700956,38.7449545 140.745023,38.7879211 L141.23529,37.8547705 C141.180223,37.7996905 141.09757,37.7214638 140.98961,37.6167998 C140.88161,37.5143465 140.73401,37.4107798 140.546716,37.3061158 C140.36273,37.2025558 140.13357,37.1128758 139.862557,37.0358665 C139.58933,36.9600665 139.26653,36.9213999 138.894143,36.9213999 C138.404983,36.9213999 137.960997,37.0027065 137.561077,37.1673012 C137.163357,37.3303558 136.82513,37.5848518 136.54529,37.9274838 C136.267663,38.2712185 136.05173,38.7085998 135.898583,39.2385238 C135.74545,39.7673464 135.67053,40.4030358 135.67053,41.1444891 C135.67053,41.8429757 135.747597,42.4467144 135.906303,42.954605 C136.064943,43.4602917 136.281983,43.8789437 136.554103,44.2050503 C136.82733,44.5344623 137.141317,44.7757383 137.502677,44.934385 C137.861837,45.0930316 138.25185,45.171253 138.667197,45.171253 C139.417463,45.171253 140.009076,44.934385 140.43545,44.4595463 C140.85961,43.985809 141.072236,43.2741024 141.072236,42.3233224 L141.072143,42.3233224 Z M134.63813,43.8943677 L132.919463,43.8943677 L132.919463,39.5403931 C132.919463,38.9840278 132.989997,38.6061398 133.13209,38.4034251 C133.273103,38.2018105 133.514383,38.0993518 133.85261,38.0993518 C134.049823,38.0993518 134.219477,38.1279918 134.360503,38.1819785 C134.501517,38.2359652 134.605077,38.2866452 134.671183,38.3296092 L134.85077,37.2653532 C134.797837,37.2223932 134.665677,37.1529798 134.45745,37.0607652 C134.25033,36.9690985 133.971597,36.9213985 133.624557,36.9213985 C132.948103,36.9213985 132.439117,37.1103412 132.10089,37.4867972 C131.761557,37.8635838 131.592997,38.4882558 131.592997,39.3597118 L131.592997,43.8943663 L130.644423,43.8943663 L130.644423,44.7790423 L131.592997,44.976249 L131.74173,47.1686596 L132.919463,47.1686596 L132.919463,44.976249 L134.803397,44.976249 L134.63813,43.8943677 Z M128.940063,43.3875784 C128.854197,43.4856317 128.69769,43.6200397 128.46853,43.7886023 C128.23717,43.9582663 127.93641,44.0430983 127.56733,44.0430983 C127.216983,44.0430983 126.95037,43.9604717 126.764183,43.7963143 C126.577997,43.633261 126.486557,43.4371557 126.486557,43.2079997 C126.486557,42.9116384 126.57029,42.671465 126.739943,42.478665 C126.90961,42.2880677 127.166303,42.0842517 127.517757,41.8661117 L128.010223,41.5708517 C128.54345,41.2546611 128.96321,40.9131291 129.268383,40.5473598 C129.573557,40.1815904 129.72669,39.7100571 129.72669,39.1316571 C129.72669,38.5091891 129.510757,37.9858758 129.079983,37.5595118 C128.64921,37.1342505 128.03005,36.9213999 127.22249,36.9213999 C126.906303,36.9213999 126.628677,36.9541199 126.388504,37.0203332 C126.147224,37.0848932 125.937904,37.1617932 125.758317,37.2488292 C125.577637,37.3369625 125.426704,37.4317132 125.307717,37.5341718 C125.187584,37.6388385 125.089584,37.7346838 125.012464,37.8228212 L125.65145,38.8694491 C125.717584,38.8044491 125.796877,38.7273291 125.888317,38.6402931 C125.981917,38.5521598 126.093237,38.4684265 126.22545,38.3868985 C126.35545,38.3042718 126.504184,38.2359638 126.66613,38.1819798 C126.829183,38.1279932 127.020877,38.0993532 127.239023,38.0993532 C127.63013,38.0993532 127.931997,38.1874865 128.139117,38.3626625 C128.347343,38.5367331 128.44981,38.7504665 128.44981,39.0005545 C128.44981,39.1867451 128.42661,39.3464931 128.374877,39.4842078 C128.326343,39.6197185 128.255943,39.7431104 128.15673,39.8521798 C128.05753,39.9612464 127.936397,40.0648104 127.794277,40.1628638 C127.65545,40.2609171 127.490197,40.3710878 127.305117,40.4889704 L126.813743,40.8018571 C126.32349,41.1180491 125.93789,41.4507664 125.65805,41.8011117 C125.380424,42.1492531 125.241597,42.596549 125.241597,43.1418984 C125.241597,43.437157 125.299997,43.707077 125.41237,43.9527597 C125.52917,44.1973397 125.687797,44.4099703 125.896024,44.591753 C126.103144,44.771333 126.347717,44.9134543 126.625357,45.015913 C126.90409,45.1205796 127.201557,45.1712543 127.517743,45.1712543 C127.825117,45.1712543 128.084023,45.1426143 128.303263,45.083121 C128.52141,45.022521 128.710903,44.9454063 128.869543,44.8528623 C129.02709,44.7603157 129.15709,44.6677743 129.26065,44.5730263 C129.361983,44.4826797 129.45125,44.4033623 129.51405,44.3372597 L128.940063,43.3875784 Z M122.867424,46.8745036 C122.595304,46.8745036 122.379357,46.9615436 122.212997,47.1367116 C122.04885,47.3107823 121.967317,47.5399383 121.967317,47.8230796 C121.967317,48.0963036 122.048917,48.3199516 122.212997,48.4940222 C122.379357,48.6691956 122.595304,48.7562302 122.867424,48.7562302 C123.12853,48.7562302 123.343357,48.6691902 123.509717,48.4940222 C123.671677,48.3199516 123.752104,48.0963036 123.752104,47.8230796 C123.752104,47.5399383 123.671704,47.3107823 123.509717,47.1367116 C123.343357,46.9615383 123.12853,46.8745036 122.867424,46.8745036 Z M123.525144,37.1184958 L122.197584,37.1184958 L122.197584,44.9762503 L123.525144,44.9762503 L123.525144,37.1184958 Z M118.890237,37.1184958 L118.890237,42.1767944 C118.890237,42.8422304 118.780104,43.319273 118.55641,43.6090237 C118.33277,43.8987743 117.99013,44.0430983 117.530717,44.0430983 C117.138504,44.0430983 116.811304,43.9439383 116.55129,43.746737 C116.286877,43.5517344 116.08197,43.361137 115.926624,43.1749477 L115.926624,37.1184958 L114.602357,37.1184958 L114.602357,44.9762503 L115.81425,44.9762503 L115.81425,44.0915757 L115.84625,44.0915757 C115.87825,44.1587757 115.950917,44.252425 116.056677,44.378021 C116.16681,44.5047143 116.310077,44.6237037 116.484144,44.738281 C116.659317,44.8528543 116.86533,44.9531157 117.105517,45.041253 C117.346784,45.128293 117.62001,45.171253 117.925184,45.171253 C118.274424,45.171253 118.589517,45.120573 118.873757,45.0159116 C119.156904,44.9134583 119.397077,44.7470943 119.594277,44.517937 C119.790384,44.2876783 119.94573,43.9913183 120.054797,43.625549 C120.16173,43.2597797 120.21565,42.810281 120.21565,42.2748477 L120.21565,37.1184958 L118.890237,37.1184958 Z M111.915283,46.8745036 C111.644261,46.8745036 111.426121,46.9615436 111.263068,47.1367116 C111.097811,47.3107823 111.016284,47.5399383 111.016284,47.8230796 C111.016284,48.0963036 111.097804,48.3199516 111.263068,48.4940222 C111.426121,48.6691956 111.644261,48.7562302 111.915283,48.7562302 C112.177491,48.7562302 112.393424,48.6691902 112.557584,48.4940222 C112.718437,48.3199516 112.799957,48.0963036 112.799957,47.8230796 C112.799957,47.5399383 112.718491,47.3107823 112.557584,47.1367116 C112.393424,46.9615383 112.177491,46.8745036 111.915283,46.8745036 Z M112.571904,37.1184958 L111.247644,37.1184958 L111.247644,44.9762503 L112.571904,44.9762503 L112.571904,37.1184958 Z M103.81438,37.1184892 L103.81438,42.1767944 C103.81438,42.8201957 103.72074,43.284017 103.534545,43.5682597 C103.349457,43.8513997 103.049791,43.993521 102.634444,43.993521 C102.416305,43.993521 102.223505,43.9659743 102.053841,43.9119877 C101.885279,43.8569077 101.734344,43.788601 101.602139,43.707069 C101.473232,43.625549 101.357557,43.535201 101.259505,43.437149 C101.161452,43.337989 101.078824,43.252061 101.014925,43.174941 L101.014925,37.1184892 L99.6895628,37.1184892 L99.6895628,44.9762437 L100.898143,44.9762437 L100.898143,44.0915757 L100.933396,44.0915757 C100.987383,44.1786157 101.067804,44.2843757 101.177976,44.4099703 C101.288149,44.5366637 101.423659,44.655653 101.587813,44.771333 C101.750867,44.8859063 101.941464,44.9817597 102.161807,45.0577783 C102.378844,45.1337916 102.624527,45.1712596 102.896649,45.1712596 C103.791241,45.1712596 104.424727,44.823117 104.796004,44.1246303 C104.872017,44.2326037 104.977788,44.3493797 105.105587,44.4771797 C105.237787,44.601673 105.388727,44.7162517 105.566103,44.8209143 C105.739072,44.9233677 105.935177,45.008205 106.154417,45.0732063 C106.370353,45.1404063 106.613832,45.1712596 106.873837,45.1712596 C108.469119,45.1712596 109.262353,44.2447183 109.262353,42.389433 L109.262353,37.1184892 L107.938093,37.1184892 L107.938093,42.1768011 C107.938093,42.8202024 107.824613,43.2840237 107.594359,43.5682664 C107.366303,43.8514063 107.028077,43.9935277 106.580781,43.9935277 C106.210605,43.9935277 105.902125,43.903181 105.655341,43.7236077 C105.409659,43.5429264 105.214656,43.3710597 105.074739,43.2080064 C105.095672,43.085713 105.112192,42.9601197 105.123219,42.8224064 C105.134285,42.685793 105.139739,42.541469 105.139739,42.389433 L105.139739,37.1184892 L103.81438,37.1184892 Z M97.3484216,43.3875784 C97.2613816,43.4856317 97.1005349,43.6200397 96.8735829,43.7886023 C96.6433243,43.9582663 96.3447603,44.0430983 95.9723803,44.0430983 C95.6253403,44.0430983 95.3565216,43.9604717 95.1703323,43.7963143 C94.9852443,43.633261 94.893803,43.4371557 94.893803,43.2079997 C94.893803,42.9116384 94.9764296,42.671465 95.1471963,42.478665 C95.315759,42.2880677 95.5735603,42.0842517 95.9239043,41.8661117 L96.4152696,41.5708517 C96.9507029,41.2546611 97.3693536,40.9131291 97.6756296,40.5473598 C97.9819069,40.1815904 98.1339429,39.7100571 98.1339429,39.1316571 C98.1339429,38.5091891 97.9180069,37.9858758 97.4883389,37.5595118 C97.0564669,37.1342505 96.4362016,36.9213999 95.6308496,36.9213999 C95.3124536,36.9213999 95.035923,36.9541199 94.7946483,37.0203332 C94.554475,37.0848932 94.344047,37.1617932 94.1633656,37.2488292 C93.983787,37.3369625 93.8328523,37.4317132 93.713867,37.5341718 C93.5948803,37.6388385 93.495727,37.7346838 93.418607,37.8228212 L94.0576016,38.8694491 C94.1237083,38.8044491 94.2019256,38.7273291 94.2955723,38.6402931 C94.3892123,38.5521598 94.500491,38.4684265 94.631595,38.3868985 C94.7627016,38.3042718 94.909227,38.2359638 95.0722803,38.1819798 C95.2375376,38.1279932 95.4270323,38.0993532 95.6462736,38.0993532 C96.0373816,38.0993532 96.3392509,38.1874865 96.5430683,38.3626625 C96.7523936,38.5367331 96.8581589,38.7504665 96.8581589,39.0005545 C96.8581589,39.1867451 96.8306122,39.3464931 96.7832389,39.4842078 C96.7336656,39.6197185 96.6598523,39.7431104 96.5617949,39.8521798 C96.4626349,39.9612464 96.3447576,40.0648104 96.2026363,40.1628638 C96.0605149,40.2609171 95.8974616,40.3710878 95.7112709,40.4889704 L95.2210083,40.8018571 C94.728543,41.1180491 94.3440443,41.4507664 94.0664123,41.8011117 C93.787679,42.1492531 93.6477617,42.596549 93.6477617,43.1418984 C93.6477617,43.437157 93.705055,43.707077 93.8207297,43.9527597 C93.9342097,44.1973397 94.096159,44.4099703 94.304383,44.591753 C94.510403,44.771333 94.7538816,44.9134543 95.0315136,45.015913 C95.310247,45.1205796 95.6088123,45.1712543 95.9239016,45.1712543 C96.2290776,45.1712543 96.4912843,45.1426143 96.7094242,45.083121 C96.9275642,45.022521 97.1148549,44.9454063 97.2724002,44.8528623 C97.4321482,44.7603157 97.5632522,44.6677743 97.6679149,44.5730263 C97.7714749,44.4826797 97.8552069,44.4033623 97.9213096,44.3372597 L97.3484216,43.3875784 Z M89.7025258,44.0915743 C89.2342978,44.0915743 88.8575111,43.8943677 88.5743711,43.502157 C88.2890271,43.1099464 88.1270751,42.5414624 88.0830071,41.8011104 L90.9485644,41.8011104 C90.9596311,41.8550971 90.9661911,41.9333104 90.9716977,42.0368771 C90.9771644,42.1415437 90.9804977,42.2517117 90.9804977,42.3740024 C90.9804977,42.9193504 90.8714311,43.3413064 90.6521857,43.6420744 C90.4340471,43.941741 90.1178551,44.0915743 89.7025084,44.0915743 L89.7025258,44.0915743 Z M92.1924004,42.3233224 C92.1924004,41.9839957 92.180267,41.6931424 92.1582404,41.4474611 C92.1362004,41.2028797 92.1152804,40.9869438 92.094347,40.8018558 L88.0830071,40.8018558 C88.1270738,39.8742131 88.3264858,39.1911505 88.6801351,38.7548718 C89.0348871,38.3185932 89.5460831,38.0993518 90.2104164,38.0993518 C90.4395724,38.0993518 90.6477964,38.1279918 90.8317831,38.1819785 C91.0179724,38.2359652 91.1788231,38.3020718 91.3154351,38.3780838 C91.4520484,38.4540971 91.5677284,38.5312225 91.6613737,38.6083425 C91.7528137,38.6832625 91.8200204,38.7449545 91.8640884,38.7879211 L92.3543524,37.8547705 C92.3003657,37.7996905 92.2188404,37.7214638 92.109771,37.6167998 C92.0017977,37.5143465 91.8541737,37.4107798 91.6690857,37.3061158 C91.4828964,37.2025558 91.2526377,37.1128758 90.9805151,37.0358665 C90.7072897,36.9600665 90.3855884,36.9213999 90.0143111,36.9213999 C89.5229471,36.9213999 89.0778538,37.0027065 88.6801351,37.1673012 C88.2813151,37.3303558 87.9441911,37.5848518 87.6654565,37.9274838 C87.3878258,38.2712185 87.1718898,38.7085998 87.0187512,39.2385238 C86.8659432,39.7673464 86.7893738,40.4030358 86.7893738,41.1444891 C86.7893738,41.8429757 86.8680405,42.4467144 87.0273445,42.954605 C87.1851098,43.4602917 87.3999445,43.8789437 87.6731685,44.2050503 C87.9452925,44.5344623 88.2636885,44.7757383 88.6228471,44.934385 C88.9820058,45.0930316 89.3709098,45.171253 89.7851551,45.171253 C90.5387271,45.171253 91.1281444,44.934385 91.5534057,44.4595463 C91.978667,43.985809 92.1924004,43.2741024 92.1924004,42.3233224 L92.1924004,42.3233224 Z M82.3209326,38.0993518 C82.5275046,38.0993518 82.7130326,38.1279918 82.8765273,38.1819785 C83.0417846,38.2359652 83.1829139,38.3042718 83.3030006,38.3868971 C83.4226406,38.4684305 83.5242246,38.5521545 83.6064126,38.6402918 C83.6877192,38.7273318 83.7501859,38.8044478 83.7931526,38.8694478 L83.7931526,43.714789 C83.6739526,43.791909 83.5349112,43.8569103 83.3757139,43.9119957 C83.2178379,43.9659823 83.0185379,43.993529 82.7788046,43.993529 C82.4741806,43.993529 82.1866339,43.9417423 81.919358,43.8381877 C81.6526326,43.7346277 81.41973,43.5627597 81.2239566,43.3236877 C81.0277406,43.0813104 80.871518,42.769525 80.7557273,42.3894344 C80.642914,42.0082411 80.5852927,41.5378091 80.5852927,40.9814438 C80.5852927,40.4360944 80.631786,39.9799851 80.72477,39.6142158 C80.81721,39.2495491 80.9451126,38.9542891 81.108166,38.7306425 C81.2721006,38.5058918 81.4585113,38.3461438 81.6659633,38.2469892 C81.8729753,38.1500425 82.0911153,38.0993518 82.3209326,38.0993518 L82.3209326,38.0993518 Z M79.2106834,40.9307571 C79.2106834,41.7283971 79.31359,42.3949344 79.521918,42.929265 C79.7292607,43.463597 79.9956553,43.8943677 80.322754,44.2226783 C80.6511753,44.5498863 81.022122,44.7812463 81.4365873,44.918961 C81.850942,45.055573 82.2658473,45.1238796 82.6807526,45.1238796 C82.9311726,45.1238796 83.1497526,45.1029463 83.3352806,45.065493 C83.5211392,45.0280396 83.6739472,44.9817597 83.7931526,44.9255757 L83.7931526,48.6912342 L85.1195059,48.8388636 L85.1195059,37.1184998 L83.9089432,37.1184998 L83.9089432,37.9528278 L83.8762232,37.9528278 C83.8435032,37.8867212 83.7824632,37.7985878 83.6963139,37.6829078 C83.6085006,37.5683345 83.4880899,37.4537518 83.3352819,37.3391732 C83.1829153,37.2256932 82.9914366,37.1253305 82.7629419,37.0440238 C82.5331246,36.9627172 82.2658486,36.9213972 81.9602326,36.9213972 C81.5901673,36.9213972 81.2377286,36.9949972 80.9037993,37.1430612 C80.5719633,37.2895892 80.2797887,37.5242545 80.0279367,37.8459545 C79.7775167,38.1687572 79.578658,38.5830011 79.430698,39.0908918 C79.2842794,39.5976798 79.2106834,40.2113344 79.2106834,40.9307544 L79.2106834,40.9307571 Z M76.2628274,37.1184958 L76.2628274,42.1767944 C76.2628274,42.8422304 76.1517741,43.319273 75.9283474,43.6090237 C75.7037088,43.8987743 75.3633888,44.0430983 74.9046355,44.0430983 C74.5116541,44.0430983 74.1845541,43.9439383 73.9221262,43.746737 C73.6607995,43.5517344 73.4538982,43.361137 73.3010902,43.1749477 L73.3010902,37.1184958 L71.9742969,37.1184958 L71.9742969,44.9762503 L73.1857408,44.9762503 L73.1857408,44.0915757 L73.2189008,44.0915757 C73.2516208,44.1587757 73.3212475,44.252425 73.4323035,44.378021 C73.5403835,44.5047143 73.6823928,44.6237037 73.8571235,44.738281 C74.0314155,44.8528543 74.2391981,44.9531157 74.4789315,45.041253 C74.7199861,45.128293 74.9918888,45.171253 75.2979461,45.171253 C75.6469688,45.171253 75.9632701,45.120573 76.2477328,45.0159116 C76.5308741,44.9134583 76.7719287,44.7470943 76.9677034,44.517937 C77.1639181,44.2876783 77.3167261,43.9913183 77.4248047,43.625549 C77.5349781,43.2597797 77.5896207,42.810281 77.5896207,42.2748477 L77.5896207,37.1184958 L76.2628274,37.1184958 Z M69.9451596,37.1184958 L68.7328329,37.1184958 L68.7328329,38.0024012 L68.7009929,38.0024012 C68.6682729,37.9374012 68.5973263,37.8415505 68.487481,37.7159558 C68.3786276,37.5892625 68.240917,37.4702732 68.0704823,37.3545932 C67.901369,37.2411132 67.6965596,37.1408612 67.455505,37.0526132 C67.216653,36.9656932 66.9490477,36.9213999 66.6537877,36.9213999 C66.3043237,36.9213999 65.991437,36.9738399 65.7139157,37.0776225 C65.434521,37.1805158 65.197873,37.3468812 65.0003357,37.5760372 C64.8036797,37.8062958 64.6539571,38.1026572 64.5514971,38.4684265 C64.4465104,38.8341945 64.3952744,39.2836945 64.3952744,39.8180251 L64.3952744,44.9762503 L65.7211864,44.9762503 L65.7211864,39.9171798 C65.7211864,39.2627611 65.8279464,38.7956345 66.039693,38.5180025 C66.2530943,38.2392692 66.583609,38.0993518 67.0307943,38.0993518 C67.4125383,38.0993518 67.7352303,38.1952052 67.9968876,38.3868985 C68.258545,38.5774958 68.4651156,38.7658891 68.619245,38.9531798 L68.619245,44.9762503 L69.9451596,44.9762503 L69.9451596,37.1184958 Z M61.1701185,40.2774398 C61.1701185,40.8888918 60.9709278,41.3714424 60.5728785,41.7261944 C60.1738385,42.0809464 59.6037012,42.2583224 58.8625785,42.2583224 L57.8964852,42.2583224 L57.8964852,38.2965585 L58.7808305,38.2965585 C59.6208878,38.2965585 60.2293652,38.4640185 60.6054892,38.7956345 C60.9820558,39.1294545 61.1701185,39.6241238 61.1701185,40.2774398 L61.1701185,40.2774398 Z M60.9580385,45.484141 C60.9580385,46.0074543 60.7720691,46.4382249 60.3997998,46.7764503 C60.0297345,47.1146769 59.4457158,47.2843409 58.6491759,47.2843409 L57.8964852,47.2843409 L57.8964852,43.3875784 L58.6327612,43.3875784 C59.3966892,43.3875784 59.9755292,43.5726664 60.3679598,43.9439437 C60.7617131,44.3152223 60.9580385,44.828621 60.9580385,45.484141 L60.9580385,45.484141 Z M62.3979784,45.532621 C62.3979784,45.1404103 62.3489518,44.7955743 62.2503491,44.499213 C62.1526291,44.2050557 62.0192091,43.9527637 61.8500958,43.7390303 C61.6801011,43.527501 61.4843265,43.354533 61.2601278,43.223429 C61.0371411,43.093429 60.8052305,42.9953744 60.5650572,42.9292704 L60.5650572,42.8973237 C60.8594345,42.8422437 61.1353038,42.7397784 61.3913425,42.5855384 C61.6482625,42.432401 61.8729011,42.2418037 62.0622864,42.0126477 C62.2537638,41.7834917 62.4065718,41.5146731 62.5210398,41.2028877 C62.6350664,40.8911024 62.6927971,40.5495718 62.6927971,40.1782944 C62.6927971,39.7320998 62.6161171,39.3233638 62.4643011,38.9531878 C62.3119344,38.5808091 62.0735238,38.2580065 61.7507211,37.9858838 C61.4301225,37.7137598 61.0238105,37.5000278 60.5323358,37.3468892 C60.0408612,37.1948532 59.4565118,37.1185038 58.7808305,37.1185038 L56.4728506,37.1185038 L56.4728506,48.4125036 L58.6491759,48.4125036 C59.3149425,48.4125036 59.8855198,48.3453036 60.3606892,48.2086876 C60.8345358,48.0720742 61.2248731,47.8792742 61.5303785,47.6269823 C61.8355531,47.3768929 62.0566678,47.0739209 62.1936104,46.7191703 C62.3291211,46.3633156 62.3979784,45.967801 62.3979784,45.5326236" id="path4824" fill="#000000" transform="translate(111.843275, 24.736061) scale(-1, 1) rotate(-180.000000) translate(-111.843275, -24.736061) "></path>
            <polyline id="path4826" fill="#FFCC00" transform="translate(43.829802, 70.128882) scale(-1, 1) rotate(-180.000000) translate(-43.829802, -70.128882) " points="44.1745282 83.885488 46.2368268 83.885488 46.2368268 56.3722754 41.4227776 56.3722754 41.4227776 83.885488 44.1745282 83.885488"></polyline>
            <polyline id="path4828" fill="#FF0000" transform="translate(43.829802, 42.548796) scale(-1, 1) rotate(-180.000000) translate(-43.829802, -42.548796) " points="44.1745282 56.3722754 46.2368268 56.3722754 46.2368268 28.7253161 41.4227776 28.7253161 41.4227776 56.3722754 44.1745282 56.3722754"></polyline>
            <path d="M20.3391675,18.5898816 C20.3757408,18.8972603 20.3973408,19.2156563 20.3973408,19.5406616 C20.3973408,19.7180376 20.3985515,19.9240576 20.3766342,20.1565189 C23.1180301,20.1961856 25.5237327,22.1704522 25.5237327,24.4432882 C25.5237327,25.6000881 24.7697194,26.4704414 24.3441274,26.9926548 C24.4392074,27.0113881 24.5356047,27.0345214 24.6328861,27.0587614 C25.0343514,26.7106201 26.1735233,25.4689881 26.1735233,23.9001468 C26.1735233,21.1756082 23.4494247,18.6460736 20.3391675,18.5898816 L20.3391675,18.5898816 Z M17.5762889,28.0811481 C17.5250622,28.3841187 17.4097102,28.6595481 17.2342062,28.8953147 C17.2423396,29.1729467 17.3568329,29.43846 17.8043436,29.22032 C17.5616356,28.9724347 17.7488236,28.5350534 17.7488236,28.5350534 C17.7488236,28.5350534 18.2442649,28.7642107 18.1409235,29.0903174 C18.8764275,28.9140441 18.3488169,27.9291107 17.5762956,28.0811481 L17.5762889,28.0811481 Z M16.9393876,26.6819708 C16.8403476,27.0896054 16.6330009,27.5060534 16.3669369,27.8211427 C16.1242303,28.1064867 15.7236463,28.4469174 15.186121,28.4469174 C14.9391156,28.4469174 14.5263036,28.3312374 14.2650876,28.2210654 C14.1648343,28.3984414 13.9746757,28.8303134 13.9746757,29.0242147 C13.9746757,29.2236254 14.3111396,29.42634 14.9563023,29.42634 C16.3752009,29.42634 17.2251729,28.7851427 17.2251729,27.7087681 C17.2251729,27.3308801 17.0748982,26.9860441 16.9393876,26.6819708 L16.9393876,26.6819708 Z M20.5845182,8.3849259 C20.7488941,8.3849259 20.8302008,8.35825923 20.9252795,8.32333923 C21.3341248,7.21082859 22.9088048,5.11371531 22.9742461,5.02425665 L22.9897794,5.00574998 L23.0139128,5.01134998 C23.3990714,5.07238998 24.3849954,5.22177798 25.2112807,5.22177798 L25.2306674,5.22177798 C25.3196807,5.22177798 25.420382,5.22177798 25.4862647,5.15853798 C25.5387047,5.10421798 25.565478,5.01134865 25.565478,4.87749132 C25.565478,4.67180066 25.478558,4.32101533 25.3752114,4.17173267 C25.0860114,4.487154 24.6156901,4.62828333 23.8659741,4.62828333 C23.6391314,4.62828333 23.3731767,4.56030999 23.2290728,4.52329666 L23.1692461,4.50996333 L23.1020461,4.49233666 L23.5363421,4.05848201 C24.2042007,3.39106336 24.7817194,2.81343537 24.7817194,2.43003938 C24.7817194,2.19889939 24.5566394,1.89857139 24.3497381,1.7633914 C24.3048981,2.46837805 23.5935207,3.40692869 22.9028568,3.93409934 L22.8439101,3.97849934 L22.8317768,3.73226602 C22.8223101,3.56403402 22.8073234,3.31053003 22.8073234,3.04281403 C22.8073234,1.70268873 22.6717021,1.50041407 22.2077701,1.50041407 C22.1363834,1.50041407 22.0266488,1.52112074 21.9594448,1.5469074 C22.2219834,1.86882873 22.3240021,2.29574205 22.3240021,3.0436967 L22.3205354,3.38930336 L22.3161354,3.66693535 C22.3161354,3.97376334 22.3492954,4.20093667 22.3729888,4.38382067 L22.3863221,4.48716733 L22.3131754,4.496634 C22.0962474,4.527154 21.6934608,4.58179399 21.3848715,4.58179399 C20.7230715,4.58179399 20.2763262,4.52152733 19.9496688,4.21514334 C19.7353848,4.38811267 19.5154835,4.68722732 19.5154835,4.87617132 C19.5154835,5.15589665 19.6897742,5.17738065 19.9165075,5.17738065 C20.0322942,5.17738065 20.1399342,5.16063398 20.2887755,5.14300731 C20.5736795,5.10036731 21.0019155,5.03712732 21.8824048,5.03712732 L21.9374848,5.03712732 L21.9215115,5.09176731 C21.6973115,5.73087263 21.0840981,6.65961661 20.0989448,7.85508725 C20.1893982,8.1756859 20.2763208,8.3849259 20.5844702,8.3849259 L20.5845182,8.3849259 Z M12.0914064,5.09179265 L12.0742197,5.03715265 L12.1288597,5.03715265 C13.0097903,5.03715265 13.438357,5.10039265 13.722489,5.14303265 C13.8717717,5.16065931 13.979409,5.17740598 14.0943183,5.17740598 C14.3214916,5.17740598 14.4966636,5.15592598 14.4966636,4.87619665 C14.4966636,4.68725266 14.2754396,4.388138 14.0620383,4.21516867 C13.7365917,4.52155533 13.287753,4.58181933 12.627165,4.58181933 C12.3181344,4.58181933 11.9141357,4.52717933 11.6980904,4.49665933 L11.6631704,4.49239266 L11.6249437,4.48719266 L11.6373437,4.383846 C11.6631304,4.200962 11.6945304,3.97378868 11.6945304,3.66696068 L11.6902637,3.38932869 L11.6873304,3.04372203 C11.6873304,2.29576738 11.790557,1.86885406 12.0518877,1.54693274 C11.9846877,1.5211594 11.874953,1.5004394 11.8040024,1.5004394 C11.339189,1.5004394 11.2035677,1.70271407 11.2035677,3.04283937 C11.2035677,3.31055536 11.1897944,3.56405935 11.1798877,3.73229135 L11.1669544,3.97929534 L11.1080077,3.93412201 C10.4181144,3.40695136 9.70596642,2.46840071 9.66421176,1.76341406 C9.45587843,1.89859406 9.2303571,2.19892205 9.2303571,2.43006205 C9.2303571,2.81345804 9.80831575,3.39108602 10.4762851,4.05850467 L10.8610037,4.44201133 L10.9083771,4.492358 L10.7831104,4.523318 C10.6397771,4.56033133 10.3729424,4.62830466 10.1462091,4.62830466 C9.39517043,4.62830466 8.92694244,4.48717533 8.63686112,4.171754 C8.53319445,4.32103667 8.44626512,4.67182199 8.44626512,4.87751265 C8.44626512,5.01136998 8.47293179,5.10424465 8.52415845,5.15855931 C8.59081179,5.22179931 8.69239045,5.22179931 8.78151845,5.22179931 L8.80002511,5.22179931 C9.62719176,5.22179931 10.6131157,5.07240731 10.9987157,5.01137132 L11.0224091,5.00577132 L11.0370624,5.02427798 C11.1023957,5.11373131 12.6779557,7.21084993 13.0872423,8.32336057 C13.180669,8.35828057 13.2624157,8.38494723 13.4263503,8.38494723 C13.736593,8.38494723 13.8223063,8.17573257 13.9126463,7.85513391 C12.9271637,6.65966328 12.315161,5.7309193 12.0914037,5.09181398 L12.0914064,5.09179265 Z M7.83856247,23.9001428 C7.83856247,25.4689841 8.97774244,26.7106161 9.3797571,27.0587574 C9.4752771,27.0345174 9.57255709,27.0113841 9.66851709,26.9926508 C9.24204377,26.4704374 8.48891179,25.6000841 8.48891179,24.4432842 C8.48891179,22.1484136 10.9409957,20.1565149 13.715993,20.1565149 C13.6983663,19.9593083 13.6888863,19.7532883 13.6888863,19.5406576 C13.6888863,19.202431 13.706953,18.8873403 13.7417663,18.5898776 C10.6023224,18.608611 7.83856247,21.1557696 7.83856247,23.9001388 L7.83856247,23.9001428 Z M28.8943059,19.0669243 C30.3019659,16.8405804 31.4041205,16.8783697 33.0682592,16.8783697 C31.6906765,17.9332603 30.7801099,19.2850643 30.3462552,19.9769403 L27.774414,24.0929428 C27.5217913,25.3632201 26.86517,26.5519694 25.880458,27.4355428 C26.2114127,27.5611428 26.4859593,27.6933441 26.6529793,27.8178387 C24.972866,27.8178387 23.3077354,28.6705654 22.3919901,28.6705654 C21.8032341,28.6705654 21.4241355,28.3202201 21.4241355,27.8541947 C21.4628021,27.3363894 21.9960341,26.8075668 22.9823994,26.8075668 C23.2053861,26.8075668 23.4915007,26.8373134 23.8043874,26.8890868 C24.3393807,26.1454295 24.76971,25.4733841 24.76971,24.5126895 C24.76971,22.7113869 22.6148674,21.3067016 20.4389822,21.3067016 C20.3172488,21.3067016 20.1998008,21.3111016 20.0770688,21.3210216 C19.8790915,21.7672162 19.2250035,22.5174829 19.2250035,23.3713109 C19.2250035,24.8013362 20.1580448,25.9713561 20.1580448,27.3903641 C20.1580448,28.2717347 19.7284875,28.8170827 19.5627888,29.044036 C19.8309462,29.29082 20.1222395,29.5970974 20.1915368,29.8042187 C20.0357555,29.738112 19.8519888,29.7292987 19.5821795,29.7292987 C18.5394075,29.7292987 17.6903156,30.00032 16.8619369,30.00032 C16.3894129,30.00032 16.2619436,29.8548934 16.2619436,29.7160774 C16.2619436,29.664304 16.2698103,29.6125174 16.2839836,29.587184 C16.1070489,29.6565974 15.9409103,29.7017574 15.7438129,29.7381187 C15.5006649,29.7843854 15.2373556,29.807532 14.9563076,29.807532 C13.950113,29.807532 13.5920557,29.3866774 13.5920557,29.0242134 C13.5920557,28.7179374 13.833441,28.1593681 14.1058956,27.7341067 C14.4992076,27.9313134 14.9700796,28.0657227 15.1861263,28.0657227 C15.7193556,28.0657227 16.1957369,27.5567308 16.4474783,26.9529908 C16.0872169,26.9100308 16.0183609,26.8934974 15.6547943,26.8934974 C14.6743796,26.8934974 14.007733,27.2449441 13.8708997,27.2449441 C13.8571263,27.2449441 13.831793,27.2382774 13.831793,27.2163041 C13.831793,27.0785894 14.108433,26.7150241 14.6567556,26.5145121 C15.3780489,26.2512028 16.4603716,26.1421321 16.6407223,26.1123868 C16.6407223,26.0804401 16.4573969,25.7378041 16.2533596,25.6739041 C16.2099463,25.6584775 16.1759063,25.6573841 16.1246796,25.6684375 C15.3711076,25.8182695 15.1606796,25.8799655 14.204833,26.2435321 C14.175193,26.2545988 14.1580063,26.2368655 14.1580063,26.2060788 C14.1580063,25.8281908 15.136989,24.9919895 16.0145049,24.6735948 C15.282085,23.7371375 14.365789,22.7808495 13.9341383,21.3210789 C13.812845,21.3112122 13.6945157,21.3067589 13.5717837,21.3067589 C11.396781,21.3067589 9.2420491,22.7114442 9.2420491,24.5127468 C9.2420491,25.4734415 9.67281842,26.1454868 10.2072597,26.8891441 C10.5210277,26.8373574 10.8054904,26.8076241 11.0288077,26.8076241 C12.015173,26.8076241 12.5488424,27.3364468 12.588505,27.8542521 C12.588505,28.3202774 12.2088544,28.6706227 11.6188864,28.6706227 C10.7034717,28.6706227 9.03977444,27.8178961 7.35833848,27.8178961 C7.52535848,27.6934027 7.79946381,27.5611961 8.13041846,27.4356001 C7.14658915,26.5520268 6.48897584,25.3632775 6.23723451,24.0930002 L3.66583324,19.9769976 C3.23297059,19.2851216 2.31975994,17.9333177 0.941735976,16.878427 C2.6063146,16.878427 3.70979191,16.8406404 5.11789187,19.0669816 L6.43697451,21.1789669 C6.53414784,20.9046403 6.6551145,20.6380256 6.79624383,20.3769189 L4.17284256,16.1796097 C3.73689457,15.4840977 2.83271726,14.1426511 1.4503973,13.0814804 C3.11288392,13.0814804 4.21801323,13.0426938 5.62523186,15.2680511 L7.88341447,18.8840976 C8.05296913,18.7045176 8.22979313,18.5271416 8.41829712,18.360783 L5.23147987,13.2587458 C4.79343721,12.5620218 3.89399857,11.2257525 2.50738127,10.1635912 C4.17196123,10.1635912 5.2766492,10.1236045 6.6835385,12.3511538 L9.78982109,17.324291 C9.99429842,17.1948377 10.2047264,17.0686923 10.4212131,16.951691 L6.63021583,10.8844418 C6.19118251,10.1863965 5.29174253,8.85277122 3.9064479,7.78763391 C5.57146786,7.78763391 6.67494517,7.75018058 8.08260513,9.97552853 L11.9864184,16.2261017 C12.218329,16.1360884 12.4520024,16.053023 12.689973,15.9755724 L8.27848913,8.91468722 C7.84716914,8.22655657 6.92756783,6.87056727 5.55637453,5.81920196 C7.22150515,5.81920196 8.32443046,5.78174863 9.73175976,8.00577391 L14.4346463,15.5319124 C14.4820196,15.5237791 14.529393,15.5163791 14.5763276,15.5068991 C14.7045676,15.0989351 14.793145,14.7207164 14.793145,14.3419471 C14.793145,11.9771178 13.2412703,9.88815786 11.3800344,8.27646057 C11.4979144,8.22358057 11.7058117,8.20716724 11.8981704,8.20716724 C12.2820077,8.20716724 12.5312157,8.2265539 12.7055063,8.2575139 C12.272533,7.27808993 11.3455504,6.01023796 10.8777637,5.35526864 C10.2688464,5.46500197 9.38141577,5.55148464 8.80004111,5.55148464 C8.19321713,5.55148464 8.12391846,5.19430865 8.12391846,4.87756599 C8.12391846,4.325386 8.38171979,3.88646334 8.68336912,3.64155268 C8.79530245,3.92348201 9.02214644,4.30048733 10.1462251,4.30048733 C10.1659451,4.30048733 10.2064917,4.29782067 10.2584917,4.29448733 C9.92929842,3.92904868 8.90250111,3.09890736 8.90250111,2.43016738 C8.90250111,1.98694739 9.3883571,1.32327541 10.0286731,1.32327541 C9.99000642,1.46528607 9.99517975,1.59694074 9.99517975,1.6955434 C9.99517975,2.23824872 10.4754171,2.87261537 10.8804077,3.31407136 C10.8692077,3.18153803 10.8752077,3.19531136 10.8752077,3.0429407 C10.8752077,1.76098606 10.9914344,1.17267008 11.803953,1.17267008 C12.2028837,1.17267008 12.478753,1.39081007 12.572949,1.45713274 C12.044457,1.94343006 12.0177957,2.32605538 12.0177957,3.04382203 C12.018677,3.23067269 12.019117,3.41311536 12.0216624,3.66617935 C12.0233957,3.83011535 12.021221,4.04748334 11.9949957,4.204918 C12.2859584,4.24502467 12.403841,4.24502467 12.6271584,4.24502467 C12.6271584,4.24502467 13.7823063,4.33581133 14.060709,3.73669401 C14.374477,4.02424067 14.829265,4.42912066 14.829265,4.87630599 C14.829265,5.17244731 14.689457,5.50681664 14.0943116,5.50681664 C13.8687903,5.50681664 13.1599477,5.36822197 12.567777,5.36822197 C12.7266437,5.72363397 13.436257,6.76089794 14.050353,7.51226725 C14.1437796,7.22042326 14.2883236,6.90500194 14.6102436,6.64720194 C14.6546436,7.13096326 14.939105,8.66168589 15.6952116,9.55649787 C15.7842249,8.95220722 15.9031049,8.33084057 15.9031049,7.02332593 C15.9031049,3.84047535 15.136973,1.48985807 13.5123863,1.04101942 C13.7232543,0.673047425 14.170881,0.3429741 14.635253,0.3429741 C15.2286356,0.3429741 15.5536409,1.01424742 15.8828343,1.64729273 C16.0549209,1.18038608 16.5292089,0.0339434408 17.0060316,0.0339434408 C17.4812009,0.0339434408 17.9562596,1.18038608 18.1280169,1.64729273 C18.4580902,1.01424742 18.7821035,0.3429741 19.3769195,0.3429741 C19.8390888,0.3429741 20.2879262,0.673047425 20.4992355,1.04101942 C18.8746475,1.48985807 18.1081862,3.84047535 18.1081862,7.02332593 C18.1081862,8.33084057 18.2269462,8.95220722 18.3147569,9.55649787 C19.0735075,8.66168589 19.3570888,7.13096326 19.4010475,6.64720194 C19.7225275,6.90500194 19.8679528,7.22042326 19.9625902,7.51226725 C20.5754742,6.76089794 21.2842061,5.72363397 21.4442861,5.36822197 C20.8517835,5.36822197 20.1420595,5.50681664 19.9165395,5.50681664 C19.3222742,5.50681664 19.1832382,5.17244731 19.1832382,4.87630599 C19.1832382,4.42912066 19.6376955,4.02424067 19.9505822,3.73669401 C20.2285448,4.335806 21.3849035,4.24502467 21.3849035,4.24502467 C21.6087715,4.24502467 21.7257741,4.24502467 22.0176181,4.204918 C21.9908448,4.04748334 21.9891915,3.83011535 21.9900715,3.66617935 C21.9926048,3.41311536 21.9935381,3.23067269 21.9939381,3.04382203 C21.9939381,2.32605538 21.9668315,1.94343006 21.4387848,1.45713274 C21.5338648,1.39081274 21.8092915,1.17267008 22.2077808,1.17267008 C23.0207368,1.17267008 23.1369674,1.76098606 23.1369674,3.0429407 C23.1369674,3.19530736 23.1424341,3.18153536 23.1317674,3.31407136 C23.5367581,2.87261537 24.0165541,2.23824872 24.0165541,1.6955434 C24.0165541,1.5969434 24.0225541,1.46528607 23.9825141,1.32327541 C24.6242621,1.32327541 25.110558,1.98694739 25.110558,2.43016738 C25.110558,3.09890736 24.0828794,3.92904868 23.7528061,4.29448733 C23.8065661,4.297954 23.8444727,4.30048733 23.8659527,4.30048733 C24.98915,4.30048733 25.2155514,3.92348201 25.329138,3.64155268 C25.6286954,3.88646334 25.8869367,4.325386 25.8869367,4.87756599 C25.8869367,5.19430865 25.8197367,5.55148464 25.2112554,5.55148464 C24.6302114,5.55148464 23.7441034,5.46500464 23.1330928,5.35526864 C22.6651941,6.01023796 21.7390941,7.27808993 21.3062301,8.2575139 C21.4805208,8.2265539 21.7296195,8.20716724 22.1140074,8.20716724 C22.3063661,8.20716724 22.5129381,8.22358057 22.6325834,8.27646057 C20.7703568,9.88815786 19.2180422,11.9771178 19.2180422,14.3419471 C19.2180422,14.7207164 19.3080555,15.0989351 19.4345288,15.5068991 C19.4814622,15.5163657 19.5309288,15.5237524 19.5774208,15.5319124 L24.2799767,8.00577391 C25.6871954,5.7817433 26.7911127,5.81920196 28.4543713,5.81920196 C27.0837287,6.87056727 26.1631367,8.22655657 25.7341287,8.91468722 L21.3207728,15.9755724 C21.5600648,16.0530257 21.7941795,16.1360924 22.0248781,16.2261017 L25.9286914,9.97552853 C27.3372326,7.75017658 28.4393873,7.78763391 30.1057299,7.78763391 C28.7203246,8.85277122 27.8208846,10.1863965 27.3828433,10.8844418 L23.5914047,16.951691 C23.8065701,17.068691 24.0169967,17.194839 24.2210354,17.324291 L27.3286393,12.3511538 C28.7358579,10.1235979 29.8393353,10.1635912 31.5025925,10.1635912 C30.1177379,11.2257525 29.2182993,12.5620218 28.7797073,13.2587458 L25.59377,18.360783 C25.781502,18.5271416 25.96009,18.7045176 26.1278807,18.8840976 L28.385954,15.2680511 C29.7944953,13.0426991 30.8966499,13.0814804 32.5617805,13.0814804 C31.1781379,14.1426511 30.2760552,15.4840977 29.8393353,16.1796097 L27.2162647,20.3769189 C27.3565126,20.6380256 27.4774806,20.9046403 27.574322,21.1789669 L28.8942846,19.0669816" id="path4830" fill="#231F20" transform="translate(17.004998, 15.017132) scale(-1, 1) rotate(-180.000000) translate(-17.004998, -15.017132) "></path>
            <polyline id="path4832" fill="#000000" transform="translate(43.829802, 15.106093) scale(-1, 1) rotate(-180.000000) translate(-43.829802, -15.106093) " points="46.2368268 28.8617081 46.2368268 1.35047807 41.4227776 1.35047807 41.4227776 28.8617081 46.2368268 28.8617081"></polyline>
            <g id="use4878" transform="translate(17.000000, 15.000000) scale(-1, 1) rotate(-180.000000) translate(-17.000000, -15.000000) " fill="#000000">
                <path d="M20.3391675,18.5556182 C20.3757408,18.8629968 20.3973408,19.1813928 20.3973408,19.5063982 C20.3973408,19.6837741 20.3985515,19.8897941 20.3766342,20.1222555 C23.1180301,20.1619221 25.5237327,22.1361888 25.5237327,24.4090247 C25.5237327,25.5658247 24.7697194,26.436178 24.3441274,26.9583913 C24.4392074,26.9771246 24.5356047,27.000258 24.6328861,27.024498 C25.0343514,26.6763566 26.1735233,25.4347247 26.1735233,23.8658834 C26.1735233,21.1413448 23.4494247,18.6118102 20.3391675,18.5556182 L20.3391675,18.5556182 Z M17.5762889,28.0468846 C17.5250622,28.3498553 17.4097102,28.6252846 17.2342062,28.8610513 C17.2423396,29.1386832 17.3568329,29.4041966 17.8043436,29.1860566 C17.5616356,28.9381713 17.7488236,28.5007899 17.7488236,28.5007899 C17.7488236,28.5007899 18.2442649,28.7299473 18.1409235,29.0560539 C18.8764275,28.8797806 18.3488169,27.8948473 17.5762956,28.0468846 L17.5762889,28.0468846 Z M16.9393876,26.6477073 C16.8403476,27.055342 16.6330009,27.47179 16.3669369,27.7868793 C16.1242303,28.0722233 15.7236463,28.4126539 15.186121,28.4126539 C14.9391156,28.4126539 14.5263036,28.2969739 14.2650876,28.1868019 C14.1648343,28.3641779 13.9746757,28.7960499 13.9746757,28.9899513 C13.9746757,29.1893619 14.3111396,29.3920766 14.9563023,29.3920766 C16.3752009,29.3920766 17.2251729,28.7508793 17.2251729,27.6745046 C17.2251729,27.2966166 17.0748982,26.9517806 16.9393876,26.6477073 L16.9393876,26.6477073 Z M20.5845182,8.35066243 C20.7488941,8.35066243 20.8302008,8.32399577 20.9252795,8.28907577 C21.3341248,7.17656513 22.9088048,5.07945185 22.9742461,4.98999318 L22.9897794,4.97148652 L23.0139128,4.97708652 C23.3990714,5.03812652 24.3849954,5.18751451 25.2112807,5.18751451 L25.2306674,5.18751451 C25.3196807,5.18751451 25.420382,5.18751451 25.4862647,5.12427451 C25.5387047,5.06995451 25.565478,4.97708518 25.565478,4.84322785 C25.565478,4.63753719 25.478558,4.28675187 25.3752114,4.1374692 C25.0860114,4.45289053 24.6156901,4.59401986 23.8659741,4.59401986 C23.6391314,4.59401986 23.3731767,4.52604653 23.2290728,4.4890332 L23.1692461,4.47569986 L23.1020461,4.4580732 L23.5363421,4.02421854 C24.2042007,3.35679989 24.7817194,2.77917191 24.7817194,2.39577592 C24.7817194,2.16463592 24.5566394,1.86430793 24.3497381,1.72912793 C24.3048981,2.43411458 23.5935207,3.37266522 22.9028568,3.89983588 L22.8439101,3.94423588 L22.8317768,3.69800255 C22.8223101,3.52977055 22.8073234,3.27626656 22.8073234,3.00855057 C22.8073234,1.66842527 22.6717021,1.46615061 22.2077701,1.46615061 C22.1363834,1.46615061 22.0266488,1.48685727 21.9594448,1.51264394 C22.2219834,1.83456526 22.3240021,2.26147859 22.3240021,3.00943323 L22.3205354,3.35503989 L22.3161354,3.63267188 C22.3161354,3.93949988 22.3492954,4.1666732 22.3729888,4.3495572 L22.3863221,4.45290386 L22.3131754,4.46237053 C22.0962474,4.49289053 21.6934608,4.54753053 21.3848715,4.54753053 C20.7230715,4.54753053 20.2763262,4.48726386 19.9496688,4.18087987 C19.7353848,4.3538492 19.5154835,4.65296386 19.5154835,4.84190785 C19.5154835,5.12163318 19.6897742,5.14311718 19.9165075,5.14311718 C20.0322942,5.14311718 20.1399342,5.12637051 20.2887755,5.10874385 C20.5736795,5.06610385 21.0019155,5.00286385 21.8824048,5.00286385 L21.9374848,5.00286385 L21.9215115,5.05750385 C21.6973115,5.69660917 21.0840981,6.62535314 20.0989448,7.82082378 C20.1893982,8.14142244 20.2763208,8.35066243 20.5844702,8.35066243 L20.5845182,8.35066243 Z M12.0914064,5.05752918 L12.0742197,5.00288918 L12.1288597,5.00288918 C13.0097903,5.00288918 13.438357,5.06612918 13.722489,5.10876918 C13.8717717,5.12639585 13.979409,5.14314251 14.0943183,5.14314251 C14.3214916,5.14314251 14.4966636,5.12166251 14.4966636,4.84193319 C14.4966636,4.65298919 14.2754396,4.35387453 14.0620383,4.1809052 C13.7365917,4.48729186 13.287753,4.54755586 12.627165,4.54755586 C12.3181344,4.54755586 11.9141357,4.49291586 11.6980904,4.46239586 L11.6631704,4.4581292 L11.6249437,4.4529292 L11.6373437,4.34958253 C11.6631304,4.16669854 11.6945304,3.93952521 11.6945304,3.63269722 L11.6902637,3.35506522 L11.6873304,3.00945857 C11.6873304,2.26150392 11.790557,1.8345906 12.0518877,1.51266927 C11.9846877,1.48689594 11.874953,1.46617594 11.8040024,1.46617594 C11.339189,1.46617594 11.2035677,1.6684506 11.2035677,3.0085759 C11.2035677,3.27629189 11.1897944,3.52979589 11.1798877,3.69802788 L11.1669544,3.94503188 L11.1080077,3.89985854 C10.4181144,3.37268789 9.70596642,2.43413725 9.66421176,1.7291506 C9.45587843,1.8643306 9.2303571,2.16465859 9.2303571,2.39579858 C9.2303571,2.77919457 9.80831575,3.35682256 10.4762851,4.02424121 L10.8610037,4.40774786 L10.9083771,4.45809453 L10.7831104,4.48905453 C10.6397771,4.52606786 10.3729424,4.59404119 10.1462091,4.59404119 C9.39517043,4.59404119 8.92694244,4.45291186 8.63686112,4.13749054 C8.53319445,4.2867732 8.44626512,4.63755853 8.44626512,4.84324919 C8.44626512,4.97710652 8.47293179,5.06998118 8.52415845,5.12429585 C8.59081179,5.18753585 8.69239045,5.18753585 8.78151845,5.18753585 L8.80002511,5.18753585 C9.62719176,5.18753585 10.6131157,5.03814385 10.9987157,4.97710785 L11.0224091,4.97150785 L11.0370624,4.99001452 C11.1023957,5.07946785 12.6779557,7.17658646 13.0872423,8.2890971 C13.180669,8.3240171 13.2624157,8.35068377 13.4263503,8.35068377 C13.736593,8.35068377 13.8223063,8.1414691 13.9126463,7.82087045 C12.9271637,6.62539981 12.315161,5.69665583 12.0914037,5.05755052 L12.0914064,5.05752918 Z M7.83856247,23.8658794 C7.83856247,25.4347207 8.97774244,26.6763526 9.3797571,27.024494 C9.4752771,27.000254 9.57255709,26.9771206 9.66851709,26.9583873 C9.24204377,26.436174 8.48891179,25.5658207 8.48891179,24.4090207 C8.48891179,22.1141501 10.9409957,20.1222515 13.715993,20.1222515 C13.6983663,19.9250448 13.6888863,19.7190248 13.6888863,19.5063942 C13.6888863,19.1681675 13.706953,18.8530768 13.7417663,18.5556142 C10.6023224,18.5743475 7.83856247,21.1215061 7.83856247,23.8658754 L7.83856247,23.8658794 Z M28.8943059,19.0326608 C30.3019659,16.8063169 31.4041205,16.8441062 33.0682592,16.8441062 C31.6906765,17.8989969 30.7801099,19.2508008 30.3462552,19.9426768 L27.774414,24.0586794 C27.5217913,25.3289567 26.86517,26.517706 25.880458,27.4012793 C26.2114127,27.5268793 26.4859593,27.6590806 26.6529793,27.7835753 C24.972866,27.7835753 23.3077354,28.6363019 22.3919901,28.6363019 C21.8032341,28.6363019 21.4241355,28.2859566 21.4241355,27.8199313 C21.4628021,27.302126 21.9960341,26.7733033 22.9823994,26.7733033 C23.2053861,26.7733033 23.4915007,26.80305 23.8043874,26.8548233 C24.3393807,26.111166 24.76971,25.4391207 24.76971,24.478426 C24.76971,22.6771234 22.6148674,21.2724381 20.4389822,21.2724381 C20.3172488,21.2724381 20.1998008,21.2768381 20.0770688,21.2867581 C19.8790915,21.7329528 19.2250035,22.4832194 19.2250035,23.3370474 C19.2250035,24.7670727 20.1580448,25.9370927 20.1580448,27.3561006 C20.1580448,28.2374713 19.7284875,28.7828193 19.5627888,29.0097726 C19.8309462,29.2565566 20.1222395,29.5628339 20.1915368,29.7699552 C20.0357555,29.7038486 19.8519888,29.6950352 19.5821795,29.6950352 C18.5394075,29.6950352 17.6903156,29.9660566 16.8619369,29.9660566 C16.3894129,29.9660566 16.2619436,29.8206299 16.2619436,29.6818139 C16.2619436,29.6300406 16.2698103,29.5782539 16.2839836,29.5529206 C16.1070489,29.6223339 15.9409103,29.6674939 15.7438129,29.7038552 C15.5006649,29.7501219 15.2373556,29.7732686 14.9563076,29.7732686 C13.950113,29.7732686 13.5920557,29.3524139 13.5920557,28.9899499 C13.5920557,28.6836739 13.833441,28.1251046 14.1058956,27.6998433 C14.4992076,27.8970499 14.9700796,28.0314593 15.1861263,28.0314593 C15.7193556,28.0314593 16.1957369,27.5224673 16.4474783,26.9187273 C16.0872169,26.8757673 16.0183609,26.859234 15.6547943,26.859234 C14.6743796,26.859234 14.007733,27.2106806 13.8708997,27.2106806 C13.8571263,27.2106806 13.831793,27.204014 13.831793,27.1820406 C13.831793,27.044326 14.108433,26.6807606 14.6567556,26.4802486 C15.3780489,26.2169393 16.4603716,26.1078687 16.6407223,26.0781233 C16.6407223,26.0461767 16.4573969,25.7035407 16.2533596,25.6396407 C16.2099463,25.624214 16.1759063,25.6231207 16.1246796,25.634174 C15.3711076,25.784006 15.1606796,25.845702 14.204833,26.2092687 C14.175193,26.2203353 14.1580063,26.202602 14.1580063,26.1718153 C14.1580063,25.7939273 15.136989,24.957726 16.0145049,24.6393314 C15.282085,23.702874 14.365789,22.7465861 13.9341383,21.2868154 C13.812845,21.2769488 13.6945157,21.2724954 13.5717837,21.2724954 C11.396781,21.2724954 9.2420491,22.6771807 9.2420491,24.4784834 C9.2420491,25.439178 9.67281842,26.1112233 10.2072597,26.8548806 C10.5210277,26.803094 10.8054904,26.7733606 11.0288077,26.7733606 C12.015173,26.7733606 12.5488424,27.3021833 12.588505,27.8199886 C12.588505,28.2860139 12.2088544,28.6363593 11.6188864,28.6363593 C10.7034717,28.6363593 9.03977444,27.7836326 7.35833848,27.7836326 C7.52535848,27.6591393 7.79946381,27.5269326 8.13041846,27.4013366 C7.14658915,26.5177633 6.48897584,25.329014 6.23723451,24.0587367 L3.66583324,19.9427341 C3.23297059,19.2508582 2.31975994,17.8990542 0.941735976,16.8441636 C2.6063146,16.8441636 3.70979191,16.8063769 5.11789187,19.0327182 L6.43697451,21.1447034 C6.53414784,20.8703768 6.6551145,20.6037621 6.79624383,20.3426555 L4.17284256,16.1453462 C3.73689457,15.4498343 2.83271726,14.1083876 1.4503973,13.047217 C3.11288392,13.047217 4.21801323,13.0084303 5.62523186,15.2337876 L7.88341447,18.8498342 C8.05296913,18.6702542 8.22979313,18.4928782 8.41829712,18.3265195 L5.23147987,13.2244823 C4.79343721,12.5277583 3.89399857,11.191489 2.50738127,10.1293277 C4.17196123,10.1293277 5.2766492,10.0893411 6.6835385,12.3168903 L9.78982109,17.2900275 C9.99429842,17.1605742 10.2047264,17.0344289 10.4212131,16.9174276 L6.63021583,10.8501784 C6.19118251,10.1521331 5.29174253,8.81850775 3.9064479,7.75337045 C5.57146786,7.75337045 6.67494517,7.71591712 8.08260513,9.94126506 L11.9864184,16.1918382 C12.218329,16.1018249 12.4520024,16.0187596 12.689973,15.9413089 L8.27848913,8.88042375 C7.84716914,8.1922931 6.92756783,6.8363038 5.55637453,5.7849385 C7.22150515,5.7849385 8.32443046,5.74748516 9.73175976,7.97151044 L14.4346463,15.4976489 C14.4820196,15.4895156 14.529393,15.4821156 14.5763276,15.4726356 C14.7045676,15.0646716 14.793145,14.6864529 14.793145,14.3076836 C14.793145,11.9428543 13.2412703,9.8538944 11.3800344,8.2421971 C11.4979144,8.1893171 11.7058117,8.17290377 11.8981704,8.17290377 C12.2820077,8.17290377 12.5312157,8.19229044 12.7055063,8.22325044 C12.272533,7.24382646 11.3455504,5.97597449 10.8777637,5.32100518 C10.2688464,5.43073851 9.38141577,5.51722117 8.80004111,5.51722117 C8.19321713,5.51722117 8.12391846,5.16004518 8.12391846,4.84330252 C8.12391846,4.29112253 8.38171979,3.85219988 8.68336912,3.60728922 C8.79530245,3.88921854 9.02214644,4.26622387 10.1462251,4.26622387 C10.1659451,4.26622387 10.2064917,4.2635572 10.2584917,4.26022387 C9.92929842,3.89478521 8.90250111,3.0646439 8.90250111,2.39590392 C8.90250111,1.95268393 9.3883571,1.28901194 10.0286731,1.28901194 C9.99000642,1.43102261 9.99517975,1.56267727 9.99517975,1.66127993 C9.99517975,2.20398525 10.4754171,2.8383519 10.8804077,3.27980789 C10.8692077,3.14727456 10.8752077,3.1610479 10.8752077,3.00867723 C10.8752077,1.7267226 10.9914344,1.13840661 11.803953,1.13840661 C12.2028837,1.13840661 12.478753,1.35654661 12.572949,1.42286927 C12.044457,1.90916659 12.0177957,2.29179192 12.0177957,3.00955857 C12.018677,3.19640923 12.019117,3.37885189 12.0216624,3.63191588 C12.0233957,3.79585188 12.021221,4.01321987 11.9949957,4.17065454 C12.2859584,4.2107612 12.403841,4.2107612 12.6271584,4.2107612 C12.6271584,4.2107612 13.7823063,4.30154787 14.060709,3.70243055 C14.374477,3.98997721 14.829265,4.3948572 14.829265,4.84204252 C14.829265,5.13818385 14.689457,5.47255317 14.0943116,5.47255317 C13.8687903,5.47255317 13.1599477,5.33395851 12.567777,5.33395851 C12.7266437,5.6893705 13.436257,6.72663447 14.050353,7.47800379 C14.1437796,7.1861598 14.2883236,6.87073847 14.6102436,6.61293848 C14.6546436,7.0966998 14.939105,8.62742243 15.6952116,9.5222344 C15.7842249,8.91794375 15.9031049,8.2965771 15.9031049,6.98906247 C15.9031049,3.80621188 15.136973,1.45559461 13.5123863,1.00675595 C13.7232543,0.638783959 14.170881,0.308710634 14.635253,0.308710634 C15.2286356,0.308710634 15.5536409,0.979983951 15.8828343,1.61302927 C16.0549209,1.14612261 16.5292089,-0.000320024992 17.0060316,-0.000320024992 C17.4812009,-0.000320024992 17.9562596,1.14612261 18.1280169,1.61302927 C18.4580902,0.979983951 18.7821035,0.308710634 19.3769195,0.308710634 C19.8390888,0.308710634 20.2879262,0.638783959 20.4992355,1.00675595 C18.8746475,1.45559461 18.1081862,3.80621188 18.1081862,6.98906247 C18.1081862,8.2965771 18.2269462,8.91794375 18.3147569,9.5222344 C19.0735075,8.62742243 19.3570888,7.0966998 19.4010475,6.61293848 C19.7225275,6.87073847 19.8679528,7.1861598 19.9625902,7.47800379 C20.5754742,6.72663447 21.2842061,5.6893705 21.4442861,5.33395851 C20.8517835,5.33395851 20.1420595,5.47255317 19.9165395,5.47255317 C19.3222742,5.47255317 19.1832382,5.13818385 19.1832382,4.84204252 C19.1832382,4.3948572 19.6376955,3.98997721 19.9505822,3.70243055 C20.2285448,4.30154253 21.3849035,4.2107612 21.3849035,4.2107612 C21.6087715,4.2107612 21.7257741,4.2107612 22.0176181,4.17065454 C21.9908448,4.01321987 21.9891915,3.79585188 21.9900715,3.63191588 C21.9926048,3.37885189 21.9935381,3.19640923 21.9939381,3.00955857 C21.9939381,2.29179192 21.9668315,1.90916659 21.4387848,1.42286927 C21.5338648,1.35654927 21.8092915,1.13840661 22.2077808,1.13840661 C23.0207368,1.13840661 23.1369674,1.7267226 23.1369674,3.00867723 C23.1369674,3.1610439 23.1424341,3.1472719 23.1317674,3.27980789 C23.5367581,2.8383519 24.0165541,2.20398525 24.0165541,1.66127993 C24.0165541,1.56267994 24.0225541,1.43102261 23.9825141,1.28901194 C24.6242621,1.28901194 25.110558,1.95268393 25.110558,2.39590392 C25.110558,3.0646439 24.0828794,3.89478521 23.7528061,4.26022387 C23.8065661,4.26369054 23.8444727,4.26622387 23.8659527,4.26622387 C24.98915,4.26622387 25.2155514,3.88921854 25.329138,3.60728922 C25.6286954,3.85219988 25.8869367,4.29112253 25.8869367,4.84330252 C25.8869367,5.16004518 25.8197367,5.51722117 25.2112554,5.51722117 C24.6302114,5.51722117 23.7441034,5.43074117 23.1330928,5.32100518 C22.6651941,5.97597449 21.7390941,7.24382646 21.3062301,8.22325044 C21.4805208,8.19229044 21.7296195,8.17290377 22.1140074,8.17290377 C22.3063661,8.17290377 22.5129381,8.1893171 22.6325834,8.2421971 C20.7703568,9.8538944 19.2180422,11.9428543 19.2180422,14.3076836 C19.2180422,14.6864529 19.3080555,15.0646716 19.4345288,15.4726356 C19.4814622,15.4821023 19.5309288,15.4894889 19.5774208,15.4976489 L24.2799767,7.97151044 C25.6871954,5.74747983 26.7911127,5.7849385 28.4543713,5.7849385 C27.0837287,6.8363038 26.1631367,8.1922931 25.7341287,8.88042375 L21.3207728,15.9413089 C21.5600648,16.0187622 21.7941795,16.1018289 22.0248781,16.1918382 L25.9286914,9.94126506 C27.3372326,7.71591312 28.4393873,7.75337045 30.1057299,7.75337045 C28.7203246,8.81850775 27.8208846,10.1521331 27.3828433,10.8501784 L23.5914047,16.9174276 C23.8065701,17.0344275 24.0169967,17.1605755 24.2210354,17.2900275 L27.3286393,12.3168903 C28.7358579,10.0893344 29.8393353,10.1293277 31.5025925,10.1293277 C30.1177379,11.191489 29.2182993,12.5277583 28.7797073,13.2244823 L25.59377,18.3265195 C25.781502,18.4928782 25.96009,18.6702542 26.1278807,18.8498342 L28.385954,15.2337876 C29.7944953,13.0084356 30.8966499,13.047217 32.5617805,13.047217 C31.1781379,14.1083876 30.2760552,15.4498343 29.8393353,16.1453462 L27.2162647,20.3426555 C27.3565126,20.6037621 27.4774806,20.8703768 27.574322,21.1447034 L28.8942846,19.0327182" id="path4830"></path>
            </g>
        </g>
    </g>
</svg>