<svg xmlns="http://www.w3.org/2000/svg" viewBox="0 0 283.46 116.22"><defs><style>.cls-1{fill:none;}.cls-2{fill:#929292;}</style></defs><g id="BoundingBox"><rect class="cls-1" width="283.46" height="116.22"/></g><g id="Robert_Bosch_Stiftung_Logo" data-name="Robert Bosch Stiftung Logo"><polygon class="cls-2" points="31.9 37.59 17.98 37.59 17.98 23.67 24.94 23.67 31.9 23.67 31.9 37.59"/><polygon class="cls-2" points="0 55.56 13.92 55.56 13.92 23.67 6.96 23.67 0 23.67 0 55.56"/><polygon points="35.96 55.56 49.87 55.56 49.87 0 42.91 0 35.96 0 35.96 55.56"/><path d="M53.93,23.67V55.56a15.95,15.95,0,1,0,0-31.89Z"/><path d="M93.66,55.56c5.77,0,8.89,1.88,8.89,5.34,0,2.86-2.12,4.65-6.28,5.23,2,.36,3,1.15,4.34,3.33l2.61,4.31a2.65,2.65,0,0,0,2.55,1.52v1.15H98.88l-4.64-8a2.69,2.69,0,0,0-2.46-1.67h-.33V74c0,.85.39,1,2.76,1.3v1.15H83.81V75.29c2.06-.27,2.48-.48,2.48-1.3V58c0-.79-.39-1-2.48-1.3V55.56Zm-2.21,9.87H93c2.85,0,4.21-1.4,4.21-4.31s-1.33-4.28-3.85-4.28H91.45Z"/><path d="M119.55,62.24a7.88,7.88,0,0,1,2.79,6.31A7.79,7.79,0,0,1,119,75.23a8.65,8.65,0,0,1-5,1.58,8.85,8.85,0,0,1-5.34-2,8,8,0,0,1-2.76-6.32,7.88,7.88,0,0,1,3.33-6.74,9,9,0,0,1,4.86-1.54A8.77,8.77,0,0,1,119.55,62.24Zm-8.74,6.4c0,4.56,1.09,6.83,3.31,6.83s3.33-2.15,3.33-7-1.06-6.95-3.3-6.95S110.81,63.82,110.81,68.64Z"/><path d="M130,63.12a6.33,6.33,0,0,1,5.31-2.88c3.88,0,6.21,3.06,6.21,8.1,0,3-.88,5.16-2.7,6.71a8.06,8.06,0,0,1-5.12,1.76,7.55,7.55,0,0,1-5.46-2.34l-2.07,2h-.94V57.05c0-1-.57-1.34-2.42-1.43V54.53l5.91-1.64H130Zm0,7c0,3.25,1.15,5,3.36,5s3.28-2,3.28-6.53c0-4.09-1-6-3.31-6-2,0-3.33,1.55-3.33,3.92Z"/><path d="M158.84,73a7.24,7.24,0,0,1-6.67,3.83,7.87,7.87,0,0,1-8.31-8.29c0-4.88,3.3-8.28,8.1-8.28a6.67,6.67,0,0,1,5.3,2.24c1.19,1.43,1.64,2.89,1.73,5.77H148.71v.27c0,4.37,1.46,6.41,4.55,6.41a5.07,5.07,0,0,0,4.58-2.52ZM154,66.1c0-3.16-.73-4.56-2.37-4.56-1.88,0-2.67,1.49-2.91,5.4H154Z"/><path d="M166.86,60.39l.42,3.34c1.37-2.34,2.94-3.49,4.79-3.49s2.83.94,2.83,2.52a2.43,2.43,0,0,1-2.74,2.58h-1.24v-2a1.19,1.19,0,0,0-.85-.27c-1.55,0-2.55,1.61-2.55,4.07v7.22c0,.67.22.82,1.7,1v1.09h-8.34V75.35c1.67-.21,1.88-.33,1.88-1v-10c0-1-.58-1.33-2.31-1.36V61.91l5.19-1.52Z"/><path d="M187.61,72.89c-.85,2.64-2.43,3.92-4.92,3.92-2.91,0-4.61-1.64-4.61-4.49V62.18h-1.94V60.72l.61-.09c2.58-.39,4.28-2.18,4.79-5.07h1.31v5H187v1.58h-4.12V73c0,1.25.42,1.83,1.33,1.83s1.61-.55,2.37-2.34Z"/><path d="M207.21,65.15a9.8,9.8,0,0,1,4.89,1.22,4.91,4.91,0,0,1,2.54,4.28c0,3.73-3.85,5.79-10.8,5.79h-8.49V75.29c2.06-.27,2.49-.48,2.49-1.3V58c0-.79-.4-1-2.49-1.3V55.56h8.89c6,0,8.8,1.49,8.8,4.77,0,2.46-1.88,4-5.83,4.67Zm-3-.48c2.52,0,3.7-1.25,3.7-3.86s-1.24-4-3.79-4H203v7.86ZM203,74.23c0,.79.43,1,1.83,1,2.73,0,4.27-1.67,4.27-4.64A4.24,4.24,0,0,0,204.48,66H203Z"/><path d="M230.33,62.24a8.47,8.47,0,0,1-.51,13,8.71,8.71,0,0,1-5,1.58,8.88,8.88,0,0,1-5.34-2,8,8,0,0,1-2.76-6.32,7.89,7.89,0,0,1,3.34-6.74,8.92,8.92,0,0,1,4.85-1.54A8.75,8.75,0,0,1,230.33,62.24Zm-8.73,6.4c0,4.56,1.09,6.83,3.3,6.83s3.34-2.15,3.34-7-1.06-6.95-3.31-6.95S221.6,63.82,221.6,68.64Z"/><path d="M244.75,64.49c-.67-2.13-1.61-2.92-3.46-2.92-1.67,0-2.58.76-2.58,2.13s.67,1.79,3.22,2.61c4,1.27,5.43,2.67,5.43,5.31,0,3.25-2.49,5.16-6.68,5.16A17.57,17.57,0,0,1,235.4,76V72H237c1.37,3,2,3.55,4,3.55,1.82,0,2.76-.75,2.76-2.21a2.24,2.24,0,0,0-1.34-2.16,11.07,11.07,0,0,0-2.55-1c-3.12-1.06-4.52-2.55-4.52-4.79,0-3.07,2.49-5,6.34-5a20.89,20.89,0,0,1,4.59.51v3.71Z"/><path d="M263.5,72.41a6.46,6.46,0,0,1-6.49,4.4c-4.64,0-7.71-3.31-7.71-8.29s3.25-8.28,8.22-8.28c3.73,0,6,1.36,6,3.61a2,2,0,0,1-2.22,2h-2V62.12a2.92,2.92,0,0,0-1.88-.58c-2.24,0-3.19,2.07-3.19,6.89,0,4.65,1.1,6.5,3.89,6.5,2.09,0,3.3-.85,4.37-3Z"/><path d="M271.51,63.06a6.77,6.77,0,0,1,5.43-2.82c2.85,0,4.64,1.73,4.64,4.49v9.59c0,.67.22.82,1.88,1v1.09h-8.34V75.35c1.46-.21,1.67-.36,1.67-1v-9c0-1.61-.76-2.46-2.18-2.46a3,3,0,0,0-3.1,3v8.47c0,.67.21.82,1.7,1v1.09h-8.34V75.35c1.7-.21,1.88-.33,1.88-1V57.05c0-1-.58-1.34-2.43-1.43V54.53l5.92-1.64h1.27Z"/><path class="cls-2" d="M96.09,93.37c-1.18-3-2.15-3.77-4.61-3.77s-3.79,1.1-3.79,3,.88,2.64,4.34,3.82a20,20,0,0,1,4.55,1.94A5.64,5.64,0,0,1,99,103.26c0,4.1-3,6.53-8.13,6.53a21.63,21.63,0,0,1-7-1.22v-5.22h1.64A11.66,11.66,0,0,0,87.39,107a4.52,4.52,0,0,0,3.67,1.46c2.58,0,4.15-1.27,4.15-3.31a3.17,3.17,0,0,0-1.88-3,24.15,24.15,0,0,0-3.58-1.4c-4.09-1.42-5.7-3.19-5.7-6.25,0-3.92,3-6.28,7.83-6.28a18.65,18.65,0,0,1,5.67.78v4.38Z"/><path class="cls-2" d="M111.45,105.87c-.85,2.64-2.43,3.92-4.92,3.92-2.91,0-4.61-1.64-4.61-4.5V95.16H100V93.7l.61-.09c2.58-.4,4.27-2.19,4.79-5.07h1.3v5h4.13v1.58h-4.13V106c0,1.25.43,1.82,1.34,1.82s1.61-.54,2.37-2.33Z"/><path class="cls-2" d="M119.58,93.37V107.3c0,.63.27.79,1.88,1v1.09h-8.52v-1.09c1.67-.21,1.88-.33,1.88-1v-10c0-1-.58-1.33-2.31-1.36V94.88l5.86-1.51Zm.15-4.28a2.55,2.55,0,1,1-2.55-2.55A2.5,2.5,0,0,1,119.73,89.09Z"/><path class="cls-2" d="M122.8,93.58h2.4V91.45c0-3.82,2.36-5.91,6.64-5.91,2.91,0,4.67,1,4.67,2.64a1.84,1.84,0,0,1-1.88,1.91h-2v-3a1.88,1.88,0,0,0-1.09-.3c-1.22,0-1.58.85-1.58,3.73v3h3.61v1.58H130V107.3c0,.67.33.85,1.7,1l.63.06v1.09h-9.1v-1.09l.49-.06c1.27-.15,1.52-.3,1.52-1V95.16h-2.4Z"/><path class="cls-2" d="M146.4,105.87c-.85,2.64-2.42,3.92-4.91,3.92-2.91,0-4.61-1.64-4.61-4.5V95.16h-1.94V93.7l.6-.09c2.58-.4,4.28-2.19,4.8-5.07h1.3v5h4.13v1.58h-4.13V106c0,1.25.42,1.82,1.34,1.82s1.6-.54,2.36-2.33Z"/><path class="cls-2" d="M159.36,106.63c-1.55,2.18-3.22,3.16-5.46,3.16-2.85,0-4.61-1.73-4.61-4.5V95.7c0-.6-.31-.82-1.43-1l-.45-.06V93.58h6.67v11.14c0,1.61.76,2.46,2.19,2.46a2.73,2.73,0,0,0,2.79-3V95.7c0-.66-.22-.78-1.7-1V93.58h6.46v11.9c0,1,.58,1.36,2.3,1.36v1.06l-5.18,1.52h-1.22Z"/><path class="cls-2" d="M173.53,93.37l.4,3a6.92,6.92,0,0,1,5.7-3.16c2.85,0,4.64,1.74,4.64,4.5v9.59c0,.67.21.82,1.88,1v1.09h-8.34v-1.09c1.46-.21,1.67-.36,1.67-1v-9c0-1.61-.76-2.45-2.19-2.45a3,3,0,0,0-3.09,3v8.47c0,.67.21.82,1.7,1v1.09h-8.35v-1.09c1.67-.21,1.89-.33,1.89-1v-10c0-1-.58-1.33-2.31-1.36V94.88l5.19-1.51Z"/><path class="cls-2" d="M201.05,96.34a5.41,5.41,0,0,1,.49,2.28c0,3.21-2.7,5.34-6.83,5.34a12.41,12.41,0,0,1-1.82-.15,1.51,1.51,0,0,0-.45-.06c-.85,0-1.61.57-1.61,1.18s.63.91,2.46.91h4.36c3.61,0,5.71,1.67,5.71,4.55a5.07,5.07,0,0,1-2.43,4.22,10.53,10.53,0,0,1-6.22,1.61c-4.94,0-7.92-1.36-7.92-3.67,0-1.46,1.1-2.43,3.4-3-1.52-.57-2.3-1.51-2.3-2.82,0-1.55,1.09-2.73,3.15-3.49A5.1,5.1,0,0,1,188,98.65c0-3.22,2.82-5.44,6.85-5.44a7.77,7.77,0,0,1,5.1,1.64l2.52-1.27h1.06v2.76Zm-8.52,13.51a2,2,0,0,0-2.13,2.21c0,2,1.61,3,4.65,3s4.91-1.16,4.91-3.13c0-1.52-.91-2.09-3.28-2.09Zm0-11.23c0,3.12.6,4.22,2.3,4.22s2.4-1.13,2.4-4.22-.67-4.28-2.31-4.28S192.53,95.43,192.53,98.62Z"/></g></svg>