<?xml version="1.0" encoding="UTF-8"?>
<svg width="152px" height="82px" viewBox="0 0 152 82" version="1.1" xmlns="http://www.w3.org/2000/svg" xmlns:xlink="http://www.w3.org/1999/xlink">
    <!-- Generator: Sketch 63.1 (92452) - https://sketch.com -->
    <title>Group</title>
    <desc>Created with Sketch.</desc>
    <g id="Page-1" stroke="none" stroke-width="1" fill="none" fill-rule="evenodd">
        <g id="Group" transform="translate(0.770000, 0.059000)" fill-rule="nonzero">
            <polygon id="Path" fill="#000000" points="39.558 28.171 44.263 28.171 44.263 1.287 39.558 1.287"></polygon>
            <polygon id="Path" fill="#9D9D9D" points="39.558 55.056 44.263 55.056 44.263 28.171 39.558 28.171"></polygon>
            <polygon id="Path" fill="#D0D0D0" points="39.558 81.941 44.263 81.941 44.263 55.056 39.558 55.056"></polygon>
            <path d="M27.314,10.683 C28.691,12.859 29.768,12.823 31.394,12.823 C30.049,11.791 29.159,10.471 28.734,9.796 L26.22,5.774 C25.9718011,4.51369955 25.3228776,3.36738503 24.37,2.506 C24.693,2.384 24.963,2.254 25.125,2.132 C23.483,2.132 21.857,1.299 20.961,1.299 C20.386,1.299 20.015,1.643 20.015,2.097 C20.053,2.603 20.575,3.119 21.538,3.119 C21.756,3.119 22.035,3.091 22.342,3.039 C22.863,3.767 23.284,4.424 23.284,5.362 C23.284,7.123 21.179,8.496 19.054,8.496 C18.9355317,8.49584751 18.8171124,8.49117745 18.699,8.482 C18.505,8.046 17.866,7.312 17.866,6.479 C17.866,5.08 18.778,3.937 18.778,2.55 C18.778,1.69 18.358,1.156 18.196,0.934 C18.458,0.692 18.743,0.394 18.809,0.191 C18.659,0.256 18.479,0.265 18.216,0.265 C17.197,0.265 16.366,0 15.557,0 C15.095,0 14.97,0.143 14.97,0.278 C14.97,0.328 14.978,0.379 14.991,0.403 C14.8211446,0.337200502 14.6453272,0.287971637 14.466,0.256 C14.211943,0.209907605 13.9542029,0.187146149 13.696,0.188 C12.712,0.188 12.362,0.601 12.362,0.953 C12.362,1.253 12.597,1.799 12.865,2.214 C13.248,2.022 13.709,1.892 13.919,1.892 C14.44,1.892 14.905,2.389 15.151,2.978 C14.801,3.019 14.733,3.035 14.378,3.035 C13.42,3.035 12.768,2.693 12.634,2.693 C12.62,2.693 12.594,2.699 12.594,2.72 C12.594,2.855 12.868,3.21 13.403,3.405 C14.107,3.663 15.165,3.771 15.341,3.8 C15.341,3.831 15.162,4.165 14.961,4.228 C14.9211508,4.24230912 14.877872,4.24405424 14.837,4.233 C14.1,4.088 13.895,4.026 12.96,3.67 C12.93,3.66 12.915,3.678 12.915,3.708 C12.915,4.078 13.872,4.893 14.729,5.206 C14.013,6.121 13.118,7.056 12.697,8.482 C12.5788865,8.49115816 12.4604679,8.49582819 12.342,8.496 C10.217,8.496 8.11,7.123 8.11,5.362 C8.11,4.424 8.532,3.767 9.054,3.04 C9.36,3.09 9.639,3.119 9.858,3.119 C10.822,3.119 11.343,2.603 11.381,2.097 C11.381,1.643 11.011,1.299 10.433,1.299 C9.538,1.299 7.913,2.132 6.27,2.132 C6.433,2.254 6.701,2.384 7.024,2.506 C6.0715747,3.36774733 5.42274234,4.51390093 5.174,5.774 L2.662,9.796 C2.238,10.471 1.346,11.791 0,12.823 C1.627,12.823 2.705,12.859 4.081,10.683 L5.37,8.621 C5.467,8.888 5.584,9.149 5.722,9.405 L3.159,13.506 C2.731,14.186 1.849,15.496 0.497,16.533 C2.124,16.533 3.202,16.571 4.578,14.396 L6.784,10.863 C6.95,11.039 7.124,11.211 7.306,11.375 L4.192,16.361 C3.764,17.042 2.885,18.348 1.53,19.385 C3.157,19.385 4.236,19.425 5.611,17.248 L8.647,12.388 C8.847,12.515 9.051,12.638 9.262,12.753 L5.557,18.681 C5.13,19.364 4.251,20.666 2.897,21.706 C4.524,21.706 5.602,21.745 6.978,19.57 L10.793,13.463 C11.019,13.549 11.248,13.632 11.48,13.706 L7.17,20.606 C6.748,21.278 5.85,22.604 4.51,23.631 C6.135,23.631 7.215,23.667 8.59,21.493 L13.185,14.14 C13.232,14.147 13.278,14.155 13.323,14.164 C13.448,14.562 13.536,14.932 13.536,15.303 C13.536,17.613 12.019,19.654 10.199,21.23 C10.316,21.28 10.519,21.298 10.706,21.298 C11.081,21.298 11.324,21.278 11.495,21.248 C11.073,22.207 10.167,23.444 9.71,24.085 C9.03924877,23.969108 8.36058512,23.9049191 7.68,23.893 C7.086,23.893 7.019,24.241 7.019,24.551 C7.019,25.091 7.27,25.519 7.564,25.759 C7.674,25.483 7.896,25.115 8.994,25.115 L9.104,25.12 C8.782,25.478 7.778,26.29 7.778,26.943 C7.778,27.376 8.254,28.025 8.879,28.025 C8.841,27.885 8.847,27.756 8.847,27.661 C8.847,27.131 9.316,26.511 9.713,26.078 C9.7,26.208 9.707,26.194 9.707,26.345 C9.707,27.596 9.82,28.172 10.615,28.172 C11.005,28.172 11.273,27.958 11.366,27.893 C10.85,27.417 10.823,27.045 10.823,26.343 C10.824,26.16 10.824,25.982 10.827,25.736 C10.83,25.574 10.827,25.362 10.8,25.209 C11.085,25.169 11.2,25.169 11.418,25.169 C11.418,25.169 12.548,25.079 12.819,25.667 C13.126,25.387 13.571,24.99 13.571,24.553 C13.571,24.263 13.433,23.937 12.853,23.937 C12.633,23.937 11.94,24.072 11.361,24.072 C11.517,23.725 12.209,22.712 12.81,21.977 C12.9,22.262 13.042,22.57 13.357,22.823 C13.401,22.35 13.678,20.853 14.417,19.978 C14.504,20.57 14.619,21.176 14.619,22.454 C14.619,25.565 13.872,27.862 12.284,28.301 C12.491,28.659 12.928,28.983 13.381,28.983 C13.961,28.983 14.278,28.326 14.601,27.706 C14.768,28.163 15.232,29.285 15.697,29.285 C16.162,29.285 16.627,28.163 16.794,27.706 C17.117,28.326 17.434,28.983 18.014,28.983 C18.468,28.983 18.904,28.659 19.112,28.301 C17.524,27.862 16.775,25.565 16.775,22.454 C16.775,21.176 16.891,20.57 16.977,19.978 C17.717,20.853 17.995,22.35 18.037,22.823 C18.353,22.57 18.496,22.263 18.586,21.977 C19.186,22.711 19.879,23.725 20.036,24.072 C19.454,24.072 18.762,23.937 18.543,23.937 C17.963,23.937 17.825,24.264 17.825,24.553 C17.825,24.99 18.27,25.386 18.577,25.667 C18.847,25.08 19.977,25.17 19.977,25.17 C20.195,25.17 20.311,25.17 20.596,25.209 C20.5723227,25.3836067 20.5632912,25.5598878 20.569,25.736 L20.572,26.343 C20.572,27.045 20.546,27.417 20.03,27.893 C20.123,27.958 20.391,28.172 20.781,28.172 C21.576,28.172 21.69,27.596 21.69,26.345 C21.69,26.195 21.694,26.208 21.683,26.078 C22.08,26.511 22.549,27.131 22.549,27.661 C22.549,27.756 22.554,27.885 22.515,28.025 C23.142,28.025 23.618,27.375 23.618,26.943 C23.618,26.29 22.613,25.478 22.291,25.12 L22.401,25.115 C23.499,25.115 23.721,25.483 23.831,25.759 C24.124,25.519 24.377,25.09 24.377,24.551 C24.377,24.241 24.31,23.893 23.716,23.893 C23.148,23.893 22.281,23.977 21.686,24.085 C21.228,23.444 20.323,22.207 19.901,21.249 C20.071,21.279 20.315,21.299 20.688,21.299 C20.878,21.299 21.08,21.281 21.197,21.229 C19.377,19.654 17.859,17.614 17.859,15.303 C17.859,14.932 17.948,14.563 18.073,14.164 C18.117,14.154 18.163,14.147 18.211,14.14 L22.806,21.493 C24.181,23.667 25.26,23.631 26.886,23.631 C25.546,22.604 24.647,21.278 24.226,20.606 L19.914,13.706 C20.148,13.632 20.377,13.549 20.602,13.463 L24.417,19.57 C25.794,21.745 26.872,21.706 28.499,21.706 C27.145,20.666 26.266,19.364 25.839,18.681 L22.134,12.753 C22.344,12.637 22.549,12.515 22.748,12.389 L25.785,17.248 C27.161,19.424 28.238,19.385 29.865,19.385 C28.511,18.348 27.632,17.042 27.205,16.361 L24.091,11.376 C24.274,11.212 24.448,11.04 24.611,10.864 L26.818,14.397 C28.195,16.572 29.273,16.534 30.899,16.534 C29.547,15.496 28.665,14.187 28.238,13.507 L25.674,9.406 C25.813,9.15 25.93,8.889 26.027,8.622 L27.314,10.684 L27.314,10.683 Z M6.74,5.961 C6.74,4.428 7.854,3.217 8.247,2.876 C8.341,2.898 8.435,2.92 8.529,2.94 C8.111,3.448 7.376,4.302 7.376,5.431 C7.376,7.673 9.771,9.62 12.484,9.62 C12.4659778,9.81949194 12.4569686,10.0196956 12.457,10.22 C12.457,10.553 12.476,10.86 12.508,11.15 C9.441,11.132 6.74,8.642 6.74,5.96 L6.74,5.961 Z M10.897,24.341 L10.879,24.393 L10.933,24.393 C11.793,24.393 12.213,24.331 12.491,24.291 C12.636,24.273 12.741,24.257 12.854,24.257 C13.076,24.257 13.246,24.277 13.246,24.552 C13.246,24.736 13.031,25.028 12.821,25.197 C12.504,24.897 12.065,24.838 11.419,24.838 C11.1151903,24.847397 10.8122657,24.8757858 10.512,24.923 L10.478,24.927 L10.441,24.932 L10.453,25.033 C10.478,25.212 10.509,25.433 10.509,25.733 L10.505,26.005 L10.501,26.342 C10.501,27.074 10.602,27.49 10.858,27.806 C10.7800298,27.832988 10.6984598,27.848156 10.616,27.851 C10.161,27.851 10.029,27.651 10.029,26.344 C10.029,26.08 10.016,25.834 10.007,25.67 L9.993,25.427 L9.935,25.471 C9.261,25.986 8.565,26.906 8.524,27.592 C8.321,27.462 8.1,27.168 8.1,26.942 C8.1,26.567 8.665,26.004 9.317,25.35 L9.693,24.975 L9.74,24.927 L9.618,24.896 C9.4146844,24.8378045 9.20526362,24.8035722 8.994,24.794 C8.262,24.794 7.804,24.932 7.521,25.24 C7.419,25.093 7.334,24.75 7.334,24.55 C7.334,24.42 7.36,24.329 7.411,24.276 C7.475,24.214 7.575,24.214 7.662,24.214 L7.681,24.214 C8.488,24.214 9.453,24.36 9.829,24.42 L9.851,24.425 L9.865,24.407 C9.93,24.319 11.469,22.269 11.868,21.183 C11.9732454,21.1399766 12.0863531,21.1195354 12.2,21.123 C12.504,21.123 12.589,21.327 12.675,21.64 C11.714,22.808 11.115,23.717 10.897,24.34 L10.897,24.341 Z M19.196,21.123 C19.3099642,21.1196321 19.4233783,21.1400671 19.529,21.183 C19.929,22.269 21.468,24.319 21.531,24.407 L21.546,24.425 L21.569,24.42 C21.945,24.36 22.91,24.214 23.717,24.214 L23.736,24.214 C23.823,24.214 23.922,24.214 23.986,24.276 C24.038,24.329 24.064,24.42 24.064,24.55 C24.064,24.75 23.979,25.093 23.877,25.24 C23.594,24.932 23.136,24.794 22.402,24.794 C22.182,24.794 21.921,24.86 21.78,24.896 L21.722,24.909 L21.656,24.927 L22.079,25.35 C22.733,26.004 23.297,26.567 23.297,26.942 C23.297,27.168 23.077,27.462 22.874,27.592 C22.831,26.906 22.137,25.986 21.461,25.472 L21.403,25.428 L21.393,25.67 C21.383,25.834 21.368,26.08 21.368,26.344 C21.368,27.652 21.235,27.851 20.782,27.851 C20.6995402,27.848156 20.6179702,27.832988 20.54,27.806 C20.796,27.49 20.896,27.074 20.896,26.342 L20.892,26.005 L20.888,25.733 C20.888,25.433 20.919,25.212 20.944,25.033 L20.957,24.933 L20.886,24.923 C20.5854157,24.8756503 20.2821499,24.8472609 19.978,24.838 C19.332,24.838 18.894,24.898 18.576,25.197 C18.366,25.027 18.151,24.736 18.151,24.552 C18.151,24.278 18.321,24.257 18.544,24.257 C18.657,24.257 18.762,24.273 18.907,24.291 C19.185,24.331 19.603,24.393 20.465,24.393 L20.517,24.393 L20.501,24.341 C20.283,23.717 19.684,22.808 18.723,21.641 C18.809,21.327 18.893,21.123 19.196,21.123 L19.196,21.123 Z M15.634,3.243 C15.5325159,2.83433462 15.34121,2.45343082 15.074,2.128 C14.838,1.85 14.447,1.518 13.92,1.518 C13.68,1.518 13.276,1.631 13.02,1.738 C12.922,1.565 12.735,1.144 12.735,0.953 C12.735,0.758 13.066,0.561 13.697,0.561 C15.083,0.561 15.912,1.188 15.912,2.24 C15.912,2.608 15.765,2.945 15.634,3.243 Z M16.256,1.875 C16.2093222,1.5870789 16.0944606,1.31449688 15.921,1.08 C15.929,0.808 16.041,0.549 16.479,0.762 C16.243,1.004 16.425,1.432 16.425,1.432 C16.425,1.432 16.908,1.207 16.809,0.889 C17.526,1.061 17.01,2.025 16.256,1.875 L16.256,1.875 Z M18.956,11.151 C18.992,10.85 19.013,10.539 19.013,10.221 C19.013,10.049 19.015,9.847 18.993,9.618 C21.673,9.581 24.022,7.65 24.022,5.431 C24.022,4.301 23.285,3.448 22.869,2.94 C22.963,2.92 23.057,2.898 23.151,2.876 C23.543,3.217 24.658,4.428 24.658,5.961 C24.658,8.624 21.996,11.096 18.955,11.151 L18.956,11.151 Z M60.61,6.373 C60.61,7.528 60.57,8.384 60.49,8.941 C60.337,9.993 60.023,10.748 59.547,11.205 C58.97,11.761 58.089,12.039 56.904,12.039 L54.216,12.039 L54.216,1.057 L56.904,1.057 C57.988,1.057 58.814,1.269 59.38,1.695 C59.887,2.069 60.226,2.621 60.398,3.35 C60.54,3.958 60.61,4.966 60.61,6.373 L60.61,6.373 Z M59.26,6.496 C59.26,5.482 59.234,4.768 59.183,4.353 C59.062,3.401 58.788,2.773 58.363,2.47 C58.019,2.206 57.512,2.074 56.843,2.074 L55.508,2.074 L55.508,11.007 L57.01,11.007 C57.558,11.007 57.998,10.879 58.332,10.627 C58.758,10.313 59.036,9.675 59.168,8.712 C59.228,8.257 59.259,7.517 59.259,6.496 L59.26,6.496 Z M62.676,2.515 L63.998,2.515 L63.998,1.209 L62.676,1.209 L62.676,2.515 L62.676,2.515 Z M62.737,12.039 L63.937,12.039 L63.937,4.384 L62.737,4.384 L62.737,12.039 L62.737,12.039 Z M71.137,8.379 L67.127,8.379 L67.127,8.895 C67.127,9.675 67.199,10.237 67.34,10.581 C67.543,11.077 67.938,11.326 68.525,11.326 C69.405,11.326 69.867,10.764 69.907,9.64 L71.092,9.64 C71.022,11.34 70.165,12.191 68.525,12.191 C67.462,12.191 66.732,11.832 66.337,11.113 C66.044,10.575 65.897,9.71 65.897,8.515 C65.897,7.158 66.024,6.186 66.277,5.599 C66.672,4.677 67.451,4.216 68.615,4.216 C69.71,4.216 70.438,4.622 70.804,5.432 C71.026,5.938 71.137,6.803 71.137,8.029 L71.137,8.379 L71.137,8.379 Z M69.922,7.558 C69.922,6.82 69.871,6.298 69.77,5.994 C69.589,5.387 69.199,5.083 68.6,5.083 C67.77,5.083 67.3,5.579 67.188,6.571 C67.148,6.915 67.128,7.244 67.128,7.558 L69.922,7.558 L69.922,7.558 Z M60.186,25.163 C60.186,26.276 59.907,27.067 59.349,27.532 C58.844,27.958 58.028,28.171 56.904,28.171 L54.216,28.171 L54.216,17.188 L57.133,17.188 C58.114,17.188 58.836,17.4 59.297,17.826 C59.758,18.251 59.988,18.956 59.988,19.936 C59.988,20.626 59.871,21.152 59.638,21.518 C59.395,21.932 58.965,22.237 58.348,22.429 C59.056,22.601 59.547,22.919 59.821,23.386 C60.065,23.791 60.186,24.384 60.186,25.163 L60.186,25.163 Z M58.696,20.013 C58.696,19.335 58.529,18.859 58.196,18.586 C57.902,18.343 57.426,18.222 56.767,18.222 L55.491,18.222 L55.491,21.973 L56.844,21.973 C58.079,21.973 58.696,21.32 58.696,20.013 L58.696,20.013 Z M58.864,25.102 C58.864,24.384 58.71,23.849 58.4,23.499 C58.091,23.149 57.583,22.975 56.875,22.975 L55.49,22.975 L55.49,27.138 L56.66,27.138 C57.43,27.138 57.977,27.01 58.301,26.758 C58.675,26.465 58.863,25.912 58.863,25.102 L58.864,25.102 Z M67.385,28.171 L66.185,28.171 L66.17,27.199 C65.705,27.927 65.061,28.291 64.241,28.291 C62.874,28.291 62.19,27.508 62.19,25.938 L62.19,20.515 L63.39,20.515 L63.39,25.405 C63.39,26.035 63.441,26.479 63.542,26.743 C63.714,27.178 64.069,27.396 64.606,27.396 C65.608,27.396 66.11,26.651 66.11,25.163 L66.11,20.515 L67.325,20.515 L67.325,26.485 C67.325,27.082 67.345,27.644 67.385,28.171 M74.722,28.171 L73.522,28.171 L73.522,23.279 C73.522,22.621 73.476,22.169 73.386,21.928 C73.213,21.481 72.865,21.258 72.338,21.258 C71.822,21.258 71.421,21.512 71.138,22.019 C70.905,22.453 70.788,22.971 70.788,23.568 L70.788,28.171 L69.588,28.171 L69.588,22.186 C69.588,21.507 69.568,20.95 69.527,20.515 L70.712,20.515 L70.712,21.563 C71.137,20.753 71.802,20.347 72.702,20.347 C74.049,20.347 74.722,21.143 74.722,22.733 L74.722,28.171 M82.028,28.171 L80.86,28.171 L80.845,27.29 C80.41,27.958 79.813,28.291 79.053,28.291 C78.071,28.291 77.397,27.851 77.033,26.971 C76.799,26.383 76.683,25.471 76.683,24.236 C76.683,23.072 76.819,22.191 77.093,21.593 C77.458,20.763 78.1,20.347 79.023,20.347 C79.791,20.347 80.369,20.647 80.753,21.244 L80.753,17.188 L81.969,17.188 L81.969,26.727 C81.969,27.001 81.989,27.482 82.029,28.171 L82.028,28.171 Z M80.798,24.419 C80.798,23.376 80.723,22.631 80.57,22.186 C80.358,21.547 79.948,21.229 79.34,21.229 C78.743,21.229 78.337,21.563 78.125,22.232 C77.984,22.667 77.912,23.345 77.912,24.267 C77.912,25.27 77.993,26.004 78.156,26.469 C78.368,27.096 78.748,27.411 79.294,27.411 C79.942,27.411 80.374,27.092 80.586,26.454 C80.727,26.039 80.798,25.361 80.798,24.419 L80.798,24.419 Z M89.168,24.511 L85.158,24.511 L85.158,25.026 C85.158,25.806 85.229,26.368 85.37,26.712 C85.573,27.208 85.969,27.457 86.556,27.457 C87.436,27.457 87.898,26.895 87.938,25.771 L89.122,25.771 C89.052,27.471 88.196,28.322 86.556,28.322 C85.493,28.322 84.763,27.963 84.369,27.244 C84.074,26.707 83.928,25.841 83.928,24.646 C83.928,23.289 84.054,22.318 84.307,21.73 C84.702,20.808 85.482,20.347 86.647,20.347 C87.74,20.347 88.469,20.753 88.834,21.563 C89.056,22.069 89.168,22.935 89.168,24.161 L89.168,24.511 L89.168,24.511 Z M87.953,23.689 C87.953,22.951 87.903,22.429 87.801,22.125 C87.619,21.518 87.229,21.214 86.631,21.214 C85.801,21.214 85.33,21.71 85.218,22.702 C85.178,23.046 85.158,23.376 85.158,23.689 L87.953,23.689 L87.953,23.689 Z M95.32,26.075 C95.32,27.563 94.52,28.308 92.92,28.308 C91.351,28.308 90.58,27.482 90.612,25.831 L91.811,25.831 C91.811,25.983 91.816,26.125 91.827,26.256 C91.898,27.056 92.272,27.456 92.951,27.456 C93.72,27.456 94.105,27.061 94.105,26.272 C94.105,25.846 93.983,25.512 93.741,25.27 C93.589,25.107 93.249,24.884 92.722,24.601 C92.004,24.216 91.549,23.932 91.356,23.751 C90.971,23.396 90.778,22.925 90.778,22.338 C90.778,21.679 90.996,21.178 91.432,20.834 C91.836,20.51 92.378,20.347 93.057,20.347 C93.847,20.347 94.409,20.532 94.743,20.902 C95.077,21.272 95.255,21.842 95.275,22.611 L94.075,22.611 C94.075,21.659 93.715,21.183 92.996,21.183 C92.682,21.183 92.434,21.28 92.252,21.472 C92.07,21.664 91.979,21.917 91.979,22.232 C91.979,22.576 92.125,22.869 92.419,23.112 C92.572,23.255 92.93,23.476 93.498,23.78 C94.115,24.115 94.541,24.399 94.773,24.631 C95.138,25.016 95.321,25.497 95.321,26.075 M100.319,21.518 C100.23316,21.5016333 100.146282,21.4912748 100.059,21.487 C99.482,21.487 99.049,21.664 98.761,22.019 C98.473,22.373 98.328,22.845 98.328,23.431 L98.328,28.171 L97.112,28.171 L97.112,21.911 C97.112,21.395 97.098,20.931 97.067,20.515 L98.252,20.515 L98.252,21.518 C98.668,20.748 99.316,20.363 100.196,20.363 C100.276,20.363 100.319,20.747 100.319,21.518 M106.516,24.511 L102.506,24.511 L102.506,25.026 C102.506,25.806 102.576,26.368 102.718,26.712 C102.921,27.208 103.315,27.457 103.902,27.457 C104.784,27.457 105.245,26.895 105.286,25.771 L106.47,25.771 C106.399,27.471 105.544,28.322 103.902,28.322 C102.839,28.322 102.11,27.963 101.715,27.244 C101.422,26.707 101.275,25.841 101.275,24.646 C101.275,23.289 101.402,22.318 101.655,21.73 C102.05,20.808 102.83,20.347 103.994,20.347 C105.088,20.347 105.817,20.753 106.181,21.563 C106.404,22.069 106.516,22.935 106.516,24.161 L106.516,24.511 L106.516,24.511 Z M105.3,23.689 C105.3,22.951 105.25,22.429 105.148,22.125 C104.966,21.518 104.576,21.214 103.979,21.214 C103.149,21.214 102.678,21.71 102.566,22.702 C102.526,23.046 102.506,23.376 102.506,23.689 L105.3,23.689 L105.3,23.689 Z M113.488,20.515 C113.488,20.627 113.48,20.825 113.465,21.115 C113.451629,21.3400963 113.444293,21.5655106 113.443,21.791 L113.443,28.489 C113.443,29.421 113.225,30.099 112.789,30.526 C112.354,30.95 111.66,31.163 110.709,31.163 C109.129,31.163 108.328,30.423 108.307,28.945 L109.583,28.945 C109.583,29.876 109.978,30.343 110.769,30.343 C111.386,30.343 111.797,30.12 111.999,29.675 C112.141,29.38 112.211,28.895 112.211,28.216 L112.211,27.182 C111.786,27.781 111.194,28.079 110.434,28.079 C109.482,28.079 108.829,27.679 108.476,26.88 C108.242,26.353 108.126,25.533 108.126,24.419 C108.126,23.183 108.252,22.261 108.506,21.654 C108.869,20.782 109.519,20.347 110.45,20.347 C111.3,20.347 111.913,20.702 112.288,21.41 L112.288,20.515 L113.488,20.515 L113.488,20.515 Z M112.242,24.1 C112.242,23.238 112.171,22.601 112.03,22.186 C111.807,21.558 111.391,21.244 110.784,21.244 C110.156,21.244 109.74,21.598 109.539,22.307 C109.416,22.733 109.356,23.436 109.356,24.419 C109.356,25.299 109.416,25.927 109.539,26.302 C109.731,26.93 110.121,27.244 110.709,27.244 C111.397,27.244 111.852,26.864 112.075,26.104 C112.187,25.709 112.242,25.041 112.242,24.1 L112.242,24.1 Z M115.63,18.646 L116.951,18.646 L116.951,17.341 L115.63,17.341 L115.63,18.647 L115.63,18.646 Z M115.69,28.171 L116.89,28.171 L116.89,20.515 L115.69,20.515 L115.69,28.171 Z M124.09,24.511 L120.08,24.511 L120.08,25.026 C120.08,25.806 120.15,26.368 120.293,26.712 C120.496,27.208 120.891,27.457 121.477,27.457 C122.359,27.457 122.82,26.895 122.86,25.771 L124.045,25.771 C123.974,27.471 123.119,28.322 121.477,28.322 C120.414,28.322 119.685,27.963 119.29,27.244 C118.997,26.707 118.85,25.841 118.85,24.646 C118.85,23.289 118.977,22.318 119.23,21.73 C119.625,20.808 120.404,20.347 121.569,20.347 C122.663,20.347 123.391,20.753 123.756,21.563 C123.979,22.069 124.09,22.935 124.09,24.161 L124.09,24.511 L124.09,24.511 Z M122.875,23.689 C122.875,22.951 122.825,22.429 122.723,22.125 C122.541,21.518 122.151,21.214 121.553,21.214 C120.723,21.214 120.253,21.71 120.141,22.702 C120.101,23.046 120.081,23.376 120.081,23.689 L122.875,23.689 L122.875,23.689 Z M129.195,21.518 C129.109813,21.5017598 129.023609,21.491402 128.937,21.487 C128.358,21.487 127.926,21.664 127.638,22.019 C127.349,22.373 127.205,22.845 127.205,23.431 L127.205,28.171 L125.99,28.171 L125.99,21.911 C125.99,21.395 125.974,20.931 125.944,20.515 L127.128,20.515 L127.128,21.518 C127.544,20.748 128.192,20.363 129.072,20.363 C129.154,20.363 129.195,20.747 129.195,21.518 M135.833,28.171 L134.633,28.171 L134.617,27.199 C134.151,27.927 133.508,28.291 132.688,28.291 C131.321,28.291 130.637,27.508 130.637,25.938 L130.637,20.515 L131.837,20.515 L131.837,25.405 C131.837,26.035 131.889,26.479 131.989,26.743 C132.161,27.178 132.516,27.396 133.053,27.396 C134.055,27.396 134.557,26.651 134.557,25.163 L134.557,20.515 L135.772,20.515 L135.772,26.485 C135.772,27.082 135.792,27.644 135.832,28.171 M143.17,28.171 L141.97,28.171 L141.97,23.279 C141.97,22.621 141.923,22.169 141.832,21.928 C141.66,21.481 141.31,21.258 140.785,21.258 C140.269,21.258 139.868,21.512 139.585,22.019 C139.352,22.453 139.235,22.971 139.235,23.568 L139.235,28.171 L138.035,28.171 L138.035,22.186 C138.035,21.507 138.015,20.95 137.974,20.515 L139.16,20.515 L139.16,21.563 C139.584,20.753 140.247,20.347 141.15,20.347 C142.496,20.347 143.17,21.143 143.17,22.733 L143.17,28.171 M150.49,20.515 C150.49,20.627 150.484,20.825 150.468,21.115 C150.453,21.403 150.446,21.628 150.446,21.791 L150.446,28.489 C150.446,29.421 150.227,30.099 149.793,30.526 C149.357,30.95 148.663,31.163 147.71,31.163 C146.131,31.163 145.331,30.423 145.311,28.945 L146.587,28.945 C146.587,29.876 146.982,30.343 147.772,30.343 C148.389,30.343 148.799,30.12 149.002,29.675 C149.143,29.38 149.215,28.895 149.215,28.216 L149.215,27.182 C148.79,27.781 148.197,28.079 147.438,28.079 C146.486,28.079 145.833,27.679 145.478,26.88 C145.245,26.353 145.13,25.533 145.13,24.419 C145.13,23.183 145.256,22.261 145.509,21.654 C145.873,20.782 146.521,20.347 147.452,20.347 C148.303,20.347 148.916,20.702 149.292,21.41 L149.292,20.515 L150.49,20.515 L150.49,20.515 Z M149.246,24.1 C149.246,23.238 149.174,22.601 149.033,22.186 C148.81,21.558 148.395,21.244 147.787,21.244 C147.159,21.244 146.744,21.598 146.541,22.307 C146.42,22.733 146.36,23.436 146.36,24.419 C146.36,25.299 146.42,25.927 146.541,26.302 C146.735,26.93 147.124,27.244 147.711,27.244 C148.401,27.244 148.856,26.864 149.079,26.104 C149.189,25.709 149.246,25.041 149.246,24.1 L149.246,24.1 Z" id="Shape" fill="#000000"></path>
        </g>
    </g>
</svg>