<?xml version="1.0" encoding="UTF-8"?>
<svg width="152px" height="82px" viewBox="0 0 152 82" version="1.1" xmlns="http://www.w3.org/2000/svg" xmlns:xlink="http://www.w3.org/1999/xlink">
    <!-- Generator: Sketch 63.1 (92452) - https://sketch.com -->
    <title>bundesregierung</title>
    <desc>Created with Sketch.</desc>
    <g id="Page-1" stroke="none" stroke-width="1" fill="none" fill-rule="evenodd">
        <g id="bundesregierung" fill-rule="nonzero">
            <polygon id="Path" fill="#000000" points="40.328 28.23 45.033 28.23 45.033 1.346 40.328 1.346"></polygon>
            <polygon id="Path" fill="#FF0000" points="40.328 55.115 45.033 55.115 45.033 28.23 40.328 28.23"></polygon>
            <polygon id="Path" fill="#FFCC00" points="40.328 82 45.033 82 45.033 55.115 40.328 55.115"></polygon>
            <path d="M28.084,10.742 C29.461,12.918 30.538,12.882 32.164,12.882 C30.819,11.85 29.929,10.53 29.504,9.855 L26.99,5.833 C26.7418011,4.57269955 26.0928776,3.42638503 25.14,2.565 C25.463,2.443 25.733,2.313 25.895,2.191 C24.253,2.191 22.627,1.358 21.731,1.358 C21.156,1.358 20.785,1.702 20.785,2.156 C20.823,2.662 21.345,3.178 22.308,3.178 C22.526,3.178 22.805,3.15 23.112,3.098 C23.633,3.826 24.054,4.483 24.054,5.421 C24.054,7.182 21.949,8.555 19.824,8.555 C19.7055317,8.55484751 19.5871124,8.55017745 19.469,8.541 C19.275,8.105 18.636,7.371 18.636,6.538 C18.636,5.139 19.548,3.996 19.548,2.609 C19.548,1.749 19.128,1.215 18.966,0.993 C19.228,0.751 19.513,0.453 19.579,0.25 C19.429,0.315 19.249,0.324 18.986,0.324 C17.967,0.324 17.136,0.059 16.327,0.059 C15.865,0.059 15.74,0.202 15.74,0.337 C15.74,0.387 15.748,0.438 15.761,0.462 C15.5911446,0.396200502 15.4153272,0.346971637 15.236,0.315 C14.981943,0.268907605 14.7242029,0.246146149 14.466,0.247 C13.482,0.247 13.132,0.66 13.132,1.012 C13.132,1.312 13.367,1.858 13.635,2.273 C14.018,2.081 14.479,1.951 14.689,1.951 C15.21,1.951 15.675,2.448 15.921,3.037 C15.571,3.078 15.503,3.094 15.148,3.094 C14.19,3.094 13.538,2.752 13.404,2.752 C13.39,2.752 13.364,2.758 13.364,2.779 C13.364,2.914 13.638,3.269 14.173,3.464 C14.877,3.722 15.935,3.83 16.111,3.859 C16.111,3.89 15.932,4.224 15.731,4.287 C15.6911508,4.30130912 15.647872,4.30305424 15.607,4.292 C14.87,4.147 14.665,4.085 13.73,3.729 C13.7,3.719 13.685,3.737 13.685,3.767 C13.685,4.137 14.642,4.952 15.499,5.265 C14.783,6.18 13.888,7.115 13.467,8.541 C13.3488865,8.55015816 13.2304679,8.55482819 13.112,8.555 C10.987,8.555 8.88,7.182 8.88,5.421 C8.88,4.483 9.302,3.826 9.824,3.099 C10.13,3.149 10.409,3.178 10.628,3.178 C11.592,3.178 12.113,2.662 12.151,2.156 C12.151,1.702 11.781,1.358 11.203,1.358 C10.308,1.358 8.683,2.191 7.04,2.191 C7.203,2.313 7.471,2.443 7.794,2.565 C6.8415747,3.42674733 6.19274234,4.57290093 5.944,5.833 L3.432,9.855 C3.008,10.53 2.116,11.85 0.77,12.882 C2.397,12.882 3.475,12.918 4.851,10.742 L6.14,8.68 C6.237,8.947 6.354,9.208 6.492,9.464 L3.929,13.565 C3.501,14.245 2.619,15.555 1.267,16.592 C2.894,16.592 3.972,16.63 5.348,14.455 L7.554,10.922 C7.72,11.098 7.894,11.27 8.076,11.434 L4.962,16.42 C4.534,17.101 3.655,18.407 2.3,19.444 C3.927,19.444 5.006,19.484 6.381,17.307 L9.417,12.447 C9.617,12.574 9.821,12.697 10.032,12.812 L6.327,18.74 C5.9,19.423 5.021,20.725 3.667,21.765 C5.294,21.765 6.372,21.804 7.748,19.629 L11.563,13.522 C11.789,13.608 12.018,13.691 12.25,13.765 L7.94,20.665 C7.518,21.337 6.62,22.663 5.28,23.69 C6.905,23.69 7.985,23.726 9.36,21.552 L13.955,14.199 C14.002,14.206 14.048,14.214 14.093,14.223 C14.218,14.621 14.306,14.991 14.306,15.362 C14.306,17.672 12.789,19.713 10.969,21.289 C11.086,21.339 11.289,21.357 11.476,21.357 C11.851,21.357 12.094,21.337 12.265,21.307 C11.843,22.266 10.937,23.503 10.48,24.144 C9.80924877,24.028108 9.13058512,23.9639191 8.45,23.952 C7.856,23.952 7.789,24.3 7.789,24.61 C7.789,25.15 8.04,25.578 8.334,25.818 C8.444,25.542 8.666,25.174 9.764,25.174 L9.874,25.179 C9.552,25.537 8.548,26.349 8.548,27.002 C8.548,27.435 9.024,28.084 9.649,28.084 C9.611,27.944 9.617,27.815 9.617,27.72 C9.617,27.19 10.086,26.57 10.483,26.137 C10.47,26.267 10.477,26.253 10.477,26.404 C10.477,27.655 10.59,28.231 11.385,28.231 C11.775,28.231 12.043,28.017 12.136,27.952 C11.62,27.476 11.593,27.104 11.593,26.402 C11.594,26.219 11.594,26.041 11.597,25.795 C11.6,25.633 11.597,25.421 11.57,25.268 C11.855,25.228 11.97,25.228 12.188,25.228 C12.188,25.228 13.318,25.138 13.589,25.726 C13.896,25.446 14.341,25.049 14.341,24.612 C14.341,24.322 14.203,23.996 13.623,23.996 C13.403,23.996 12.71,24.131 12.131,24.131 C12.287,23.784 12.979,22.771 13.58,22.036 C13.67,22.321 13.812,22.629 14.127,22.882 C14.171,22.409 14.448,20.912 15.187,20.037 C15.274,20.629 15.389,21.235 15.389,22.513 C15.389,25.624 14.642,27.921 13.054,28.36 C13.261,28.718 13.698,29.042 14.151,29.042 C14.731,29.042 15.048,28.385 15.371,27.765 C15.538,28.222 16.002,29.344 16.467,29.344 C16.932,29.344 17.397,28.222 17.564,27.765 C17.887,28.385 18.204,29.042 18.784,29.042 C19.238,29.042 19.674,28.718 19.882,28.36 C18.294,27.921 17.545,25.624 17.545,22.513 C17.545,21.235 17.661,20.629 17.747,20.037 C18.487,20.912 18.765,22.409 18.807,22.882 C19.123,22.629 19.266,22.322 19.356,22.036 C19.956,22.77 20.649,23.784 20.806,24.131 C20.224,24.131 19.532,23.996 19.313,23.996 C18.733,23.996 18.595,24.323 18.595,24.612 C18.595,25.049 19.04,25.445 19.347,25.726 C19.617,25.139 20.747,25.229 20.747,25.229 C20.965,25.229 21.081,25.229 21.366,25.268 C21.3423227,25.4426067 21.3332912,25.6188878 21.339,25.795 L21.342,26.402 C21.342,27.104 21.316,27.476 20.8,27.952 C20.893,28.017 21.161,28.231 21.551,28.231 C22.346,28.231 22.46,27.655 22.46,26.404 C22.46,26.254 22.464,26.267 22.453,26.137 C22.85,26.57 23.319,27.19 23.319,27.72 C23.319,27.815 23.324,27.944 23.285,28.084 C23.912,28.084 24.388,27.434 24.388,27.002 C24.388,26.349 23.383,25.537 23.061,25.179 L23.171,25.174 C24.269,25.174 24.491,25.542 24.601,25.818 C24.894,25.578 25.147,25.149 25.147,24.61 C25.147,24.3 25.08,23.952 24.486,23.952 C23.918,23.952 23.051,24.036 22.456,24.144 C21.998,23.503 21.093,22.266 20.671,21.308 C20.841,21.338 21.085,21.358 21.458,21.358 C21.648,21.358 21.85,21.34 21.967,21.288 C20.147,19.713 18.629,17.673 18.629,15.362 C18.629,14.991 18.718,14.622 18.843,14.223 C18.887,14.213 18.933,14.206 18.981,14.199 L23.576,21.552 C24.951,23.726 26.03,23.69 27.656,23.69 C26.316,22.663 25.417,21.337 24.996,20.665 L20.684,13.765 C20.918,13.691 21.147,13.608 21.372,13.522 L25.187,19.629 C26.564,21.804 27.642,21.765 29.269,21.765 C27.915,20.725 27.036,19.423 26.609,18.74 L22.904,12.812 C23.114,12.696 23.319,12.574 23.518,12.448 L26.555,17.307 C27.931,19.483 29.008,19.444 30.635,19.444 C29.281,18.407 28.402,17.101 27.975,16.42 L24.861,11.435 C25.044,11.271 25.218,11.099 25.381,10.923 L27.588,14.456 C28.965,16.631 30.043,16.593 31.669,16.593 C30.317,15.555 29.435,14.246 29.008,13.566 L26.444,9.465 C26.583,9.209 26.7,8.948 26.797,8.681 L28.084,10.743 L28.084,10.742 Z M7.51,6.02 C7.51,4.487 8.624,3.276 9.017,2.935 C9.111,2.957 9.205,2.979 9.299,2.999 C8.881,3.507 8.146,4.361 8.146,5.49 C8.146,7.732 10.541,9.679 13.254,9.679 C13.2359778,9.87849194 13.2269686,10.0786956 13.227,10.279 C13.227,10.612 13.246,10.919 13.278,11.209 C10.211,11.191 7.51,8.701 7.51,6.019 L7.51,6.02 Z M11.667,24.4 L11.649,24.452 L11.703,24.452 C12.563,24.452 12.983,24.39 13.261,24.35 C13.406,24.332 13.511,24.316 13.624,24.316 C13.846,24.316 14.016,24.336 14.016,24.611 C14.016,24.795 13.801,25.087 13.591,25.256 C13.274,24.956 12.835,24.897 12.189,24.897 C11.8851903,24.906397 11.5822657,24.9347858 11.282,24.982 L11.248,24.986 L11.211,24.991 L11.223,25.092 C11.248,25.271 11.279,25.492 11.279,25.792 L11.275,26.064 L11.271,26.401 C11.271,27.133 11.372,27.549 11.628,27.865 C11.5500298,27.891988 11.4684598,27.907156 11.386,27.91 C10.931,27.91 10.799,27.71 10.799,26.403 C10.799,26.139 10.786,25.893 10.777,25.729 L10.763,25.486 L10.705,25.53 C10.031,26.045 9.335,26.965 9.294,27.651 C9.091,27.521 8.87,27.227 8.87,27.001 C8.87,26.626 9.435,26.063 10.087,25.409 L10.463,25.034 L10.51,24.986 L10.388,24.955 C10.1846844,24.8968045 9.97526362,24.8625722 9.764,24.853 C9.032,24.853 8.574,24.991 8.291,25.299 C8.189,25.152 8.104,24.809 8.104,24.609 C8.104,24.479 8.13,24.388 8.181,24.335 C8.245,24.273 8.345,24.273 8.432,24.273 L8.451,24.273 C9.258,24.273 10.223,24.419 10.599,24.479 L10.621,24.484 L10.635,24.466 C10.7,24.378 12.239,22.328 12.638,21.242 C12.7432454,21.1989766 12.8563531,21.1785354 12.97,21.182 C13.274,21.182 13.359,21.386 13.445,21.699 C12.484,22.867 11.885,23.776 11.667,24.399 L11.667,24.4 Z M19.966,21.182 C20.0799642,21.1786321 20.1933783,21.1990671 20.299,21.242 C20.699,22.328 22.238,24.378 22.301,24.466 L22.316,24.484 L22.339,24.479 C22.715,24.419 23.68,24.273 24.487,24.273 L24.506,24.273 C24.593,24.273 24.692,24.273 24.756,24.335 C24.808,24.388 24.834,24.479 24.834,24.609 C24.834,24.809 24.749,25.152 24.647,25.299 C24.364,24.991 23.906,24.853 23.172,24.853 C22.952,24.853 22.691,24.919 22.55,24.955 L22.492,24.968 L22.426,24.986 L22.849,25.409 C23.503,26.063 24.067,26.626 24.067,27.001 C24.067,27.227 23.847,27.521 23.644,27.651 C23.601,26.965 22.907,26.045 22.231,25.531 L22.173,25.487 L22.163,25.729 C22.153,25.893 22.138,26.139 22.138,26.403 C22.138,27.711 22.005,27.91 21.552,27.91 C21.4695402,27.907156 21.3879702,27.891988 21.31,27.865 C21.566,27.549 21.666,27.133 21.666,26.401 L21.662,26.064 L21.658,25.792 C21.658,25.492 21.689,25.271 21.714,25.092 L21.727,24.992 L21.656,24.982 C21.3554157,24.9346503 21.0521499,24.9062609 20.748,24.897 C20.102,24.897 19.664,24.957 19.346,25.256 C19.136,25.086 18.921,24.795 18.921,24.611 C18.921,24.337 19.091,24.316 19.314,24.316 C19.427,24.316 19.532,24.332 19.677,24.35 C19.955,24.39 20.373,24.452 21.235,24.452 L21.287,24.452 L21.271,24.4 C21.053,23.776 20.454,22.867 19.493,21.7 C19.579,21.386 19.663,21.182 19.966,21.182 L19.966,21.182 Z M16.404,3.302 C16.3025159,2.89333462 16.11121,2.51243082 15.844,2.187 C15.608,1.909 15.217,1.577 14.69,1.577 C14.45,1.577 14.046,1.69 13.79,1.797 C13.692,1.624 13.505,1.203 13.505,1.012 C13.505,0.817 13.836,0.62 14.467,0.62 C15.853,0.62 16.682,1.247 16.682,2.299 C16.682,2.667 16.535,3.004 16.404,3.302 Z M17.026,1.934 C16.9793222,1.6460789 16.8644606,1.37349688 16.691,1.139 C16.699,0.867 16.811,0.608 17.249,0.821 C17.013,1.063 17.195,1.491 17.195,1.491 C17.195,1.491 17.678,1.266 17.579,0.948 C18.296,1.12 17.78,2.084 17.026,1.934 L17.026,1.934 Z M19.726,11.21 C19.762,10.909 19.783,10.598 19.783,10.28 C19.783,10.108 19.785,9.906 19.763,9.677 C22.443,9.64 24.792,7.709 24.792,5.49 C24.792,4.36 24.055,3.507 23.639,2.999 C23.733,2.979 23.827,2.957 23.921,2.935 C24.313,3.276 25.428,4.487 25.428,6.02 C25.428,8.683 22.766,11.155 19.725,11.21 L19.726,11.21 Z M61.38,6.432 C61.38,7.587 61.34,8.443 61.26,9 C61.107,10.052 60.793,10.807 60.317,11.264 C59.74,11.82 58.859,12.098 57.674,12.098 L54.986,12.098 L54.986,1.116 L57.674,1.116 C58.758,1.116 59.584,1.328 60.15,1.754 C60.657,2.128 60.996,2.68 61.168,3.409 C61.31,4.017 61.38,5.025 61.38,6.432 L61.38,6.432 Z M60.03,6.555 C60.03,5.541 60.004,4.827 59.953,4.412 C59.832,3.46 59.558,2.832 59.133,2.529 C58.789,2.265 58.282,2.133 57.613,2.133 L56.278,2.133 L56.278,11.066 L57.78,11.066 C58.328,11.066 58.768,10.938 59.102,10.686 C59.528,10.372 59.806,9.734 59.938,8.771 C59.998,8.316 60.029,7.576 60.029,6.555 L60.03,6.555 Z M63.446,2.574 L64.768,2.574 L64.768,1.268 L63.446,1.268 L63.446,2.574 L63.446,2.574 Z M63.507,12.098 L64.707,12.098 L64.707,4.443 L63.507,4.443 L63.507,12.098 L63.507,12.098 Z M71.907,8.438 L67.897,8.438 L67.897,8.954 C67.897,9.734 67.969,10.296 68.11,10.64 C68.313,11.136 68.708,11.385 69.295,11.385 C70.175,11.385 70.637,10.823 70.677,9.699 L71.862,9.699 C71.792,11.399 70.935,12.25 69.295,12.25 C68.232,12.25 67.502,11.891 67.107,11.172 C66.814,10.634 66.667,9.769 66.667,8.574 C66.667,7.217 66.794,6.245 67.047,5.658 C67.442,4.736 68.221,4.275 69.385,4.275 C70.48,4.275 71.208,4.681 71.574,5.491 C71.796,5.997 71.907,6.862 71.907,8.088 L71.907,8.438 L71.907,8.438 Z M70.692,7.617 C70.692,6.879 70.641,6.357 70.54,6.053 C70.359,5.446 69.969,5.142 69.37,5.142 C68.54,5.142 68.07,5.638 67.958,6.63 C67.918,6.974 67.898,7.303 67.898,7.617 L70.692,7.617 L70.692,7.617 Z M60.956,25.222 C60.956,26.335 60.677,27.126 60.119,27.591 C59.614,28.017 58.798,28.23 57.674,28.23 L54.986,28.23 L54.986,17.247 L57.903,17.247 C58.884,17.247 59.606,17.459 60.067,17.885 C60.528,18.31 60.758,19.015 60.758,19.995 C60.758,20.685 60.641,21.211 60.408,21.577 C60.165,21.991 59.735,22.296 59.118,22.488 C59.826,22.66 60.317,22.978 60.591,23.445 C60.835,23.85 60.956,24.443 60.956,25.222 L60.956,25.222 Z M59.466,20.072 C59.466,19.394 59.299,18.918 58.966,18.645 C58.672,18.402 58.196,18.281 57.537,18.281 L56.261,18.281 L56.261,22.032 L57.614,22.032 C58.849,22.032 59.466,21.379 59.466,20.072 L59.466,20.072 Z M59.634,25.161 C59.634,24.443 59.48,23.908 59.17,23.558 C58.861,23.208 58.353,23.034 57.645,23.034 L56.26,23.034 L56.26,27.197 L57.43,27.197 C58.2,27.197 58.747,27.069 59.071,26.817 C59.445,26.524 59.633,25.971 59.633,25.161 L59.634,25.161 Z M68.155,28.23 L66.955,28.23 L66.94,27.258 C66.475,27.986 65.831,28.35 65.011,28.35 C63.644,28.35 62.96,27.567 62.96,25.997 L62.96,20.574 L64.16,20.574 L64.16,25.464 C64.16,26.094 64.211,26.538 64.312,26.802 C64.484,27.237 64.839,27.455 65.376,27.455 C66.378,27.455 66.88,26.71 66.88,25.222 L66.88,20.574 L68.095,20.574 L68.095,26.544 C68.095,27.141 68.115,27.703 68.155,28.23 M75.492,28.23 L74.292,28.23 L74.292,23.338 C74.292,22.68 74.246,22.228 74.156,21.987 C73.983,21.54 73.635,21.317 73.108,21.317 C72.592,21.317 72.191,21.571 71.908,22.078 C71.675,22.512 71.558,23.03 71.558,23.627 L71.558,28.23 L70.358,28.23 L70.358,22.245 C70.358,21.566 70.338,21.009 70.297,20.574 L71.482,20.574 L71.482,21.622 C71.907,20.812 72.572,20.406 73.472,20.406 C74.819,20.406 75.492,21.202 75.492,22.792 L75.492,28.23 M82.798,28.23 L81.63,28.23 L81.615,27.349 C81.18,28.017 80.583,28.35 79.823,28.35 C78.841,28.35 78.167,27.91 77.803,27.03 C77.569,26.442 77.453,25.53 77.453,24.295 C77.453,23.131 77.589,22.25 77.863,21.652 C78.228,20.822 78.87,20.406 79.793,20.406 C80.561,20.406 81.139,20.706 81.523,21.303 L81.523,17.247 L82.739,17.247 L82.739,26.786 C82.739,27.06 82.759,27.541 82.799,28.23 L82.798,28.23 Z M81.568,24.478 C81.568,23.435 81.493,22.69 81.34,22.245 C81.128,21.606 80.718,21.288 80.11,21.288 C79.513,21.288 79.107,21.622 78.895,22.291 C78.754,22.726 78.682,23.404 78.682,24.326 C78.682,25.329 78.763,26.063 78.926,26.528 C79.138,27.155 79.518,27.47 80.064,27.47 C80.712,27.47 81.144,27.151 81.356,26.513 C81.497,26.098 81.568,25.42 81.568,24.478 L81.568,24.478 Z M89.938,24.57 L85.928,24.57 L85.928,25.085 C85.928,25.865 85.999,26.427 86.14,26.771 C86.343,27.267 86.739,27.516 87.326,27.516 C88.206,27.516 88.668,26.954 88.708,25.83 L89.892,25.83 C89.822,27.53 88.966,28.381 87.326,28.381 C86.263,28.381 85.533,28.022 85.139,27.303 C84.844,26.766 84.698,25.9 84.698,24.705 C84.698,23.348 84.824,22.377 85.077,21.789 C85.472,20.867 86.252,20.406 87.417,20.406 C88.51,20.406 89.239,20.812 89.604,21.622 C89.826,22.128 89.938,22.994 89.938,24.22 L89.938,24.57 L89.938,24.57 Z M88.723,23.748 C88.723,23.01 88.673,22.488 88.571,22.184 C88.389,21.577 87.999,21.273 87.401,21.273 C86.571,21.273 86.1,21.769 85.988,22.761 C85.948,23.105 85.928,23.435 85.928,23.748 L88.723,23.748 L88.723,23.748 Z M96.09,26.134 C96.09,27.622 95.29,28.367 93.69,28.367 C92.121,28.367 91.35,27.541 91.382,25.89 L92.581,25.89 C92.581,26.042 92.586,26.184 92.597,26.315 C92.668,27.115 93.042,27.515 93.721,27.515 C94.49,27.515 94.875,27.12 94.875,26.331 C94.875,25.905 94.753,25.571 94.511,25.329 C94.359,25.166 94.019,24.943 93.492,24.66 C92.774,24.275 92.319,23.991 92.126,23.81 C91.741,23.455 91.548,22.984 91.548,22.397 C91.548,21.738 91.766,21.237 92.202,20.893 C92.606,20.569 93.148,20.406 93.827,20.406 C94.617,20.406 95.179,20.591 95.513,20.961 C95.847,21.331 96.025,21.901 96.045,22.67 L94.845,22.67 C94.845,21.718 94.485,21.242 93.766,21.242 C93.452,21.242 93.204,21.339 93.022,21.531 C92.84,21.723 92.749,21.976 92.749,22.291 C92.749,22.635 92.895,22.928 93.189,23.171 C93.342,23.314 93.7,23.535 94.268,23.839 C94.885,24.174 95.311,24.458 95.543,24.69 C95.908,25.075 96.091,25.556 96.091,26.134 M101.089,21.577 C101.00316,21.5606333 100.916282,21.5502748 100.829,21.546 C100.252,21.546 99.819,21.723 99.531,22.078 C99.243,22.432 99.098,22.904 99.098,23.49 L99.098,28.23 L97.882,28.23 L97.882,21.97 C97.882,21.454 97.868,20.99 97.837,20.574 L99.022,20.574 L99.022,21.577 C99.438,20.807 100.086,20.422 100.966,20.422 C101.046,20.422 101.089,20.806 101.089,21.577 M107.286,24.57 L103.276,24.57 L103.276,25.085 C103.276,25.865 103.346,26.427 103.488,26.771 C103.691,27.267 104.085,27.516 104.672,27.516 C105.554,27.516 106.015,26.954 106.056,25.83 L107.24,25.83 C107.169,27.53 106.314,28.381 104.672,28.381 C103.609,28.381 102.88,28.022 102.485,27.303 C102.192,26.766 102.045,25.9 102.045,24.705 C102.045,23.348 102.172,22.377 102.425,21.789 C102.82,20.867 103.6,20.406 104.764,20.406 C105.858,20.406 106.587,20.812 106.951,21.622 C107.174,22.128 107.286,22.994 107.286,24.22 L107.286,24.57 L107.286,24.57 Z M106.07,23.748 C106.07,23.01 106.02,22.488 105.918,22.184 C105.736,21.577 105.346,21.273 104.749,21.273 C103.919,21.273 103.448,21.769 103.336,22.761 C103.296,23.105 103.276,23.435 103.276,23.748 L106.07,23.748 L106.07,23.748 Z M114.258,20.574 C114.258,20.686 114.25,20.884 114.235,21.174 C114.221629,21.3990963 114.214293,21.6245106 114.213,21.85 L114.213,28.548 C114.213,29.48 113.995,30.158 113.559,30.585 C113.124,31.009 112.43,31.222 111.479,31.222 C109.899,31.222 109.098,30.482 109.077,29.004 L110.353,29.004 C110.353,29.935 110.748,30.402 111.539,30.402 C112.156,30.402 112.567,30.179 112.769,29.734 C112.911,29.439 112.981,28.954 112.981,28.275 L112.981,27.241 C112.556,27.84 111.964,28.138 111.204,28.138 C110.252,28.138 109.599,27.738 109.246,26.939 C109.012,26.412 108.896,25.592 108.896,24.478 C108.896,23.242 109.022,22.32 109.276,21.713 C109.639,20.841 110.289,20.406 111.22,20.406 C112.07,20.406 112.683,20.761 113.058,21.469 L113.058,20.574 L114.258,20.574 L114.258,20.574 Z M113.012,24.159 C113.012,23.297 112.941,22.66 112.8,22.245 C112.577,21.617 112.161,21.303 111.554,21.303 C110.926,21.303 110.51,21.657 110.309,22.366 C110.186,22.792 110.126,23.495 110.126,24.478 C110.126,25.358 110.186,25.986 110.309,26.361 C110.501,26.989 110.891,27.303 111.479,27.303 C112.167,27.303 112.622,26.923 112.845,26.163 C112.957,25.768 113.012,25.1 113.012,24.159 L113.012,24.159 Z M116.4,18.705 L117.721,18.705 L117.721,17.4 L116.4,17.4 L116.4,18.706 L116.4,18.705 Z M116.46,28.23 L117.66,28.23 L117.66,20.574 L116.46,20.574 L116.46,28.23 Z M124.86,24.57 L120.85,24.57 L120.85,25.085 C120.85,25.865 120.92,26.427 121.063,26.771 C121.266,27.267 121.661,27.516 122.247,27.516 C123.129,27.516 123.59,26.954 123.63,25.83 L124.815,25.83 C124.744,27.53 123.889,28.381 122.247,28.381 C121.184,28.381 120.455,28.022 120.06,27.303 C119.767,26.766 119.62,25.9 119.62,24.705 C119.62,23.348 119.747,22.377 120,21.789 C120.395,20.867 121.174,20.406 122.339,20.406 C123.433,20.406 124.161,20.812 124.526,21.622 C124.749,22.128 124.86,22.994 124.86,24.22 L124.86,24.57 L124.86,24.57 Z M123.645,23.748 C123.645,23.01 123.595,22.488 123.493,22.184 C123.311,21.577 122.921,21.273 122.323,21.273 C121.493,21.273 121.023,21.769 120.911,22.761 C120.871,23.105 120.851,23.435 120.851,23.748 L123.645,23.748 L123.645,23.748 Z M129.965,21.577 C129.879813,21.5607598 129.793609,21.550402 129.707,21.546 C129.128,21.546 128.696,21.723 128.408,22.078 C128.119,22.432 127.975,22.904 127.975,23.49 L127.975,28.23 L126.76,28.23 L126.76,21.97 C126.76,21.454 126.744,20.99 126.714,20.574 L127.898,20.574 L127.898,21.577 C128.314,20.807 128.962,20.422 129.842,20.422 C129.924,20.422 129.965,20.806 129.965,21.577 M136.603,28.23 L135.403,28.23 L135.387,27.258 C134.921,27.986 134.278,28.35 133.458,28.35 C132.091,28.35 131.407,27.567 131.407,25.997 L131.407,20.574 L132.607,20.574 L132.607,25.464 C132.607,26.094 132.659,26.538 132.759,26.802 C132.931,27.237 133.286,27.455 133.823,27.455 C134.825,27.455 135.327,26.71 135.327,25.222 L135.327,20.574 L136.542,20.574 L136.542,26.544 C136.542,27.141 136.562,27.703 136.602,28.23 M143.94,28.23 L142.74,28.23 L142.74,23.338 C142.74,22.68 142.693,22.228 142.602,21.987 C142.43,21.54 142.08,21.317 141.555,21.317 C141.039,21.317 140.638,21.571 140.355,22.078 C140.122,22.512 140.005,23.03 140.005,23.627 L140.005,28.23 L138.805,28.23 L138.805,22.245 C138.805,21.566 138.785,21.009 138.744,20.574 L139.93,20.574 L139.93,21.622 C140.354,20.812 141.017,20.406 141.92,20.406 C143.266,20.406 143.94,21.202 143.94,22.792 L143.94,28.23 M151.26,20.574 C151.26,20.686 151.254,20.884 151.238,21.174 C151.223,21.462 151.216,21.687 151.216,21.85 L151.216,28.548 C151.216,29.48 150.997,30.158 150.563,30.585 C150.127,31.009 149.433,31.222 148.48,31.222 C146.901,31.222 146.101,30.482 146.081,29.004 L147.357,29.004 C147.357,29.935 147.752,30.402 148.542,30.402 C149.159,30.402 149.569,30.179 149.772,29.734 C149.913,29.439 149.985,28.954 149.985,28.275 L149.985,27.241 C149.56,27.84 148.967,28.138 148.208,28.138 C147.256,28.138 146.603,27.738 146.248,26.939 C146.015,26.412 145.9,25.592 145.9,24.478 C145.9,23.242 146.026,22.32 146.279,21.713 C146.643,20.841 147.291,20.406 148.222,20.406 C149.073,20.406 149.686,20.761 150.062,21.469 L150.062,20.574 L151.26,20.574 L151.26,20.574 Z M150.016,24.159 C150.016,23.297 149.944,22.66 149.803,22.245 C149.58,21.617 149.165,21.303 148.557,21.303 C147.929,21.303 147.514,21.657 147.311,22.366 C147.19,22.792 147.13,23.495 147.13,24.478 C147.13,25.358 147.19,25.986 147.311,26.361 C147.505,26.989 147.894,27.303 148.481,27.303 C149.171,27.303 149.626,26.923 149.849,26.163 C149.959,25.768 150.016,25.1 150.016,24.159 L150.016,24.159 Z" id="Shape" fill="#000000"></path>
        </g>
    </g>
</svg>