<?xml version="1.0" encoding="UTF-8"?>
<svg width="95px" height="67px" viewBox="0 0 95 67" version="1.1" xmlns="http://www.w3.org/2000/svg" xmlns:xlink="http://www.w3.org/1999/xlink">
    <!-- Generator: Sketch 63.1 (92452) - https://sketch.com -->
    <title>db_bw</title>
    <desc>Created with Sketch.</desc>
    <g id="Page-1" stroke="none" stroke-width="1" fill="none" fill-rule="evenodd">
        <path d="M85.1926471,3.74799932e-07 C90.3003437,3.74799932e-07 94.6066437,4.11319277 94.6066437,9.43008935 L94.6066437,9.43008935 L94.6066437,56.6931803 C94.6066437,62.0100769 90.3003437,66.2230416 85.1926471,66.2230416 L85.1926471,66.2230416 L9.50733231,66.2230416 C4.3063003,66.2230416 2.86000006e-07,62.0100769 2.86000006e-07,56.6931803 L2.86000006e-07,56.6931803 L2.86e-07,9.43008935 C2.85999999e-07,4.11319277 4.3063003,3.74799946e-07 9.50733231,3.74799946e-07 L9.50733231,3.74799946e-07 Z M85.1926471,6.72014569 L9.50733231,6.72014569 C8.00752976,6.72014569 6.9068163,7.92384988 6.9068163,9.43008935 L6.9068163,9.43008935 L6.9068163,56.6931803 C6.9068163,58.1994198 8.00752976,59.4063424 9.50733231,59.4063424 L9.50733231,59.4063424 L85.1926471,59.4063424 C86.6988865,59.4063424 87.6966093,58.1994198 87.6966093,56.6931803 L87.6966093,56.6931803 L87.6966093,9.43008935 C87.6966093,7.92384988 86.6988865,6.72014569 85.1926471,6.72014569 L85.1926471,6.72014569 Z M68.3761915,11.4351902 C76.6862562,11.4351902 81.1921008,14.8467582 81.1921008,22.9765892 C81.1921008,27.1927723 77.683979,30.2020328 73.8861957,32.1073613 C79.1902184,33.6071639 82.7948941,36.8288427 82.7948941,42.2390747 C82.7948941,51.07053 75.3827798,54.7878518 67.5747948,54.7878518 L67.5747948,54.7878518 L50.7583393,54.7878518 L50.7583393,11.4351902 Z M28.9339593,11.4351902 C40.1470753,11.4351902 46.149504,18.4610892 46.149504,32.908758 C46.149504,45.4543166 42.1457392,54.6816426 28.9339593,54.7878518 L28.9339593,54.7878518 L13.0154541,54.7878518 L13.0154541,11.4351902 Z M64.8745066,36.6196428 L61.0670679,36.6196428 L61.0670679,47.7619527 L64.7747343,47.7619527 L64.9966769,47.7604876 C68.6129105,47.7123511 71.7781041,46.4646557 71.7781041,42.0363117 C71.7781041,37.6238025 68.9780436,36.6196428 64.8745066,36.6196428 L64.8745066,36.6196428 Z M25.5320466,18.2583262 L23.4239551,18.2583262 L23.4239551,47.7619527 L27.128403,47.7619527 L27.3771256,47.7589091 C32.7316886,47.6269673 35.8439938,43.2017357 35.8439938,33.8099269 L35.8439938,33.8099269 L35.8424257,33.2041175 C35.7971842,24.7677973 34.7176823,18.2583262 25.5320466,18.2583262 L25.5320466,18.2583262 Z M63.9733377,18.1553355 L61.0670679,18.1553355 L61.0670679,28.596021 L64.674962,28.596021 L64.9055003,28.5936836 C68.1893978,28.5265581 70.5808369,27.0085154 70.5808369,23.3756783 C70.5808369,19.2624859 67.3720318,18.1553355 63.9733377,18.1553355 L63.9733377,18.1553355 Z" id="db_bw" fill="#000000" fill-rule="nonzero"></path>
    </g>
</svg>