<svg height="66.223038mm" viewBox="0 0 94.606644 66.223038" width="94.606644mm" xmlns="http://www.w3.org/2000/svg"><path d="m0 0h-23.516c-1.616 0-2.954-1.278-2.954-2.93v-14.685c0-1.652 1.338-2.961 2.954-2.961h23.516c1.587 0 2.925 1.309 2.925 2.961v14.685c0 1.652-1.338 2.93-2.925 2.93" fill="#e30613" transform="matrix(3.2184604 0 0 -3.2184604 85.192647074 .0000003748)"/><path d="m0 0c0-.468-.31-.843-.778-.843h-23.516c-.466 0-.808.375-.808.843v14.685c0 .468.342.842.808.842h23.516c.468 0 .778-.374.778-.842" fill="#fff" transform="matrix(3.2184604 0 0 -3.2184604 87.6966092652 56.6931803208)"/><g fill="#e30613"><path d="m0 0h-5.225v13.47h5.474c2.582 0 3.982-1.06 3.982-3.586 0-1.31-1.09-2.245-2.27-2.837 1.648-.466 2.768-1.467 2.768-3.148 0-2.744-2.303-3.899-4.729-3.899m-2.022 8.138h1.121c1.057 0 1.835.467 1.835 1.622 0 1.278-.997 1.622-2.053 1.622h-.903zm3.328-4.176c0 1.371-.87 1.683-2.145 1.683h-1.183v-3.462h1.152c1.152 0 2.176.375 2.176 1.779" transform="matrix(3.2184604 0 0 -3.2184604 67.5747948444 54.787851764)"/><path d="m0 0h-4.946v13.47h4.946c3.484 0 5.349-2.183 5.349-6.672 0-3.898-1.244-6.765-5.349-6.798m2.147 6.518c0 2.712-.282 4.832-3.204 4.832h-.655v-9.167h1.151c1.711 0 2.708 1.372 2.708 4.335" transform="matrix(3.2184604 0 0 -3.2184604 28.933959282 54.787851764)"/></g></svg>