<?xml version="1.0" encoding="utf-8"?>
<!-- Generator: Adobe Illustrator 21.0.1, SVG Export Plug-In . SVG Version: 6.00 Build 0)  -->
<svg version="1.1" id="Ebene_1" xmlns="http://www.w3.org/2000/svg" xmlns:xlink="http://www.w3.org/1999/xlink" x="0px" y="0px"
	 width="353.6px" height="98.1px" viewBox="0 0 353.6 98.1" style="enable-background:new 0 0 353.6 98.1;" xml:space="preserve">
<g>
	<path d="M266.8,93.3v-0.7l-1.1-0.2v-4c0-1.6-0.8-2.7-2.4-2.7c-1.2,0-2.1,0.6-2.6,1.8l-0.1,0v-1.7l-2.9,0.3v0.7l1.1,0.2v5.4
		l-1.1,0.2v0.7h4.1v-0.7l-1.1-0.2v-2.5c0-1.5,0.5-3.1,2-3.1c0.5,0,0.8,0.1,1.1,0.4v5.2l-1.1,0.2v0.7H266.8z M253.8,91.8
		c-0.3,0.3-0.8,0.5-1.2,0.5c-0.7,0-1.3-0.4-1.3-1.1c0-0.8,0.5-1.2,1.3-1.4l1.2-0.2V91.8z M257.3,92.7l-0.2-0.5
		c-0.2,0.1-0.4,0.2-0.6,0.2c-0.4,0-0.7-0.2-0.7-1V88c0-1.5-1-2.3-2.8-2.3c-1.4,0-2.3,0.5-3.1,1.4l0.6,0.7c0.5-0.7,1.2-1.2,2-1.2
		c0.9,0,1.3,0.4,1.3,1.3v1l-1.6,0.3c-1.5,0.3-2.7,0.8-2.7,2.4c0,1.2,1,2,2.2,2c0.9,0,1.6-0.6,2.2-1.1c0.3,0.7,0.8,1.1,1.6,1.1
		C256.1,93.6,256.8,93.2,257.3,92.7 M244.9,86.2c-0.3-0.3-0.8-0.5-1.2-0.5c-0.8,0-1.6,0.4-2.1,1.8l-0.1,0v-1.7l-2.9,0.3v0.7l1.1,0.2
		v5.4l-1.1,0.2v0.7h4.8v-0.7l-1.7-0.2v-2.9c0-1.3,0.4-2.1,1.2-2.4l1.5,0.7L244.9,86.2z M237.7,93.3v-0.7l-1.1-0.2v-6.7l-3.1,0.4v0.7
		l1.1,0.2v5.4l-1.1,0.2v0.7H237.7z M236.7,83.2c0-0.6-0.5-1.2-1.2-1.2c-0.6,0-1.2,0.5-1.2,1.2c0,0.7,0.5,1.2,1.2,1.2
		C236.1,84.4,236.7,83.8,236.7,83.2 M229.9,87.8c0,3-1.6,4.7-4.6,4.7c-0.3,0-0.7-0.1-1-0.1v-9.2c0.4-0.1,0.7-0.1,1-0.1
		C228.5,83,229.9,84.8,229.9,87.8 M232.3,87.6c0-3.5-2.6-5.4-6.1-5.4h-5.3v0.7l1.4,0.2v9.2l-1.4,0.2v0.7h5.4
		C229.9,93.3,232.3,91.2,232.3,87.6 M215.8,93.3v-0.7l-1.1-0.2v-6.7l-3.1,0.4v0.7l1.1,0.2v5.4l-1.1,0.2v0.7H215.8z M214.7,83.2
		c0-0.6-0.5-1.2-1.2-1.2c-0.7,0-1.2,0.5-1.2,1.2c0,0.7,0.5,1.2,1.2,1.2C214.2,84.4,214.7,83.8,214.7,83.2 M208.5,88.7h-3.2
		c0.1-1.1,0.6-2.2,1.8-2.2C208.2,86.5,208.5,87.5,208.5,88.7 M210.5,89.5v-0.5c0-2-1.2-3.3-3.3-3.3c-2.3,0-4,1.6-4,3.9
		c0,2.5,1.6,3.9,3.9,3.9c1.4,0,2.3-0.5,3.3-1.4l-0.5-0.6c-0.6,0.6-1.2,1-2.3,1c-1.4,0-2.3-1.4-2.3-2.8v-0.2H210.5z M200.1,89.6
		c0,1.7-0.8,3.1-2.1,3.1c-0.5,0-1-0.1-1.4-0.4V88c0.3-0.7,0.9-1.2,1.6-1.2C199.7,86.8,200.1,88.1,200.1,89.6 M202.2,89.5
		c0-2.4-1.5-3.7-3.1-3.7c-1.1,0-1.9,0.5-2.4,1.2v-5.8l-3.1,0.3v0.7l1.1,0.2v10.5c0.8,0.4,2.1,0.6,3.1,0.6
		C200.4,93.6,202.2,92,202.2,89.5 M189.4,92.5l-0.4-0.5c-0.3,0.4-0.6,0.5-1.2,0.5c-0.8,0-1.1-0.5-1.1-1.6v-4h2.2V86h-2.2v-2.6H186
		l-1.1,2.4l-1.2,0.4v0.7h1.2v4.4c0,1.3,0.8,2.2,2.1,2.2C188.2,93.6,189,93,189.4,92.5 M181.4,95.5c0,1.2-1.3,1.8-2.4,1.8
		c-1.6,0-2.5-1-2.5-2c0-0.5,0.2-0.9,0.4-1.2l3.1,0.3C180.9,94.5,181.4,94.8,181.4,95.5 M180.1,88.6c0,1.4-0.6,2.1-1.4,2.1
		c-0.8,0-1.4-0.7-1.4-2.1c0-1.4,0.6-2.1,1.4-2.1C179.6,86.5,180.1,87.2,180.1,88.6 M182.9,95c0-1.3-1-1.9-2.2-2l-3.4-0.3
		c-0.1-0.1-0.1-0.3-0.1-0.4c0-0.4,0.4-0.7,1.5-0.8c2-0.1,3.4-1.2,3.4-2.8c0-0.7-0.3-1.2-0.7-1.7l0,0l1.8,0.2v-1.4l-2.6,0.5
		c-0.5-0.3-1.2-0.5-1.8-0.5c-1.8,0-3.4,1.2-3.4,2.8c0,1.2,0.8,2.1,1.8,2.5v0.1c-0.9,0.3-1.4,0.9-1.4,1.6c0,0.5,0.3,0.9,0.6,1.2
		c-0.8,0.3-1.5,0.9-1.5,1.9c0,1.6,1.6,2.3,3.6,2.3C181.1,98.1,182.9,96.9,182.9,95 M174.5,93.3v-0.7l-1.1-0.2v-4
		c0-1.6-0.8-2.7-2.4-2.7c-1.2,0-2.1,0.6-2.6,1.8l-0.1,0v-1.7l-2.9,0.3v0.7l1.1,0.2v5.4l-1.1,0.2v0.7h4.1v-0.7l-1.1-0.2v-2.5
		c0-1.5,0.5-3.1,2-3.1c0.5,0,0.8,0.1,1.1,0.4v5.2l-1.1,0.2v0.7H174.5z M161.4,91.8c-0.3,0.3-0.8,0.5-1.2,0.5c-0.7,0-1.3-0.4-1.3-1.1
		c0-0.8,0.5-1.2,1.3-1.4l1.2-0.2V91.8z M164.9,92.7l-0.2-0.5c-0.2,0.1-0.4,0.2-0.6,0.2c-0.4,0-0.7-0.2-0.7-1V88c0-1.5-1-2.3-2.8-2.3
		c-1.4,0-2.3,0.5-3.1,1.4l0.6,0.7c0.5-0.7,1.2-1.2,2-1.2c0.9,0,1.3,0.4,1.3,1.3v1l-1.6,0.3c-1.5,0.3-2.7,0.8-2.7,2.4
		c0,1.2,1,2,2.2,2c0.9,0,1.6-0.6,2.2-1.1c0.3,0.7,0.8,1.1,1.6,1.1C163.8,93.6,164.5,93.2,164.9,92.7 M159.8,83.5c0-0.6-0.5-1-1-1
		s-1,0.5-1,1c0,0.6,0.5,1,1,1S159.8,84,159.8,83.5 M163.3,83.5c0-0.6-0.5-1-1-1s-1,0.5-1,1c0,0.6,0.5,1,1,1S163.3,84,163.3,83.5
		 M157.4,81.2c-0.7-0.3-1.1-0.4-1.8-0.4c-2.2,0-3.4,1.8-3.4,4v1.1l-1.2,0.3v0.7h1.2v5.5l-1.1,0.2v0.7h4.7v-0.7l-1.7-0.2v-5.5h2.2V86
		h-2.2v-2.6c0-1,0.3-1.6,0.7-1.7l2,1.1L157.4,81.2z M146.7,92.5l-0.4-0.5c-0.3,0.4-0.6,0.5-1.2,0.5c-0.8,0-1.1-0.5-1.1-1.6v-4h2.2
		V86H144v-2.6h-0.8l-1.1,2.4l-1.2,0.4v0.7h1.2v4.4c0,1.3,0.8,2.2,2.1,2.2C145.5,93.6,146.2,93,146.7,92.5 M141.5,81.2
		c-0.7-0.3-1.1-0.4-1.8-0.4c-2.2,0-3.4,1.8-3.4,4v1.1l-1.2,0.3v0.7h1.2v5.5l-1.1,0.2v0.7h4.7v-0.7l-1.7-0.2v-5.5h2.2V86h-2.2v-2.6
		c0-1,0.3-1.6,0.7-1.7l2,1.1L141.5,81.2z M134.5,93.3v-0.7l-1.1-0.2v-4c0-1.6-0.8-2.7-2.4-2.7c-1.2,0-2.1,0.6-2.6,1.8l-0.1,0v-1.7
		l-2.9,0.3v0.7l1.1,0.2v5.4l-1.1,0.2v0.7h4.1v-0.7l-1.1-0.2v-2.5c0-1.5,0.5-3.1,2-3.1c0.5,0,0.8,0.1,1.1,0.4v5.2l-1.1,0.2v0.7H134.5
		z M124.5,93.2v-0.7l-1.1-0.2V86h-3.1v0.7l1.2,0.2v2.5c0,1.6-0.5,3.1-2,3.1c-0.4,0-0.7-0.1-1-0.4V86h-3.1v0.7l1.1,0.3v4
		c0,1.6,0.8,2.7,2.4,2.7c1.2,0,2.1-0.7,2.6-1.8l0.1,0v1.8L124.5,93.2z M115.5,93.3v-0.6l-1-0.4l-2.9-3.8l2-1.7l1.3-0.2V86h-3.4v0.7
		l0.9,0.2v0l-2.6,2.3h-0.1v-8l-3.1,0.3v0.7l1.1,0.2v10.1l-1.1,0.2v0.7h4.3v-0.7l-1.2-0.2v-2.9h0.5l2.2,3.1l0.4,0.7H115.5z M106,93.2
		v-0.7l-1.1-0.2V86h-3.1v0.7l1.2,0.2v2.5c0,1.6-0.5,3.1-2,3.1c-0.4,0-0.7-0.1-1-0.4V86h-3.1v0.7l1.1,0.3v4c0,1.6,0.8,2.7,2.4,2.7
		c1.2,0,2.1-0.7,2.6-1.8l0.1,0v1.8L106,93.2z M96.3,90.1h-0.9l-0.5,2.2h-5.3l6.6-9.9v-0.3h-8.7v3.1h0.9l0.3-2.2h4.7L86.7,93l0.1,0.3
		h9.3L96.3,90.1z"/>
	<path d="M253.9,67.6h29.4v-1.4c-3.3-0.3-5.1-3-5.1-10.1V16.4c0-5.9,2.9-9.3,8-9.7c6-0.4,8.9,2.8,8.9,9.3v40.1c0,6-0.9,8.3-3.3,9.4
		c-0.5,0.3-1.2,0.5-1.8,0.7v1.4h27.7v-1.4l-0.7-0.3l-0.8-0.4c-2.8-1.3-3.7-3-3.7-9.4v-40c0-5.2,1.4-7.6,5.2-9
		c7.3-2.8,11.7,1,11.7,9.2v39.9c0,6-0.9,8.3-3.1,9.4c-0.7,0.4-1.2,0.5-2,0.7v1.4h29.4v-1.4c-2.4-0.3-4.5-1.4-5.8-3.8
		c-0.8-1.3-1.2-2.9-1.2-6.3V15.7c0-11.5-6-17.2-20.2-15.1c-4.5,0.5-8.5,2.5-12.2,5.8c-0.7,0.7-1.3,1.2-2,1.8c-1.8-6-7.7-9-20.2-7.3
		c-3.8,0.5-7.1,1.8-10.2,4.1c-1.4,1-2.6,2.2-3.8,3.5V0.4c-1.8,0.4-3.7,0.8-5.5,1.2c-6.3,1-12.5,1.8-18.6,2.4v1.4
		c0.3,0,0.5,0,0.8,0.1c3.3,0.4,4.7,2.4,5.4,7.6c0.1,0.8,0.3,1.7,0.3,2.6l0.1,3v1.8v35.5c0,3.4-0.4,5-1.2,6.3
		c-1.3,2.4-3.3,3.5-5.5,3.8V67.6z M206.1,66.2v1.4h31.2l0.1-1.4c-3.9-0.4-6.9-3.8-6.9-10.1V25.4c0-5.1,0.1-5.9,0.7-7.5
		c0.8-2.2,2-3.8,3.5-5c3.9-2.5,8.8-0.9,10,2.8h1.2c0.3-5.2,1.7-10.4,4.5-14.8c-0.7-0.1-1.2-0.3-1.8-0.4c-7.5-1-14.3,3.1-17.2,11.4
		c-0.4,1.2-0.8,2.5-0.9,3.8V0.4l-5.5,1.2c-6.3,1-12.5,1.8-18.6,2.4v1.4c0.3,0,0.5,0,0.8,0.1c3.3,0.4,4.9,2.4,5.5,7.6
		c0,0.9,0.1,1.7,0.1,2.6l0.1,3.4v1.4v35.5c0,3.4-0.4,5-1.2,6.3C210.3,64.7,208.4,65.9,206.1,66.2 M153.7,20.2
		c-0.4-13,4.1-18.1,11-17.7c5.6,0.5,10,5.5,14.6,22.6c3.9,15.3,4.7,24.4,4.3,28.8c-0.9,9.4-5,13.4-11,12.8
		c-6.3-0.4-11.1-6.7-16.4-30.4C154.3,28.3,153.8,23.8,153.7,20.2 M137.7,34.7c0,21.8,12.3,34.6,30.8,34.6s30.9-12.7,30.9-34.6
		c0-21.9-12.5-34.6-30.9-34.6S137.7,12.8,137.7,34.7 M64.1,67.6h29.6v-1.4c-0.3-0.1-0.5-0.1-0.7-0.3c-3.3-1.3-4.6-3.7-4.6-9.8V18.6
		c0-5.4,2.9-9.4,8.3-11c1.4-0.4,3.1-0.5,4.6-0.4c5.9,0.9,8.3,3.9,8.1,10.6v38.3c0,6.2-1.3,8.5-4.6,9.8c-0.3,0.1-0.5,0.1-0.8,0.3v1.4
		h29.8v-1.4c-2.2-0.3-4.2-1.4-5.5-3.8c-0.9-1.3-1.3-3.1-1.3-6.3V18.3c0-13.9-6.7-20.2-21.8-17.6c-4.7,0.8-9.3,3-14.2,7.3
		c-0.9,0.8-1.7,1.6-2.5,2.4V0.4c-8,1.8-16.1,3-24.4,3.5v1.4c0.3,0,0.7,0,0.9,0.1c3.5,0.5,5.1,2.8,5.5,10.2l0.1,3.3l0.1,1.6v35.5
		c0,6.4-2.8,9.7-6.8,10.1V67.6z M18.8,28.3c0-1.2,0-2.5,0.1-3.8c0.1-2.8,0.5-5.2,0.9-7.6c1.3-7.3,2.8-10.6,4.6-12.5
		C28.1,0.4,34.3,1,37,5.4c0.9,1.3,1.4,2.9,2.2,6c0.4,1.6,0.5,3.3,0.8,6.8c0.3,2.4,0.3,4.5,0.3,6.8v3.3H18.8z M58,31.4
		c0.1-1.3,0.1-2.5,0-3.7C57.1,8.4,42.5-3.2,24.4,0.8c-3.8,0.8-7.5,2.4-10.6,4.5C3.4,12.2-1.3,22.9,0.3,40.4
		c1.3,15.2,10.5,25.7,23.5,28.1c17.3,3.1,31.2-6.6,33.8-22.6c0.3-1.4,0.4-2.8,0.4-4.2l-1.4-0.1c-0.1,0.7-0.4,1.3-0.5,2
		c-2.4,7.3-7.3,11.9-14.6,13.2C29,59,19.4,50.6,18.8,34.9c-0.1-1.2-0.1-2.4,0-3.4H58z"/>
</g>
</svg>
