<svg height="151" viewBox="0 0 322 151" width="322" xmlns="http://www.w3.org/2000/svg"><g fill="#8cd024"><path d="m123.11123 6.11725c11.77645 0 21.33651 9.55267 21.33651 21.33651 0 11.79123-9.56006 21.3439-21.33651 21.3439-11.79123 0-21.33651-9.55267-21.33651-21.3439 0-11.78384 9.54528-21.33651 21.33651-21.33651m0 48.79767c15.16015 0 27.45377-12.29362 27.45377-27.46116 0-15.16015-12.29362-27.45376-27.45377-27.45376-15.16754 0-27.46115 12.29361-27.46115 27.45376 0 15.16754 12.29361 27.46116 27.46115 27.46116"/><path d="m54.26773 75.2873c0-11.59914 9.40491-21.00405 21.01144-21.00405v-6.00644c-14.93113 0-27.03265 12.07936-27.03265 27.01049s12.10152 27.03265 27.03265 27.03265 27.0031-12.10152 27.0031-27.03265h-5.95472c0 11.60653-9.44924 21.01144-21.04838 21.01144-11.60653 0-21.01144-9.40491-21.01144-21.01144"/><path d="m36.27429 75.28582c0 21.54338 17.46521 39.00858 39.00858 39.00858 21.53599 0 39.04552-17.4652 39.04552-39.00858h-5.97688c0 18.23356-14.84247 33.01692-33.06864 33.01692-18.24094 0-33.01692-14.78336-33.01692-33.01692s14.78336-33.00953 33.01692-33.00953v-5.99905c-21.54337 0-39.00858 17.4652-39.00858 39.00858"/><path d="m24.16647 75.28582c0 28.2295 22.88837 51.11011 51.11049 51.11011 28.2295 0 51.05839-22.88061 51.05839-51.11011h-6.02122c0 24.85319-20.18398 45.00024-45.03717 45.00024-24.8532 0-44.99286-20.14705-44.99286-45.00024 0-24.84581 20.13966-44.99285 44.99286-44.99285l.007-6.05815c-28.2295 0-51.11749 22.8215-51.11749 51.051"/><path d="m75.28139 12.05054c-34.92302 0-63.2338 28.31077-63.2338 63.2338 0 34.92302 28.31078 63.23379 63.2338 63.23379s63.18947-28.30338 63.18947-63.22641l-6.00644-.007c0 31.56148-25.62893 57.1387-57.18303 57.1387-31.56149 0-57.1387-25.57722-57.1387-57.1387 0-31.5541 25.57721-57.13871 57.1387-57.13871z"/><path d="m75.2836 144.56964c-38.26978 0-69.29195-31.02216-69.29195-69.28456 0-38.26978 31.02217-69.28456 69.29195-69.28456v-5.99904c-41.5796 0-75.2836 33.704-75.2836 75.2836s33.704 75.28361 75.2836 75.28361 75.2836-33.70401 75.2836-75.28361h-5.95471c0 38.2624-31.0665 69.28456-69.32889 69.28456"/><path d="m185.79609 65.74349c3.00691 0 6.70091-.67231 8.71783-1.61797v-16.30529h-10.26192v5.12726h4.07817v7.3215c-.71663.1256-1.80267.17731-2.68923.17731-4.54361 0-8.06768-2.40109-8.06768-10.10677 0-7.58007 3.56101-9.98856 8.85081-9.98856 2.2164 0 5.13465.47283 6.98165 1.22641l.63537-5.17898c-2.05387-.82746-5.40062-1.34462-7.96426-1.34462-9.13155 0-15.01978 4.78003-15.01978 15.36702 0 10.35057 5.45234 15.32269 14.73904 15.32269"/><path d="m289.25379 65.15319h6.35367v-29.61845h-6.35367v11.69519h-9.52312v-11.69519h-6.36106v29.61845h6.36106v-12.64085h9.52312z"/><path d="m263.35742 65.15319v-24.29171h6.43494v-5.32674h-19.30482v5.32674h6.43494v24.29171z"/><path d="m235.52169 52.54411h10.454v-5.22331h-10.454v-6.50143h12.31578v-5.2898h-18.67684v29.62584h19.09056v-5.2898h-12.7295z"/><path d="m211.72276 39.93429c4.03384 0 5.96949 2.52669 5.96949 10.38751 0 7.82388-1.93565 10.46878-5.92516 10.46878-4.03384 0-6.00644-2.60796-6.00644-10.46878 0-7.82388 1.9726-10.38751 5.96211-10.38751m0 26.08699c8.41492 0 12.47831-4.52145 12.47831-15.69948 0-10.94161-4.06339-15.65515-12.47831-15.65515s-12.47831 4.71354-12.47831 15.65515 4.22593 15.69948 12.47831 15.69948"/><path d="m320.99703 59.86856h-12.7295v-7.3215h10.454v-5.23069h-10.454v-6.50143h12.30838v-5.28241h-18.66944v29.61844h19.09056z"/><path d="m228.30067 80.46332h5.88823v23.44209h6.2133v-23.44209h5.88822v-5.14943h-17.98975z"/><path d="m179.4668 103.90541v-28.58413h-6.2724v28.58413z"/><path d="m294.58718 93.9597c0 3.31721-1.13775 5.14943-4.22593 5.14943-3.06601 0-4.27026-1.86916-4.27026-5.14943v-18.6399h-6.22068v18.86893c0 6.86344 3.53146 10.2102 10.47616 10.2102 6.86345 0 10.3949-3.34676 10.3949-10.2102v-18.86893h-6.15419z"/><path d="m216.30775 82.93682c0-1.4776.76096-2.94781 3.87131-2.94781 1.95043 0 3.67921.52455 5.408 1.27812l.68709-4.99428c-1.97998-.91611-4.03385-1.4111-6.62703-1.4111-6.59747 0-9.44185 3.8122-9.44185 8.65133 0 9.19805 11.36273 7.43971 11.36273 12.54481 0 1.9652-1.2338 3.28765-3.83437 3.28765-2.55624 0-4.72092-.86439-6.84866-2.06863l-.79791 5.1051c2.20901 1.29289 4.94257 2.01692 7.91993 2.01692 6.17636 0 9.67087-3.42803 9.67087-9.02813 0-9.50095-11.37011-8.01596-11.37011-12.43398"/><path d="m200.17017 92.00705-8.79171-16.68947h-5.67397v28.59152h5.67397v-16.68947l8.79171 16.68947h5.67398v-28.59152h-5.67398z"/><path d="m303.63599 75.31685v5.14943h5.88823v23.44209h6.2133v-23.44209h5.88822v-5.14943z"/><path d="m255.7404 103.90541v-28.58413h-6.2724v28.58413z"/><path d="m258.91724 80.46332h5.88823v23.44209h6.2133v-23.44209h5.88822v-5.14943h-17.98975z"/></g></svg>