<?xml version="1.0" encoding="UTF-8"?>
<svg width="322px" height="151px" viewBox="0 0 322 151" version="1.1" xmlns="http://www.w3.org/2000/svg" xmlns:xlink="http://www.w3.org/1999/xlink">
    <!-- Generator: Sketch 63.1 (92452) - https://sketch.com -->
    <title>goethe_institut_bw</title>
    <desc>Created with Sketch.</desc>
    <g id="Page-1" stroke="none" stroke-width="1" fill="none" fill-rule="evenodd">
        <g id="goethe_institut_bw" transform="translate(0.000000, 0.000000)" fill="#000000" fill-rule="nonzero">
            <path d="M123.11123,6.11725 C134.88768,6.11725 144.44774,15.66992 144.44774,27.45376 C144.44774,39.24499 134.88768,48.79766 123.11123,48.79766 C111.32,48.79766 101.77472,39.24499 101.77472,27.45376 C101.77472,15.66992 111.32,6.11725 123.11123,6.11725 M123.11123,54.91492 C138.27138,54.91492 150.565,42.6213 150.565,27.45376 C150.565,12.29361 138.27138,0 123.11123,0 C107.94369,0 95.65008,12.29361 95.65008,27.45376 C95.65008,42.6213 107.94369,54.91492 123.11123,54.91492" id="Shape"></path>
            <path d="M54.26773,75.2873 C54.26773,63.68816 63.67264,54.28325 75.27917,54.28325 L75.27917,48.27681 C60.34804,48.27681 48.24652,60.35617 48.24652,75.2873 C48.24652,90.21843 60.34804,102.31995 75.27917,102.31995 C90.2103,102.31995 102.28227,90.21843 102.28227,75.2873 L96.32755,75.2873 C96.32755,86.89383 86.87831,96.29874 75.27917,96.29874 C63.67264,96.29874 54.26773,86.89383 54.26773,75.2873" id="Path"></path>
            <path d="M36.27429,75.28582 C36.27429,96.8292 53.7395,114.2944 75.28287,114.2944 C96.81886,114.2944 114.32839,96.8292 114.32839,75.28582 L108.35151,75.28582 C108.35151,93.51938 93.50904,108.30274 75.28287,108.30274 C57.04193,108.30274 42.26595,93.51938 42.26595,75.28582 C42.26595,57.05226 57.04931,42.27629 75.28287,42.27629 L75.28287,36.27724 C53.7395,36.27724 36.27429,53.74244 36.27429,75.28582" id="Path"></path>
            <path d="M24.16647,75.28582 C24.16647,103.51532 47.05484,126.39593 75.27696,126.39593 C103.50646,126.39593 126.33535,103.51532 126.33535,75.28582 L120.31413,75.28582 C120.31413,100.13901 100.13015,120.28606 75.27696,120.28606 C50.42376,120.28606 30.2841,100.13901 30.2841,75.28582 C30.2841,50.44001 50.42376,30.29297 75.27696,30.29297 L75.28396,24.23482 C47.05446,24.23482 24.16647,47.05632 24.16647,75.28582" id="Path"></path>
            <path d="M75.28139,12.05054 C40.35837,12.05054 12.04759,40.36131 12.04759,75.28434 C12.04759,110.20736 40.35837,138.51813 75.28139,138.51813 C110.20441,138.51813 138.47086,110.21475 138.47086,75.29172 L132.46442,75.28472 C132.46442,106.8462 106.83549,132.42342 75.28139,132.42342 C43.7199,132.42342 18.14269,106.8462 18.14269,75.28472 C18.14269,43.73062 43.7199,18.14601 75.28139,18.14601 L75.28139,12.05054 Z" id="Path"></path>
            <path d="M75.2836,144.56964 C37.01382,144.56964 5.99165,113.54748 5.99165,75.28508 C5.99165,37.0153 37.01382,6.00052 75.2836,6.00052 L75.2836,0.00148 C33.704,0.00148 0,33.70548 0,75.28508 C0,116.86468 33.704,150.56869 75.2836,150.56869 C116.8632,150.56869 150.5672,116.86468 150.5672,75.28508 L144.61249,75.28508 C144.61249,113.54748 113.54599,144.56964 75.2836,144.56964" id="Path"></path>
            <path d="M185.79609,65.74349 C188.803,65.74349 192.497,65.07118 194.51392,64.12552 L194.51392,47.82023 L184.252,47.82023 L184.252,52.94749 L188.33017,52.94749 L188.33017,60.26899 C187.61354,60.39459 186.5275,60.4463 185.64094,60.4463 C181.09733,60.4463 177.57326,58.04521 177.57326,50.33953 C177.57326,42.75946 181.13427,40.35097 186.42407,40.35097 C188.64047,40.35097 191.55872,40.8238 193.40572,41.57738 L194.04109,36.3984 C191.98722,35.57094 188.64047,35.05378 186.07683,35.05378 C176.94528,35.05378 171.05705,39.83381 171.05705,50.4208 C171.05705,60.77137 176.50939,65.74349 185.79609,65.74349" id="Path"></path>
            <polygon id="Path" points="289.25379 65.15319 295.60746 65.15319 295.60746 35.53474 289.25379 35.53474 289.25379 47.22993 279.73067 47.22993 279.73067 35.53474 273.36961 35.53474 273.36961 65.15319 279.73067 65.15319 279.73067 52.51234 289.25379 52.51234"></polygon>
            <polygon id="Path" points="263.35742 65.15319 263.35742 40.86148 269.79236 40.86148 269.79236 35.53474 250.48754 35.53474 250.48754 40.86148 256.92248 40.86148 256.92248 65.15319"></polygon>
            <polygon id="Path" points="235.52169 52.54411 245.97569 52.54411 245.97569 47.3208 235.52169 47.3208 235.52169 40.81937 247.83747 40.81937 247.83747 35.52957 229.16063 35.52957 229.16063 65.15541 248.25119 65.15541 248.25119 59.86561 235.52169 59.86561"></polygon>
            <path d="M211.72276,39.93429 C215.7566,39.93429 217.69225,42.46098 217.69225,50.3218 C217.69225,58.14568 215.7566,60.79058 211.76709,60.79058 C207.73325,60.79058 205.76065,58.18262 205.76065,50.3218 C205.76065,42.49792 207.73325,39.93429 211.72276,39.93429 M211.72276,66.02128 C220.13768,66.02128 224.20107,61.49983 224.20107,50.3218 C224.20107,39.38019 220.13768,34.66665 211.72276,34.66665 C203.30784,34.66665 199.24445,39.38019 199.24445,50.3218 C199.24445,61.26341 203.47038,66.02128 211.72276,66.02128" id="Shape"></path>
            <polygon id="Path" points="320.99703 59.86856 308.26753 59.86856 308.26753 52.54706 318.72153 52.54706 318.72153 47.31637 308.26753 47.31637 308.26753 40.81494 320.57591 40.81494 320.57591 35.53253 301.90647 35.53253 301.90647 65.15097 320.99703 65.15097"></polygon>
            <polygon id="Path" points="228.30067 80.46332 234.1889 80.46332 234.1889 103.90541 240.4022 103.90541 240.4022 80.46332 246.29042 80.46332 246.29042 75.31389 228.30067 75.31389"></polygon>
            <polygon id="Path" points="179.4668 103.90541 179.4668 75.32128 173.1944 75.32128 173.1944 103.90541"></polygon>
            <path d="M294.58718,93.9597 C294.58718,97.27691 293.44943,99.10913 290.36125,99.10913 C287.29524,99.10913 286.09099,97.23997 286.09099,93.9597 L286.09099,75.3198 L279.87031,75.3198 L279.87031,94.18873 C279.87031,101.05217 283.40177,104.39893 290.34647,104.39893 C297.20992,104.39893 300.74137,101.05217 300.74137,94.18873 L300.74137,75.3198 L294.58718,75.3198 L294.58718,93.9597 Z" id="Path"></path>
            <path d="M216.30775,82.93682 C216.30775,81.45922 217.06871,79.98901 220.17906,79.98901 C222.12949,79.98901 223.85827,80.51356 225.58706,81.26713 L226.27415,76.27285 C224.29417,75.35674 222.2403,74.86175 219.64712,74.86175 C213.04965,74.86175 210.20527,78.67395 210.20527,83.51308 C210.20527,92.71113 221.568,90.95279 221.568,96.05789 C221.568,98.02309 220.3342,99.34554 217.73363,99.34554 C215.17739,99.34554 213.01271,98.48115 210.88497,97.27691 L210.08706,102.38201 C212.29607,103.6749 215.02963,104.39893 218.00699,104.39893 C224.18335,104.39893 227.67786,100.9709 227.67786,95.3708 C227.67786,85.86985 216.30775,87.35484 216.30775,82.93682" id="Path"></path>
            <polygon id="Path" points="200.17017 92.00705 191.37846 75.31758 185.70449 75.31758 185.70449 103.9091 191.37846 103.9091 191.37846 87.21963 200.17017 103.9091 205.84415 103.9091 205.84415 75.31758 200.17017 75.31758"></polygon>
            <polygon id="Path" points="303.63599 75.31685 303.63599 80.46628 309.52422 80.46628 309.52422 103.90837 315.73752 103.90837 315.73752 80.46628 321.62574 80.46628 321.62574 75.31685"></polygon>
            <polygon id="Path" points="255.7404 103.90541 255.7404 75.32128 249.468 75.32128 249.468 103.90541"></polygon>
            <polygon id="Path" points="258.91724 80.46332 264.80547 80.46332 264.80547 103.90541 271.01877 103.90541 271.01877 80.46332 276.90699 80.46332 276.90699 75.31389 258.91724 75.31389"></polygon>
        </g>
    </g>
</svg>