<?xml version="1.0" encoding="UTF-8"?>
<svg width="630px" height="136px" viewBox="0 0 630 136" version="1.1" xmlns="http://www.w3.org/2000/svg" xmlns:xlink="http://www.w3.org/1999/xlink">
    <!-- Generator: Sketch 63.1 (92452) - https://sketch.com -->
    <title>google_org_bw</title>
    <desc>Created with Sketch.</desc>
    <g id="Page-1" stroke="none" stroke-width="1" fill="none" fill-rule="evenodd">
        <g id="google_org_bw" transform="translate(0.550000, 0.350000)" fill="#000000" fill-rule="nonzero">
            <path d="M-7.10542736e-15,52.5 C-7.10542736e-15,23.6000004 24.3,0 53.3,0 C69.3,0 80.7,6.3000001 89.3,14.5 L79.2,24.6000004 C73.1,18.8000004 64.7,14.4000004 53.3,14.4000004 C32.2,14.4000004 15.7,31.4000004 15.7,52.5 C15.7,73.6000004 32.2,90.6000004 53.3,90.6000004 C67,90.6000004 74.8,85.1000004 79.8,80.1000004 C83.9,76 86.6,70.1000004 87.6,62.1000004 L53.3,62.1000004 L53.3,47.8000004 L101.6,47.8000004 C102.1,50.4000004 102.4,53.4000004 102.4,56.8000004 C102.4,67.6000004 99.5,80.9000004 90,90.3000004 C80.8,99.9000004 69,105 53.4,105 C24.3,104.9 -7.10542736e-15,81.4000004 -7.10542736e-15,52.5 L-7.10542736e-15,52.5 Z" id="Path"></path>
            <path d="M141.3,37.4000004 C122.6,37.4000004 107.4,51.6000004 107.4,71.2000004 C107.4,90.7000004 122.6,105 141.3,105 C160,105 175.2,90.7000004 175.2,71.2000004 C175.2,51.6000004 160,37.4000004 141.3,37.4000004 Z M141.3,91.6000004 C131.1,91.6000004 122.2,83.2000004 122.2,71.1000004 C122.2,58.9000004 131,50.6000004 141.3,50.6000004 C151.5,50.6000004 160.4,58.9000004 160.4,71.1000004 C160.4,83.2000004 151.5,91.6000004 141.3,91.6000004 Z" id="Shape"></path>
            <path d="M215.3,37.4000004 C196.6,37.4000004 181.4,51.6000004 181.4,71.2000004 C181.4,90.7000004 196.6,105 215.3,105 C234,105 249.2,90.7000004 249.2,71.2000004 C249.2,51.6000004 234,37.4000004 215.3,37.4000004 Z M215.3,91.6000004 C205.1,91.6000004 196.2,83.2000004 196.2,71.1000004 C196.2,58.9000004 205,50.6000004 215.3,50.6000004 C225.6,50.6000004 234.4,58.9000004 234.4,71.1000004 C234.4,83.2000004 225.5,91.6000004 215.3,91.6000004 Z" id="Shape"></path>
            <path d="M306.1,39.4000004 L306.1,44.9000004 L305.6,44.9000004 C302.3,40.9000004 295.9,37.3000004 287.8,37.3000004 C270.9,37.3000004 255.4,52.1000004 255.4,71.2000004 C255.4,90.1000004 270.9,104.9 287.8,104.9 C295.9,104.9 302.3,101.3 305.6,97.2000034 L306.1,97.2000034 L306.1,102.1 C306.1,115 299.2,121.9 288.1,121.9 C279,121.9 273.4,115.4 271.1,109.9 L258.2,115.3 C261.9,124.3 271.8,135.3 288.2,135.3 C305.6,135.3 320.3,125.1 320.3,100.1 L320.3,39.4000004 L306.1,39.4000004 Z M289.1,91.6000004 C278.9,91.6000004 270.3,83.0000004 270.3,71.2000004 C270.3,59.3000004 278.9,50.6000004 289.1,50.6000004 C299.2,50.6000004 307.1,59.3000004 307.1,71.2000004 C307.2,83.1000004 299.2,91.6000004 289.1,91.6000004 L289.1,91.6000004 Z" id="Shape"></path>
            <polygon id="Path" points="330.5 3.6 345.3 3.6 345.3 102.9 330.5 102.9"></polygon>
            <path d="M386,91.6000004 C378.4,91.6000004 373.1,88.1000004 369.6,81.4000004 L414.8,62.7000004 L413.3,58.9000004 C410.5,51.3000004 401.9,37.4000004 384.4,37.4000004 C367,37.4000004 352.5,51.1000004 352.5,71.2000004 C352.5,90.1000004 366.8,105 386,105 C401.5,105 410.4,95.5000034 414.2,90.0000004 L402.7,82.3000004 C398.8,87.9000004 393.6,91.6000004 386,91.6000004 L386,91.6000004 Z M384.9,50.4000004 C390.8,50.4000004 395.8,53.3000004 397.4,57.6000004 L367.2,70.1000004 C366.8,57.1000004 377.3,50.4000004 384.9,50.4000004 Z" id="Shape"></path>
            <path d="M424.4,95.0000004 C424.4,90.1000004 428.2,86.3000004 433.1,86.3000004 C438,86.3000004 441.8,90.1000004 441.8,95.0000004 C441.8,99.9000004 438,103.7 433.1,103.7 C428.2,103.7 424.4,99.8000004 424.4,95.0000004 Z M516.1,71.5000004 C516.1,90.6000004 502.7,104.9 483.8,104.9 C464.9,104.9 451.5,90.6000004 451.5,71.5000004 C451.5,52.4000004 464.9,38.1000004 483.8,38.1000004 C502.7,38.1000004 516.1,52.5000004 516.1,71.5000004 Z M504.3,71.5000004 C504.3,57.2000004 494.3,48.8000004 483.8,48.8000004 C473.3,48.8000004 463.3,57.1000004 463.3,71.5000004 C463.3,85.9000004 473.3,94.2000004 483.8,94.2000004 C494.3,94.2000004 504.3,85.9000004 504.3,71.5000004 Z M525.6,102.9 L525.6,40.2000004 L536.9,40.2000004 L536.9,50.4000004 L537.4,50.4000004 C540,43.2000004 549,38.6000004 555.6,38.6000004 C559.4,38.6000004 562,39.1000004 564.4,40.1000004 L559.9,51.1000004 C558.2,50.5000004 556.2,50.2000004 553.6,50.2000004 C545.5,50.2000004 537.3,57.0000004 537.3,68.5000004 L537.3,102.9 L525.6,102.9 Z M568.4,114.3 L579.2,109.8 C581.5,116.5 588.3,121.8 596.7,121.8 C609.8,121.8 617.6,113.4 617.6,100.2 L617.6,94.2000004 L617.1,94.2000004 C613.3,100 605.7,105 595.7,105 C579.7,105 565.9,90.8000004 565.9,71.6000004 C565.9,52.4000004 579.7,38.2000004 595.7,38.2000004 C605.7,38.2000004 613.2,43.2000004 617.1,49.0000004 L617.6,49.0000004 L617.6,40.3000004 L628.9,40.3000004 L628.9,99.8000004 C628.9,122.6 613.3,132.7 596.8,132.7 C580.3,132.7 571.6,121.8 568.4,114.3 L568.4,114.3 Z M617.6,71.5000004 C617.6,57.2000004 608.1,48.8000004 597.6,48.8000004 C587.1,48.8000004 577.6,57.4000004 577.6,71.5000004 C577.6,85.6000004 587.1,94.2000004 597.6,94.2000004 C608.1,94.2000004 617.6,85.9000004 617.6,71.5000004 Z" id="Shape"></path>
        </g>
    </g>
</svg>