<?xml version="1.0" encoding="utf-8"?>
<!-- Generator: Adobe Illustrator 14.0.0, SVG Export Plug-In . SVG Version: 6.00 Build 43363)  -->
<!DOCTYPE svg PUBLIC "-//W3C//DTD SVG 1.1//EN" "http://www.w3.org/Graphics/SVG/1.1/DTD/svg11.dtd">
<svg version="1.1" id="Layer_1" xmlns="http://www.w3.org/2000/svg" xmlns:xlink="http://www.w3.org/1999/xlink" x="0px" y="0px"
	 width="400px" height="30px" viewBox="0 0 400 30" enable-background="new 0 0 400 30" xml:space="preserve">
<rect x="38.184" y="3.953" fill="#BCDB93" width="12.712" height="23.043"/>
<rect x="22.372" y="3.953" fill="#A0CF67" width="12.712" height="23.043"/>
<rect x="6.557" y="3.953" fill="#E0EECE" width="12.712" height="23.043"/>
<polygon fill="#1A171B" points="76.354,14.274 76.354,4.966 79.458,4.966 79.458,26.688 76.354,26.688 76.354,17.379 69.839,17.379 
	69.839,26.688 66.735,26.688 66.735,4.966 69.839,4.966 69.839,14.274 "/>
<polygon fill="#1A171B" points="96.861,4.966 96.861,8.07 88.482,8.07 88.482,14.274 95,14.274 95,17.379 88.482,17.379 
	88.482,23.584 96.861,23.584 96.861,26.688 85.38,26.688 85.38,4.966 "/>
<rect x="101.542" y="4.966" fill="#1A171B" width="3.102" height="21.722"/>
<polygon fill="#1A171B" points="123.912,4.966 123.912,26.688 121.43,26.688 113.361,12.414 113.361,26.688 110.258,26.688 
	110.258,4.966 112.741,4.966 120.809,19.238 120.809,4.966 "/>
<g>
	<defs>
		<rect id="SVGID_1_" x="6.558" width="386.217" height="26.996"/>
	</defs>
	<clipPath id="SVGID_2_">
		<use xlink:href="#SVGID_1_"  overflow="visible"/>
	</clipPath>
	<path clip-path="url(#SVGID_2_)" fill="#1A171B" d="M136.041,4.966c3.414,0,6.206,2.793,6.206,6.206c0,3.412-2.606,5.4-4.344,5.895
		l4.964,9.621h-3.507l-4.656-9.313h-2.078v9.313h-3.103V4.966H136.041z M132.626,8.07v6.205h3.445c1.706,0,3.072-1.395,3.072-3.103
		c0-1.706-1.366-3.102-3.072-3.102H132.626z"/>
	<rect x="147.546" y="4.966" clip-path="url(#SVGID_2_)" fill="#1A171B" width="3.103" height="21.722"/>
	<path clip-path="url(#SVGID_2_)" fill="#1A171B" d="M155.953,10.862c0-3.414,2.824-6.208,6.237-6.208
		c3.415,0,6.207,2.794,6.207,6.208v1.241h-3.103v-1.241c0-1.707-1.396-3.104-3.104-3.104c-1.707,0-3.134,1.396-3.134,3.104v9.929
		c0,1.707,1.427,3.135,3.134,3.135c1.708,0,3.104-1.428,3.104-3.135v-1.24h3.103v1.24c0,3.414-2.792,6.205-6.207,6.205
		c-3.413,0-6.237-2.791-6.237-6.205V10.862z"/>
	<polygon clip-path="url(#SVGID_2_)" fill="#1A171B" points="182.696,14.274 182.696,4.966 185.799,4.966 185.799,26.688 
		182.696,26.688 182.696,17.379 176.181,17.379 176.181,26.688 173.077,26.688 173.077,4.966 176.181,4.966 176.181,14.274 	"/>
	<path clip-path="url(#SVGID_2_)" fill="#1A171B" d="M206.645,4.965c3.411,0,6.203,2.794,6.203,6.208
		c0,2.792-1.519,4.032-1.674,4.251c0.155,0.094,2.638,1.613,2.638,5.025c0,3.414-2.823,6.238-6.236,6.238h-6.828V4.965H206.645z
		 M203.852,8.07v6.203h2.793c1.551,0,3.102-1.239,3.102-3.101c0-1.863-1.551-3.103-3.102-3.103H203.852z M203.852,17.379v6.205
		h3.724c1.861,0,3.134-1.273,3.134-3.135s-1.272-3.07-3.134-3.07H203.852z"/>
	<path clip-path="url(#SVGID_2_)" fill="#1A171B" d="M223.704,4.654c3.758,0,6.831,3.074,6.831,6.829v8.689
		c0,3.754-3.073,6.824-6.831,6.824c-3.752,0-6.824-3.07-6.824-6.824v-8.689C216.88,7.728,219.952,4.654,223.704,4.654
		 M220.292,0.001c1.023,0,1.862,0.838,1.862,1.861c0,1.025-0.839,1.863-1.862,1.863s-1.86-0.838-1.86-1.863
		C218.432,0.839,219.269,0.001,220.292,0.001 M223.704,23.895c2.05,0,3.726-1.674,3.726-3.723v-8.689
		c0-2.048-1.676-3.724-3.726-3.724c-2.046,0-3.722,1.675-3.722,3.724v8.689C219.982,22.221,221.658,23.895,223.704,23.895
		 M226.812,0.001c1.021,0,1.86,0.838,1.86,1.861c0,1.025-0.839,1.863-1.86,1.863c-1.024,0-1.864-0.838-1.864-1.863
		C224.947,0.839,225.787,0.001,226.812,0.001"/>
	<polygon clip-path="url(#SVGID_2_)" fill="#1A171B" points="237.976,4.966 237.976,23.584 246.352,23.584 246.352,26.688 
		234.871,26.688 234.871,4.966 	"/>
	<polygon clip-path="url(#SVGID_2_)" fill="#1A171B" points="253.178,4.966 253.178,23.584 261.554,23.584 261.554,26.688 
		250.072,26.688 250.072,4.966 	"/>
	<path clip-path="url(#SVGID_2_)" fill="#1A171B" d="M279.233,4.655c3.727,0,5.899,3.104,6.208,3.725l-2.732,1.426
		c-0.153-0.31-1.303-2.047-3.476-2.047c-2.172,0-3.412,1.086-3.412,2.483c0,1.396,0.931,2.483,3.072,3.474l3.011,1.491
		c1.954,0.992,3.849,2.793,3.849,5.893c0,3.105-2.766,5.896-6.52,5.896c-3.755,0-6.111-3.039-7.136-5.275l2.575-1.518
		c1.025,2.109,2.389,3.691,4.561,3.691c2.173,0,3.414-1.396,3.414-2.795c0-1.395-0.867-2.451-2.822-3.439l-3.012-1.492
		c-2.141-0.992-4.097-2.824-4.097-5.926C272.717,6.983,275.511,4.655,279.233,4.655"/>
	<polygon clip-path="url(#SVGID_2_)" fill="#1A171B" points="301.262,4.966 301.262,8.07 295.986,8.07 295.986,26.688 
		292.883,26.688 292.883,8.07 287.608,8.07 287.608,4.966 	"/>
	<rect x="304.98" y="4.966" clip-path="url(#SVGID_2_)" fill="#1A171B" width="3.105" height="21.722"/>
	<polygon clip-path="url(#SVGID_2_)" fill="#1A171B" points="324.528,4.966 324.528,8.07 316.15,8.07 316.15,14.274 322.666,14.274 
		322.666,17.379 316.15,17.379 316.15,26.688 313.047,26.688 313.047,4.966 	"/>
	<polygon clip-path="url(#SVGID_2_)" fill="#1A171B" points="340.348,4.966 340.348,8.07 335.075,8.07 335.075,26.688 
		331.973,26.688 331.973,8.07 326.694,8.07 326.694,4.966 	"/>
	<path clip-path="url(#SVGID_2_)" fill="#1A171B" d="M357.413,4.966v15.206c0,3.756-3.074,6.824-6.826,6.824
		c-3.756,0-6.829-3.068-6.829-6.824V4.966h3.104v15.206c0,2.049,1.677,3.723,3.726,3.723c2.047,0,3.721-1.674,3.721-3.723V4.966
		H357.413z"/>
	<polygon clip-path="url(#SVGID_2_)" fill="#1A171B" points="375.095,4.966 375.095,26.688 372.611,26.688 364.542,12.414 
		364.542,26.688 361.441,26.688 361.441,4.966 363.924,4.966 371.992,19.238 371.992,4.966 	"/>
	<path clip-path="url(#SVGID_2_)" fill="#1A171B" d="M379.123,11.483c0-3.755,3.072-6.827,6.825-6.827
		c3.756,0,6.827,3.072,6.827,6.827v0.62h-3.103v-0.62c0-2.049-1.678-3.724-3.725-3.724c-2.048,0-3.726,1.675-3.726,3.724v8.689
		c0,2.049,1.678,3.723,3.726,3.723c2.047,0,3.725-1.674,3.725-3.723v-2.793h-4.036v-3.103h7.139v5.896
		c0,3.752-3.071,6.826-6.827,6.826c-3.753,0-6.825-3.074-6.825-6.826V11.483z"/>
	<polygon clip-path="url(#SVGID_2_)" fill="#1A171B" points="76.354,14.274 76.354,4.966 79.458,4.966 79.458,26.688 76.354,26.688 
		76.354,17.379 69.839,17.379 69.839,26.688 66.735,26.688 66.735,4.966 69.839,4.966 69.839,14.274 	"/>
	<polygon clip-path="url(#SVGID_2_)" fill="#1A171B" points="96.861,4.966 96.861,8.07 88.482,8.07 88.482,14.274 95,14.274 
		95,17.379 88.482,17.379 88.482,23.584 96.861,23.584 96.861,26.688 85.38,26.688 85.38,4.966 	"/>
	<rect x="101.542" y="4.966" clip-path="url(#SVGID_2_)" fill="#1A171B" width="3.102" height="21.722"/>
	<polygon clip-path="url(#SVGID_2_)" fill="#1A171B" points="123.912,4.966 123.912,26.688 121.43,26.688 113.361,12.414 
		113.361,26.688 110.258,26.688 110.258,4.966 112.741,4.966 120.809,19.238 120.809,4.966 	"/>
	<path clip-path="url(#SVGID_2_)" fill="#1A171B" d="M136.041,4.966c3.414,0,6.206,2.793,6.206,6.206c0,3.412-2.606,5.4-4.344,5.895
		l4.964,9.621h-3.507l-4.656-9.313h-2.078v9.313h-3.103V4.966H136.041z M132.626,8.07v6.205h3.445c1.706,0,3.072-1.395,3.072-3.103
		c0-1.706-1.366-3.102-3.072-3.102H132.626z"/>
	<rect x="147.546" y="4.966" clip-path="url(#SVGID_2_)" fill="#1A171B" width="3.103" height="21.722"/>
	<path clip-path="url(#SVGID_2_)" fill="#1A171B" d="M155.953,10.862c0-3.414,2.824-6.208,6.237-6.208
		c3.415,0,6.207,2.794,6.207,6.208v1.241h-3.103v-1.241c0-1.707-1.396-3.104-3.104-3.104c-1.707,0-3.134,1.396-3.134,3.104v9.929
		c0,1.707,1.427,3.135,3.134,3.135c1.708,0,3.104-1.428,3.104-3.135v-1.24h3.103v1.24c0,3.414-2.792,6.205-6.207,6.205
		c-3.413,0-6.237-2.791-6.237-6.205V10.862z"/>
	<polygon clip-path="url(#SVGID_2_)" fill="#1A171B" points="182.696,14.274 182.696,4.966 185.799,4.966 185.799,26.688 
		182.696,26.688 182.696,17.379 176.181,17.379 176.181,26.688 173.077,26.688 173.077,4.966 176.181,4.966 176.181,14.274 	"/>
	<path clip-path="url(#SVGID_2_)" fill="#1A171B" d="M206.645,4.965c3.411,0,6.203,2.794,6.203,6.208
		c0,2.792-1.519,4.032-1.674,4.251c0.155,0.094,2.638,1.613,2.638,5.025c0,3.414-2.823,6.238-6.236,6.238h-6.828V4.965H206.645z
		 M203.852,8.07v6.203h2.793c1.551,0,3.102-1.239,3.102-3.101c0-1.863-1.551-3.103-3.102-3.103H203.852z M203.852,17.379v6.205
		h3.724c1.861,0,3.134-1.273,3.134-3.135s-1.272-3.07-3.134-3.07H203.852z"/>
	<path clip-path="url(#SVGID_2_)" fill="#1A171B" d="M223.704,4.654c3.758,0,6.831,3.074,6.831,6.829v8.689
		c0,3.754-3.073,6.824-6.831,6.824c-3.752,0-6.824-3.07-6.824-6.824v-8.689C216.88,7.728,219.952,4.654,223.704,4.654
		 M220.292,0.001c1.023,0,1.862,0.838,1.862,1.861c0,1.025-0.839,1.863-1.862,1.863s-1.86-0.838-1.86-1.863
		C218.432,0.839,219.269,0.001,220.292,0.001 M223.704,23.895c2.05,0,3.726-1.674,3.726-3.723v-8.689
		c0-2.048-1.676-3.724-3.726-3.724c-2.046,0-3.722,1.675-3.722,3.724v8.689C219.982,22.221,221.658,23.895,223.704,23.895
		 M226.812,0.001c1.021,0,1.86,0.838,1.86,1.861c0,1.025-0.839,1.863-1.86,1.863c-1.024,0-1.864-0.838-1.864-1.863
		C224.947,0.839,225.787,0.001,226.812,0.001"/>
	<polygon clip-path="url(#SVGID_2_)" fill="#1A171B" points="237.976,4.966 237.976,23.584 246.352,23.584 246.352,26.688 
		234.871,26.688 234.871,4.966 	"/>
	<polygon clip-path="url(#SVGID_2_)" fill="#1A171B" points="253.178,4.966 253.178,23.584 261.554,23.584 261.554,26.688 
		250.072,26.688 250.072,4.966 	"/>
	<path clip-path="url(#SVGID_2_)" fill="#1A171B" d="M279.233,4.655c3.727,0,5.899,3.104,6.208,3.725l-2.732,1.426
		c-0.153-0.31-1.303-2.047-3.476-2.047c-2.172,0-3.412,1.086-3.412,2.483c0,1.396,0.931,2.483,3.072,3.474l3.011,1.491
		c1.954,0.992,3.849,2.793,3.849,5.893c0,3.105-2.766,5.896-6.52,5.896c-3.755,0-6.111-3.039-7.136-5.275l2.575-1.518
		c1.025,2.109,2.389,3.691,4.561,3.691c2.173,0,3.414-1.396,3.414-2.795c0-1.395-0.867-2.451-2.822-3.439l-3.012-1.492
		c-2.141-0.992-4.097-2.824-4.097-5.926C272.717,6.983,275.511,4.655,279.233,4.655"/>
	<polygon clip-path="url(#SVGID_2_)" fill="#1A171B" points="301.262,4.966 301.262,8.07 295.986,8.07 295.986,26.688 
		292.883,26.688 292.883,8.07 287.608,8.07 287.608,4.966 	"/>
	<rect x="304.98" y="4.966" clip-path="url(#SVGID_2_)" fill="#1A171B" width="3.105" height="21.722"/>
	<polygon clip-path="url(#SVGID_2_)" fill="#1A171B" points="324.528,4.966 324.528,8.07 316.15,8.07 316.15,14.274 322.666,14.274 
		322.666,17.379 316.15,17.379 316.15,26.688 313.047,26.688 313.047,4.966 	"/>
	<polygon clip-path="url(#SVGID_2_)" fill="#1A171B" points="340.348,4.966 340.348,8.07 335.075,8.07 335.075,26.688 
		331.973,26.688 331.973,8.07 326.694,8.07 326.694,4.966 	"/>
	<path clip-path="url(#SVGID_2_)" fill="#1A171B" d="M357.413,4.966v15.206c0,3.756-3.074,6.824-6.826,6.824
		c-3.756,0-6.829-3.068-6.829-6.824V4.966h3.104v15.206c0,2.049,1.677,3.723,3.726,3.723c2.047,0,3.721-1.674,3.721-3.723V4.966
		H357.413z"/>
	<polygon clip-path="url(#SVGID_2_)" fill="#1A171B" points="375.095,4.966 375.095,26.688 372.611,26.688 364.542,12.414 
		364.542,26.688 361.441,26.688 361.441,4.966 363.924,4.966 371.992,19.238 371.992,4.966 	"/>
	<path clip-path="url(#SVGID_2_)" fill="#1A171B" d="M379.123,11.483c0-3.755,3.072-6.827,6.825-6.827
		c3.756,0,6.827,3.072,6.827,6.827v0.62h-3.103v-0.62c0-2.049-1.678-3.724-3.725-3.724c-2.048,0-3.726,1.675-3.726,3.724v8.689
		c0,2.049,1.678,3.723,3.726,3.723c2.047,0,3.725-1.674,3.725-3.723v-2.793h-4.036v-3.103h7.139v5.896
		c0,3.752-3.071,6.826-6.827,6.826c-3.753,0-6.825-3.074-6.825-6.826V11.483z"/>
</g>
</svg>
