<?xml version="1.0" encoding="UTF-8"?>
<svg width="130px" height="64px" viewBox="0 0 130 64" version="1.1" xmlns="http://www.w3.org/2000/svg" xmlns:xlink="http://www.w3.org/1999/xlink">
    <!-- Generator: Sketch 63.1 (92452) - https://sketch.com -->
    <title>Group</title>
    <desc>Created with Sketch.</desc>
    <defs>
        <polygon id="path-1" points="0.06 0.273 20.619 0.273 20.619 16.93 0.06 16.93"></polygon>
    </defs>
    <g id="Page-1" stroke="none" stroke-width="1" fill="none" fill-rule="evenodd">
        <g id="Group">
            <polyline id="Fill-1" fill="#1A1919" points="50.449 7.736 50.449 1.008 52.691 1.008 52.691 16.706 50.449 16.706 50.449 9.978 45.74 9.978 45.74 16.706 43.498 16.706 43.498 1.008 45.74 1.008 45.74 7.736 50.449 7.736"></polyline>
            <polyline id="Fill-2" fill="#1A1919" points="65.271 1.008 65.271 3.251 59.216 3.251 59.216 7.736 63.926 7.736 63.926 9.978 59.216 9.978 59.216 14.464 65.271 14.464 65.271 16.706 56.974 16.706 56.974 1.008 65.271 1.008"></polyline>
            <polygon id="Fill-3" fill="#1A1919" points="68.657 16.706 70.899 16.706 70.899 1.008 68.657 1.008"></polygon>
            <polyline id="Fill-4" fill="#1A1919" points="84.825 1.008 84.825 16.706 83.032 16.706 77.2 6.39 77.2 16.706 74.958 16.706 74.958 1.008 76.753 1.008 82.583 11.324 82.583 1.008 84.825 1.008"></polyline>
            <path d="M91.125,3.251 L91.125,7.736 L93.615,7.736 C94.849,7.736 95.834,6.727 95.834,5.494 C95.834,4.26 94.849,3.251 93.615,3.251 L91.125,3.251 Z M93.592,1.008 C96.06,1.008 98.076,3.027 98.076,5.494 C98.076,7.96 96.194,9.396 94.938,9.753 L98.526,16.706 L95.993,16.706 L92.63,9.978 L91.125,9.978 L91.125,16.706 L88.883,16.706 L88.883,1.008 L93.592,1.008 L93.592,1.008 Z" id="Fill-5" fill="#1A1919"></path>
            <polygon id="Fill-6" fill="#1A1919" points="101.912 16.706 104.154 16.706 104.154 1.008 101.912 1.008"></polygon>
            <path d="M107.987,5.269 C107.987,2.802 110.028,0.784 112.495,0.784 C114.962,0.784 116.979,2.802 116.979,5.269 L116.979,6.166 L114.737,6.166 L114.737,5.269 C114.737,4.036 113.729,3.027 112.495,3.027 C111.262,3.027 110.229,4.036 110.229,5.269 L110.229,12.445 C110.229,13.679 111.262,14.71 112.495,14.71 C113.729,14.71 114.737,13.679 114.737,12.445 L114.737,11.549 L116.979,11.549 L116.979,12.445 C116.979,14.912 114.962,16.93 112.495,16.93 C110.028,16.93 107.987,14.912 107.987,12.445 L107.987,5.269" id="Fill-7" fill="#1A1919"></path>
            <polyline id="Fill-8" fill="#1A1919" points="127.317 7.736 127.317 1.008 129.56 1.008 129.56 16.706 127.317 16.706 127.317 9.978 122.607 9.978 122.607 16.706 120.365 16.706 120.365 1.008 122.607 1.008 122.607 7.736 127.317 7.736"></polyline>
            <path d="M45.74,33.514 L45.74,37.999 L48.432,37.999 C49.777,37.999 50.697,37.078 50.697,35.734 C50.697,34.389 49.777,33.514 48.432,33.514 L45.74,33.514 Z M45.74,26.787 L45.74,31.271 L47.76,31.271 C48.881,31.271 50.002,30.375 50.002,29.029 C50.002,27.684 48.881,26.787 47.76,26.787 L45.74,26.787 Z M47.76,24.543 C50.228,24.543 52.244,26.563 52.244,29.029 C52.244,31.047 51.146,31.944 51.034,32.101 C51.146,32.168 52.939,33.267 52.939,35.734 C52.939,38.201 50.898,40.241 48.432,40.241 L43.498,40.241 L43.498,24.543 L47.76,24.543 L47.76,24.543 Z" id="Fill-9" fill="#1A1919"></path>
            <path d="M62.334,20.956 C63.075,20.956 63.681,21.562 63.681,22.301 C63.681,23.041 63.075,23.647 62.334,23.647 C61.594,23.647 60.988,23.041 60.988,22.301 C60.988,21.562 61.594,20.956 62.334,20.956 Z M60.092,38.223 C61.571,38.223 62.784,37.012 62.784,35.532 L62.784,29.254 C62.784,27.773 61.571,26.563 60.092,26.563 C58.611,26.563 57.4,27.773 57.4,29.254 L57.4,35.532 C57.4,37.012 58.611,38.223 60.092,38.223 Z M57.625,20.956 C58.366,20.956 58.971,21.562 58.971,22.301 C58.971,23.041 58.366,23.647 57.625,23.647 C56.885,23.647 56.279,23.041 56.279,22.301 C56.279,21.562 56.885,20.956 57.625,20.956 Z M60.092,24.32 C62.805,24.32 65.026,26.539 65.026,29.254 L65.026,35.532 C65.026,38.246 62.805,40.465 60.092,40.465 C57.378,40.465 55.158,38.246 55.158,35.532 L55.158,29.254 C55.158,26.539 57.378,24.32 60.092,24.32 L60.092,24.32 Z" id="Fill-10" fill="#1A1919"></path>
            <polyline id="Fill-11" fill="#1A1919" points="70.407 24.543 70.407 37.999 76.462 37.999 76.462 40.241 68.165 40.241 68.165 24.543 70.407 24.543"></polyline>
            <polyline id="Fill-12" fill="#1A1919" points="81.393 24.543 81.393 37.999 87.448 37.999 87.448 40.241 79.15 40.241 79.15 24.543 81.393 24.543"></polyline>
            <path d="M47.76,47.855 C50.449,47.855 52.02,50.098 52.244,50.546 L50.271,51.578 C50.158,51.354 49.328,50.098 47.76,50.098 C46.189,50.098 45.293,50.882 45.293,51.892 C45.293,52.9 45.965,53.686 47.513,54.403 L49.688,55.479 C51.101,56.197 52.47,57.498 52.47,59.74 C52.47,61.982 50.473,64 47.76,64 C45.046,64 43.342,61.805 42.602,60.188 L44.463,59.09 C45.204,60.613 46.189,61.758 47.76,61.758 C49.328,61.758 50.228,60.749 50.228,59.74 C50.228,58.732 49.599,57.969 48.185,57.25 L46.011,56.176 C44.463,55.458 43.051,54.134 43.051,51.892 C43.051,49.537 45.068,47.855 47.76,47.855" id="Fill-13" fill="#1A1919"></path>
            <polyline id="Fill-14" fill="#1A1919" points="63.681 48.079 63.681 50.322 59.867 50.322 59.867 63.777 57.625 63.777 57.625 50.322 53.812 50.322 53.812 48.079 63.681 48.079"></polyline>
            <polygon id="Fill-15" fill="#1A1919" points="66.369 63.777 68.611 63.777 68.611 48.079 66.369 48.079"></polygon>
            <polyline id="Fill-16" fill="#1A1919" points="80.497 48.079 80.497 50.322 74.441 50.322 74.441 54.807 79.15 54.807 79.15 57.049 74.441 57.049 74.441 63.777 72.199 63.777 72.199 48.079 80.497 48.079"></polyline>
            <polyline id="Fill-17" fill="#1A1919" points="91.933 48.079 91.933 50.322 88.122 50.322 88.122 63.777 85.877 63.777 85.877 50.322 82.067 50.322 82.067 48.079 91.933 48.079"></polyline>
            <path d="M104.267,48.079 L104.267,59.067 C104.267,61.781 102.045,64 99.333,64 C96.618,64 94.399,61.781 94.399,59.067 L94.399,48.079 L96.642,48.079 L96.642,59.067 C96.642,60.547 97.852,61.758 99.333,61.758 C100.812,61.758 102.022,60.547 102.022,59.067 L102.022,48.079 L104.267,48.079" id="Fill-18" fill="#1A1919"></path>
            <polyline id="Fill-19" fill="#1A1919" points="117.048 48.079 117.048 63.777 115.253 63.777 109.423 53.461 109.423 63.777 107.181 63.777 107.181 48.079 108.974 48.079 114.804 58.395 114.804 48.079 117.048 48.079"></polyline>
            <path d="M119.962,52.789 C119.962,50.074 122.182,47.855 124.894,47.855 C127.608,47.855 129.827,50.074 129.827,52.789 L129.827,53.236 L127.585,53.236 L127.585,52.789 C127.585,51.308 126.375,50.098 124.894,50.098 C123.415,50.098 122.204,51.308 122.204,52.789 L122.204,59.067 C122.204,60.547 123.415,61.758 124.894,61.758 C126.375,61.758 127.585,60.547 127.585,59.067 L127.585,57.049 L124.671,57.049 L124.671,54.807 L129.827,54.807 L129.827,59.067 C129.827,61.781 127.608,64 124.894,64 C122.182,64 119.962,61.781 119.962,59.067 L119.962,52.789" id="Fill-20" fill="#1A1919"></path>
            <polygon id="Fill-21" fill="#636463" points="22.861 16.93 32.05 16.93 32.05 0.273 22.861 0.273"></polygon>
            <g id="Group-25">
                <mask id="mask-2" fill="white">
                    <use xlink:href="#path-1"></use>
                </mask>
                <g id="Clip-23"></g>
                <polygon id="Fill-22" fill="#1A1919" mask="url(#mask-2)" points="11.431 16.93 20.619 16.93 20.619 0.273 11.431 0.273"></polygon>
                <polygon id="Fill-24" fill="#B4B5B4" mask="url(#mask-2)" points="0.06 16.93 9.188 16.93 9.188 0.273 0.06 0.273"></polygon>
            </g>
        </g>
    </g>
</svg>