<?xml version="1.0" encoding="utf-8"?>
<!DOCTYPE svg PUBLIC "-//W3C//DTD SVG 1.1//EN" "http://www.w3.org/Graphics/SVG/1.1/DTD/svg11.dtd">
<svg class="logo" width="457" height="53" viewBox="0 0 457 53" version="1.1" xmlns="http://www.w3.org/2000/svg">
	<path d="M 143.303 20.2614L 128.877 32.7244C 130.119 36.0104 135.249 39.2964 140.338 33.4056L 142.261 35.4894C 139.256 39.1361 133.766 40.1781 129.197 39.2163C 125.07 38.3347 121.744 34.4475 120.622 30.5203C 119.219 25.5912 120.421 20.4618 124.349 17.2559C 127.755 14.2504 136.411 10.6438 143.303 20.2614ZM 139.136 20.4217C 138.535 18.7386 136.892 16.8953 134.928 16.3743C 133.245 15.8533 131.281 16.4945 129.799 17.7769C 126.432 21.0228 126.472 25.8317 127.795 29.9993L 139.136 20.4217Z" />
	<path d="M 285.084 20.2614L 270.657 32.7244C 271.9 36.0104 277.029 39.2964 282.119 33.4056L 284.042 35.4894C 281.037 39.1361 275.546 40.1781 270.978 39.2163C 266.85 38.3347 263.524 34.4475 262.402 30.5203C 261 25.5912 262.202 20.4618 266.129 17.2559C 269.535 14.2504 278.231 10.6438 285.084 20.2614ZM 280.916 20.4217C 280.315 18.7386 278.672 16.8953 276.709 16.3743C 275.025 15.8533 273.062 16.4945 271.579 17.7769C 268.213 21.0228 268.253 25.8317 269.576 29.9993L 280.916 20.4217Z"/>
	<path d="M 340.145 20.2614L 325.719 32.7244C 326.961 36.0104 332.09 39.2964 337.18 33.4056L 339.103 35.4894C 336.098 39.1361 330.608 40.1781 326.039 39.2163C 321.912 38.3347 318.586 34.4475 317.464 30.5203C 316.061 25.5912 317.263 20.4618 321.19 17.2559C 324.637 14.2504 333.293 10.6438 340.145 20.2614ZM 336.018 20.4217C 335.417 18.7386 333.773 16.8953 331.81 16.3743C 330.127 15.8533 328.163 16.4945 326.68 17.7769C 323.314 21.0228 323.354 25.8317 324.677 29.9993L 336.018 20.4217Z"/>
	<path d="M 209.024 16.775C 208.944 16.8953 207.141 19.3397 207.141 19.3397C 204.055 16.9353 199.046 15.1721 195.399 16.8552C 192.674 18.2177 193.195 21.3034 197.082 22.3453C 199.607 23.1467 207.942 23.8681 208.864 30.1196C 209.184 32.6843 207.982 34.9685 205.939 36.5714C 201.21 40.178 193.716 39.3365 188.506 37.5332C 188.466 37.453 189.709 33.4056 189.709 33.4056C 191.352 34.4876 192.754 35.0085 194.357 35.6096C 202.372 38.495 206.98 33.606 201.971 30.7207C 199.767 29.3982 196.882 29.278 194.077 28.1559C 191.993 27.3144 189.829 25.7115 189.148 23.3872C 188.466 20.9828 188.947 18.1776 190.43 16.6949C 195.239 12.2066 203.815 13.9298 209.024 16.775Z"/>
	<path d="M 39.152 9.08088C 39.152 7.27757 40.5946 5.83491 42.3979 5.83491C 44.2013 5.83491 45.6439 7.27757 45.6439 9.08088C 45.6439 10.8842 44.2013 12.3268 42.3979 12.3268C 40.5946 12.2868 39.152 10.8441 39.152 9.08088Z"/>
	<path d="M 302.195 36.2909C 307.165 36.4913 312.855 35.4894 317.464 34.4475C 317.263 34.8082 315.861 38.1343 315.861 38.1343L 293.139 38.1343L 308.848 2.5088C 307.205 2.5088 303.959 2.54888 303.959 2.54888C 297.747 2.54888 295.663 3.35035 290.093 6.75661L 290.494 0.264679L 317.584 0.264679L 302.195 36.2909Z"/>
	<path d="M 242.446 9.68199L 242.446 19.5802C 246.132 16.2541 251.382 12.7677 256.311 15.2522C 259.557 17.296 259.116 20.9828 259.036 24.91C 258.916 31.2015 258.555 38.0942 258.555 38.0942L 252.344 38.0942C 252.544 29.9593 252.584 23.9482 252.143 21.3835C 251.903 20.1813 251.622 18.939 250.3 18.3379C 247.335 17.1758 244.529 19.9408 242.526 22.1048L 242.526 38.0541L 235.513 38.0541L 235.513 11.5254L 232.948 11.5254L 232.948 9.68199L 242.446 9.68199Z"/>
	<path d="M 363.508 16.0537L 363.909 38.1343L 356.936 38.1343L 357.257 16.0537L 352.889 16.0537L 352.889 14.2103L 357.257 14.2103L 357.257 13.2085C 357.257 13.2085 358.94 12.5673 360.382 11.886C 362.386 10.9644 363.508 10.1228 363.508 10.1228L 363.508 14.1702L 377.414 14.1702C 377.414 14.1702 375.851 29.6387 377.654 34.0868C 378.095 35.2089 379.137 35.6898 380.379 35.4093C 382.743 34.7681 385.028 33.2052 386.991 31.5221L 386.991 16.0537L 383.305 16.0537L 383.305 14.2103L 393.964 14.2103L 393.964 38.1343L 386.951 38.1343L 386.951 34.4475C 385.749 35.0486 376.011 41.4604 372.284 37.6133C 370.08 35.1688 370 30.6806 369.88 26.7534C 369.8 23.1467 370.481 19.46 370.802 16.0136L 363.508 16.0136L 363.508 16.0537Z"/>
	<path d="M 44.5619 14.2103C 44.5619 14.2103 42.999 29.6787 44.8023 34.1269C 45.2431 35.249 46.2851 35.7299 47.5273 35.4494C 49.8917 34.8082 52.1759 33.2453 54.1395 31.5622L 54.1395 16.0537L 50.4527 16.0537L 50.4527 14.2103L 61.1123 14.2103L 61.1123 38.1343L 54.0994 38.1343L 54.0994 34.4475C 52.8972 35.0486 43.1593 41.4604 39.4325 37.6133C 37.2284 35.1688 37.1483 30.6806 37.028 26.7534C 36.9479 23.1467 37.6291 19.46 37.9497 16.0136L 34.3832 16.0136L 34.3832 14.1702L 44.5619 14.2103Z"/>
	<path d="M 153.763 14.2103C 153.763 14.2103 152.2 29.6787 154.003 34.1269C 154.444 35.249 155.486 35.7299 156.728 35.4494C 159.092 34.8082 161.377 33.2453 163.34 31.5622L 163.34 16.0537L 159.653 16.0537L 159.653 14.2103L 170.313 14.2103L 170.313 38.1343L 163.3 38.1343L 163.3 34.4475C 162.098 35.0486 152.36 41.4604 148.633 37.6133C 146.429 35.1688 146.349 30.6806 146.229 26.7534C 146.149 23.1467 146.83 19.46 147.15 16.0136L 143.584 16.0136L 143.584 14.1702L 153.763 14.2103Z"/>
	<path d="M 53.8189 9.08088C 53.8189 7.27757 55.2616 5.83491 57.0649 5.83491C 58.8682 5.83491 60.3108 7.27757 60.3108 9.08088C 60.3108 10.8842 58.8682 12.3268 57.0649 12.3268C 55.2616 12.2868 53.8189 10.8441 53.8189 9.08088Z"/>
	<path d="M 350.564 14.2103L 350.564 38.1343L 343.592 38.1343L 343.592 16.0537L 340.065 16.0537L 340.065 14.2103L 350.564 14.2103Z"/>
	<path d="M 343.792 9.08088C 343.792 7.27757 345.235 5.83491 347.038 5.83491C 348.841 5.83491 350.284 7.27757 350.284 9.08088C 350.284 10.8842 348.841 12.3268 347.038 12.3268C 345.235 12.2868 343.792 10.8441 343.792 9.08088Z"/>
	<path d="M 183.818 14.2103L 188.707 14.2103L 188.707 16.0537L 183.818 16.0537L 184.219 38.1343L 177.246 38.1343L 177.566 16.0537L 172.677 16.0537L 172.677 14.2103L 177.566 14.2103L 177.566 13.2085C 177.566 13.2085 179.249 12.5673 180.692 11.886C 182.696 10.9644 183.818 10.1228 183.818 10.1228L 183.818 14.2103Z"/>
	<path d="M 231.746 17.296L 230.343 19.3398C 228.42 16.6147 224.493 15.7331 222.289 16.9353C 217.88 19.5 217.88 25.5111 218.682 30.2799C 219.243 32.9648 221.006 36.1707 223.932 36.6516C 226.216 36.9722 228.66 35.3291 229.582 34.4876L 231.866 37.0122C 231.866 37.0122 230.504 38.0542 228.941 38.495C 224.493 40.0578 219.283 39.4167 215.877 36.2909C 212.23 32.9247 210.908 28.5166 211.789 23.7879C 212.511 19.7405 216.318 15.9335 220.245 14.8515C 224.132 13.8096 228.821 14.6511 231.746 17.296Z"/>
	<path d="M 79.947 9.68199L 79.947 11.5254L 82.3113 11.5254L 82.3113 17.8169C 82.3113 17.8169 77.6227 12.4471 70.5296 16.1739C 66.2818 18.6986 64.5186 23.2269 64.9995 27.8754C 65.3201 32.0431 67.4039 36.331 71.4914 38.0141C 75.2984 39.4166 79.5462 38.1343 82.2712 35.4493L 82.2712 38.1744L 88.7632 38.1744L 88.7632 9.72206L 79.947 9.72206L 79.947 9.68199ZM 82.5918 26.4729C 82.5918 26.4729 82.2712 35.8902 76.9414 35.8902C 71.6116 35.8902 71.812 26.4328 71.812 26.4328C 71.812 26.4328 71.8921 17.5364 77.4624 17.5364C 82.9926 17.5364 82.5918 26.4729 82.5918 26.4729Z"/>
	<path d="M 107.357 9.68199L 107.357 11.5254L 109.722 11.5254L 109.722 17.8169C 109.722 17.8169 105.033 12.4471 97.94 16.1739C 93.6922 18.6986 91.929 23.2269 92.4099 27.8754C 92.7304 32.0431 94.8143 36.331 98.9018 38.0141C 102.709 39.4166 106.957 38.1343 109.682 35.4493L 109.682 38.1744L 116.133 38.1744L 116.133 9.72206L 107.357 9.72206L 107.357 9.68199ZM 110.042 26.4729C 110.042 26.4729 109.722 35.8902 104.392 35.8902C 99.0621 35.8902 99.2624 26.4328 99.2624 26.4328C 99.2624 26.4328 99.3426 17.5364 104.913 17.5364C 110.443 17.5364 110.042 26.4729 110.042 26.4729Z"/>
	<path d="M 424.059 24.5493C 424.1 28.7971 424.14 32.8846 423.979 38.0942C 421.895 38.0942 417.127 38.0942 417.127 38.0942C 417.568 32.5641 419.371 19.6203 414.722 18.6184C 411.757 17.9772 409.032 20.2214 406.948 22.5056L 406.948 38.0942L 400.176 38.0942L 400.176 16.0537L 397.491 16.0537L 397.491 14.2103L 406.908 14.2103L 406.908 19.7806C 410.154 16.6949 414.482 13.3287 419.01 14.2504C 420.373 14.5309 423.939 15.5328 424.059 24.5493Z"/>
	<path d="M 32.5799 5.43418L 35.0244 3.39043L 36.1464 4.43234L 30.5361 9.20111C 25.1262 5.07352 18.0331 1.38675 10.9 3.39043C 9.05665 3.99153 6.57208 5.59448 6.49193 7.91875C 6.41179 12.0864 14.6269 14.2103 14.6269 14.2103C 14.6269 14.2103 25.6471 17.5765 30.1755 21.8243C 32.2593 23.7078 32.9405 26.7534 32.3795 29.7589C 28.9332 44.5461 8.53569 37.3729 3.6467 33.3655L 1.12206 35.9302L 0 34.9284L 5.69046 29.1578C 10.2188 32.524 11.2206 33.1251 15.3883 34.8883C 26.1681 38.9358 29.6946 32.6843 26.7291 28.717C 21.7199 22.8262 13.1842 23.828 7.13311 19.6203C 3.92722 17.3361 1.64302 13.9699 2.20405 9.92243C 2.56471 6.07536 6.53201 2.62903 9.93827 1.34667C 17.6725 -1.69893 26.3685 0.745567 32.5799 5.43418Z"/>
	<path d="M 457 18.0574C 457 16.2942 455.557 14.8515 453.794 14.8515C 452.472 14.8515 451.31 15.653 450.829 16.8151C 450.829 16.8151 450.428 17.7769 450.508 18.7386C 450.348 18.4581 449.626 17.7769 449.186 17.4162C 445.178 13.9699 438.566 13.489 433.958 15.8133C 428.989 18.378 426.424 23.5475 427.145 29.0776C 427.586 33.7262 431.754 38.0541 435.961 39.4968C 435.24 39.8174 433.116 40.2983 432.996 42.7828C 432.916 47.0306 439.688 44.7865 443.014 45.9487C 443.856 46.3895 444.297 47.231 444.136 48.2329C 443.896 49.0343 443.175 49.6354 442.413 49.8759C 439.287 50.9178 436.041 49.1946 433.797 47.0707L 431.393 48.9542C 432.836 50.1163 434.278 51.1983 435.881 51.7593C 438.646 52.8013 445.058 53.2821 448.023 49.1145C 448.665 48.2729 448.905 46.4696 448.304 45.3876C 446.1 41.7008 441.051 43.424 438.085 43.0233C 436.442 42.8229 435.28 40.3784 441.251 39.8975C 445.779 39.6972 449.947 37.0523 452.311 33.0049C 454.275 29.5585 453.714 24.4692 452.231 21.103C 452.953 21.2633 453.473 21.3434 453.914 21.2633C 455.637 21.1831 457 19.7806 457 18.0574ZM 440.369 37.5332C 436.723 37.5332 433.797 32.8846 433.797 27.114C 433.797 21.3835 436.763 16.6949 440.369 16.6949C 444.016 16.6949 446.942 21.3434 446.942 27.114C 446.942 32.8846 444.016 37.5332 440.369 37.5332Z"/>
</svg>
