<?xml version="1.0" encoding="UTF-8"?>
<svg width="324px" height="119px" viewBox="0 0 324 119" version="1.1" xmlns="http://www.w3.org/2000/svg" xmlns:xlink="http://www.w3.org/1999/xlink">
    <!-- Generator: Sketch 63.1 (92452) - https://sketch.com -->
    <title>ted_bw</title>
    <desc>Created with Sketch.</desc>
    <g id="Page-1" stroke="none" stroke-width="1" fill="none" fill-rule="evenodd">
        <g id="ted_bw" transform="translate(0.000000, 0.850000)" fill="#000000" fill-rule="nonzero">
            <path d="M32.678,29.981 L0,29.981 L0,2.13162821e-14 L101.56,2.13162821e-14 L101.56,29.981 L68.875,29.981 L68.875,117.45 L32.678,117.45 L32.678,29.981 Z M107.18,0 L205.93,0 L205.93,29.981 L143.38,29.981 L143.38,44.443 L205.93,44.443 L205.93,72.655 L143.38,72.655 L143.38,87.469 L205.93,87.469 L205.93,117.45 L107.18,117.45 L107.18,0 Z M211.9,1.42108547e-14 L271.29,1.42108547e-14 C310.3,1.42108547e-14 324,28.923 324,58.551 C324,94.526 305.02,117.45 264.26,117.45 L211.9,117.45 L211.9,1.42108547e-14 L211.9,1.42108547e-14 Z M248.1,87.469 L262.15,87.469 C284.64,87.469 287.81,69.132 287.81,58.199 C287.81,50.789 285.35,30.334 259.34,30.334 L247.74,30.334 L248.1,87.469 Z" id="Shape"></path>
        </g>
    </g>
</svg>