<?xml version="1.0" encoding="UTF-8"?>
<svg width="346px" height="37px" viewBox="0 0 346 37" version="1.1" xmlns="http://www.w3.org/2000/svg" xmlns:xlink="http://www.w3.org/1999/xlink">
    <!-- Generator: Sketch 63.1 (92452) - https://sketch.com -->
    <title>zeit_online</title>
    <desc>Created with Sketch.</desc>
    <g id="Page-1" stroke="none" stroke-width="1" fill="none" fill-rule="evenodd">
        <g id="zeit_online" transform="translate(0.000000, -1.000000)" fill="#1D1D1B" fill-rule="nonzero">
            <path d="M71.91,33.94 C70.85,33.94 69.09,32.92 69.09,31.33 L69.1,5.61 C69.1,4.02 70.94,3.01 71.75,3.01 C72.04,3.01 72.07,2.29 71.75,2.29 L60.3,2.29 C59.98,2.29 60.02,3.01 60.3,3.01 C61.11,3.01 62.95,4.01 62.95,5.61 L62.95,31.32 C62.95,32.91 61.36,33.93 60.3,33.93 C60.02,33.93 59.9,34.7400918 60.3,34.7400918 L71.91,34.7400918 C72.31,34.75 72.19,33.94 71.91,33.94 L71.91,33.94 Z M66.72,32.83 C66.72,32.95 66.62,33.05 66.51,33.05 L65.71,33.05 C65.59,33.05 65.49,32.95 65.49,32.83 L65.49,4.26 C65.49,4.14 65.59,4.05 65.71,4.05 L66.51,4.05 C66.63,4.05 66.72,4.15 66.72,4.26 L66.72,32.83 Z M42.13,4.04 C48.05,4.04 52.78,6.27 55.84,10.97 C56.02,11.24 56.47,11.1 56.37,10.84 C56.22,10.46 52.8,2.3 52.8,2.3 L29.1,2.3 C28.78,2.3 28.82,3.02 29.1,3.02 C30.37,3.02 32.37,4.41 32.37,6 L32.37,30.1 C32.37,32.41 30.85,33.94 29.1,33.94 C28.82,33.94 28.78,34.75 29.1,34.75 L52.87,34.75 L56.29,26.63 C56.41,26.32 55.96,26.01 55.76,26.4 C54.42,28.97 49.38,33.05 42.75,33.05 L38.17,33.05 L38.17,19.47 L44.21,19.47 C48.17,19.47 50.17,22.24 50.72,23.01 C50.98,23.37 51.53,23.23 51.32,22.79 C51.12,22.35 49.22,18.58 49.22,18.58 C49.22,18.58 51.12,14.81 51.32,14.37 C51.52,13.93 51.09,13.72 50.86,14.11 C50.63,14.5 47.7,17.57 43.57,17.57 L38.16,17.57 L38.16,4.04 L42.13,4.04 Z M35.91,32.83 C35.91,32.95 35.81,33.05 35.7,33.05 L34.9,33.05 C34.78,33.05 34.69,32.95 34.69,32.83 L34.69,4.26 C34.69,4.14 34.79,4.05 34.9,4.05 L35.7,4.05 C35.82,4.05 35.91,4.15 35.91,4.26 L35.91,32.83 Z M25.79,26.32 C24.86,28.08 19.54,33.05 12.6,33.05 L7.88,33.05 L26.52,2.3 L8.96,2.3 C6.86,2.3 4.85,2.13 4.85,2.13 C4.85,2.13 1.59,9.59 1.29,10.23 C1.08,10.69 1.55,10.91 1.84,10.42 C2.73,8.92 6.63,4.04 14.44,4.04 L18.42,4.04 L0,34.75 L22.43,34.75 C22.43,34.75 26.03,26.87 26.2,26.47 C26.37,26.07 25.98,25.96 25.79,26.32 Z M4.78,33.05 L3.8,33.05 C3.68,33.05 3.65,32.95 3.72,32.83 L21.02,4.25 C21.09,4.13 21.25,4.04 21.36,4.04 L22.34,4.04 C22.46,4.04 22.49,4.14 22.42,4.25 L5.12,32.83 C5.05,32.95 4.9,33.05 4.78,33.05 Z M102.05,10.48 C101.88,10.1 98.62,3.45 98.3,2.62 C98,1.82 97.39,2.3 96.84,2.3 L78.65,2.3 C78.1,2.3 77.49,1.83 77.19,2.62 C76.87,3.46 73.99,10.35 73.82,10.73 C73.65,11.11 74.23,11.43 74.52,10.9 C75.77,8.64 80,4.04 84.64,4.04 L84.64,31.32 C84.64,32.91 83.05,33.93 81.99,33.93 C81.71,33.93 81.59,34.74 81.99,34.74 L93.6,34.74 C94,34.74 93.88,33.93 93.6,33.93 C92.54,33.93 90.78,32.91 90.78,31.32 L90.78,4.04 C95.27,4.04 99.84,8.46 101.34,10.65 C101.68,11.15 102.22,10.86 102.05,10.48 Z M88.42,32.83 C88.42,32.95 88.32,33.05 88.21,33.05 L87.41,33.05 C87.29,33.05 87.2,32.95 87.2,32.83 L87.2,4.26 C87.2,4.14 87.3,4.05 87.41,4.05 L88.21,4.05 C88.33,4.05 88.42,4.15 88.42,4.26 L88.42,32.83 Z M331.74,4.04 C337.66,4.04 342.39,6.27 345.45,10.97 C345.63,11.24 346.09,11.1 345.98,10.84 C345.83,10.46 342.41,2.3 342.41,2.3 L318.71,2.3 C318.39,2.3 318.43,3.02 318.71,3.02 C319.98,3.02 321.98,4.41 321.98,6 L321.98,30.1 C321.98,32.41 320.46,33.94 318.71,33.94 C318.43,33.94 318.39,34.75 318.71,34.75 L342.48,34.75 L345.9,26.63 C346.03,26.32 345.57,26.01 345.37,26.4 C344.03,28.97 338.98,33.05 332.36,33.05 L327.78,33.05 L327.78,19.47 L333.82,19.47 C337.78,19.47 339.78,22.24 340.33,23.01 C340.59,23.37 341.14,23.23 340.93,22.79 C340.73,22.35 338.83,18.58 338.83,18.58 C338.83,18.58 340.73,14.81 340.93,14.37 C341.13,13.93 340.7,13.72 340.47,14.11 C340.24,14.5 337.31,17.57 333.18,17.57 L327.77,17.57 L327.77,4.04 L331.74,4.04 Z M325.52,32.83 C325.52,32.95 325.43,33.05 325.31,33.05 L324.51,33.05 C324.39,33.05 324.3,32.95 324.3,32.83 L324.3,4.26 C324.3,4.14 324.39,4.05 324.51,4.05 L325.31,4.05 C325.43,4.05 325.52,4.15 325.52,4.26 L325.52,32.83 Z M278.32,33.94 C277.26,33.94 275.5,32.92 275.5,31.33 L275.51,5.62 C275.51,4.03 277.35,3.02 278.16,3.02 C278.44,3.02 278.48,2.3 278.16,2.3 L266.7,2.3 C266.38,2.3 266.42,3.02 266.7,3.02 C267.52,3.02 269.35,4.02 269.35,5.62 L269.35,31.33 C269.35,32.92 267.76,33.94 266.7,33.94 C266.42,33.94 266.3,34.75 266.7,34.75 L278.31,34.75 C278.71,34.75 278.6,33.94 278.32,33.94 Z M273.13,32.83 C273.13,32.95 273.03,33.05 272.91,33.05 L272.11,33.05 C271.99,33.05 271.9,32.95 271.9,32.83 L271.9,4.26 C271.9,4.14 272,4.05 272.11,4.05 L272.91,4.05 C273.03,4.05 273.13,4.15 273.13,4.26 L273.13,32.83 Z M315.63,2.3 L305.69,2.3 C305.37,2.3 305.41,3.02 305.69,3.02 C308.01,3.02 309.55,4.11 309.55,9.56 L309.55,24.83 L290.67,2.3 L281.66,2.3 C281.34,2.3 281.38,3.02 281.66,3.02 C283.26,3.02 286.74,4.85 286.74,7.56 L286.74,25.87 C286.74,32.6 285.61,33.94 283.18,33.94 C282.9,33.94 282.78,34.75 283.18,34.75 L292.67,34.75 C293.07,34.75 292.95,33.94 292.67,33.94 C290.01,33.94 288.94,32.6 288.94,25.87 L288.95,9.23 L311.77,35.78 L311.76,9.56 C311.76,4.18 313.42,3.02 315.63,3.02 C315.91,3.02 315.95,2.3 315.63,2.3 Z M309.72,28.97 C309.72,29.27 308.82,29.16 308.71,29.04 L287.54,4.18 C287.44,4.06 287.45,4.01 287.57,4.01 L288.7,4.01 C288.86,4.01 289.03,4.2 289.13,4.32 L309.61,28.34 C309.71,28.46 309.73,28.59 309.73,28.77 L309.72,28.97 Z M235.45,2.3 L225.51,2.3 C225.19,2.3 225.23,3.02 225.51,3.02 C227.83,3.02 229.38,4.11 229.38,9.56 L229.38,24.83 L210.49,2.3 L201.48,2.3 C201.16,2.3 201.2,3.02 201.48,3.02 C203.08,3.02 206.56,4.85 206.56,7.56 L206.56,25.87 C206.56,32.6 205.44,33.94 203,33.94 C202.72,33.94 202.6,34.75 203,34.75 L212.49,34.75 C212.89,34.75 212.77,33.94 212.49,33.94 C209.83,33.94 208.76,32.6 208.76,25.87 L208.77,9.23 L231.59,35.78 L231.59,9.56 C231.59,4.18 233.25,3.02 235.45,3.02 C235.73,3.02 235.77,2.3 235.45,2.3 L235.45,2.3 Z M229.5,29.04 C229.5,29.34 228.6,29.23 228.49,29.11 L207.36,4.18 C207.26,4.06 207.27,4.01 207.39,4.01 L208.52,4.01 C208.68,4.01 208.85,4.2 208.95,4.32 L229.38,28.41 C229.48,28.53 229.5,28.66 229.5,28.84 L229.5,29.04 Z M184,1.51 C176.41,1.51 167.07,7.24 167.07,18.79 C167.07,28.91 173.47,35.19 183.77,35.19 C197.13,35.19 201.01,25.35 201.01,18.51 C201.01,8.9 193.65,1.51 184,1.51 Z M170.1,19.03 C170.1,10.83 175.28,4.59 178.28,3.97 C175.62,5.5 171.29,11.21 171.45,19.03 C171.6,26.35 173.84,29.7 177.11,32.68 C173.84,30.64 170.1,27.2 170.1,19.03 Z M174.02,18.58 C174.02,8.28 179.06,3.15 183.98,3.15 C189.89,3.15 194.16,7.99 194.16,18.04 C194.16,28.33 189.22,33.32 184.05,33.32 C178.79,33.32 174.02,30.08 174.02,18.58 L174.02,18.58 Z M189.81,32.68 C192.47,31.15 196.71,25.92 196.64,18.1 C196.57,10.61 194.26,6.95 190.99,3.97 C194.26,6.01 198,9.93 198,18.1 C198,26.3 192.81,32.05 189.81,32.68 Z M264.72,26.04 C263.38,28.61 258.52,33.05 251.9,33.05 L248.1,33.05 L248.11,5.61 C248.11,4.02 250.25,3.01 251.06,3.01 C251.34,3.01 251.38,2.29 251.06,2.29 L238.86,2.29 C238.54,2.29 238.58,3.01 238.86,3.01 C240.13,3.01 242.13,4.4 242.13,5.99 L242.13,29.64 C242.13,32.71 240.31,33.94 238.56,33.94 C238.28,33.94 238.24,34.75 238.56,34.75 L262.02,34.75 C262.02,34.75 265.12,26.58 265.25,26.27 C265.38,25.96 264.92,25.65 264.72,26.04 L264.72,26.04 Z M245.75,32.83 C245.75,32.95 245.65,33.05 245.54,33.05 L244.74,33.05 C244.62,33.05 244.53,32.95 244.53,32.83 L244.53,4.26 C244.53,4.14 244.63,4.05 244.74,4.05 L245.54,4.05 C245.66,4.05 245.75,4.15 245.75,4.26 L245.75,32.83 Z" id="path6"></path>
            <path d="M136.35,25.16 C134.72,25.16 133.4,26.45 133.4,28.04 C133.4,29.63 134.72,30.92 136.35,30.92 C137.98,30.92 139.3,29.63 139.3,28.04 C139.29,26.44 137.97,25.16 136.35,25.16 Z M133.99,29 C133.99,29 133.57,27.96 133.99,27.06 C134.49,28.08 133.99,29 133.99,29 Z M137.32,25.75 C136.3,26.24 135.38,25.75 135.38,25.75 C135.38,25.75 136.42,25.33 137.32,25.75 Z M135.37,30.32 C135.37,30.32 136.29,29.83 137.31,30.32 C136.42,30.73 135.37,30.32 135.37,30.32 Z M138.09,29.79 C137.73,30.2 137.18,29.63 136.34,29.63 C135.5,29.63 134.94,30.18 134.58,29.77 C134.17,29.41 134.73,28.88 134.73,28.03 C134.73,27.18 134.18,26.64 134.59,26.28 C134.95,25.87 135.5,26.44 136.34,26.44 C137.18,26.44 137.74,25.89 138.1,26.3 C138.51,26.66 137.95,27.19 137.95,28.04 C137.95,28.89 138.5,29.43 138.09,29.79 Z M138.69,27.06 C139.11,27.96 138.69,29 138.69,29 C138.69,29 138.2,28.08 138.69,27.06 Z" id="path10"></path>
            <path d="M136.35,23.98 C135.75,23.98 135.19,24.1 134.67,24.32 C134.592084,24.2577411 134.524573,24.183479 134.47,24.1 C134.34,23.81 134.11,23.97 134.11,23.97 C134.11,23.97 133.96,23.65 133.93,23.41 C133.89,23.18 133.66,23.16 133.47,23.35 C133.29,23.54 133.13,23.6 133.13,23.6 L130.43,21 L131.27,20.13 L131.64,20.48 L131.04,21.1 L132.12,22.14 L135.09,19.06 L133.36,17.39 L132.21,18.57 L132.97,19.31 L133.32,18.94 L133.55,19.16 L132.94,19.79 L130.65,17.58 L131.26,16.95 L131.49,17.17 L131.14,17.54 L131.79,18.16 L132.94,16.97 L131.21,15.3 L128.24,18.38 L129.32,19.42 L129.92,18.8 L130.29,19.15 L129.45,20.01 L127.49,18.12 C127.2,17.84 126.77,18.1 126.54,18.35 C126.31,18.6 126.08,19.05 126.37,19.34 L132,24.77 C132,24.77 131.94,24.93 131.76,25.12 C131.58,25.31 131.6,25.55 131.83,25.57 C132.07,25.6 132.4,25.74 132.4,25.74 C132.4,25.74 132.25,25.98 132.54,26.1 C132.58,26.11 132.62,26.15 132.66,26.19 C132.37,26.74 132.21,27.36 132.21,28.02 C132.21,30.26 134.07,32.07 136.36,32.07 C138.65,32.07 140.51,30.26 140.51,28.02 C140.49,25.8 138.64,23.98 136.35,23.98 L136.35,23.98 Z M126.77,19.22 C126.59,19.05 126.61,18.92 126.84,18.69 C126.95,18.57 127.1,18.36 127.35,18.61 L129.4,20.59 L130.83,19.1 L129.92,18.22 L129.28,18.88 L128.76,18.38 L131.14,15.91 L132.34,17.07 L131.79,17.64 L131.6,17.46 L131.92,17.13 L131.24,16.48 L130.14,17.62 L132.91,20.3 L134.01,19.16 L133.3,18.48 L132.98,18.81 L132.75,18.59 L133.3,18.02 L134.41,19.09 L132.06,21.53 L131.63,21.11 L132.24,20.47 L131.24,19.5 L129.81,20.99 L132.83,23.91 L132.24,24.52 L126.77,19.22 Z M132.76,25.39 C132.63,25.23 132.51,25.36 132.41,25.25 C132.34,25.18 132.36,25.07 132.5,24.93 C132.67,24.74 133.05,24.34 133.26,24.14 C133.47,23.93 133.63,23.8 133.75,23.92 C133.87,24.04 133.78,24.16 133.94,24.32 C134.1,24.48 134.24,24.24 134.38,24.6 C133.43,25.25 132.99,25.94 132.99,25.94 C132.58,25.7 132.9,25.56 132.76,25.39 L132.76,25.39 Z M136.35,31.5 C134.39,31.5 132.8,29.95 132.8,28.03 C132.8,26.12 134.39,24.56 136.35,24.56 C138.31,24.56 139.9,26.11 139.9,28.03 C139.89,29.95 138.3,31.5 136.35,31.5 Z" id="path12"></path>
            <path d="M160.09,33.24 C161.13,32.56 160.9,31.27 160.9,31.27 C160.9,31.27 160.33,31.67 159.54,31.82 C159.04,31.92 158.67,32.67 158.92,33.28 C158.64,33.49 158.58,33.83 158.58,33.83 C157.99,34.08 157.41,34.08 157.41,34.08 C158.39,32.2 158.36,32.13 158.07,30.9 C157.88,30.07 157.8,29.83 157.45,29.91 C156.86,30.04 156.83,28.81 157.35,28.07 C157.35,28.07 159.19,29.55 161.08,27.99 C162.91,26.49 162.39,23.97 160.23,21.76 C158.07,19.54 157.9,18.65 157.94,17.29 C159.36,17.35 159.53,16.25 159.4,16.08 C160.39,15.66 159.95,14.76 159.95,14.76 C160.31,14.21 160.12,13.3 160.12,13.3 C159.19,13.24 158.64,13.58 158.64,13.58 C158.03,13.39 157.56,14.24 157.56,14.24 C156.39,14.26 156.78,16.47 156.78,16.47 C156.78,16.47 156.26,17.78 156.61,18.86 C157.54,21.76 159.21,22.54 160.27,24.39 C160.7,25.14 160.69,26.57 159.74,26.93 C158.85,27.27 158.09,26.59 157.62,24.69 C157.15,22.79 156.98,22.74 155.86,21.24 C154.74,19.74 154.69,18.99 154.61,17.43 C154.53,15.88 154.38,14.25 154.38,14.25 C154.63,14.31 154.7,14.12 154.7,14.12 C154.23,13.5 154.19,12.76 154.19,12.76 C154.38,12.76 154.45,12.61 154.45,12.61 C153.88,12.02 154.15,11.85 153.88,11.34 C154.2,11.36 154.26,11.11 154.26,11.11 C153.58,10.6 153.65,10.14 152.99,9.39 C153.18,9.41 153.29,9.28 153.29,9.28 C152.76,8.64 152.55,8.09 151.53,8.28 L151.25,7.96 C151.25,7.96 152.07,7.9 152.46,7.39 C152.86,6.88 152.14,6.37 152.14,6.37 C152.14,6.37 151.97,6.57 151.88,6.54 C151.65,6.46 151.9,6.2 151.58,6.05 C151.32,5.93 151.47,5.43 151.86,5.5 C152.26,5.58 151.96,6.09 152.24,6.18 C152.52,6.28 152.63,5.71 152.89,5.8 C153.04,5.86 153.08,5.73 153.48,5.04 C153.73,4.62 153.33,4.64 153.58,4.11 C153.76,3.73 153.81,3.16 152.16,2.92 C152.12,1.55 150.85,2.03 150.4,1.99 C150.15,1.1 149.34,0.93 148.18,1.03 L148.09,1.22 C147.31,1.18 146.82,1.37 146.82,1.37 L146.88,1.69 C146.1,1.61 145.8,2.14 145.31,2.24 L145.41,2.47 C144.69,2.91 144.8,3.45 144.1,3.83 L144.38,4.12 L144.21,4.42 C143.45,4.4 142.98,4.76 142.98,4.76 C142.07,4.63 141.84,5.52 141.84,5.52 C140.87,5.69 140.61,6.77 140.7,7.21 C139.91,7.46 140.08,8.4 140.08,8.4 C139.57,8.63 139.34,9.37 140.1,9.78 C140.1,9.78 139.76,10.65 138.76,10.24 C137.76,9.83 138.02,9.1 138.19,8.95 C138.89,9.52 139.4,9.02 139.33,8.38 C140.37,8.08 140.09,7.05 140.09,7.05 C141.36,6.37 140.56,4.95 140.56,4.95 C141.13,4.4 140.58,3.72 140.58,3.72 C140.6,2.83 140.01,2.01 140.01,2.01 C139.1,2.16 138.76,2.75 138.76,2.75 C137.79,2.77 137.59,3.73 137.59,3.73 C136.59,3.77 136.24,4.68 136.38,5.43 C135.77,5.77 135.68,6.64 136.02,7.25 C135.49,7.86 135.94,8.6 136.53,8.61 C136.53,8.61 136.42,9.52 135.37,9.52 C134.32,9.52 133.93,8.5 134.2,8.06 C134.98,8.38 135.34,7.7 135.19,7.09 C136.14,6.37 135.3,5.37 135.3,5.37 C135.89,4.5 135.36,3.84 134.77,3.29 C134.77,2.72 134.33,2.67 134.33,2.67 C133.95,1.63 133.19,1.21 133.19,1.21 C133.19,1.21 132.43,1.63 132.05,2.67 C132.05,2.67 131.61,2.73 131.61,3.29 C131.02,3.84 130.49,4.5 131.08,5.37 C131.08,5.37 130.25,6.37 131.19,7.09 C131.04,7.7 131.4,8.38 132.18,8.06 C132.44,8.5 132.05,9.52 131.01,9.52 C129.97,9.52 129.85,8.61 129.85,8.61 C130.44,8.59 130.89,7.85 130.36,7.25 C130.7,6.64 130.61,5.77 130,5.43 C130.13,4.67 129.79,3.76 128.79,3.73 C128.79,3.73 128.58,2.76 127.62,2.74 C127.62,2.74 127.28,2.15 126.37,2 C126.37,2 125.78,2.81 125.8,3.7 C125.8,3.7 125.25,4.38 125.82,4.93 C125.82,4.93 125.02,6.35 126.29,7.03 C126.29,7.03 126.01,8.05 127.05,8.36 C126.97,9 127.49,9.5 128.19,8.93 C128.36,9.08 128.62,9.8 127.62,10.22 C126.62,10.64 126.28,9.76 126.28,9.76 C127.04,9.34 126.81,8.61 126.3,8.38 C126.3,8.38 126.47,7.43 125.68,7.19 C125.78,6.75 125.51,5.68 124.54,5.5 C124.54,5.5 124.31,4.61 123.4,4.74 C123.4,4.74 122.93,4.38 122.17,4.4 L122,4.1 L122.28,3.81 C121.58,3.43 121.69,2.88 120.97,2.45 L121.07,2.22 C120.58,2.13 120.27,1.6 119.5,1.67 L119.56,1.35 C119.56,1.35 119.07,1.16 118.29,1.2 L118.2,1.01 C117.04,0.91 116.23,1.09 115.98,1.97 C115.52,2.01 114.26,1.53 114.22,2.9 C112.57,3.15 112.62,3.72 112.8,4.09 C113.05,4.62 112.65,4.59 112.9,5.02 C113.3,5.7 113.34,5.84 113.49,5.78 C113.75,5.68 113.85,6.25 114.13,6.16 C114.41,6.07 114.11,5.55 114.51,5.48 C114.91,5.41 115.05,5.91 114.8,6.03 C114.48,6.18 114.72,6.45 114.5,6.52 C114.4,6.55 114.23,6.35 114.23,6.35 C114.23,6.35 113.51,6.86 113.91,7.37 C114.31,7.88 115.12,7.94 115.12,7.94 L114.84,8.26 C113.82,8.07 113.61,8.62 113.08,9.26 C113.08,9.26 113.19,9.39 113.38,9.37 C112.72,10.13 112.79,10.58 112.11,11.09 C112.11,11.09 112.17,11.34 112.49,11.32 C112.23,11.83 112.49,12 111.92,12.59 C111.92,12.59 112,12.74 112.19,12.74 C112.19,12.74 112.15,13.48 111.68,14.1 C111.68,14.1 111.76,14.29 112,14.23 C112,14.23 111.85,15.86 111.77,17.41 C111.69,18.96 111.64,19.72 110.52,21.22 C109.4,22.72 109.23,22.77 108.76,24.67 C108.29,26.56 107.53,27.24 106.64,26.91 C105.69,26.55 105.68,25.12 106.11,24.37 C107.17,22.52 108.84,21.74 109.77,18.84 C110.12,17.76 109.6,16.45 109.6,16.45 C109.6,16.45 110,14.23 108.82,14.22 C108.82,14.22 108.35,13.37 107.74,13.56 C107.74,13.56 107.19,13.22 106.26,13.28 C106.26,13.28 106.07,14.19 106.43,14.74 C106.43,14.74 105.99,15.65 106.98,16.06 C106.85,16.23 107.02,17.33 108.44,17.27 C108.48,18.63 108.31,19.52 106.15,21.74 C103.99,23.96 103.47,26.47 105.3,27.97 C107.19,29.52 109.03,28.05 109.03,28.05 C109.56,28.79 109.52,30.02 108.93,29.89 C108.58,29.81 108.5,30.05 108.31,30.88 C108.03,32.11 107.99,32.19 108.97,34.06 C108.97,34.06 108.38,34.06 107.79,33.81 C107.79,33.81 107.73,33.47 107.45,33.26 C107.7,32.65 107.33,31.9 106.83,31.8 C106.03,31.65 105.47,31.25 105.47,31.25 C105.47,31.25 105.24,32.54 106.29,33.22 C106.29,33.22 105.08,32.95 104.41,33.84 C105.19,34.11 105.2,34.66 105.93,34.84 C106.74,35.05 107.14,34.24 107.14,34.24 C107.14,34.24 107.39,34.4 107.08,34.81 C106.85,35.11 106.86,35.25 107.23,35.36 C110.22,36.25 113.31,36.01 113.31,36.01 C113.31,36.01 112.69,36.35 112.44,37.16 C113.73,36.84 116.06,37.77 117.48,35.74 C117.48,35.74 119.13,35.29 121.42,34.89 C121.42,34.89 120.91,35.19 120.61,35.72 C120.61,35.72 122.62,36.71 125.21,35.21 C125.33,35.14 125.51,35.34 125.32,35.42 C124.22,35.86 123.97,36.52 123.97,36.52 C123.97,36.52 126.21,37.71 128.42,36.26 C128.42,36.26 128.08,37.36 129.21,37.74 C129.21,37.74 130.29,37.34 131.45,37.09 C131.45,37.09 131.34,37.37 131.58,37.49 C131.58,37.49 132.51,37.34 133.21,36.51 C133.92,37.34 134.85,37.49 134.85,37.49 C135.1,37.38 134.98,37.09 134.98,37.09 C136.14,37.34 137.22,37.74 137.22,37.74 C138.36,37.36 138.01,36.26 138.01,36.26 C140.23,37.72 142.46,36.52 142.46,36.52 C142.46,36.52 142.21,35.86 141.11,35.42 C140.92,35.34 141.1,35.14 141.22,35.21 C143.82,36.71 145.82,35.72 145.82,35.72 C145.52,35.19 145.01,34.89 145.01,34.89 C147.3,35.29 148.95,35.74 148.95,35.74 C150.37,37.77 152.7,36.84 153.99,37.16 C153.74,36.35 153.12,36.01 153.12,36.01 C153.12,36.01 156.21,36.26 159.2,35.36 C159.57,35.25 159.58,35.12 159.35,34.81 C159.05,34.41 159.29,34.24 159.29,34.24 C159.29,34.24 159.69,35.05 160.5,34.84 C161.23,34.65 161.24,34.1 162.01,33.84 C161.3,32.98 160.09,33.24 160.09,33.24 L160.09,33.24 Z M106.11,34.38 C105.62,34.32 105.22,33.89 105.22,33.89 C105.22,33.89 105.58,33.57 106.17,33.62 C106.76,33.68 106.78,34.46 106.11,34.38 L106.11,34.38 Z M106.66,32.96 C105.91,32.65 105.96,32.03 105.96,32.03 C105.96,32.03 106.15,32.14 106.55,32.24 C107.25,32.41 107.17,33.17 106.66,32.96 Z M107.23,33.87 C107.1,34.08 106.81,33.74 106.79,33.57 C106.79,33.57 107.41,33.58 107.23,33.87 Z M152.56,9.14 C152.56,9.14 152.29,9.21 152.09,9.18 C151.89,9.15 151.81,9.3 152.08,9.45 C152.89,9.9 153.13,10.58 153.13,10.58 C153.13,10.58 152.72,10.52 152.26,10.13 C152.06,9.96 151.95,10.15 152.1,10.4 C152.36,10.83 153.35,10.92 153.49,11.96 C153.49,11.96 152.91,11.75 152.5,11.35 C152.31,11.16 152.18,11.3 152.3,11.53 C152.63,12.18 153.7,12.28 153.75,13.46 C153.75,13.46 153.32,13.32 152.91,12.89 C152.71,12.68 152.54,12.89 152.77,13.19 C153,13.49 153.58,13.77 153.65,14.41 C153.72,15.05 153.91,17.94 154.05,18.79 C154.19,19.64 154.43,20.62 155.44,21.84 C156.45,23.06 156.59,23.33 156.93,24.51 C157.68,27.13 158.62,27.8 159.81,27.46 C161,27.12 161.46,25.24 160.55,23.9 C159.33,22.1 156.03,19.46 157.26,16.48 C157.26,16.48 156.85,15.8 157.36,15.16 C157.36,15.16 157.52,15.26 157.57,15.46 C157.9,15.18 157.57,14.77 158.05,14.38 C158.05,14.38 158.22,14.55 158.19,14.81 C158.57,14.71 158.46,13.8 159.65,13.83 C159.78,14.88 159.14,14.65 158.9,15.22 C158.9,15.22 159.27,15.12 159.42,15.24 C159.24,15.95 158.74,15.72 158.53,16.03 C158.53,16.03 158.77,16.04 158.93,16.24 C158.93,16.24 158.69,17.12 157.64,16.78 C157.64,16.78 157.34,17.09 157.43,18.1 C157.51,19.05 157.74,19.93 159.54,21.97 C160.17,22.69 161.55,24.11 161.55,25.56 C161.55,26.91 160.6,28.11 159.34,28.11 C157.75,28.11 157.06,26.96 156.85,25.88 C156.76,25.43 156.25,25.6 156.34,26.12 C156.47,26.9 156.77,27.64 156.77,27.64 C156.77,27.64 156.56,28.07 156.39,28.6 C156.22,29.14 156.25,29.33 156.4,29.58 C156.67,30 156.47,30.57 156.97,30.5 C157.27,30.46 157.27,30.59 157.4,31.02 C157.67,31.95 157.61,32 157.43,32.52 C157.25,33.05 156.93,33.88 156.81,34.1 C156.58,34.51 156.36,34.03 155.92,34.27 C155.56,34.47 155.14,34.31 155.42,33.96 C155.42,33.96 155.22,33.82 155.07,34.02 C155.07,34.02 154.8,33.17 154.09,33.55 C154.09,33.55 153.75,33.18 153.44,33.28 C153.44,33.28 153.79,32.71 155.65,33.29 C155.95,33.38 156.19,32.89 155.79,32.75 C155.79,32.75 156.09,31.77 156.13,31.59 C156.17,31.41 156.26,31.35 155.93,31.08 C153.86,29.34 153.69,29.43 153.42,28.36 C153.15,27.28 153.02,27.1 152.68,26.27 C151.81,24.13 152.03,23.4 151.42,22.71 C150.16,21.31 149.7,20.47 149.7,20.47 C149.7,20.47 149.59,20.46 149.56,20.58 C149.12,20.25 149.32,19.9 148.91,19.57 C148.91,19.57 148.77,19.65 148.74,19.92 C148.1,19.45 148.26,18.64 148.02,18.33 C148.02,18.33 147.86,18.4 147.79,18.63 C147.79,18.63 147.58,18.26 147.58,18.11 C147.58,17.95 147.5,17.85 147.76,17.64 C148.03,17.43 148.13,17.51 148.2,17.75 C148.6,17.42 148.78,16.97 149.19,16.56 C149.19,16.56 149.39,16.65 149.53,16.9 C149.53,16.9 149.9,16.4 150.13,15.57 C150.51,15.64 150.71,15.57 150.67,15.06 C150.58,14.1 151.05,13.87 151,12.72 C150.98,12.31 150.59,12.45 150.6,12.78 C150.64,13.7 150.34,13.72 150.25,14.52 C149.68,13.81 149.75,14.8 149.51,15.88 C149.51,15.88 149.36,15.82 149.28,15.57 C149.14,15.1 148.95,15.83 148.44,16.7 C148.31,16.37 148.28,16.16 147.89,16.63 C147.49,17.1 146.07,18.31 144.7,19.31 C144.18,19.69 144.52,20.01 144.29,20.49 C144.13,20.82 143.84,21.07 143.84,21.07 C143.84,21.07 143.66,20.74 143.3,20.76 C143.3,20.76 143.39,20.12 142.85,19.87 C142.85,19.87 143.53,19.01 142.72,18.38 C143.22,18.21 143.39,18.27 142.98,17.54 C142.98,17.54 143.43,17.1 142.94,16.52 C143.41,16.19 143.55,16.64 143.59,17.07 C143.65,17.69 143.96,18.27 144.3,17.96 C144.67,17.62 146.36,15.87 146.82,15.08 C147.29,14.29 147.05,13.68 148.25,12.26 C148.47,12 148.25,11.75 148.02,11.96 C147.88,12.09 147.58,12.21 147.58,12.21 C147.58,12.21 147.54,11.47 148.02,10.81 C148.22,10.54 148.05,10.38 147.65,10.75 C147.65,10.75 147.59,10.15 148.54,9.35 C148.8,9.13 148.63,9.01 148.19,9.17 C148.19,9.17 148.37,8.63 148.97,8.5 C149.57,8.37 149.75,8.6 149.78,8.71 C149.81,8.82 150.02,8.85 150.04,8.71 C150.06,8.57 150.22,8.24 150.65,8.31 C151.08,8.38 151.05,8.66 151.05,8.79 C151.05,8.92 151.14,9.04 151.26,8.89 C151.44,8.67 152.12,8.49 152.56,9.14 L152.56,9.14 Z M154.58,34.02 C154.33,34.3 154.01,34.48 154.01,34.48 C153.95,34.1 154.26,33.82 154.26,33.82 C154.58,33.83 154.58,34.02 154.58,34.02 L154.58,34.02 Z M153.01,32.26 C153.01,32.26 151.31,32.16 150.62,34.2 C150.62,34.2 150.12,34.23 149.82,34.1 C149.82,34.1 150.22,33.91 150.47,33.13 C150.72,32.35 150.96,31.5 151.11,30.98 C151.31,30.28 150.52,30.53 150.72,29.88 C151.07,28.73 150.99,28.61 151.41,28.47 C151.83,28.34 151.96,28.37 152.46,27.57 C152.46,27.57 152.71,28.14 152.81,28.79 C152.91,29.44 153.46,29.93 155.5,31.52 C155.5,31.52 155.4,32.12 155.2,32.62 C153.06,32.22 153.21,32.87 152.41,34.41 C152.41,34.41 152.06,34.44 151.71,34.36 C151.71,34.35 153.02,33.72 153.01,32.26 L153.01,32.26 Z M151.01,34.28 C151.15,33.66 151.86,32.98 152.51,32.81 C152.34,33.5 151.66,34.12 151.01,34.28 Z M153.25,33.76 C153.57,33.78 153.61,33.93 153.61,33.93 C153.16,34.31 152.91,34.54 152.91,34.54 C152.82,34.02 153.25,33.76 153.25,33.76 L153.25,33.76 Z M142.42,22.08 C142.42,22.08 142.38,24.55 142.34,26.35 C142.28,29.39 141.18,33.22 133.14,33.22 C125.1,33.22 124.01,29.39 123.95,26.35 C123.91,24.54 123.87,22.08 123.87,22.08 C124.08,21.98 124.2,21.83 124.2,21.83 C123.81,21.48 123.69,21.19 123.69,21.19 C124.5,21.32 124.78,20.89 124.78,20.89 C124.2,20.27 123.99,19.86 123.99,19.86 C124.51,19.92 124.97,19.75 124.97,19.75 C125.07,18.78 124.06,18.74 124.01,17.97 C124.25,17.99 124.46,18.14 124.46,18.14 C125.06,16.89 123.75,16.89 124.02,15.82 C124.42,15.69 124.6,15.39 124.6,15.39 C124.511133,15.3726379 124.426326,15.3387148 124.35,15.29 C124.8,15.1 124.92,14.78 124.92,14.78 C125.05,15.11 125.05,15.39 125.05,15.39 C125.69,15.28 125.88,14.83 125.88,14.83 C125.95,15.12 126.18,15.41 126.18,15.41 C126.69,15.23 126.87,14.86 126.87,14.86 C126.87,14.86 130.27,14.93 133.12,14.93 C135.97,14.93 139.37,14.86 139.37,14.86 C139.37,14.86 139.55,15.22 140.06,15.41 C140.06,15.41 140.29,15.12 140.36,14.83 C140.36,14.83 140.55,15.28 141.19,15.39 C141.19,15.39 141.19,15.11 141.32,14.78 C141.32,14.78 141.44,15.1 141.89,15.29 C141.89,15.29 141.8,15.35 141.63,15.39 C141.63,15.39 141.81,15.68 142.21,15.82 C142.48,16.89 141.18,16.89 141.77,18.14 C141.77,18.14 141.98,17.99 142.22,17.97 C142.17,18.73 141.16,18.78 141.26,19.75 C141.26,19.75 141.72,19.92 142.24,19.86 C142.24,19.86 142.03,20.27 141.45,20.89 C141.45,20.89 141.73,21.32 142.54,21.19 C142.54,21.19 142.42,21.48 142.03,21.83 C142.09,21.82 142.22,21.98 142.42,22.08 L142.42,22.08 Z M123.42,20.67 C123.42,20.67 123.32,20.27 123.73,20.13 C123.73,20.13 123.95,20.47 124.3,20.78 C124.3,20.78 123.93,21.02 123.42,20.67 Z M123.59,21.78 C123.59,21.78 123.13,21.79 122.8,21.5 C122.8,21.5 122.81,21.23 123.06,21.19 C123.07,21.19 123.37,21.36 123.59,21.78 Z M119.32,12.66 C120.82,14.07 120.23,15.12 120.23,15.12 C120.23,15.12 119.81,14.68 119.79,14.19 C119.77,13.7 119.21,12.99 119.21,12.99 C119.34,12.89 119.32,12.66 119.32,12.66 Z M119.09,11.58 C119.42,11.56 119.37,11.17 119.37,11.17 C119.37,11.17 119.86,11.5 120.19,12 C120.62,12.64 120.41,12.75 120.53,13.44 C119.56,12.68 119.09,11.58 119.09,11.58 Z M118.6,8.41 C118.6,8.41 119.28,8.84 119.3,9.91 C119.31,10.31 118.92,10.49 118.75,9.87 L118.9,9.66 C118.9,9.66 118.34,9.07 118.6,8.41 L118.6,8.41 Z M117.43,6.72 C117.43,6.72 117.68,6.94 118.04,7.14 C118.61,7.46 118.22,8.19 118.22,8.19 C118.22,8.19 118.12,8.02 117.56,7.7 C117.14,7.46 117.28,6.81 117.43,6.72 L117.43,6.72 Z M117.37,8.03 C117.37,8.03 117.21,8.07 116.99,7.99 L117.19,7.81 C117.19,7.81 117.23,7.94 117.37,8.03 L117.37,8.03 Z M117.96,4.03 C117.21,4.05 117.04,3.52 117.26,3.23 C117.48,2.94 117.94,3.1 117.9,3.38 C117.86,3.65 117.96,4.03 117.96,4.03 Z M117.65,6.35 C117.38,6.2 117.51,5.17 118.08,5.73 C118.46,6.11 118.39,6.81 118.39,6.81 C118.39,6.81 118.11,6.6 117.65,6.35 L117.65,6.35 Z M117.77,5.04 C117.45,4.52 117.83,4.18 118.2,4.6 C118.57,5.03 118.45,5.51 118.45,5.51 C118.45,5.51 118,5.4 117.77,5.04 Z M118.41,4.07 C118.41,4.07 118.13,3.79 118.24,3.13 C118.24,3.13 119.1,3.17 119.39,4.09 C119.39,4.09 118.92,3.97 118.41,4.07 Z M118.81,5.55 C119.38,6.06 120.05,6.27 119.92,7.37 C119.01,6.77 118.75,6.53 118.81,5.55 Z M119.69,9.01 C119.09,8.11 118.41,8.01 118.79,7.05 C118.79,7.05 119.92,7.52 119.69,9.01 Z M118.6,4.5 C119.45,4.31 119.9,4.93 119.9,5.69 C119.9,5.68 118.84,5.47 118.6,4.5 L118.6,4.5 Z M119.56,10.8 C119.56,10.8 119.51,10.42 119.74,10.08 C121.24,10.97 120.88,12.31 120.88,12.31 C120.45,11.84 120.46,11.38 119.56,10.8 L119.56,10.8 Z M120.43,5.77 C120.43,5.77 122.09,6.23 121.81,7.9 C121.3,6.94 120.3,7.06 120.14,6.26 C120.14,6.26 120.38,6.35 120.55,6.31 C120.55,6.32 120.43,6.05 120.43,5.77 L120.43,5.77 Z M120.41,7.27 C121.65,7.81 121.5,9.26 121.5,9.26 C121.08,8.62 120.23,8.57 120.09,7.9 C120.25,7.9 120.4,7.76 120.4,7.76 C120.3,7.53 120.41,7.27 120.41,7.27 L120.41,7.27 Z M120.23,8.72 C120.81,9.37 121.36,9.46 121.18,10.74 C121.18,10.74 120.5,10.2 120.09,9.62 C120.09,9.62 120.28,9.33 120.23,8.72 Z M120.89,14.65 C120.89,14.65 121.23,14.75 121.74,14.81 C121.74,14.81 121.95,15.62 122.99,15.55 C123.06,15.86 122.97,15.87 122.71,15.96 C122.45,16.05 122.21,16.25 122.15,17.05 C122.14,17.26 122.02,17.26 121.83,17.04 L120.74,15.79 C120.74,15.78 120.93,15.21 120.89,14.65 L120.89,14.65 Z M122.71,15.06 C122.05,14.9 122.28,14.14 122.42,14 C122.55,13.87 122.59,13.58 122.27,13.7 C121.7,13.92 121.95,14.3 121.58,14.23 C121.21,14.16 120.98,14.07 120.98,14.07 C121.16,13.7 121.2,13.31 121.2,13.31 C121.29,13.4 121.48,13.29 121.48,13.29 C121.2,12.73 121.54,12.5 121.54,12.5 C121.54,12.5 122.06,13 122.39,13.22 C122.65,13.4 122.8,13.28 122.85,13.19 C123.23,12.44 123.89,12.81 123.89,12.81 C124.7,12.31 125.17,12.75 125.17,12.75 C125.99,12.35 126.46,12.85 126.46,12.85 L126.77,13.53 C126.28,13.37 125.84,13.56 125.84,13.56 C125.44,13.31 124.85,13.47 124.85,13.47 C124.19,13.21 123.84,13.65 123.84,13.65 C123.62,13.34 123.3,13.18 123.46,13.59 C123.56,13.85 123.59,14.25 123.34,14.21 C123.09,14.17 122.97,14.31 123.18,14.56 C122.83,14.68 122.71,15.06 122.71,15.06 L122.71,15.06 Z M146.16,6.26 C146,7.06 145,6.93 144.49,7.9 C144.21,6.23 145.87,5.77 145.87,5.77 C145.87,6.05 145.75,6.31 145.75,6.31 C145.92,6.35 146.16,6.26 146.16,6.26 L146.16,6.26 Z M148.4,3.38 C148.36,3.11 148.82,2.94 149.04,3.23 C149.26,3.52 149.09,4.05 148.34,4.03 C148.34,4.03 148.44,3.65 148.4,3.38 L148.4,3.38 Z M148.74,7.7 C148.18,8.02 148.08,8.19 148.08,8.19 C148.08,8.19 147.7,7.46 148.26,7.14 C148.61,6.94 148.87,6.72 148.87,6.72 C149.02,6.81 149.16,7.46 148.74,7.7 L148.74,7.7 Z M149.11,7.81 L149.31,7.99 C149.09,8.06 148.93,8.03 148.93,8.03 C149.07,7.94 149.11,7.81 149.11,7.81 Z M147.92,6.81 C147.92,6.81 147.85,6.11 148.23,5.73 C148.8,5.17 148.93,6.2 148.66,6.35 C148.19,6.6 147.92,6.81 147.92,6.81 Z M148.52,5.04 C148.29,5.4 147.84,5.51 147.84,5.51 C147.84,5.51 147.72,5.03 148.09,4.6 C148.47,4.18 148.85,4.52 148.52,5.04 Z M147.89,4.07 C147.38,3.97 146.91,4.09 146.91,4.09 C147.19,3.17 148.06,3.13 148.06,3.13 C148.17,3.78 147.89,4.07 147.89,4.07 L147.89,4.07 Z M147.55,9.87 C147.38,10.49 147,10.31 147,9.91 C147.02,8.84 147.7,8.41 147.7,8.41 C147.96,9.07 147.4,9.67 147.4,9.67 L147.55,9.87 Z M147.09,12.99 C147.09,12.99 146.53,13.7 146.51,14.19 C146.49,14.68 146.07,15.12 146.07,15.12 C146.07,15.12 145.48,14.07 146.98,12.66 C146.98,12.66 146.96,12.89 147.09,12.99 L147.09,12.99 Z M145.76,13.43 C145.88,12.75 145.67,12.64 146.1,11.99 C146.43,11.49 146.92,11.16 146.92,11.16 C146.92,11.16 146.87,11.55 147.2,11.57 C147.21,11.58 146.74,12.68 145.76,13.43 Z M146.61,9.01 C146.38,7.52 147.51,7.05 147.51,7.05 C147.89,8.01 147.21,8.11 146.61,9.01 Z M147.7,4.5 C147.46,5.48 146.4,5.69 146.4,5.69 C146.4,4.93 146.85,4.31 147.7,4.5 L147.7,4.5 Z M147.49,5.55 C147.55,6.53 147.28,6.77 146.38,7.37 C146.25,6.26 146.93,6.06 147.49,5.55 Z M146.56,10.08 C146.79,10.41 146.74,10.8 146.74,10.8 C145.84,11.38 145.86,11.84 145.42,12.32 C145.42,12.31 145.06,10.97 146.56,10.08 Z M145.56,15.78 L144.47,17.03 C144.28,17.25 144.16,17.25 144.15,17.04 C144.09,16.25 143.86,16.04 143.59,15.95 C143.32,15.86 143.24,15.85 143.31,15.54 C144.35,15.61 144.56,14.8 144.56,14.8 C145.07,14.74 145.41,14.64 145.41,14.64 C145.37,15.21 145.56,15.78 145.56,15.78 L145.56,15.78 Z M146.21,9.62 C145.8,10.2 145.12,10.74 145.12,10.74 C144.94,9.46 145.49,9.37 146.07,8.72 C146.02,9.33 146.21,9.62 146.21,9.62 L146.21,9.62 Z M144.8,9.26 C144.8,9.26 144.64,7.82 145.89,7.27 C145.89,7.27 146,7.53 145.91,7.76 C145.91,7.76 146.06,7.9 146.22,7.9 C146.07,8.57 145.22,8.62 144.8,9.26 L144.8,9.26 Z M144.76,12.5 C144.76,12.5 145.1,12.73 144.82,13.29 C144.82,13.29 145.01,13.39 145.1,13.31 C145.1,13.31 145.14,13.71 145.32,14.07 C145.32,14.07 145.08,14.16 144.72,14.23 C144.35,14.3 144.6,13.92 144.03,13.7 C143.71,13.58 143.75,13.86 143.88,14 C144.01,14.13 144.25,14.9 143.59,15.06 C143.59,15.06 143.47,14.68 143.12,14.56 C143.33,14.31 143.21,14.16 142.96,14.21 C142.71,14.26 142.74,13.86 142.84,13.59 C143,13.18 142.68,13.34 142.46,13.65 C142.46,13.65 142.11,13.21 141.45,13.47 C141.45,13.47 140.86,13.31 140.46,13.56 C140.46,13.56 140.02,13.37 139.53,13.53 L139.84,12.85 C139.84,12.85 140.31,12.35 141.13,12.75 C141.13,12.75 141.6,12.31 142.41,12.81 C142.41,12.81 143.07,12.44 143.45,13.19 C143.5,13.29 143.64,13.4 143.91,13.22 C144.24,13 144.76,12.5 144.76,12.5 L144.76,12.5 Z M142.09,17.63 C142.06,17.09 142.5,16.79 142.5,16.79 C142.82,16.79 142.78,17.19 142.78,17.19 C142.38,17.35 142.09,17.63 142.09,17.63 Z M142.62,19.26 C142.11,19.61 141.69,19.39 141.69,19.39 C142.01,18.92 142.45,18.8 142.45,18.8 C142.75,18.92 142.62,19.26 142.62,19.26 L142.62,19.26 Z M142.24,15.34 C142.73,15.11 142.87,14.81 142.87,14.81 C143.24,14.91 143.19,15.15 143.19,15.15 C142.68,15.6 142.24,15.34 142.24,15.34 Z M142.04,14.82 C141.33,14.64 141.58,13.88 141.58,13.88 C141.84,13.66 142.2,13.92 142.2,13.92 C142,14.4 142.04,14.82 142.04,14.82 Z M141.19,13.85 C141.06,14.23 140.97,14.87 140.97,14.87 C140.35,14.4 140.68,13.88 140.68,13.88 C140.88,13.75 141.19,13.85 141.19,13.85 Z M140.21,13.96 C140,14.4 139.95,14.9 139.95,14.9 C139.58,14.47 139.77,13.96 139.77,13.96 C139.97,13.82 140.21,13.96 140.21,13.96 Z M133.15,13.04 C129.65,13.04 127.68,13.83 127.28,13.96 C126.88,14.09 126.84,13.79 127.12,13.66 C127.4,13.53 129.73,12.61 133.15,12.61 C136.57,12.61 138.89,13.53 139.17,13.66 C139.45,13.79 139.41,14.09 139.01,13.96 C138.62,13.83 136.65,13.04 133.15,13.04 Z M137.36,14.02 C137.36,14.02 136.43,14.11 133.15,14.11 C129.86,14.11 128.94,14.02 128.94,14.02 C128.94,14.02 129.88,13.45 133.15,13.45 C136.43,13.45 137.36,14.02 137.36,14.02 Z M126.86,12.87 C126.88,12.86 126.9,12.86 126.93,12.86 C127.1,12.86 127.23,12.99 127.23,13.16 C127.23,13.24 127.2,13.32 127.14,13.37 L126.86,12.87 Z M127.55,12.81 C127.55,12.65 127.68,12.51 127.85,12.51 C128.02,12.51 128.15,12.64 128.15,12.81 C128.15,12.9756854 128.015685,13.11 127.85,13.11 C127.684315,13.11 127.55,12.9756854 127.55,12.81 Z M128.57,12.55 C128.57,12.39 128.7,12.25 128.87,12.25 C129.03,12.25 129.17,12.38 129.17,12.55 C129.17,12.7156854 129.035685,12.85 128.87,12.85 C128.7,12.85 128.57,12.72 128.57,12.55 Z M129.65,12.3 C129.65,12.14 129.78,12 129.95,12 C130.11,12 130.25,12.13 130.25,12.3 C130.25,12.3795649 130.218393,12.4558711 130.162132,12.512132 C130.105871,12.5683929 130.029565,12.6 129.95,12.6 C129.870435,12.6 129.794129,12.5683929 129.737868,12.512132 C129.681607,12.4558711 129.65,12.3795649 129.65,12.3 L129.65,12.3 Z M130.71,12.14 C130.71,11.98 130.84,11.84 131.01,11.84 C131.18,11.84 131.31,11.97 131.31,12.14 C131.31,12.3 131.18,12.44 131.01,12.44 C130.84,12.44 130.71,12.31 130.71,12.14 Z M131.79,12.06 C131.79,11.9 131.92,11.76 132.09,11.76 C132.25,11.76 132.39,11.89 132.39,12.06 C132.39,12.23 132.26,12.36 132.09,12.36 C131.92,12.35 131.79,12.22 131.79,12.06 Z M132.85,12.03 C132.85,11.87 132.98,11.73 133.15,11.73 C133.32,11.73 133.45,11.86 133.45,12.03 C133.45,12.2 133.32,12.33 133.15,12.33 C132.98,12.33 132.85,12.19 132.85,12.03 Z M133.91,12.06 C133.91,11.9 134.04,11.76 134.21,11.76 C134.38,11.76 134.51,11.89 134.51,12.06 C134.51,12.23 134.38,12.36 134.21,12.36 C134.04,12.36 133.91,12.22 133.91,12.06 Z M134.99,12.14 C134.99,11.98 135.12,11.84 135.29,11.84 C135.45,11.84 135.59,11.97 135.59,12.14 C135.59,12.3056854 135.455685,12.44 135.29,12.44 C135.124315,12.44 134.99,12.3056854 134.99,12.14 L134.99,12.14 Z M136.06,12.3 C136.06,12.14 136.19,12 136.36,12 C136.53,12 136.66,12.13 136.66,12.3 C136.66,12.46 136.53,12.6 136.36,12.6 C136.19,12.6 136.06,12.46 136.06,12.3 Z M137.13,12.55 C137.13,12.39 137.26,12.25 137.43,12.25 C137.6,12.25 137.73,12.38 137.73,12.55 C137.73,12.71 137.6,12.85 137.43,12.85 C137.26,12.85 137.13,12.72 137.13,12.55 Z M138.15,12.81 C138.15,12.65 138.28,12.51 138.45,12.51 C138.62,12.51 138.75,12.64 138.75,12.81 C138.75,12.97 138.62,13.11 138.45,13.11 C138.28,13.11 138.15,12.97 138.15,12.81 Z M139.17,13.38 C139.11063,13.3266038 139.077721,13.2498171 139.08,13.17 C139.08,13.01 139.21,12.87 139.38,12.87 C139.4,12.87 139.43,12.87 139.45,12.88 L139.17,13.38 Z M133.15,11.43 C129.9,11.43 126.74,12.64 126.74,12.64 L126.24,11.9 C126.24,11.9 127.11,12.34 128.14,12.03 C129.27,11.69 129.52,10.93 129.52,10.93 C129.52,10.93 130.3,11.52 131.48,11.37 C132.42,11.25 133.15,10.48 133.15,10.48 C133.15,10.48 133.89,11.25 134.82,11.37 C136,11.52 136.78,10.93 136.78,10.93 C136.78,10.93 137.02,11.7 138.16,12.03 C139.19,12.34 140.06,11.9 140.06,11.9 L139.56,12.64 C139.56,12.64 136.4,11.43 133.15,11.43 L133.15,11.43 Z M140.2,11.45 C139.41,11.92 137.56,12.02 136.91,10.43 C136.91,10.43 136.15,11.15 134.95,11.01 C133.94,10.9 133.15,9.9 133.15,9.9 C133.15,9.9 132.36,10.89 131.35,11 C130.16,11.13 129.39,10.42 129.39,10.42 C128.74,12.01 126.89,11.91 126.1,11.44 C125.9,11.32 125.99,11.09 126.2,11.18 C126.41,11.27 126.99,11.59 127.84,11.41 C128.98,11.16 129.3,9.98 129.3,9.98 C129.3,9.98 130.18,10.96 131.47,10.69 C132.56,10.46 133.14,9.37 133.14,9.37 C133.14,9.37 133.73,10.46 134.81,10.69 C136.1,10.96 136.98,9.98 136.98,9.98 C136.98,9.98 137.3,11.17 138.44,11.41 C139.29,11.6 139.87,11.28 140.09,11.18 C140.31,11.09 140.4,11.33 140.2,11.45 L140.2,11.45 Z M126.36,14.9 C126.36,14.9 126.3,14.4 126.1,13.96 C126.1,13.96 126.34,13.83 126.54,13.96 C126.53,13.96 126.72,14.47 126.36,14.9 L126.36,14.9 Z M125.33,14.87 C125.33,14.87 125.24,14.24 125.11,13.85 C125.11,13.85 125.42,13.75 125.62,13.88 C125.62,13.88 125.94,14.4 125.33,14.87 Z M124.09,13.93 C124.09,13.93 124.44,13.67 124.71,13.89 C124.71,13.89 124.96,14.66 124.25,14.83 C124.25,14.82 124.3,14.4 124.09,13.93 L124.09,13.93 Z M123.43,14.81 C123.43,14.81 123.58,15.11 124.06,15.34 C124.06,15.34 123.62,15.61 123.1,15.15 C123.11,15.15 123.07,14.91 123.43,14.81 Z M123.8,16.79 C123.8,16.79 124.24,17.08 124.21,17.63 C124.21,17.63 123.92,17.35 123.52,17.19 C123.52,17.19 123.48,16.79 123.8,16.79 Z M123.84,18.81 C123.84,18.81 124.28,18.93 124.6,19.4 C124.6,19.4 124.19,19.62 123.67,19.27 C123.68,19.26 123.55,18.92 123.84,18.81 Z M142,20.78 C142.35,20.47 142.57,20.13 142.57,20.13 C142.98,20.28 142.88,20.67 142.88,20.67 C142.37,21.02 142,20.78 142,20.78 Z M143.23,21.19 C143.48,21.23 143.49,21.5 143.49,21.5 C143.15,21.79 142.7,21.78 142.7,21.78 C142.93,21.36 143.23,21.19 143.23,21.19 Z M151.49,6.7 C151.25,6.79 150.95,6.58 151.29,6.33 C151.55,6.49 151.49,6.7 151.49,6.7 Z M150.86,2.63 C151.31,2.59 151.42,2.83 151.35,3.23 C151.31,3.43 151.29,3.57 151.77,3.56 C152.92,3.52 153.15,3.81 152.9,4.05 C152.72,4.22 152.61,4.35 152.85,4.53 C153.14,4.75 152.84,5.36 152.52,5.24 C151.56,4.88 151.27,4.91 150.9,5.75 C150.53,6.59 150.44,7.3 152.06,7.1 C152.06,7.1 152.03,7.52 150.99,7.46 C149.95,7.41 149.76,5.78 151.03,4.45 C151.33,4.14 151.28,3.97 151.08,3.77 C151.06,3.39 151.06,3.04 150.33,3.39 C149.68,3.7 149.73,3.92 150.11,3.9 C150.49,3.88 150.76,4.17 150.76,4.17 C150.76,4.17 150.13,4.77 149.87,5.83 C149.51,7.33 150.38,7.8 150.38,7.8 C150.38,7.8 149.85,8.2 149.31,7.49 C149.31,7.49 149.56,6.87 149.2,6.46 C149.2,6.46 149.4,5.88 148.93,5.19 C148.93,5.19 149.28,4.84 149.04,4.13 C149.04,4.13 149.73,3.84 149.4,3.04 C149.4,3.05 150.06,2.7 150.86,2.63 Z M149.81,2.12 L149.46,2.29 C149.232792,2.12756883 149.069956,1.89039512 149,1.62 C149.56,1.41 149.81,2.12 149.81,2.12 L149.81,2.12 Z M149.11,2.51 C148.53,2.83 147.82,2.16 147.79,1.86 C148.57,1.51 148.74,2.21 149.11,2.51 Z M148.01,2.74 C148.01,2.74 147.38,3.18 146.4,2.37 C146.4,2.37 147.31,1.75 148.01,2.74 Z M147.09,3.12 C146.74,3.85 145.8,3.33 145.14,3.45 C145.8,2.26 146.68,3.23 147.09,3.12 Z M146.42,3.86 C146.19,4.59 145.24,4.21 144.66,4.62 C144.99,3.65 145.71,3.98 146.42,3.86 Z M146.19,4.67 C146.21,5.42 144.97,5.53 144.36,6.19 C144.38,4.64 146.19,4.67 146.19,4.67 Z M143.94,8.79 C143.94,8.79 144.06,8.88 144.24,8.82 C144.15,9.35 144.34,9.67 144.15,10.37 C144.15,10.37 144.31,10.47 144.5,10.44 C144.62,11.1 144.22,11.32 144.5,11.97 C144.5,11.97 144.26,12.3 143.73,12.6 C143.73,12.6 143.04,11.95 142.37,12.27 C142.37,12.27 141.65,11.83 141.07,12.27 C141.07,12.27 140.86,12.09 140.49,12.18 C140.49,12.18 140.96,11.57 140.82,10.74 C140.82,10.74 141.7,9.89 142.4,8.84 C143.1,7.79 143.29,6.95 143.7,6.41 C143.7,6.41 143.84,6.75 143.61,7.08 C143.61,7.08 143.71,7.22 143.89,7.24 C143.77,8.09 144.05,8.32 143.94,8.79 Z M141.86,6.54 C142,6.74 142.04,7.18 141.9,7.31 C141.72,7.2 141.63,6.75 141.86,6.54 Z M141.02,7.65 C141.19,7.69 141.3,7.59 141.17,7.39 C140.96,7.07 141,6.32 141.66,6.01 C141.66,6.01 141.11,7.27 141.87,8.01 C141.87,8.01 142.29,7.92 142.28,7.18 C142.27,6.26 141.91,5.36 142.68,5.14 C142.68,5.14 142.52,5.49 142.62,5.93 C142.66,6.08 142.83,6.05 142.82,5.78 C142.81,5.51 143.12,4.93 143.87,5.03 C143.87,5.03 143.37,5.75 142.97,6.52 C142.57,7.3 142.51,7.84 141.48,9.33 C141.48,9.33 141.37,8.27 140.57,8.29 C140.37,7.9 140.66,7.56 141.02,7.65 L141.02,7.65 Z M138.82,8.63 C138.67,8.92 138.33,8.73 138.51,8.53 C138.63,8.39 138.51,8.1 138.22,8.35 C137.46,9.03 137.39,10.36 138.51,10.73 C139.62,11.09 140.6,10.19 140.65,9.19 C140.66,8.96 140.38,8.86 140.38,9.18 C140.38,9.49 139.81,9.4 139.98,9 C140.22,8.44 141.09,8.75 140.99,9.45 C140.83,10.59 139.64,11.42 138.4,11.06 C137.16,10.7 136.83,9.11 137.94,8.11 C138.38,7.72 139.08,8.14 138.82,8.63 L138.82,8.63 Z M137.76,4.58 C137.96,4.72 138,5.12 137.83,5.44 C137.6,5.14 137.6,4.76 137.76,4.58 L137.76,4.58 Z M136.99,5.76 C136.59,5.16 136.75,4.35 137.39,4.26 C137.39,4.26 137.14,5.5 137.93,6.12 C137.93,6.12 138.61,5.22 137.99,4.06 C137.99,4.06 137.95,3.45 138.43,3.31 C138.43,3.31 138.48,3.85 138.68,4.11 C138.74,4.19 138.81,4.05 138.77,3.81 C138.71,3.48 139.07,2.81 139.72,2.7 C139.72,2.7 140.47,3.62 139.68,4.2 C139.55,4.3 139.63,4.5 139.8,4.43 C140.09,4.31 140.24,4.12 140.24,4.12 C140.24,4.12 140.52,4.63 140.05,4.82 C138.41,5.48 138.49,6.31 138.49,6.31 C138.49,6.31 139.51,6.51 140.22,5.42 C140.42,6.06 140.26,6.57 139.61,6.74 C139.42,6.79 139.38,6.96 139.56,7.08 C139.83,7.25 139.82,7.95 139.2,8.04 C139.2,8.04 138.59,7.22 137.59,7.93 C137.59,7.93 137.36,6.99 136.47,7.07 C136,6.66 136.22,5.7 136.99,5.76 L136.99,5.76 Z M139.91,5.28 C139.82,5.58 139.27,5.97 138.91,5.98 C139.07,5.63 139.54,5.29 139.91,5.28 Z M134.66,7.69 C134.5,7.89 134.2,7.73 134.31,7.54 C134.5,7.2 134.22,7.09 133.99,7.39 C133.4,8.16 133.69,9.65 134.83,9.98 C135.91,10.29 136.63,9.44 136.79,9 C136.95,8.56 136.94,7.73 136.65,7.8 C136.45,7.85 136.65,8.07 136.49,8.12 C136.15,8.23 135.97,7.62 136.42,7.48 C136.87,7.34 137.13,7.66 137.23,7.95 C137.52,8.8 136.72,10.65 134.92,10.31 C133.24,10 133.11,8.04 133.66,7.32 C134.27,6.52 135.06,7.09 134.66,7.69 L134.66,7.69 Z M131.65,5.62 C131.86,5.57 131.77,5.43 131.67,5.37 C131.06,4.98 131.31,4.15 131.76,3.84 C131.57,5.34 132.89,5.46 132.89,5.46 C132.89,5.46 133.2,4.67 132.39,3.97 C131.99,3.62 131.92,3.32 132.13,3.17 C132.25,3.08 132.45,3.31 132.58,3.42 C132.73,3.56 132.85,3.48 132.73,3.32 C132.12,2.52 133.16,1.88 133.16,1.88 C133.16,1.88 134.19,2.52 133.58,3.32 C133.46,3.48 133.58,3.55 133.73,3.42 C133.85,3.31 134.06,3.08 134.18,3.17 C134.39,3.32 134.32,3.62 133.92,3.97 C133.11,4.67 133.42,5.46 133.42,5.46 C133.42,5.46 134.73,5.34 134.54,3.84 C134.99,4.14 135.24,4.98 134.63,5.37 C134.53,5.43 134.44,5.57 134.65,5.62 C135.11,5.72 135.34,6.42 134.9,6.74 C134.42,6.45 133.67,6.47 133.15,7.35 C132.64,6.46 131.88,6.45 131.4,6.74 C130.96,6.42 131.19,5.72 131.65,5.62 L131.65,5.62 Z M132.1,4.31 C132.33,4.34 132.66,4.71 132.62,5.07 C132.22,5.04 132.02,4.47 132.1,4.31 L132.1,4.31 Z M133.67,5.07 C133.63,4.71 133.97,4.33 134.19,4.31 C134.27,4.47 134.07,5.04 133.67,5.07 Z M129.81,8.13 C129.65,8.08 129.85,7.85 129.65,7.81 C129.37,7.74 129.35,8.57 129.51,9.01 C129.67,9.45 130.39,10.29 131.47,9.99 C132.61,9.67 132.9,8.18 132.31,7.4 C132.08,7.1 131.8,7.21 131.99,7.55 C132.1,7.74 131.8,7.9 131.64,7.7 C131.24,7.1 132.03,6.52 132.65,7.35 C133.2,8.07 133.07,10.02 131.39,10.34 C129.59,10.68 128.79,8.83 129.08,7.98 C129.18,7.68 129.44,7.37 129.89,7.51 C130.34,7.63 130.15,8.24 129.81,8.13 L129.81,8.13 Z M128.54,4.58 C128.7,4.76 128.7,5.14 128.47,5.44 C128.3,5.12 128.34,4.72 128.54,4.58 L128.54,4.58 Z M127.11,8.03 C126.49,7.94 126.47,7.24 126.75,7.07 C126.93,6.95 126.89,6.79 126.7,6.73 C126.05,6.55 125.89,6.04 126.09,5.4 C126.79,6.49 127.82,6.29 127.82,6.29 C127.82,6.29 127.89,5.47 126.26,4.8 C125.79,4.61 126.07,4.1 126.07,4.1 C126.07,4.1 126.22,4.29 126.51,4.41 C126.69,4.49 126.76,4.28 126.63,4.18 C125.84,3.61 126.59,2.68 126.59,2.68 C127.24,2.79 127.6,3.47 127.54,3.79 C127.49,4.04 127.57,4.17 127.63,4.09 C127.83,3.83 127.88,3.29 127.88,3.29 C128.35,3.43 128.32,4.04 128.32,4.04 C127.71,5.2 128.38,6.1 128.38,6.1 C129.17,5.47 128.92,4.24 128.92,4.24 C129.56,4.33 129.72,5.14 129.32,5.74 C130.08,5.69 130.31,6.64 129.86,7.04 C128.96,6.97 128.74,7.9 128.74,7.9 C127.72,7.21 127.11,8.03 127.11,8.03 Z M126.39,5.28 C126.77,5.29 127.24,5.63 127.39,5.98 C127.02,5.97 126.47,5.58 126.39,5.28 Z M126.32,9 C126.49,9.4 125.92,9.49 125.92,9.18 C125.92,8.87 125.63,8.96 125.64,9.19 C125.69,10.19 126.66,11.09 127.78,10.73 C128.89,10.37 128.83,9.03 128.07,8.35 C127.78,8.1 127.66,8.39 127.78,8.53 C127.96,8.73 127.62,8.92 127.47,8.63 C127.22,8.14 127.92,7.72 128.36,8.12 C129.47,9.12 129.14,10.71 127.9,11.07 C126.66,11.43 125.47,10.59 125.31,9.46 C125.21,8.75 126.09,8.44 126.32,9 Z M124.44,6.54 C124.68,6.75 124.58,7.2 124.4,7.31 C124.26,7.19 124.29,6.74 124.44,6.54 L124.44,6.54 Z M123.49,5.78 C123.48,6.05 123.65,6.08 123.69,5.93 C123.79,5.49 123.63,5.14 123.63,5.14 C124.4,5.36 124.04,6.26 124.03,7.18 C124.02,7.92 124.44,8.01 124.44,8.01 C125.2,7.26 124.65,6.01 124.65,6.01 C125.31,6.33 125.35,7.07 125.14,7.39 C125.01,7.59 125.12,7.7 125.29,7.65 C125.65,7.56 125.93,7.9 125.75,8.29 C124.95,8.27 124.84,9.33 124.84,9.33 C123.8,7.84 123.74,7.3 123.34,6.52 C122.94,5.74 122.45,5.03 122.45,5.03 C123.18,4.93 123.5,5.52 123.49,5.78 Z M122.06,8.83 C122.24,8.88 122.36,8.8 122.36,8.8 C122.25,8.33 122.54,8.1 122.4,7.26 C122.58,7.24 122.68,7.1 122.68,7.1 C122.45,6.77 122.59,6.43 122.59,6.43 C123,6.96 123.19,7.8 123.89,8.85 C124.59,9.9 125.47,10.75 125.47,10.75 C125.33,11.58 125.8,12.19 125.8,12.19 C125.43,12.1 125.22,12.28 125.22,12.28 C124.64,11.84 123.92,12.28 123.92,12.28 C123.25,11.97 122.56,12.61 122.56,12.61 C122.03,12.31 121.79,11.98 121.79,11.98 C122.07,11.33 121.67,11.11 121.79,10.45 C121.98,10.48 122.14,10.38 122.14,10.38 C121.95,9.68 122.15,9.36 122.06,8.83 Z M121.94,6.19 C121.33,5.52 120.09,5.42 120.11,4.67 C120.11,4.67 121.92,4.64 121.94,6.19 Z M121.64,4.62 C121.06,4.21 120.11,4.58 119.88,3.86 C120.59,3.98 121.31,3.65 121.64,4.62 Z M121.17,3.45 C120.5,3.33 119.57,3.85 119.22,3.12 C119.62,3.23 120.5,2.26 121.17,3.45 Z M119.9,2.37 C118.92,3.18 118.29,2.74 118.29,2.74 C118.99,1.75 119.9,2.37 119.9,2.37 Z M118.51,1.86 C118.48,2.16 117.77,2.82 117.19,2.51 C117.56,2.21 117.72,1.51 118.51,1.86 Z M117.3,1.62 C117.3,1.62 117.23,2 116.84,2.29 L116.49,2.12 C116.49,2.12 116.74,1.41 117.3,1.62 L117.3,1.62 Z M115,6.33 C115.35,6.59 115.04,6.79 114.8,6.7 C114.8,6.7 114.75,6.49 115,6.33 Z M114.24,7.1 C115.86,7.3 115.77,6.58 115.4,5.75 C115.03,4.92 114.75,4.88 113.78,5.24 C113.46,5.36 113.16,4.75 113.45,4.53 C113.69,4.35 113.57,4.22 113.4,4.05 C113.15,3.81 113.38,3.52 114.53,3.56 C115,3.58 114.98,3.43 114.95,3.23 C114.88,2.83 114.99,2.59 115.44,2.63 C116.24,2.69 116.9,3.05 116.9,3.05 C116.57,3.85 117.26,4.14 117.26,4.14 C117.02,4.86 117.37,5.2 117.37,5.2 C116.9,5.89 117.1,6.47 117.1,6.47 C116.74,6.88 116.99,7.5 116.99,7.5 C116.45,8.21 115.92,7.81 115.92,7.81 C115.92,7.81 116.79,7.34 116.43,5.84 C116.17,4.78 115.54,4.18 115.54,4.18 C115.54,4.18 115.81,3.89 116.19,3.91 C116.57,3.93 116.63,3.71 115.97,3.4 C115.23,3.05 115.23,3.4 115.22,3.78 C115.02,3.98 114.98,4.15 115.27,4.46 C116.53,5.79 116.35,7.41 115.31,7.47 C114.27,7.52 114.24,7.1 114.24,7.1 L114.24,7.1 Z M108.89,32.53 C108.71,32.01 108.65,31.96 108.92,31.03 C109.05,30.59 109.05,30.46 109.35,30.51 C109.84,30.58 109.65,30.01 109.92,29.59 C110.08,29.34 110.1,29.15 109.93,28.61 C109.76,28.07 109.55,27.65 109.55,27.65 C109.55,27.65 109.85,26.91 109.98,26.13 C110.06,25.61 109.56,25.44 109.47,25.89 C109.26,26.97 108.56,28.12 106.97,28.12 C105.71,28.12 104.76,26.92 104.76,25.57 C104.76,24.12 106.14,22.7 106.77,21.98 C108.57,19.94 108.8,19.06 108.88,18.11 C108.96,17.1 108.67,16.79 108.67,16.79 C107.62,17.13 107.38,16.25 107.38,16.25 C107.54,16.05 107.78,16.04 107.78,16.04 C107.57,15.73 107.07,15.95 106.89,15.25 C107.05,15.14 107.42,15.23 107.42,15.23 C107.18,14.66 106.54,14.89 106.67,13.84 C107.86,13.81 107.75,14.72 108.13,14.82 C108.1,14.56 108.27,14.39 108.27,14.39 C108.75,14.77 108.43,15.18 108.75,15.47 C108.81,15.27 108.96,15.17 108.96,15.17 C109.47,15.81 109.06,16.49 109.06,16.49 C110.29,19.47 106.99,22.11 105.77,23.91 C104.86,25.25 105.32,27.13 106.51,27.47 C107.7,27.81 108.64,27.14 109.39,24.52 C109.73,23.34 109.87,23.07 110.88,21.85 C111.89,20.63 112.13,19.65 112.27,18.8 C112.41,17.95 112.6,15.06 112.67,14.42 C112.74,13.78 113.32,13.5 113.55,13.2 C113.78,12.9 113.61,12.69 113.41,12.9 C113,13.33 112.57,13.47 112.57,13.47 C112.61,12.29 113.69,12.19 114.02,11.54 C114.14,11.3 114.01,11.17 113.82,11.36 C113.41,11.76 112.83,11.97 112.83,11.97 C112.97,10.94 113.96,10.84 114.22,10.41 C114.37,10.16 114.26,9.97 114.06,10.14 C113.6,10.53 113.2,10.59 113.2,10.59 C113.2,10.59 113.44,9.91 114.25,9.46 C114.52,9.31 114.43,9.16 114.24,9.19 C114.04,9.22 113.77,9.15 113.77,9.15 C114.21,8.5 114.89,8.68 115.1,8.94 C115.22,9.09 115.31,8.97 115.31,8.84 C115.31,8.71 115.28,8.43 115.71,8.36 C116.14,8.29 116.31,8.62 116.32,8.76 C116.33,8.9 116.55,8.87 116.57,8.76 C116.6,8.65 116.78,8.42 117.38,8.55 C117.98,8.68 118.16,9.22 118.16,9.22 C117.72,9.06 117.55,9.18 117.8,9.4 C118.75,10.21 118.69,10.8 118.69,10.8 C118.29,10.43 118.13,10.58 118.32,10.86 C118.8,11.52 118.76,12.26 118.76,12.26 C118.76,12.26 118.46,12.13 118.32,12.01 C118.09,11.8 117.87,12.05 118.09,12.31 C119.3,13.73 119.05,14.34 119.52,15.13 C119.99,15.92 121.67,17.67 122.04,18.01 C122.38,18.32 122.69,17.74 122.75,17.12 C122.79,16.68 122.93,16.24 123.4,16.57 C122.9,17.15 123.36,17.59 123.36,17.59 C122.95,18.31 123.12,18.26 123.61,18.43 C122.8,19.05 123.48,19.92 123.48,19.92 C122.94,20.18 123.03,20.81 123.03,20.81 C122.67,20.8 122.49,21.12 122.49,21.12 C122.49,21.12 122.19,20.87 122.04,20.54 C121.81,20.06 122.15,19.75 121.63,19.36 C120.26,18.36 118.84,17.15 118.44,16.68 C118.04,16.21 118.01,16.42 117.89,16.75 C117.38,15.87 117.2,15.15 117.05,15.62 C116.98,15.87 116.82,15.93 116.82,15.93 C116.58,14.85 116.65,13.86 116.08,14.57 C115.98,13.76 115.68,13.75 115.73,12.83 C115.74,12.5 115.35,12.36 115.33,12.77 C115.27,13.92 115.74,14.15 115.66,15.11 C115.62,15.62 115.82,15.69 116.2,15.62 C116.43,16.46 116.8,16.95 116.8,16.95 C116.94,16.69 117.14,16.61 117.14,16.61 C117.55,17.02 117.74,17.48 118.13,17.8 C118.2,17.56 118.3,17.47 118.57,17.69 C118.84,17.9 118.75,18 118.75,18.16 C118.75,18.32 118.54,18.68 118.54,18.68 C118.508141,18.5524859 118.42487,18.4438724 118.31,18.38 C118.07,18.69 118.23,19.5 117.59,19.97 C117.56,19.7 117.42,19.62 117.42,19.62 C117.01,19.95 117.21,20.3 116.77,20.63 C116.74,20.5 116.63,20.52 116.63,20.52 C116.63,20.52 116.18,21.36 114.91,22.76 C114.29,23.45 114.51,24.18 113.65,26.32 C113.32,27.14 113.18,27.33 112.91,28.41 C112.64,29.49 112.47,29.39 110.4,31.13 C110.07,31.4 110.16,31.46 110.2,31.64 C110.24,31.82 110.54,32.8 110.54,32.8 C110.14,32.94 110.39,33.43 110.68,33.34 C112.54,32.76 112.89,33.33 112.89,33.33 C112.58,33.23 112.24,33.6 112.24,33.6 C111.53,33.22 111.26,34.07 111.26,34.07 C111.1,33.87 110.91,34.01 110.91,34.01 C111.19,34.36 110.78,34.52 110.41,34.32 C109.97,34.08 109.74,34.56 109.52,34.15 C109.39,33.89 109.07,33.06 108.89,32.53 L108.89,32.53 Z M115.19,30.98 C115.34,31.5 115.58,32.35 115.83,33.13 C116.08,33.91 116.48,34.1 116.48,34.1 C116.18,34.23 115.68,34.2 115.68,34.2 C114.99,32.16 113.29,32.26 113.29,32.26 C113.27,33.72 114.59,34.35 114.59,34.35 C114.24,34.43 113.89,34.4 113.89,34.4 C113.09,32.86 113.24,32.21 111.1,32.61 C110.9,32.11 110.8,31.51 110.8,31.51 C112.84,29.92 113.39,29.44 113.49,28.78 C113.59,28.13 113.84,27.56 113.84,27.56 C114.34,28.36 114.47,28.33 114.89,28.46 C115.31,28.59 115.22,28.71 115.58,29.87 C115.78,30.52 115,30.27 115.19,30.98 L115.19,30.98 Z M115.29,34.28 C114.64,34.12 113.96,33.5 113.79,32.81 C114.44,32.98 115.15,33.66 115.29,34.28 Z M113.39,34.53 C113.39,34.53 113.14,34.3 112.69,33.92 C112.69,33.92 112.73,33.77 113.05,33.75 C113.04,33.76 113.48,34.02 113.39,34.53 Z M112.29,34.47 C112.29,34.47 111.97,34.3 111.72,34.01 C111.72,34.01 111.72,33.82 112.04,33.8 C112.04,33.81 112.35,34.1 112.29,34.47 Z M113.6,36.48 C113.96,35.99 115.99,35.23 116.62,35.73 C116.42,35.99 115.39,36.67 113.6,36.48 Z M113.88,35.35 C109.33,35.54 107.55,34.72 107.55,34.72 L107.76,34.42 C108.78,34.67 109.16,34.53 109.58,34.72 C110,34.91 110.07,34.47 110.89,34.78 C111.18,34.89 111.31,34.78 111.48,34.53 C111.67,34.53 112.05,34.7 112.22,34.89 C112.38,35.07 112.69,35.08 112.62,34.95 C112.54,34.82 112.7,34.63 112.7,34.63 C112.7,34.63 113.08,34.69 113.49,35.05 C113.77,35.29 113.74,34.99 114.02,34.8 C115.99,34.8 117.07,34.57 117.07,34.57 C117.88,34.82 118.19,34.21 118.19,34.21 C118.49,34.38 118.74,34.36 118.74,34.36 C119.14,34.59 119.63,34.61 119.63,34.61 C119.63,34.61 117.59,35.19 113.88,35.35 L113.88,35.35 Z M118.71,33.72 C118.71,33.72 118.81,33.51 119.03,33.51 C119.03,33.51 119.5,33.79 119.47,34.17 C119.47,34.17 118.96,34.06 118.71,33.72 L118.71,33.72 Z M119.33,33.17 C118.49,32.93 118.2,33.4 118.44,33.89 C117.55,33.53 117.72,34.14 117.72,34.14 C117.72,34.14 117.55,34.39 117.23,34.22 C117.05,34.13 116.55,33.6 116.34,33.08 C116.13,32.57 116,31.77 115.81,31.19 C115.62,30.6 116.27,30.85 116.15,30.15 C116.07,29.67 115.86,28.9 115.66,28.39 C115.45,27.88 115.11,28.09 114.73,27.71 C114.46,27.44 114.09,26.93 114.09,26.93 C114.09,26.93 114.6,26.1 115,24.26 C115.22,23.25 115.66,23.01 115.66,23.01 C115.66,23.01 116.02,23.84 116.93,24.77 C117.23,25.08 117.35,25.32 117.4,26.02 C117.46,26.72 117.74,27.61 117.84,28.61 C117.88,29.07 117.98,29.26 117.58,29.9 C117.11,30.66 117.03,30.77 117.48,32.36 C117.61,32.81 117.82,32.94 118.14,32.85 C118.96,32.64 119.35,32.6 119.65,32.83 C119.41,32.9 119.33,33.17 119.33,33.17 Z M119.73,34.61 C119.73,34.61 119.86,34.38 119.84,34.14 C119.84,34.14 120.31,34.14 120.65,34.42 C120.66,34.42 120.07,34.57 119.73,34.61 Z M119.71,33.42 C119.71,33.42 119.75,33.12 120.07,33.1 C120.07,33.1 120.62,33.48 120.62,33.95 C120.62,33.94 120.22,33.68 119.71,33.42 Z M118.35,32.23 C118,32.3 118,32.26 117.84,31.53 C117.67,30.8 117.81,30.73 118.13,30.16 C118.39,29.7 118.58,29.41 118.51,28.98 C118.45,28.55 118.24,26.72 118.07,25.85 C117.89,24.99 117.86,24.85 116.89,23.63 C116.38,23 116.13,22.39 116.13,22.39 L116.59,21.82 C116.69,21.96 116.88,22 116.88,22 C117.12,21.71 117.06,21.23 117.44,21.02 C117.6,20.97 117.77,21.1 117.77,21.1 C118.08,20.67 117.79,20.59 118.52,19.76 C118.68,19.78 118.76,19.98 118.76,19.98 C119.08,19.58 118.81,19.3 119.35,18.29 C119.8,18.61 120.44,19.14 120.92,19.44 C121.4,19.74 121.36,19.81 121.56,20.6 C121.83,21.7 122.42,21.64 122.42,21.64 C122.58,21.9 123.08,22.09 123.08,22.09 L123.2,26.54 C123.35,32.17 127.23,33.62 132,34.09 C131.81,34.41 131.91,34.7 131.91,34.7 C131.91,34.7 131.02,34.5 130.3,35.04 C130.02,35.25 129.82,35.15 129.82,35.15 C128.74,33.35 127.17,33.2 127.17,33.2 C126.84,33.44 127.49,34.46 127.49,34.46 C126.42,32.43 124.64,31.92 124.64,31.92 C124.59,33.21 125.47,33.84 125.47,33.84 L124.84,33.63 C124.41,31.43 122.88,31.11 122.88,31.11 C122.59,32.54 123.69,33.44 123.69,33.44 L123.25,33.36 C122.96,32.6 122.34,31.8 122.34,31.8 C123.79,29.3 122.48,27.51 122.48,27.51 C121.92,28.27 121.67,29.03 121.67,29.03 C121.45,28.47 121.38,27.93 121.38,27.93 C123.31,25.35 122.27,23.24 122.27,23.24 C121.51,23.75 121.16,24.68 121.16,24.68 L121.13,23.98 C122.32,21.44 120.52,19.8 120.52,19.8 C119.07,22.38 120.79,23.98 120.79,23.98 L120.82,24.65 C120.21,23.07 119,22.75 119,22.75 C118.6,25.48 120.77,26.73 120.77,26.73 C120.79,27.22 120.87,27.65 120.87,27.65 C120.28,27.01 119.54,26.73 119.54,26.73 C119.36,29.92 121.57,30.75 121.57,30.75 C121.71,31.1 121.76,31.42 121.76,31.42 C120.77,30.76 119.94,30.81 119.94,30.81 C120.16,32.57 121.66,33.38 121.66,33.38 C121.23,33.4 120.91,33.53 120.91,33.53 C120.14,32.18 119.76,31.94 118.35,32.23 L118.35,32.23 Z M129.08,35.06 C128.41,34.96 127.89,34.38 127.73,33.87 C128.11,33.98 128.76,34.25 129.08,35.06 Z M126.64,34.27 C125.97,34.17 125.33,33.21 125.32,32.82 C125.89,32.96 126.61,33.76 126.64,34.27 Z M124.31,33.52 C123.64,33.26 123.2,32.15 123.26,31.8 C123.86,32.04 124.28,33.01 124.31,33.52 Z M122.68,33.31 C122.03,33.15 120.87,32.34 120.71,31.46 C121.55,31.65 122.54,32.69 122.68,33.31 Z M122.35,28.69 C122.78,29.44 122.45,30.7 122.14,30.78 C121.77,30.15 122.12,28.93 122.35,28.69 Z M121.36,30.03 C120.47,29.6 119.94,28 120,27.65 C120.98,28.28 121.33,29.52 121.36,30.03 L121.36,30.03 Z M120.9,23.49 C120.29,22.93 120.31,21.28 120.58,20.83 C121.22,21.53 121.12,22.99 120.9,23.49 Z M121.25,27.06 C120.88,26.44 121.5,24.79 121.92,24.43 C122.22,25.13 121.68,26.82 121.25,27.06 Z M120.71,26 C119.77,25.49 119.45,24.07 119.51,23.72 C120.45,24.27 120.68,25.5 120.71,26 Z M121.61,35.42 C121.97,34.98 123.83,34.34 124.46,34.84 C124.26,35.1 123.14,35.76 121.61,35.42 Z M125.06,36.22 C125.51,35.73 127.07,35.31 127.81,35.92 C127.54,36.14 126.19,36.75 125.06,36.22 Z M125.13,34.65 C122.88,33.86 120.91,34.39 120.91,34.39 L121.21,33.97 C123.05,33.71 124.2,33.89 126.4,34.65 C128.21,35.28 130.45,35.75 130.45,35.75 L129.52,35.98 C129.52,35.97 128.05,35.67 125.13,34.65 L125.13,34.65 Z M129.45,37.05 C129.07,36.88 129.13,36.48 129.13,36.48 C130.23,36.18 131.37,35.95 131.37,35.95 C131.73,36.05 131.73,36.44 131.73,36.44 C131.73,36.44 130.68,36.63 129.45,37.05 L129.45,37.05 Z M132.2,36.56 C132.16,35.39 130.74,35.39 130.74,35.39 C132.24,34.67 132.88,35.96 132.88,35.96 L132.2,36.56 Z M133.15,34.1 C134.16,34.1 134.02,34.97 133.15,35.41 C132.28,34.97 132.14,34.1 133.15,34.1 Z M134.1,36.56 L133.42,35.95 C133.42,35.95 134.06,34.66 135.56,35.38 C135.56,35.38 134.14,35.38 134.1,36.56 L134.1,36.56 Z M136.85,37.05 C135.62,36.63 134.58,36.44 134.58,36.44 C134.58,36.44 134.58,36.04 134.94,35.95 C134.94,35.95 136.08,36.18 137.17,36.48 C137.17,36.48 137.23,36.88 136.85,37.05 Z M141.24,36.22 C140.1,36.75 138.76,36.14 138.48,35.92 C139.24,35.31 140.79,35.72 141.24,36.22 Z M141.84,34.84 C142.47,34.34 144.33,34.99 144.69,35.42 C143.16,35.76 142.04,35.1 141.84,34.84 Z M141.17,34.65 C138.25,35.67 136.77,35.98 136.77,35.98 L135.84,35.75 C135.84,35.75 138.08,35.28 139.89,34.65 C142.09,33.89 143.24,33.7 145.08,33.97 L145.380038,34.39 C145.39,34.38 143.42,33.86 141.17,34.65 Z M137.22,35.06 C137.54,34.25 138.19,33.98 138.57,33.87 C138.41,34.38 137.89,34.97 137.22,35.06 Z M139.66,34.27 C139.69,33.76 140.41,32.96 140.98,32.82 C140.96,33.22 140.33,34.17 139.66,34.27 Z M141.99,33.52 C142.02,33.01 142.44,32.04 143.04,31.8 C143.1,32.15 142.66,33.26 141.99,33.52 Z M145.59,31.46 C145.43,32.34 144.27,33.15 143.62,33.31 C143.76,32.69 144.75,31.65 145.59,31.46 L145.59,31.46 Z M143.95,28.69 C144.17,28.93 144.52,30.16 144.16,30.78 C143.86,30.69 143.52,29.44 143.95,28.69 Z M144.65,33.36 C144.65,33.36 146.15,32.55 146.37,30.79 C146.37,30.79 145.54,30.74 144.55,31.4 C144.55,31.4 144.6,31.08 144.74,30.73 C144.74,30.73 146.94,29.9 146.77,26.71 C146.77,26.71 146.04,27 145.44,27.63 C145.44,27.63 145.52,27.2 145.54,26.71 C145.54,26.71 147.71,25.46 147.31,22.73 C147.31,22.73 146.1,23.05 145.49,24.63 L145.52,23.96 C145.52,23.96 147.24,22.36 145.79,19.78 C145.79,19.78 143.99,21.43 145.19,23.96 L145.16,24.66 C145.16,24.66 144.81,23.74 144.05,23.22 C144.05,23.22 143.01,25.32 144.94,27.91 C144.94,27.91 144.88,28.45 144.65,29.01 C144.65,29.01 144.39,28.26 143.84,27.49 C143.84,27.49 142.53,29.28 143.98,31.78 C143.98,31.78 143.35,32.58 143.07,33.34 L142.62,33.42 C142.62,33.42 143.72,32.52 143.43,31.09 C143.43,31.09 141.9,31.41 141.47,33.61 L140.85,33.82 C140.85,33.82 141.73,33.19 141.68,31.9 C141.68,31.9 139.89,32.41 138.83,34.44 C138.83,34.44 139.48,33.42 139.15,33.18 C139.15,33.18 137.59,33.32 136.5,35.13 C136.5,35.13 136.3,35.23 136.02,35.02 C135.3,34.48 134.41,34.68 134.41,34.68 C134.41,34.68 134.52,34.38 134.33,34.07 C139.09,33.6 142.98,32.15 143.13,26.52 L143.25,22.07 C143.25,22.07 143.75,21.88 143.91,21.62 C143.91,21.62 144.5,21.68 144.77,20.58 C144.96,19.79 144.93,19.72 145.41,19.42 C145.89,19.12 146.53,18.59 146.98,18.27 C147.52,19.28 147.25,19.57 147.57,19.96 C147.57,19.96 147.65,19.75 147.81,19.74 C148.55,20.57 148.26,20.65 148.56,21.08 C148.56,21.08 148.74,20.95 148.89,21 C149.27,21.21 149.21,21.69 149.45,21.98 C149.45,21.98 149.64,21.95 149.74,21.8 L150.2,22.37 C150.2,22.37 149.94,22.98 149.44,23.61 C148.47,24.82 148.43,24.96 148.26,25.83 C148.08,26.7 147.88,28.53 147.81,28.96 C147.75,29.39 147.93,29.68 148.19,30.14 C148.51,30.71 148.65,30.78 148.48,31.51 C148.32,32.24 148.31,32.28 147.97,32.21 C146.55,31.92 146.17,32.16 145.42,33.49 C145.4,33.51 145.08,33.38 144.65,33.36 Z M146.3,27.65 C146.36,28 145.83,29.6 144.94,30.03 C144.97,29.52 145.32,28.28 146.3,27.65 Z M145.05,27.06 C144.62,26.82 144.08,25.13 144.38,24.43 C144.8,24.79 145.42,26.44 145.05,27.06 Z M145.72,20.82 C145.99,21.27 146.01,22.93 145.4,23.48 C145.18,22.99 145.08,21.53 145.72,20.82 Z M145.59,26 C145.62,25.49 145.85,24.26 146.79,23.72 C146.85,24.08 146.54,25.5 145.59,26 Z M145.64,34.42 C145.98,34.14 146.45,34.14 146.45,34.14 C146.43,34.39 146.56,34.61 146.56,34.61 C146.23,34.57 145.64,34.42 145.64,34.42 L145.64,34.42 Z M145.68,33.94 C145.68,33.47 146.23,33.09 146.23,33.09 C146.55,33.11 146.59,33.41 146.59,33.41 C146.07,33.68 145.68,33.94 145.68,33.94 L145.68,33.94 Z M148.16,32.85 C148.48,32.93 148.7,32.81 148.82,32.36 C149.28,30.77 149.2,30.66 148.72,29.9 C148.32,29.26 148.41,29.07 148.46,28.61 C148.56,27.61 148.84,26.71 148.9,26.02 C148.96,25.32 149.07,25.08 149.37,24.77 C150.28,23.84 150.64,23.01 150.64,23.01 C150.64,23.01 151.08,23.25 151.3,24.26 C151.7,26.1 152.21,26.93 152.21,26.93 C152.21,26.93 151.83,27.44 151.57,27.71 C151.19,28.09 150.85,27.88 150.64,28.39 C150.420563,28.9595821 150.256473,29.5489677 150.15,30.15 C150.04,30.85 150.68,30.6 150.49,31.19 C150.3,31.78 150.17,32.57 149.96,33.08 C149.75,33.59 149.24,34.12 149.07,34.22 C148.75,34.39 148.58,34.14 148.58,34.14 C148.58,34.14 148.75,33.53 147.86,33.89 C148.1,33.4 147.81,32.93 146.97,33.17 C146.97,33.17 146.89,32.9 146.65,32.83 C146.95,32.6 147.34,32.64 148.16,32.85 L148.16,32.85 Z M147.59,33.72 C147.34,34.06 146.83,34.18 146.83,34.18 C146.79,33.8 147.26,33.52 147.26,33.52 C147.49,33.51 147.59,33.72 147.59,33.72 L147.59,33.72 Z M149.68,35.73 C150.31,35.23 152.34,35.99 152.7,36.48 C150.9,36.67 149.88,35.99 149.68,35.73 Z M152.42,35.35 C148.71,35.2 146.68,34.61 146.68,34.61 C146.68,34.61 147.17,34.59 147.57,34.36 C147.57,34.36 147.82,34.38 148.12,34.21 C148.12,34.21 148.42,34.82 149.24,34.57 C149.24,34.57 150.32,34.8 152.29,34.8 C152.57,34.99 152.55,35.28 152.82,35.05 C153.24,34.69 153.61,34.63 153.61,34.63 C153.61,34.63 153.76,34.82 153.69,34.95 C153.61,35.08 153.93,35.07 154.09,34.89 C154.26,34.7 154.64,34.53 154.83,34.53 C155,34.78 155.12,34.88 155.42,34.78 C156.23,34.48 156.31,34.91 156.73,34.72 C157.15,34.53 157.53,34.66 158.55,34.42 L158.76,34.72 C158.75,34.72 156.97,35.53 152.42,35.35 L152.42,35.35 Z M159.07,33.87 C158.89,33.59 159.51,33.57 159.51,33.57 C159.49,33.74 159.2,34.08 159.07,33.87 Z M159.75,32.24 C160.15,32.14 160.34,32.03 160.34,32.03 C160.34,32.03 160.39,32.65 159.64,32.96 C159.12,33.17 159.05,32.41 159.75,32.24 L159.75,32.24 Z M160.19,34.38 C159.53,34.46 159.55,33.68 160.13,33.62 C160.72,33.56 161.08,33.89 161.08,33.89 C161.08,33.89 160.68,34.32 160.19,34.38 L160.19,34.38 Z" id="path14"></path>
            <path d="M136.35,26.91 C135.71,26.91 135.19,27.41 135.19,28.04 C135.19,28.66 135.71,29.17 136.35,29.17 C136.99,29.17 137.51,28.66 137.51,28.04 C137.5,27.41 136.98,26.91 136.35,26.91 Z M136.35,28.7 C135.97,28.7 135.67,28.4 135.67,28.03 C135.67,27.66 135.98,27.36 136.35,27.36 C136.73,27.36 137.03,27.66 137.03,28.03 C137.03,28.4 136.72,28.7 136.35,28.7 Z" id="path16"></path>
        </g>
    </g>
</svg>